<svg width="1920" height="1124" viewBox="0 0 1920 1124" fill="none" xmlns="http://www.w3.org/2000/svg">
<g clip-path="url(#clip0_360_1173)">
<rect x="1448" y="-47" width="494" height="448" fill="#F8D548"/>
<path d="M899.529 -844.167C998.609 -388.489 1342.65 6.16241 1780.56 166.459C2237.96 333.897 2749.12 252.013 3224.84 356.632C3564.77 431.383 3882.74 603.344 4131.38 846.899C4337.91 1049.19 4503.41 1341.79 4420.92 1618.85C4347.87 1864.22 4108.96 2014.46 3895.4 2155.65C3681.85 2296.85 3457.04 2484.53 3442.7 2740.14C3419.66 3150.63 3931.28 3385.94 4060.5 3776.24C4147.74 4039.78 4037.11 4341.28 3836.21 4532.87C3635.31 4724.47 3359.33 4819.66 3084.56 4859.37C2257.62 4978.89 1378.19 4604.43 891.22 3925.46C538.341 3433.42 364.776 2786.79 -136.322 2446.88C-453.955 2231.42 -854.593 2177.5 -1192.72 1995.89C-1689.41 1729.12 -2010.23 1197.68 -2110.01 642.785C-2209.78 87.8815 -2109.2 -487.452 -1920.48 -1018.73C-1705.07 -1625.16 -1363.27 -2203.4 -852.448 -2594.83C-341.613 -2986.26 355.033 -3166.55 965.407 -2962.62C1135.71 -2905.71 1304.89 -2812.86 1394.7 -2657.35C1594.61 -2311.14 1217.98 -2108.89 1067.15 -1853.33C890.068 -1553.31 825.351 -1185.39 899.529 -844.167Z" fill="#E2C13D"/>
<path d="M720.212 -2671.62C882.812 -2619.41 1041.48 -2532.35 1126.52 -2386.44C1285.42 -2113.25 1065.85 -1930.59 916.431 -1735.55C889.276 -1700.18 864.363 -1664.36 844.318 -1627.43C690.912 -1345.46 641.475 -1003.26 719.059 -686.605C759.426 -521.921 833.769 -366.007 933.809 -228.128C1090.77 -11.8914 1311.1 160.108 1563.37 252.387C1994.93 410.244 2476.21 338.544 2923.92 441.441C3123.06 487.219 3316.88 569.052 3478.26 683.987C3595.1 767.098 3693.87 863.804 3787.38 971.624C3816.79 1005.72 3845.89 1041.87 3874.46 1079.62C3948.46 1177.26 4018.01 1282.85 4062.94 1391.38C4109.26 1503.95 4133.98 1621.88 4104.87 1739.22C4048.33 1967.2 3824.73 2104.85 3631.57 2236.55C3438.42 2368.27 3234.52 2542.39 3221.31 2778.15C3200.07 3156.99 3675.15 3372.68 3776.33 3734.88C3816.62 3879.12 3783.21 4024.83 3716.94 4155.02C3666.99 4252.83 3594.2 4342.88 3506.3 4414.53C3301.63 4581.53 3028.31 4657.45 2756.86 4689.82C1983.66 4782.07 1165.03 4444.83 702.851 3819.19C367.812 3365.75 196.275 2770.86 -272.145 2453.23C-573.807 2248.73 -949.995 2189.35 -1267.64 2012.53C-1734.31 1752.66 -2037.38 1249.16 -2133.3 722.338C-2227.32 203.684 -2136.37 -334.332 -1962.54 -831.77C-1764.1 -1399.73 -1447.08 -1941.38 -972.821 -2310.57C-773.449 -2465.79 -543.59 -2586.63 -301.622 -2661.25C31.9647 -2764.06 388.592 -2778.11 720.212 -2671.62Z" fill="#FFDF60"/>
<path d="M472.514 -2382.99C627.425 -2335.5 775.571 -2254.22 855.818 -2117.91C1004.44 -1864.53 809.112 -1689.12 680.617 -1505.41C657.237 -1472.15 635.903 -1438.51 618.988 -1403.89C489.252 -1139.97 455.083 -823.495 536.086 -531.411C578.232 -379.497 651.184 -235.851 747.325 -108.795C898.25 90.5256 1106.53 249.274 1343.67 335.94C1749.41 484.208 2200.71 423.153 2620.51 523.897C2821.62 572.157 3019.48 659.682 3169.09 785.792C3277.38 876.881 3358.57 980.41 3440.88 1093.98C3466.93 1129.94 3493.2 1167.82 3520.41 1207.01C3590.82 1308.16 3665.09 1412.6 3716.79 1518.07C3770.16 1626.95 3809.2 1740.76 3786.31 1857.22C3745.1 2067 3537.98 2192.89 3365.23 2315.09C3192.49 2437.34 3009.48 2597.89 2997.41 2813.81C2977.98 3160.99 3415.57 3358.21 3489.66 3691.15C3520.54 3829.9 3468.29 3957.79 3394.9 4070.48C3339.46 4155.11 3263.47 4232.74 3173.89 4293.81C2965.44 4436.22 2695.01 4493.03 2426.67 4517.91C1707.77 4584.54 949.378 4282.86 511.957 3710.54C194.783 3295.72 25.2696 2752.56 -410.491 2457.22C-696.178 2263.66 -1047.89 2198.85 -1345.04 2026.81C-1781.73 1773.85 -2067.04 1298.26 -2159.1 799.524C-2247.37 317.118 -2166.05 -183.566 -2007.11 -647.175C-1825.62 -1176.66 -1533.41 -1681.73 -1095.72 -2028.67C-911.678 -2174.6 -699.495 -2289.04 -475.706 -2361.22C-167.336 -2460.54 163.167 -2477.82 472.514 -2382.99Z" fill="#E2C13D"/>
<path d="M221.134 -2097.39C368.382 -2054.65 505.966 -1979.12 581.443 -1852.4C719.753 -1618.85 549.049 -1450.47 441.136 -1278.3C421.57 -1247.1 403.822 -1215.66 389.974 -1183.39C284.407 -937.295 265.031 -646.753 349.424 -379.237C393.349 -240.092 464.917 -108.722 557.138 7.50683C702.045 189.901 898.263 335.416 1120.3 416.473C1500.2 555.153 1921.45 505.172 2313.39 603.311C2516.48 654.175 2718.39 747.293 2856.24 884.569C2955.99 983.642 3019.41 1094.19 3090.69 1213.33C3113.35 1251.18 3136.84 1290.74 3162.7 1331.38C3229.48 1436.04 3308.34 1539.39 3366.94 1641.73C3427.21 1746.98 3480.71 1855.99 3464.07 1972.2C3436.78 2162.99 3247.56 2277.89 3095.2 2390.6C2942.87 2503.37 2780.76 2650.36 2769.82 2846.43C2752.2 3161.96 3150.82 3342.04 3199.3 3644.39C3220.8 3778.47 3149.68 3887.73 3069.15 3982.92C3008.24 4054.36 2929.07 4119.57 2837.79 4170.08C2625.57 4287.9 2358.28 4325.84 2092.78 4342.97C1428.72 4385.8 730.026 4117.86 317.381 3598.87C18.0631 3222.66 -149.431 2731.24 -552.497 2458.19C-822.238 2275.58 -1149.49 2205.32 -1426.14 2038.06C-1832.81 1792 -2100.37 1344.35 -2188.59 873.697C-2271.09 427.517 -2199.42 -35.825 -2055.36 -465.6C-1890.86 -956.609 -1623.42 -1425.1 -1222.29 -1749.8C-1053.59 -1886.42 -859.084 -1994.5 -653.471 -2064.22C-370.319 -2160.04 -65.9015 -2180.7 221.134 -2097.39Z" fill="#FFDF60"/>
<path d="M-36.5495 -1817.6C103.081 -1779.65 230.072 -1709.81 300.764 -1592.7C428.788 -1378.97 282.463 -1217.8 195.336 -1057C179.566 -1027.9 165.399 -998.631 154.665 -968.682C72.9295 -740.617 68.6681 -475.815 156.459 -232.875C202.184 -106.495 272.352 12.5867 360.676 118.008C499.544 283.471 683.704 415.729 890.628 491.179C1244.7 620.291 1635.82 581.796 1999.99 676.927C2205.05 730.488 2411.03 829.089 2537.1 977.54C2628.31 1084.59 2673.92 1202.19 2734.21 1326.85C2753.45 1366.63 2774.19 1407.86 2798.66 1449.94C2861.86 1558.1 2945.25 1660.36 3010.8 1759.59C3077.94 1861.2 3145.78 1964.84 3135.54 2081.36C3120.52 2252.46 2950.83 2357.09 2818.88 2460.3C2686.95 2563.59 2545.74 2697.04 2535.92 2873.25C2520.13 3157.13 2877.68 3321.46 2902.65 3591.82C2914.68 3722.18 2824.99 3812.09 2737.13 3889.55C2670.89 3947.98 2588.35 4000.6 2495.4 4040.52C2279.39 4133.76 2015.48 4153.18 1752.6 4162.22C1143.85 4183.15 504.393 3947.05 116.501 3481.39C-164.938 3143.8 -330.415 2704.1 -700.815 2453.33C-954.585 2281.69 -1257.37 2205.98 -1513.53 2043.48C-1890.21 1804.34 -2140.01 1384.62 -2224.36 942.043C-2301.11 532.118 -2239.09 106.102 -2109.91 -289.844C-1962.37 -742.374 -1719.72 -1174.28 -1355.17 -1476.74C-1201.79 -1604.06 -1024.96 -1705.75 -837.535 -1773.03C-579.598 -1865.35 -301.18 -1889.51 -36.5495 -1817.6Z" fill="#F8D548"/>
<path d="M-296.515 -1540C-164.481 -1506.91 -47.8764 -1442.87 17.8092 -1335.2C135.952 -1141.54 13.5779 -987.357 -52.7384 -837.899C-64.7264 -810.9 -75.306 -783.808 -82.9337 -756.184C-140.849 -546.186 -129.977 -307.08 -38.7959 -88.7089C8.72222 24.9002 77.4989 131.714 161.918 226.306C294.769 374.857 466.865 493.868 658.673 563.71C986.899 683.234 1347.8 656.635 1684.3 748.339C1891.3 804.745 2101.35 908.691 2215.67 1068.31C2298.34 1183.34 2326.1 1308.02 2375.43 1438.18C2391.24 1479.89 2409.24 1522.78 2432.35 1566.3C2491.95 1677.97 2579.86 1779.16 2652.38 1875.23C2726.36 1973.25 2808.27 2070.89 2804.71 2188.33C2800.16 2339.13 2651.83 2434.09 2540.27 2527.8C2428.74 2621.62 2308.43 2741.5 2299.76 2897.87C2285.77 3150.09 2554.6 3305.16 2603.71 3537.06C2581.76 3662.8 2497.78 3734.06 2402.82 3793.99C2331.08 3839.27 2245.37 3879.44 2150.72 3908.77C1930.94 3977.42 1670.59 3978.77 1410.13 3979.27C857.087 3980.34 276.462 3774.04 -86.6454 3361.72C-350.238 3062.72 -513.694 2674.78 -851.423 2446.29C-1089.23 2285.58 -1367.55 2204.44 -1603.21 2046.73C-1949.9 1814.48 -2182.77 1422.87 -2262.43 1008.2C-2334.19 634.666 -2281.02 245.832 -2166.74 -116.278C-2036.17 -530.335 -1818.31 -925.651 -1490.32 -1205.88C-1352.29 -1323.89 -1193.13 -1419.2 -1023.89 -1484.04C-791.168 -1572.88 -538.679 -1600.69 -296.515 -1540Z" fill="#E2C13D"/>
<path d="M-561.489 -1267.06C-437.008 -1238.91 -331.048 -1180.43 -270.161 -1082.36C-162.271 -908.543 -260.335 -761.623 -305.821 -623.45C-314.02 -598.558 -321.021 -573.652 -325.541 -548.337C-359.682 -356.444 -333.63 -142.999 -239.038 50.7955C-189.747 151.643 -122.355 246.181 -41.8481 329.953C84.9709 461.579 245.01 567.333 421.708 631.575C724.099 741.518 1054.69 727.203 1363.6 815.107C1572.5 874.532 1786.68 983.633 1889.23 1154.44C1963.36 1277.44 1973.24 1409.23 2011.66 1544.85C2024.01 1588.5 2039.29 1633.05 2061.05 1678.01C2117.03 1793.17 2209.42 1893.29 2288.92 1986.21C2354.63 2062.98 2435.15 2149.27 2457.24 2251.2C2488.31 2394.61 2350.55 2503.9 2256.66 2590.65C2165.54 2674.99 2066.13 2781.31 2058.58 2917.84C2046.4 3138.41 2266.68 3277.42 2299.76 3477.64C2263.46 3598.46 2165.53 3651.37 2063.51 3693.77C1986.25 3725.88 1897.37 3753.61 1801.03 3772.38C1577.48 3816.43 1320.85 3800.32 1062.66 3791.66C565.579 3775.01 43.5255 3596.39 -294.814 3237.39C-540.544 2976.99 -701.974 2640.79 -1007.03 2434.58C-1228.88 2284.83 -1482.73 2198.25 -1697.9 2045.31C-2014.58 1819.97 -2229.8 1456.31 -2305.5 1069.7C-2371.56 732.431 -2327.98 380.903 -2228.58 52.6352C-2114.98 -322.963 -1921.91 -681.672 -1630.49 -939.666C-1507.79 -1048.38 -1366.31 -1137.31 -1215.24 -1199.69C-1007.75 -1285.05 -781.106 -1316.73 -561.489 -1267.06Z" fill="#F8D548"/>
<path d="M-828.604 -996.973C-711.63 -973.877 -616.375 -920.857 -560.27 -832.359C-462.668 -678.38 -536.42 -538.774 -561.044 -411.861C-565.471 -389.088 -568.899 -366.36 -570.281 -343.345C-580.711 -169.607 -539.431 18.2314 -441.441 187.449C-390.351 275.518 -324.357 357.796 -247.748 430.745C-126.969 545.441 21.0144 637.952 182.602 696.58C459.164 796.947 759.338 795.295 1040.76 879C1251.5 941.682 1469.86 1055.72 1560.65 1237.7C1626.24 1368.68 1618.18 1507.58 1645.74 1648.67C1654.63 1694.26 1667.19 1740.47 1687.58 1786.86C1739.97 1905.54 1836.84 2004.63 1923.37 2094.37C2010.97 2185.22 2093.7 2274.74 2130.92 2390.1C2117.94 2498.91 2041.66 2575.92 1970.91 2650.65C1900.2 2725.5 1821.67 2818.27 1815.26 2934.94C1804.89 3123.86 1976.61 3246.82 1993.67 3415.37C1943.01 3531.25 1831.14 3565.78 1722.05 3590.69C1639.26 3609.6 1547.23 3624.91 1449.21 3633.12C1221.87 3652.57 969.065 3619.88 713.033 3601.21C272.035 3569.05 -191.548 3415.86 -505.118 3110.2C-732.99 2888.43 -892.389 2603.94 -1164.79 2420.02C-1370.66 2281.23 -1600.05 2189.21 -1794.73 2041.05C-2081.4 1822.61 -2278.92 1486.89 -2350.73 1128.34C-2411.02 827.324 -2377.08 513.122 -2292.56 218.689C-2195.93 -118.428 -2027.65 -440.559 -1772.79 -676.315C-1665.43 -775.719 -1541.61 -858.261 -1408.75 -918.203C-1226.46 -1000.07 -1025.58 -1035.86 -828.604 -996.973Z" fill="#FFDF60"/>
<path d="M-1093.91 -732.747C-984.414 -714.874 -899.902 -667.124 -848.561 -588.226C-761.288 -454.063 -810.786 -321.845 -814.456 -206.129C-815.118 -185.482 -814.977 -164.91 -813.217 -144.216C-800.033 11.3252 -743.407 173.588 -642.018 318.245C-589.17 393.553 -524.547 463.539 -451.85 525.668C-337.095 623.445 -201.176 702.708 -54.6978 755.735C196.021 846.515 465.676 857.871 719.74 937.042C932.225 1003.26 1154.85 1121.95 1233.87 1315.1C1290.92 1454.06 1264.88 1600.06 1281.62 1746.62C1287.04 1794.15 1296.9 1842.03 1315.92 1889.85C1364.72 2012.04 1466.04 2110.11 1559.59 2196.66C1653.98 2283.97 1747.18 2368.84 1794.75 2483.7C1790.35 2572.99 1737.29 2639.55 1686.95 2704.78C1636.64 2770.16 1579.02 2849.37 1573.75 2946.19C1565.2 3103.46 1688.35 3210.37 1689.39 3347.24C1624.38 3458.17 1498.56 3474.29 1382.39 3481.75C1294.09 3487.44 1198.9 3490.37 1099.18 3488C868.074 3482.87 619.005 3434.83 365.228 3404.9C-19.813 3359.47 -424.821 3229.49 -713.615 2977.16C-923.633 2793.98 -1081.01 2561.24 -1320.74 2399.61C-1510.65 2271.76 -1715.57 2174.3 -1889.75 2030.92C-2146.43 1819.38 -2326.15 1511.6 -2394.14 1181.14C-2448.61 916.339 -2424.37 639.484 -2354.74 378.887C-2275.07 80.2347 -2131.58 -205.311 -1913.29 -418.82C-1821.27 -508.939 -1715.12 -585.086 -1600.44 -642.577C-1443.37 -720.954 -1268.18 -761.185 -1093.91 -732.747Z" fill="#E2C13D"/>
<path d="M-1354.63 -476.323C-1252.56 -463.921 -1178.87 -421.181 -1132.29 -351.892C-1055.37 -237.5 -1080.69 -112.704 -1063.29 -8.19711C-1060.22 10.3345 -1056.48 28.7116 -1051.58 47.1279C-1014.91 184.493 -942.813 321.153 -838.028 441.234C-783.379 503.777 -720.155 561.49 -651.356 612.796C-542.641 693.642 -418.763 759.662 -287.416 807.082C-62.5258 888.287 176.481 912.99 403.302 987.291C617.397 1057.43 844.437 1180.38 911.689 1384.71C960.2 1531.64 916.125 1684.74 922.096 1836.78C924.027 1886.25 931.209 1935.78 948.864 1985.04C994.045 2110.73 1099.67 2207.99 1200.42 2291.14C1301.44 2375.1 1405.23 2455.12 1463.17 2569.5C1467.35 2639.29 1437.53 2695.38 1407.59 2751.12C1377.69 2807.02 1340.97 2872.67 1336.82 2949.63C1330.08 3075.26 1404.68 3166.12 1389.69 3271.3C1310.33 3377.29 1170.59 3374.78 1047.33 3365.02C953.53 3357.3 855.149 3348.03 753.754 3335.08C518.864 3305.36 273.196 3243.8 21.9982 3200.78C-307.538 3144.35 -653.511 3035.33 -917.538 2836.32C-1109.68 2691.75 -1265.03 2510.74 -1472.09 2371.39C-1646.05 2254.5 -1826.5 2151.59 -1980.2 2012.98C-2206.85 1808.35 -2368.69 1528.48 -2432.96 1226.12C-2481.53 997.545 -2467.07 758.038 -2412.33 531.275C-2349.62 271.103 -2230.93 22.1369 -2049.22 -169.125C-1972.51 -249.933 -1884.06 -319.711 -1787.55 -374.751C-1655.69 -449.633 -1506.11 -494.711 -1354.63 -476.323Z" fill="#FFDF60"/>
<path d="M-1651.29 -177.006C-1556.62 -170.494 -1493.82 -132.313 -1451.94 -72.675C-1385.45 21.9695 -1386.66 139.407 -1348.06 232.627C-1341.27 249.043 -1333.95 265.257 -1325.86 281.334C-1265.86 400.653 -1178.15 511.602 -1069.96 607.113C-1013.53 656.887 -951.698 702.332 -886.805 742.81C-784.114 806.737 -672.3 859.508 -556.062 901.328C-357.01 972.938 -148.776 1011.31 50.9113 1080.42C266.434 1155 498.074 1281.7 553.564 1497.2C593.54 1652.11 531.217 1812.27 526.631 1969.83C524.998 2021.21 529.574 2072.42 545.862 2123.12C587.455 2252.31 697.582 2348.53 805.298 2428.51C913.149 2508.9 1044.63 2575.57 1095.66 2698.19C1115.6 2746.08 1101.84 2794.09 1092.29 2840.33C1082.8 2886.75 1066.98 2938.85 1063.97 2995.97C1059.03 3089.94 1097.34 3171.24 1054.07 3238.26C979.297 3354.02 806.724 3318.43 676.329 3291.16C577.037 3270.26 475.464 3248.57 372.392 3225.05C133.716 3170.74 -109.383 3098.38 -357.161 3039.55C-632.159 2974.25 -918.118 2884.03 -1157.38 2738.35C-1331.67 2632.39 -1484.99 2503.12 -1659.39 2386.06C-1817.37 2280.12 -1973.36 2171.77 -2106.57 2037.94C-2303.22 1840.2 -2446.47 1588.1 -2507.71 1313.99C-2549.9 1121.53 -2545.71 919.49 -2505.85 726.556C-2460.13 504.858 -2366.21 292.483 -2221.05 123.459C-2159.69 51.9453 -2088.91 -11.4392 -2010.59 -64.048C-1903.96 -135.432 -1779.98 -185.863 -1651.29 -177.006Z" fill="#E2C13D"/>
</g>
<defs>
<clipPath id="clip0_360_1173">
<rect width="1920" height="1381" fill="white"/>
</clipPath>
</defs>
</svg>
