<svg width="1920" height="3001" viewBox="0 0 1920 3001" fill="none" xmlns="http://www.w3.org/2000/svg">
<mask id="mask0_515_375" style="mask-type:alpha" maskUnits="userSpaceOnUse" x="0" y="0" width="1921" height="3001">
<path fill-rule="evenodd" clip-rule="evenodd" d="M29.2167 69.4664L92.8846 81H0V81.3749V490.234V2785L3.65972e-06 2959.14H25.5646L7.3042 2966.75L36.5209 2964.85L25.5646 2966.75H83.998C86.9197 2966.75 75.4766 2969.29 69.3898 2970.55H113.215C121.98 2970.55 109.563 2973.09 102.259 2974.36H131.475L120.519 2980.07L153.388 2978.17L157.04 2985.78L171.648 2983.87L164.344 2991.49C170.431 2992.12 183.335 2993.39 186.257 2993.39C189.178 2993.39 199.648 2988.31 204.517 2985.78L193.561 2995.29H208.169L222.778 2985.78H237.386L230.082 2991.49H241.038L248.342 2987.68L266.603 2985.78L259.298 2991.49H430.947L423.643 2993.39L467.468 2995.29V2993.39H518.597L522.249 2989.58H533.205L547.814 2985.78H577.03L569.726 2989.58L609.899 2987.68L602.595 2989.58H668.333H708.506L704.854 2993.39L723.114 2991.49L719.462 2995.29H734.07L730.418 2997.19H788.852L796.156 3001L810.764 2995.29H825.373L810.764 3001C833.894 3000.37 881.615 2999.1 887.458 2999.1C893.302 2999.1 877.719 2996.56 869.198 2995.29L945.892 2997.19L931.283 3001H971.456L975.108 2999.1H1015.28L1004.33 2995.29L1070.06 2997.19L1066.41 2993.39L1132.15 2991.49V2993.39H1146.76L1135.8 2999.1L1249.02 2997.19L1241.71 2993.39H1311.1L1322.06 2991.49H1336.67L1358.58 2980.07L1347.62 2991.49L1380.49 2983.87L1395.1 2980.07L1387.79 2985.78L1409.71 2980.07L1413.36 2983.87L1431.62 2978.17V2972.46H1457.18H1475.44L1490.05 2968.65L1486.4 2972.46H1515.62L1511.97 2968.65H1555.79L1544.83 2966.75L1588.66 2962.94H1471.79L1457.18 2957.23H1515.62V2953.43H1585.01L1574.05 2947.72H1665.35L1676.31 2945.82H1694.57C1700.41 2945.82 1689.7 2948.35 1683.61 2949.62H1720.14L1712.83 2945.82L1804.13 2949.62L1793.18 2953.43H1891.78L1880.83 2942.01L1847.96 2934.4H1891.78L1826.05 2922.98H1921V2531H1920V490.234H1921V43.6646H1895.44L1913.7 35.7256L1884.48 37.7103L1895.44 35.7256H1837C1834.08 35.7256 1845.52 33.0792 1851.61 31.7561H1807.79C1799.02 31.7561 1811.44 29.1097 1818.74 27.7866H1789.52L1800.48 21.8323L1767.61 23.8171L1763.96 15.878L1749.35 17.8628L1756.66 9.92377C1750.57 9.26219 1737.67 7.93902 1734.74 7.93902C1731.82 7.93902 1721.35 13.2317 1716.48 15.878L1727.44 5.95426H1712.83L1698.22 15.878H1683.61L1690.92 9.92377H1679.96L1672.66 13.8933L1654.4 15.878L1661.7 9.92377H1490.05L1497.36 7.93902L1453.53 5.95426V7.93902H1402.4L1398.75 11.9085H1387.79L1373.19 15.878H1343.97L1351.27 11.9085L1311.1 13.8933L1318.4 11.9085H1252.67H1212.49L1216.15 7.93902L1197.89 9.92377L1201.54 5.95426H1186.93L1190.58 3.96951H1132.15L1124.84 0L1110.24 5.95426H1095.63L1110.24 0C1087.11 0.661585 1039.39 1.98475 1033.54 1.98475C1027.7 1.98475 1043.28 4.63109 1051.8 5.95426L975.108 3.96951L989.717 0H949.544L945.892 1.98475H905.719L916.675 5.95426L850.937 3.96951L854.589 7.93902L788.852 9.92377V7.93902H774.243L785.2 1.98475L671.985 3.96951L679.289 7.93902H609.899L598.943 9.92377H584.335L562.422 21.8323L573.378 9.92377L540.51 17.8628L525.901 21.8323L533.205 15.878L511.293 21.8323L507.641 17.8628L489.38 23.8171V29.7713H463.816H445.555L430.947 33.7408L434.599 29.7713H405.382L409.034 33.7408H365.209L376.165 35.7256L332.34 39.6951H449.207L463.816 45.6493H405.382V49.6189H335.992L346.949 55.5731H255.646L244.69 57.5579H226.43C220.586 57.5579 231.299 54.9115 237.386 53.5884H200.865L208.169 57.5579L116.867 53.5884L127.823 49.6189H29.2167L40.173 61.5274L73.0418 69.4664H29.2167Z" fill="#F8D548"/>
</mask>
<g mask="url(#mask0_515_375)">
<rect x="-91" y="51" width="2234" height="2900" fill="#F8D548"/>
<rect x="-15.999" y="-35" width="1921" height="292" fill="#F8D548"/>
<rect x="-16" y="2698" width="1937" height="323" fill="#F8D548"/>
<path d="M2486 1477.37V1784.51C2484.71 1787.49 2483.41 1790.46 2482.07 1793.55C2480.74 1793.55 2479.69 1793.71 2478.72 1793.52C2461.14 1790.04 2443.58 1786.5 2426.32 1781.53C2385.71 1769.82 2346.73 1754.31 2310.2 1732.98C2275.38 1712.65 2242.17 1690.04 2211.43 1663.96C2183.75 1640.47 2156.33 1616.67 2127.4 1594.68C2100.96 1574.59 2075.08 1553.77 2047.3 1535.49C2004.35 1507.23 1959.02 1484.01 1909.16 1470.18C1884.54 1463.35 1859.39 1459.62 1834.01 1457.12C1817.39 1455.48 1800.81 1455.94 1784.16 1456.98C1754.79 1458.82 1725.63 1462.16 1697 1469.03C1676.81 1473.87 1656.81 1479.56 1636.76 1485.01C1600.67 1494.84 1564.63 1504.83 1529.03 1516.35C1514.45 1521.07 1499.97 1526.18 1485.17 1530.07C1461.81 1536.21 1438.27 1541.66 1414.72 1547.04C1396.49 1551.19 1378.21 1555.25 1359.81 1558.53C1346.01 1560.98 1332 1562.23 1318.06 1563.82C1297.13 1566.2 1276.15 1567.76 1255.05 1567.4C1242.57 1567.19 1230.08 1567.45 1217.61 1567.24C1209.3 1567.1 1200.98 1566.62 1192.7 1566.06C1185.18 1565.56 1177.69 1564.67 1170.18 1564.07C1151.78 1562.63 1133.37 1561.39 1115.2 1557.89C1108.58 1556.62 1101.88 1555.56 1095.15 1555C1074.56 1553.3 1054.62 1549.06 1035.26 1541.71C1007.79 1531.27 981.224 1518.87 954.715 1506.29C951.456 1504.75 948.03 1503.53 944.679 1502.15C941.631 1500.4 938.606 1498.58 935.49 1496.93C934.772 1496.56 933.728 1496.78 932.003 1496.68C935.044 1502.29 937.54 1507.19 941.14 1511.45C941.737 1512.02 942.342 1512.58 942.94 1513.15L942.826 1513.03C943.386 1514.1 943.938 1515.16 944.498 1516.23L944.414 1516.15C944.77 1517.89 945.443 1519.33 947.561 1519.35L947.515 1519.28C946.895 1521.89 948.529 1523.72 949.807 1525.62C966.968 1551.21 983.977 1576.89 1001.41 1602.28C1007.41 1611.01 1013.98 1619.46 1021.16 1627.24C1048.34 1656.7 1078.95 1682.22 1112.63 1704.08C1113.71 1704.79 1114.83 1705.44 1115.95 1706.12C1139.24 1720.41 1163.98 1731.86 1189.22 1742.21C1231.31 1759.49 1274.53 1773.52 1318.3 1785.89C1369.31 1800.29 1420.16 1815.14 1469.79 1833.81C1486.08 1839.93 1502.37 1846.06 1518.4 1852.81C1549.58 1865.94 1579.12 1882.3 1608.19 1899.42C1622.92 1908.1 1637 1917.92 1651.07 1927.66C1673.27 1943.03 1694.5 1959.64 1714.15 1978.18C1721.69 1985.29 1729.46 1992.19 1736.7 1999.59C1743.77 2006.81 1750.16 2014.66 1757.05 2022.04C1775.33 2041.63 1790.87 2063.29 1805.53 2085.57C1820.21 2107.87 1833.28 2131.08 1844.02 2155.54C1851 2171.41 1858.11 2187.24 1863.29 2203.79C1871.32 2229.44 1879.05 2255.19 1886.9 2280.9C1892.56 2299.44 1897.79 2318.12 1903.95 2336.5C1912.1 2360.76 1920.82 2384.81 1930.79 2408.43C1941.46 2433.74 1953.56 2458.34 1967.4 2482.04C1982.42 2507.74 1998.89 2532.55 2018 2555.52C2029.92 2569.85 2041.84 2584.19 2054.88 2597.55C2067.93 2610.92 2082.14 2623.04 2096.33 2635.15C2105.21 2642.72 2114.41 2649.87 2124.48 2655.9C2148.3 2670.19 2172.7 2683.44 2197.43 2696.1C2224.94 2710.17 2252.93 2723.25 2281.4 2735.26C2313.74 2748.88 2346.81 2760.54 2380.52 2770.28C2409.21 2778.57 2438.26 2785.5 2467.61 2791.19C2473.71 2792.38 2479.87 2793.31 2486 2794.35V3041H2088.14C2087.41 3038.41 2084.9 3037.8 2082.99 3036.64C2050.56 3016.95 2019.29 2995.52 1989.02 2972.77C1962.29 2952.66 1936.46 2931.35 1910.41 2910.36C1888.73 2892.89 1869.49 2872.87 1851.24 2851.98C1833.35 2831.46 1816.87 2809.85 1801.75 2787.18C1766.49 2734.29 1740.88 2677.34 1726.7 2615.35C1718.85 2581.02 1712.98 2546.42 1710.35 2511.3C1709.02 2493.51 1707.67 2475.73 1706.02 2457.98C1704.68 2443.57 1703.02 2429.18 1701.27 2414.82C1697.54 2384.3 1693.95 2353.76 1688.67 2323.44C1681.58 2282.76 1669.67 2243.52 1654.31 2205.25C1652.67 2201.18 1650.8 2197.19 1648.84 2193.25C1637.21 2169.79 1624.12 2147.23 1608.17 2126.34C1597.31 2112.11 1586.39 2097.92 1573.41 2085.56C1547.08 2060.46 1518.83 2037.7 1488.08 2018.09C1470.56 2006.91 1452.19 1997.21 1434.11 1987C1395.69 1965.28 1357.19 1943.73 1317.56 1924.21C1297.74 1914.45 1278.57 1903.55 1259.85 1891.86C1249.94 1885.68 1240.21 1879.19 1230.16 1873.27C1198.08 1854.36 1168.12 1832.58 1139.59 1808.77C1128.03 1799.12 1116.76 1789.17 1106.11 1778.55C1084.1 1756.57 1062.19 1734.53 1042.57 1710.31C1031.32 1696.41 1019.62 1682.92 1009.41 1668.21C1004.84 1661.62 999.693 1655.43 994.641 1649.2C984.824 1637.07 976.043 1624.3 969.532 1610.09C966.295 1603.03 963.073 1595.97 959.994 1588.85C950.14 1566.04 942.161 1542.53 933.834 1519.15C932.714 1515.99 931.731 1512.79 929.508 1510.17C928.797 1506.94 928.169 1503.69 927.322 1500.5C927.11 1499.71 926.21 1499.1 924.932 1497.57C923.215 1504.2 920.901 1509.6 921.029 1515.6C920.046 1518.79 918.791 1521.93 918.125 1525.18C911.424 1557.83 904.663 1590.46 898.28 1623.16C895.95 1635.07 894.453 1647.15 894.49 1659.33C894.536 1675.08 894.558 1690.82 895.67 1706.58C896.691 1721.04 898.87 1735.27 900.889 1749.59C904.595 1775.88 912.256 1801.02 921.256 1825.84C928.661 1846.27 937.305 1866.22 946.517 1885.9C962.415 1919.89 980.074 1952.99 998.354 1985.77C1008.94 2004.75 1019.75 2023.63 1029.7 2042.95C1042.26 2067.32 1054.16 2092.03 1066.1 2116.72C1071.17 2127.19 1075.66 2137.94 1080.32 2148.61C1094.86 2181.89 1105.15 2216.59 1114.54 2251.56C1124.35 2288.07 1130.53 2325.25 1133.53 2362.92C1134.72 2377.83 1135.31 2392.8 1136.12 2407.75C1136.8 2420.42 1135.33 2433.03 1134.73 2445.67C1134.32 2454.43 1133.89 2463.23 1132.87 2471.93C1130 2496.58 1125.64 2520.99 1119.78 2545.12C1114.16 2568.26 1106.6 2590.79 1097.98 2613.01C1089.63 2634.51 1079.67 2655.25 1068.71 2675.52C1055.3 2700.33 1041.35 2724.85 1028.08 2749.73C1012.48 2778.96 997.734 2808.6 984.96 2839.19C970.174 2874.6 958.27 2910.85 949.769 2948.28C942.819 2978.87 939.249 3009.84 936.7 3041H629.336C627.37 3037.54 622.635 3038.44 620.411 3035.51C620.306 3034.9 620.071 3034.38 620.154 3033.9C621.138 3028.57 622.091 3023.23 623.195 3017.92C632.505 2973.14 646.935 2930.1 667.946 2889.38C689.742 2847.13 716.175 2807.87 746.791 2771.43C771.62 2741.87 797.441 2713.14 820.917 2682.46C840.271 2657.15 860.26 2632.34 878.268 2606.02C899.414 2575.12 916.552 2542.1 931.557 2507.93C933.637 2503.21 935.392 2498.32 936.965 2493.4C940.436 2482.57 944.014 2471.75 946.963 2460.77C953.006 2438.25 956.288 2415.22 958.588 2392.05C960.229 2375.53 959.836 2359.04 958.777 2342.48C956.894 2313.02 953.558 2283.76 946.555 2255.06C941.646 2234.98 935.966 2215.08 930.476 2195.16C920.16 2157.78 909.685 2120.44 897.478 2083.61C891.223 2064.71 884.749 2045.88 880.219 2026.46C875.636 2006.83 870.916 1987.23 866.5 1967.56C862.99 1951.93 859.458 1936.28 856.683 1920.51C854.452 1907.81 853.264 1894.91 851.736 1882.08C849.271 1861.28 847.403 1840.44 847.698 1819.45C847.887 1806.27 847.637 1793.08 847.856 1779.9C848 1771.12 848.507 1762.34 849.082 1753.58C849.535 1746.62 850.39 1739.69 850.98 1732.74C852.5 1714.72 853.415 1696.64 856.993 1678.83C858.468 1671.5 859.549 1664.05 860.192 1656.59C861.969 1636.12 866.159 1616.27 873.73 1597.08C881.331 1577.81 889.62 1558.87 898.62 1540.23C902.333 1532.54 906.077 1524.87 909.738 1517.15C910.35 1515.86 911.485 1514.47 910.131 1512.93L910.048 1513.04C911.727 1513.6 911.659 1512.39 911.772 1511.36L911.636 1511.59C913.406 1510.72 913.126 1509.02 913.338 1507.51C914.563 1503.25 919.26 1500.41 918.632 1494.76C912.929 1496.77 908.361 1499.9 903.959 1503.32C902.893 1503.99 901.834 1504.66 900.768 1505.32L900.859 1505.26C900.299 1505.78 899.739 1506.32 899.172 1506.84L899.263 1506.75C898.711 1507.29 898.166 1507.83 897.614 1508.37L897.69 1508.3C896.238 1508.07 895.126 1508.5 894.506 1509.9L894.536 1509.86C892.653 1510.66 890.588 1511.18 888.901 1512.3C862.484 1529.73 835.982 1547.07 809.791 1564.85C801.018 1570.8 792.714 1577.56 784.78 1584.6C770.811 1597.03 758.468 1611.08 746.042 1624.98C732.202 1640.47 720.948 1657.93 709.036 1674.86C708.143 1676.13 707.402 1677.5 706.578 1678.82C692.768 1701.12 681.778 1724.83 671.735 1748.97C653.621 1792.49 639.168 1837.27 626.114 1882.52C618.233 1909.84 610.247 1937.15 601.474 1964.2C593.018 1990.26 583.829 2016.11 574.352 2041.83C565.677 2065.38 555.951 2088.52 544.138 2110.73C540.008 2118.5 535.856 2126.26 531.681 2134.01C518.045 2159.32 503.183 2183.86 486.348 2207.26C467.561 2233.38 447.323 2258.24 425.004 2281.45C413.848 2293.04 402.277 2304.18 389.987 2314.57C382.272 2321.1 374.694 2327.82 366.662 2333.95C330.851 2361.27 292.892 2385.08 251.295 2402.85C237.447 2408.77 223.561 2414.56 209.267 2419.42C180.965 2429.06 152.12 2436.86 123.463 2445.32C85.0722 2456.65 46.9626 2468.74 9.82629 2483.76C-24.6924 2497.72 -57.8627 2514.24 -89.5952 2533.68C-121.807 2553.41 -151.445 2576.48 -179.364 2601.76C-193.984 2615.01 -207.381 2629.45 -220.401 2644.25C-233.62 2659.27 -245.683 2675.09 -255.443 2692.58C-262.631 2705.47 -270.184 2718.16 -277.077 2731.19C-300.074 2774.68 -321.582 2818.87 -339.202 2864.85C-356.547 2910.11 -370.048 2956.47 -380.253 3003.81C-382.921 3016.18 -385.373 3028.6 -387.925 3041H-636V2645.44C-633.486 2643.65 -631.43 2641.56 -629.774 2638.84C-609.931 2606.34 -588.193 2575.06 -565.124 2544.78C-545.043 2518.42 -523.896 2492.85 -502.78 2467.29C-482.757 2443.05 -459.859 2421.6 -435.708 2401.48C-416.163 2385.18 -395.682 2370.16 -374.269 2356.37C-330.135 2327.92 -283.171 2305.67 -232.417 2291.59C-181.383 2277.43 -129.329 2269.62 -76.474 2266.73C-67.9125 2266.27 -59.3443 2265.7 -50.8222 2264.79C-30.4147 2262.61 -10.0156 2260.33 10.3557 2257.82C36.6563 2254.59 62.9797 2251.53 89.0656 2246.73C115.936 2241.78 142.5 2235.68 168.305 2226.67C183.991 2221.2 199.866 2216.16 214.946 2209.11C249.51 2192.96 281.154 2172.32 310.12 2147.61C316.035 2142.56 321.881 2137.38 327.243 2131.77C352.738 2105.12 376.229 2076.82 395.651 2045.43C406.406 2028.06 416.321 2010.16 426.516 1992.44C448.465 1954.31 469.997 1915.95 489.608 1876.55C499.077 1857.54 509.748 1839.21 521.032 1821.23C530.668 1805.88 540.439 1790.61 550.067 1775.27C562.735 1755.05 577.037 1736.05 591.71 1717.24C616.025 1686.04 644.5 1658.83 672.635 1631.25C674.117 1629.8 675.705 1628.46 677.293 1627.13C690.597 1615.95 703.84 1604.71 717.242 1593.65C723.436 1588.54 729.902 1583.75 736.316 1578.9C746.45 1571.23 756.774 1563.81 766.773 1555.98C779.486 1546.01 792.82 1537.11 807.681 1530.61C816.477 1526.76 825.197 1522.67 834.175 1519.29C853.612 1511.96 873.193 1505.02 892.706 1497.9C894.823 1497.14 896.903 1496.26 898.998 1495.43C898.938 1495.09 898.87 1494.75 898.809 1494.41C896.563 1494.35 894.309 1494.29 892.063 1494.22C894.506 1492.51 897.304 1492.98 900.019 1492.92C902.008 1494.96 902.719 1494.9 903.922 1492.62C908.255 1490.39 913.973 1491.62 918.307 1487.08C912.052 1485.86 906.818 1483.62 901.085 1483.52C898.136 1482.6 895.232 1481.44 892.222 1480.8C859.193 1473.88 826.226 1466.65 792.933 1461.01C778.578 1458.58 764.178 1456.7 749.567 1456.97C738.131 1457.17 726.681 1456.96 715.26 1457.44C705.935 1457.83 696.617 1458.75 687.337 1459.84C679.358 1460.78 671.462 1462.4 663.498 1463.51C645.975 1465.98 628.791 1469.87 611.896 1475.16C579.102 1485.43 547.594 1498.87 516.548 1513.42C487.861 1526.88 459.862 1541.68 432.143 1557.01C404.213 1572.47 376.237 1587.84 347.656 1602.1C318.614 1616.59 289.292 1630.49 259.365 1643.07C222.88 1658.41 184.853 1669.07 146.621 1678.98C129.521 1683.41 112.044 1686.02 94.6085 1688.85C76.141 1691.85 57.616 1694.34 38.9744 1695.61C22.9164 1696.7 6.78363 1697.26 -9.30841 1697.13C-22.528 1697.03 -35.727 1695.36 -48.9526 1694.76C-65.605 1694.02 -81.9822 1691.39 -98.3797 1688.66C-133.87 1682.73 -168.311 1673.2 -201.874 1660.29C-225.438 1651.22 -248.171 1640.45 -270.38 1628.55C-296.921 1614.34 -323.176 1599.59 -349.9 1585.73C-371.091 1574.74 -392.606 1564.32 -414.342 1554.43C-433.236 1545.85 -452.547 1538.13 -472.253 1531.48C-498.362 1522.66 -524.795 1515.03 -551.905 1509.9C-563.124 1507.77 -574.331 1505.46 -585.637 1503.93C-599.522 1502.05 -613.502 1500.87 -627.453 1499.5C-629.106 1499.34 -630.833 1499.92 -632.977 1500.22C-633.046 1503.77 -633.157 1506.84 -633.158 1509.91C-633.168 1593.9 -633.168 1677.9 -633.154 1761.9C-633.154 1764.74 -632.994 1767.58 -632.91 1770.42C-632.981 1772.48 -633.115 1774.55 -633.115 1776.61C-633.125 1886.62 -636 1502.18 -636 1195.04C-632.056 1192.63 -631.532 1187.73 -628.553 1184.43C-623.516 1185.4 -618.681 1186.3 -613.858 1187.27C-563.609 1197.36 -515.596 1213.76 -470.529 1238.19C-427.24 1261.68 -387.032 1289.62 -349.867 1321.83C-324.782 1343.58 -299.336 1364.88 -272.928 1385.03C-247.773 1404.23 -222.942 1423.83 -196.676 1441.56C-165.364 1462.69 -131.956 1479.86 -97.283 1494.74C-93.2338 1496.47 -89.0544 1497.93 -84.8758 1499.35C-61.7145 1507.18 -38.2115 1513.6 -13.9567 1517.24C9.99487 1520.84 33.9896 1523.42 58.2467 1522.05C69.1383 1521.43 80.0163 1520.53 90.8852 1519.58C116.299 1517.36 141.426 1513.32 166.127 1506.98C183.484 1502.54 200.705 1497.56 217.987 1492.83C255.318 1482.61 292.597 1472.22 329.384 1460.2C342.468 1455.92 355.491 1451.36 368.803 1447.93C392.43 1441.83 416.215 1436.29 440.024 1430.9C458.508 1426.72 477.061 1422.72 495.719 1419.4C508.221 1417.18 520.979 1416.35 533.61 1414.79C554.265 1412.26 574.98 1410.74 595.801 1410.88C609.581 1410.98 623.361 1410.91 637.141 1411.02C641.807 1411.05 646.489 1411.29 651.148 1411.64C667.726 1412.91 684.305 1414.21 700.868 1415.64C707.591 1416.22 714.3 1417.04 720.985 1417.95C736.165 1420.02 751.306 1422.43 766.508 1424.31C780.734 1426.08 794.733 1428.58 808.302 1433.33C828.434 1440.36 848.015 1448.68 867.309 1457.7C881.406 1464.29 895.474 1470.94 909.549 1477.56C912.65 1478.81 915.735 1480.1 918.859 1481.29C919.214 1481.42 919.774 1481.04 921.06 1480.63C918.314 1475.66 916.015 1470.65 912.143 1466.51C911.477 1465.46 910.819 1464.4 910.154 1463.34L910.229 1463.45C909.692 1462.89 909.155 1462.33 908.618 1461.77L908.702 1461.85C908.165 1461.31 907.62 1460.76 907.075 1460.22L907.159 1460.29C907.408 1458.84 906.939 1457.75 905.533 1457.13L905.586 1457.16C904.64 1455.07 903.967 1452.79 902.704 1450.91C884.916 1424.5 867.286 1397.97 849.074 1371.85C842.282 1362.11 834.53 1352.93 826.423 1344.24C813.339 1330.21 798.742 1317.69 784.19 1305.18C779.479 1301.13 774.532 1297.32 769.51 1293.66C762.598 1288.61 755.541 1283.76 748.477 1278.91C743.992 1275.83 739.455 1272.79 734.811 1269.95C712.833 1256.47 689.478 1245.72 665.692 1235.92C625.305 1219.28 583.874 1205.59 541.891 1193.5C514.438 1185.58 486.938 1177.78 459.613 1169.42C429.799 1160.3 400.28 1150.25 371.147 1139.13C349.547 1130.89 327.962 1122.57 307.398 1111.93C294.253 1105.12 281.055 1098.42 268.107 1091.25C255.394 1084.21 242.68 1077.1 230.481 1069.22C197.082 1047.65 165.249 1024.01 136.109 996.895C114.612 976.893 94.449 955.65 76.4299 932.535C49.9122 898.525 26.9461 862.288 9.19855 822.886C-2.40778 797.124 -12.1166 770.708 -20.1093 743.631C-28.7478 714.365 -37.288 685.073 -46.3585 655.943C-57.8997 618.877 -71.2554 582.447 -87.6053 547.182C-97.4033 526.047 -108.155 505.373 -120.465 485.552C-135.639 461.122 -151.665 437.295 -170.483 415.409C-181.462 402.641 -192.233 389.718 -204.136 377.755C-217.321 364.503 -231.524 352.39 -245.717 340.265C-253.601 333.531 -261.864 327.245 -270.79 321.869C-291.701 309.276 -313.059 297.478 -334.726 286.234C-359.163 273.553 -383.999 261.706 -409.15 250.47C-432.174 240.185 -455.6 230.95 -479.352 222.523C-516.854 209.215 -555.221 198.876 -594.059 190.241C-604.197 187.986 -614.42 186.105 -624.619 184.128C-627.109 183.645 -629.691 182.883 -632.432 184.645C-633.622 187.697 -633.144 191.083 -633.146 194.386C-633.17 291.854 -633.168 389.322 -633.154 486.79C-633.154 489.63 -632.992 492.471 -632.905 495.311C-632.977 497.375 -633.112 499.44 -633.112 501.504C-633.123 609.265 -636 235.87 -636 -63H-236.584C-234.147 -61.2119 -231.827 -59.2357 -229.257 -57.6649C-196.682 -37.7518 -165.221 -16.1701 -134.746 6.73424C-109.671 25.5803 -85.4982 45.6168 -61.0142 65.2344C-37.6579 83.9481 -16.9206 105.352 2.71466 127.8C24.0714 152.214 43.268 178.271 60.4566 205.75C80.8376 238.332 97.9741 272.549 110.417 308.89C128.349 361.256 138.476 415.243 142.689 470.357C143.831 485.296 144.768 500.251 146.024 515.181C146.932 525.991 148.028 536.791 149.352 547.558C152.09 569.864 155.069 592.14 157.883 614.436C161.513 643.173 166.361 671.702 173.886 699.687C183.423 735.194 194.987 769.971 212.836 802.396C234.86 842.399 261.853 878.425 296.477 908.653C327.856 936.047 361.474 960.184 398.17 980.043C405.468 983.999 412.736 988.022 419.959 992.12C457.442 1013.35 495.046 1034.38 533.716 1053.43C554.703 1063.77 574.995 1075.3 594.795 1087.71C604.469 1093.77 613.983 1100.11 623.83 1105.87C658.227 1126 689.863 1149.87 720.184 1175.55C725.523 1180.07 730.833 1184.66 735.832 1189.54C748.621 1202.04 761.176 1214.77 773.942 1227.3C782.474 1235.66 790.43 1244.5 797.97 1253.75C803.212 1260.16 808.543 1266.51 814.019 1272.74C823.087 1283.06 831.641 1293.76 839.605 1304.97C845.444 1313.19 851.63 1321.2 857.991 1329.03C869.313 1342.99 879.183 1357.81 886.292 1374.32C891.813 1387.14 897.395 1399.95 902.424 1412.96C908.384 1428.39 913.784 1444.03 919.441 1459.58C920.485 1462.46 921.203 1465.51 923.661 1467.66C924.902 1471.55 924.092 1476.22 928.199 1479.65C930.385 1473.76 932.177 1468.3 932.132 1462.4C933.055 1459.47 934.257 1456.59 934.847 1453.59C941.495 1420.14 948.219 1386.72 954.542 1353.21C957.03 1340.02 958.641 1326.64 958.436 1313.17C958.24 1300 957.627 1286.84 957.12 1273.67C956.606 1259.99 955.691 1246.33 952.552 1232.92C951.909 1230.16 951.305 1227.36 951.01 1224.55C949.149 1206.97 944.346 1190.06 938.999 1173.31C929.871 1144.68 918.239 1117.02 905.48 1089.84C889.635 1056.12 872.119 1023.23 853.884 990.714C842.751 970.855 831.808 950.883 821.159 930.753C806.267 902.615 792.464 873.936 779.463 844.888C771.643 827.42 763.989 809.855 758.09 791.628C752.675 774.904 747.335 758.151 742.442 741.27C738.638 728.118 735.091 714.854 732.285 701.469C728.798 684.788 726.075 667.946 723.247 651.137C721.878 642.993 720.706 634.789 720.017 626.565C718.8 611.898 717.892 597.203 717.09 582.507C715.964 561.824 717.189 541.181 718.596 520.552C719.057 513.855 719.503 507.142 720.365 500.486C722.808 481.522 726.272 462.732 730.266 444.023C739.054 402.835 753.242 363.505 771.794 325.761C780.923 307.199 791.133 289.163 800.935 270.931C807.795 258.167 814.791 245.477 821.711 232.745C838.902 201.125 854.905 168.946 868.761 135.718C878.933 111.332 887.714 86.4724 894.838 61.0708C903.226 31.1801 909.639 0.854 912.922 -30.0549C913.844 -38.7827 914.412 -47.5505 915.024 -56.3077C915.123 -57.7394 914.586 -59.2147 914.336 -60.6938C910.623 -61.8886 907.234 -61.4705 903.899 -61.4713C820.191 -61.4938 736.475 -61.4916 652.759 -61.4788C649.643 -61.4781 646.527 -61.3314 643.411 -61.2532C640.809 -61.3322 638.215 -61.4796 635.621 -61.4803C549.311 -61.4893 913.3 -63 1222.22 -63C1225.72 -61.0276 1229.23 -59.0553 1232.53 -57.1972C1232.58 -56.261 1232.71 -55.7279 1232.62 -55.2391C1229.2 -37.7413 1225.72 -20.2645 1220.68 -3.12155C1211.86 26.9496 1201.38 56.4005 1187.16 84.4008C1164.21 129.588 1136.05 171.376 1103.32 210.12C1090.44 225.358 1076.89 240.041 1064.39 255.572C1040.69 285.034 1017.19 314.677 994.263 344.739C982.661 359.955 972.209 376.069 961.742 392.102C948.264 412.734 937.547 434.864 927.118 457.137C921.286 469.584 916.386 482.34 912.241 495.42C906.221 514.423 901.411 533.684 898.317 553.399C894.498 577.715 891.911 602.086 893.333 626.724C893.953 637.553 894.861 648.37 895.844 659.173C898.091 683.914 902.008 708.402 908.27 732.457C912.884 750.21 917.951 767.851 922.86 785.529C933.1 822.382 943.454 859.205 955.487 895.539C959.873 908.789 964.502 921.993 968.026 935.475C974.107 958.718 979.613 982.119 984.975 1005.54C989.18 1023.92 993.204 1042.36 996.539 1060.92C998.771 1073.35 999.61 1086.03 1001.17 1098.59C1003.82 1119.9 1005.34 1141.27 1005.12 1162.75C1005 1175.41 1005.12 1188.09 1004.99 1200.75C1004.93 1205.91 1004.67 1211.08 1004.28 1216.22C1003.02 1232.71 1001.73 1249.19 1000.31 1265.66C999.746 1272.09 998.929 1278.51 998.029 1284.9C995.98 1299.47 993.423 1313.99 991.775 1328.61C989.906 1345.14 986.526 1361.21 980.793 1376.85C972.239 1400.19 962.021 1422.79 951.388 1445.24C946.978 1454.55 941.911 1463.57 938.402 1473.29C937.948 1473.81 937.487 1474.32 937.033 1474.84L937.29 1474.49C936.367 1477.22 933.947 1479.5 934.552 1483.24C940.293 1481.24 944.687 1477.85 949.156 1474.61C949.716 1473.98 950.276 1473.35 950.843 1472.72L950.745 1472.83C951.811 1472.28 952.885 1471.73 953.952 1471.18L953.876 1471.26C955.971 1470.96 957.627 1470.02 958.618 1468.09L958.573 1468.14C960.199 1467.39 961.953 1466.83 963.421 1465.86C989.528 1448.42 1015.7 1431.07 1041.65 1413.41C1055.18 1404.19 1067.76 1393.76 1079 1381.81C1085.92 1374.45 1092.83 1367.07 1099.76 1359.73C1110.46 1348.41 1120.35 1336.45 1128.83 1323.38C1130.52 1320.77 1132.53 1318.38 1134.26 1315.8C1139.45 1308.07 1144.88 1300.46 1149.66 1292.49C1161.93 1272.01 1171.84 1250.36 1180.97 1228.37C1198.53 1186.04 1212.67 1142.53 1225.48 1098.57C1234.6 1067.31 1243.72 1036.03 1253.7 1005.02C1261.47 980.923 1270.38 957.169 1279.14 933.392C1287.47 910.819 1296.95 888.712 1308.14 867.356C1312.22 859.566 1316.39 851.821 1320.59 844.083C1333.56 820.194 1347.33 796.823 1363.09 774.581C1383.79 745.36 1406.27 717.636 1431.33 692.024C1439.83 683.33 1448.77 675.008 1457.93 666.991C1468.85 657.439 1479.88 647.962 1491.46 639.232C1512.6 623.296 1534.67 608.72 1557.9 595.881C1584.78 581.022 1612.61 568.199 1641.75 558.544C1669.6 549.319 1697.85 541.289 1725.94 532.78C1743.59 527.433 1761.41 522.597 1778.9 516.772C1805.26 507.991 1831.47 498.771 1856.98 487.639C1881.53 476.926 1905.58 465.269 1928.66 451.729C1955.1 436.214 1980.53 419.2 2004.09 399.529C2019.02 387.065 2034.2 374.853 2047.63 360.778C2058.35 349.541 2068.56 337.805 2078.83 326.15C2086.19 317.794 2093.47 309.317 2099.06 299.636C2109.69 281.268 2120.64 263.066 2130.62 244.356C2154.26 200.036 2176.04 154.835 2193.61 107.729C2203.47 81.3065 2212.43 54.5973 2219.77 27.3737C2227.12 0.170483 2233.48 -27.2599 2238.66 -54.9549C2239.03 -56.9303 2239.83 -58.935 2237.93 -61.2622C2235.14 -61.3329 2232.05 -61.4788 2228.98 -61.4788C2130.7 -61.4908 2032.43 -61.4916 1934.16 -61.475C1931.04 -61.475 1927.93 -61.2735 1924.81 -61.166C1921.18 -61.2735 1917.56 -61.475 1913.93 -61.4758C1808.01 -61.4931 2185.92 -63 2486 -63V334.113C2484.1 337.129 2482.19 340.133 2480.31 343.161C2461.09 374.22 2439.98 404.02 2418.16 433.298C2405.01 450.938 2390.98 467.935 2377.12 485.036C2367.01 497.51 2356.91 510.031 2346.11 521.913C2324.82 545.349 2301.56 566.732 2276.69 586.433C2233.53 620.628 2186.83 648.791 2135.72 669.686C2103.13 683.015 2069.19 691.648 2034.78 698.687C2001.87 705.417 1968.58 709.101 1935.08 711.192C1924.71 711.838 1914.34 712.643 1903.99 713.673C1888.73 715.184 1873.5 716.846 1858.27 718.666C1824.99 722.644 1791.71 726.539 1758.7 732.547C1719.4 739.69 1681.58 751.571 1644.58 766.272C1640.96 767.708 1637.44 769.415 1633.96 771.129C1610.85 782.506 1588.6 795.252 1567.98 810.742C1553.02 821.976 1538.16 833.316 1525.22 846.836C1498.82 874.44 1474.72 903.894 1454.79 936.498C1445.07 952.387 1436.06 968.712 1426.8 984.871C1404.9 1023.03 1383.28 1061.34 1363.67 1100.73C1354.09 1119.98 1343.36 1138.57 1331.91 1156.77C1322.12 1172.32 1312.25 1187.82 1302.47 1203.39C1289.93 1223.36 1275.81 1242.17 1261.29 1260.78C1236.82 1292.18 1208.23 1319.64 1179.82 1347.3C1175.55 1351.45 1170.83 1355.14 1166.26 1358.97C1158.12 1365.81 1149.81 1372.46 1141.8 1379.43C1132.19 1387.78 1122.11 1395.48 1111.74 1402.86C1103.5 1408.72 1095.43 1414.84 1087.53 1421.14C1074.3 1431.7 1060.25 1440.88 1044.78 1447.95C1026.12 1456.49 1007.1 1464.13 987.804 1471.13C974.145 1476.08 960.531 1481.17 946.895 1486.2C943.235 1486.95 939.362 1487.16 935.755 1490.35C941.873 1492.85 947.515 1494.08 953.377 1494.5C956.326 1495.4 959.231 1496.56 962.248 1497.18C996.328 1504.17 1030.34 1511.54 1064.71 1516.98C1078.31 1519.13 1091.99 1520.88 1105.79 1520.61C1118.25 1520.38 1130.72 1520 1143.16 1519.21C1154.29 1518.51 1165.39 1517.32 1176.47 1516.05C1181.62 1515.45 1186.65 1513.84 1191.79 1513.24C1207.34 1511.39 1222.43 1507.62 1237.36 1503.1C1273.51 1492.15 1308.01 1477.12 1342.07 1461.03C1373.32 1446.27 1403.45 1429.41 1433.82 1413C1456.89 1400.55 1479.88 1387.95 1503.23 1376.02C1521.48 1366.7 1540.18 1358.24 1558.74 1349.51C1588.86 1335.37 1619.62 1322.87 1651.62 1313.49C1682.02 1304.57 1712.42 1295.81 1743.8 1290.61C1772.01 1285.94 1800.28 1282.06 1828.84 1280.84C1854.04 1279.76 1879.24 1279.92 1904.39 1282.29C1910.33 1282.85 1916.33 1283.09 1922.22 1284C1936.32 1286.18 1950.41 1288.52 1964.46 1291.1C2010.76 1299.61 2054.92 1314.71 2097.03 1335.46C2121.47 1347.5 2145.33 1360.72 2169.31 1373.66C2191.69 1385.74 2213.99 1397.95 2237.02 1408.82C2252.99 1416.36 2268.96 1423.83 2285.3 1430.57C2321.64 1445.55 2358.83 1457.74 2397.35 1465.85C2414.88 1469.54 2432.4 1473.28 2450.33 1474.62C2456.54 1475.09 2462.71 1476.09 2468.92 1476.58C2474.59 1477.02 2480.3 1477.12 2486 1477.37Z" fill="#E2C13D"/>
<path d="M895 1510C894.977 1512.29 893.609 1513.78 891.999 1515.18C884.37 1521.77 876.908 1528.57 869.113 1534.97C854.446 1547.02 841.707 1561.02 828.242 1574.26C820.636 1581.74 814.414 1590.38 808.887 1599.43C798.787 1615.98 789.291 1632.89 778.23 1648.87C774.714 1653.95 771.91 1659.54 768.938 1664.98C761.491 1678.59 753.833 1692.1 746.824 1705.92C741.109 1717.21 736.036 1728.83 730.985 1740.44C724.393 1755.61 717.891 1770.81 711.782 1786.17C708.357 1794.8 705.749 1803.74 702.891 1812.57C700.101 1821.17 697.576 1829.86 694.726 1838.44C689.494 1854.17 686.319 1870.39 683.098 1886.59C679.015 1907.09 674.925 1927.58 671.175 1948.14C669.005 1960.05 667.463 1972.08 665.694 1984.05C664.121 1994.77 663.396 2005.56 662.458 2016.34C661.369 2028.9 659.638 2041.41 658.209 2053.95C657.037 2064.19 656.032 2074.45 654.709 2084.67C653.197 2096.43 651.405 2108.15 649.757 2119.89C648.29 2130.35 646.914 2140.82 645.402 2151.27C644.033 2160.71 642.332 2170.1 641.123 2179.56C639.316 2193.65 636.375 2207.52 633.139 2221.34C627.703 2244.52 620.014 2266.99 611.894 2289.36C606.405 2304.48 599.321 2318.83 591.942 2333.06C590.037 2336.72 587.973 2340.33 585.667 2343.76C576.3 2357.71 568.089 2372.44 557.286 2385.42C552.318 2391.38 547.049 2397.09 542.293 2403.2C535.262 2412.23 526.991 2420.08 518.743 2427.92C511.447 2434.86 503.388 2441.02 496.047 2447.93C487.723 2455.77 478.522 2462.47 469.434 2469.34C453.089 2481.7 435.836 2492.7 418.303 2503.3C401.436 2513.5 383.987 2522.67 366.726 2532.17C342.193 2545.68 317.561 2559 292.385 2571.29C273.031 2580.74 253.495 2589.83 234.306 2599.59C222.996 2605.35 212.109 2611.94 201.215 2618.46C191.658 2624.17 182.125 2629.98 172.992 2636.34C159.814 2645.5 146.833 2654.97 134.101 2664.74C124.673 2671.99 115.443 2679.57 106.738 2687.65C97.8348 2695.92 88.7873 2704.13 81.267 2713.77C80.1579 2715.19 78.7455 2716.37 77.5548 2717.74C69.3949 2727.08 61.2048 2736.41 53.1348 2745.83C49.6064 2749.95 46.2564 2754.23 42.9812 2758.56C40.6466 2761.64 38.6786 2765 36.3628 2768.1C23.1776 2785.74 11.4477 2804.32 0.743713 2823.53C-4.41022 2832.79 -9.74332 2841.96 -14.4421 2851.44C-28.0009 2878.81 -40.1125 2906.77 -48.9295 2936.06C-53.694 2951.89 -58.5327 2967.71 -61.8192 2983.92C-65.3045 3001.1 -68.4436 3018.35 -71.6666 3035.59C-71.9962 3037.35 -71.8661 3039.2 -71.9485 3041H-387C-384.449 3028.6 -381.998 3016.18 -379.331 3003.81C-369.13 2956.48 -355.634 2910.12 -338.295 2864.86C-320.68 2818.89 -299.18 2774.71 -276.191 2731.22C-269.302 2718.19 -261.751 2705.5 -254.566 2692.62C-244.809 2675.13 -232.75 2659.31 -219.536 2644.29C-206.52 2629.49 -193.129 2615.05 -178.514 2601.8C-150.604 2576.52 -120.978 2553.46 -88.7772 2533.73C-57.0562 2514.29 -23.8979 2497.77 10.6085 2483.81C47.7314 2468.79 85.8274 2456.71 124.205 2445.38C152.851 2436.92 181.686 2429.11 209.977 2419.48C224.266 2414.62 238.147 2408.83 251.99 2402.91C293.572 2385.14 331.518 2361.33 367.316 2334.02C375.345 2327.89 382.921 2321.17 390.632 2314.64C402.918 2304.25 414.485 2293.11 425.637 2281.52C447.947 2258.31 468.179 2233.45 486.959 2207.34C503.788 2183.94 518.645 2159.41 532.276 2134.09C536.449 2126.35 540.6 2118.59 544.728 2110.82C556.537 2088.61 566.26 2065.47 574.932 2041.92C584.405 2016.2 593.591 1990.36 602.043 1964.3C610.813 1937.25 618.797 1909.95 626.675 1882.62C639.724 1837.38 654.172 1792.61 672.279 1749.09C682.319 1724.95 693.304 1701.25 707.11 1678.95C707.934 1677.62 708.675 1676.26 709.567 1674.98C721.474 1658.05 732.724 1640.6 746.56 1625.11C758.981 1611.21 771.32 1597.16 785.284 1584.74C793.215 1577.69 801.516 1570.94 810.286 1564.98C836.468 1547.2 862.959 1529.87 889.368 1512.44C891.053 1511.32 893.117 1510.8 895 1510Z" fill="#FFDF60"/>
<path d="M947.136 1520C949.973 1522.62 952.923 1525.12 955.601 1527.89C958.294 1530.67 960.685 1533.74 963.264 1536.63C970.829 1545.12 978.205 1553.79 986.08 1561.99C994.492 1570.76 1002.68 1579.81 1012.32 1587.34C1012.93 1587.82 1013.56 1588.29 1014.11 1588.84C1025.75 1600.13 1039.71 1608.1 1053.61 1616.18C1059.66 1619.7 1065.72 1623.23 1071.54 1627.1C1084.73 1635.86 1098.45 1643.71 1112.56 1650.93C1121.33 1655.42 1129.72 1660.64 1138.51 1665.09C1148.22 1670.02 1158.15 1674.52 1168.07 1679.05C1174.91 1682.17 1181.98 1684.81 1188.78 1688.03C1212.77 1699.44 1237.87 1707.81 1263.27 1715.43C1270.24 1717.52 1277.17 1719.7 1284.15 1721.74C1302.86 1727.23 1321.97 1730.81 1341.16 1734.14C1352.16 1736.04 1363.04 1738.57 1374.03 1740.53C1388.83 1743.16 1403.68 1745.52 1418.52 1747.96C1427.99 1749.5 1437.53 1750.43 1447.1 1751.08C1454.59 1751.59 1462.01 1752.94 1469.48 1753.73C1476.44 1754.47 1483.44 1754.88 1490.4 1755.59C1497.36 1756.3 1504.3 1757.2 1511.23 1758.07C1516.12 1758.68 1521 1759.35 1525.88 1760.04C1540.25 1762.05 1554.61 1764.17 1569 1766.08C1579.01 1767.41 1589.1 1768.3 1599.11 1769.69C1610.15 1771.23 1621.18 1772.91 1632.14 1774.91C1643.88 1777.06 1655.55 1779.55 1667.2 1782.11C1672.77 1783.33 1678.27 1784.95 1683.75 1786.56C1714.71 1795.61 1745.29 1805.66 1773.68 1821.22C1782.08 1825.82 1790.27 1830.85 1798.29 1836.06C1809.81 1843.55 1821.61 1850.65 1832.19 1859.47C1836.17 1862.78 1840.21 1866.02 1844.09 1869.44C1855.14 1879.2 1866.66 1888.45 1875.86 1900.15C1880.81 1906.43 1886.71 1911.96 1891.87 1918.09C1899.02 1926.6 1906.11 1935.17 1912.8 1944.04C1927.45 1963.47 1940.6 1983.91 1952.89 2004.88C1958.77 2014.91 1964.24 2025.19 1969.88 2035.35C1978.03 2050.04 1986.48 2064.58 1994.2 2079.48C2000.98 2092.54 2008.68 2105.13 2014.42 2118.75C2018.44 2128.27 2023.52 2137.33 2028.14 2146.58C2031.37 2153.05 2034.72 2159.46 2037.88 2165.97C2051.24 2193.47 2067.57 2219.22 2084.79 2244.46C2094.71 2258.99 2105.41 2272.94 2116.57 2286.52C2122.95 2294.3 2130.11 2301.47 2137.07 2308.76C2142.08 2314.01 2147.29 2319.07 2152.51 2324.11C2171.34 2342.32 2191.25 2359.22 2212.95 2373.98C2226.02 2382.87 2239.04 2391.89 2252.55 2400.09C2268.95 2410.05 2285.42 2420.01 2302.99 2427.82C2320.76 2435.73 2338.26 2444.29 2356.82 2450.37C2377.05 2456.99 2397.09 2464.26 2417.9 2468.91C2432.58 2472.2 2447.39 2474.92 2462.15 2477.85C2470.02 2479.42 2477.82 2481.64 2486 2480.92V2794C2479.86 2792.96 2473.71 2792.02 2467.6 2790.84C2438.25 2785.16 2409.19 2778.23 2380.49 2769.95C2346.77 2760.21 2313.69 2748.57 2281.35 2734.95C2252.87 2722.96 2224.88 2709.89 2197.36 2695.83C2172.62 2683.18 2148.22 2669.94 2124.39 2655.67C2114.32 2649.63 2105.12 2642.5 2096.24 2634.93C2082.04 2622.83 2067.82 2610.72 2054.77 2597.37C2041.73 2584.01 2029.81 2569.69 2017.89 2555.37C1998.77 2532.41 1982.29 2507.63 1967.27 2481.95C1953.43 2458.27 1941.33 2433.69 1930.65 2408.4C1920.68 2384.8 1911.96 2360.77 1903.81 2336.53C1897.64 2318.17 1892.42 2299.5 1886.76 2280.98C1878.9 2255.29 1871.17 2229.57 1863.14 2203.93C1857.96 2187.39 1850.84 2171.58 1843.86 2155.73C1833.12 2131.29 1820.04 2108.09 1805.37 2085.81C1790.7 2063.55 1775.15 2041.91 1756.87 2022.34C1749.98 2014.96 1743.58 2007.12 1736.52 1999.9C1729.28 1992.51 1721.5 1985.62 1713.96 1978.51C1694.3 1959.99 1673.07 1943.39 1650.87 1928.03C1636.79 1918.3 1622.71 1908.49 1607.97 1899.82C1578.89 1882.71 1549.34 1866.36 1518.16 1853.25C1502.13 1846.5 1485.83 1840.38 1469.54 1834.27C1419.9 1815.61 1369.03 1800.77 1318.02 1786.39C1274.23 1774.03 1231 1760.01 1188.9 1742.74C1163.65 1732.4 1138.91 1720.96 1115.61 1706.68C1114.5 1706 1113.38 1705.35 1112.29 1704.64C1078.6 1682.8 1047.98 1657.3 1020.8 1627.87C1013.62 1620.1 1007.04 1611.65 1001.04 1602.93C983.606 1577.56 966.593 1551.9 949.428 1526.33C948.15 1524.43 946.515 1522.61 947.136 1520Z" fill="#FFDF60"/>
<path d="M921.537 1516C921.575 1522.19 921.892 1528.37 920.402 1534.5C919.866 1536.72 920.153 1539.13 920.085 1541.45C919.934 1546.87 919.775 1552.23 918.951 1557.65C918.104 1563.22 918.565 1568.98 918.451 1574.67C918.308 1581.62 918.459 1588.55 917.332 1595.51C916.606 1600.01 917.446 1604.76 917.688 1609.39C917.801 1611.7 918.459 1614.01 918.361 1616.3C917.695 1632.26 921.023 1647.67 925.341 1662.83C928.676 1674.52 931.043 1686.41 933.818 1698.21C935.769 1706.49 937.849 1714.76 940.2 1722.94C943.475 1734.36 946.931 1745.74 950.531 1757.06C953.73 1767.15 956.951 1777.24 960.657 1787.16C966.631 1803.12 972.764 1819.05 979.29 1834.8C985.121 1848.88 991.254 1862.86 999.239 1875.94C1001.26 1879.24 1002.89 1882.79 1004.57 1886.28C1012.31 1902.4 1021.55 1917.68 1031.29 1932.63C1039.61 1945.42 1048.63 1957.75 1057.3 1970.31C1060.97 1975.62 1064.43 1981.09 1068.19 1986.34C1077.83 1999.81 1087.29 2013.39 1097.35 2026.53C1105.2 2036.78 1113.91 2046.38 1122.1 2056.38C1129.3 2065.19 1136.47 2074.03 1143.4 2083.04C1163.42 2109.07 1183.34 2135.18 1203.22 2161.32C1211.83 2172.64 1220.5 2183.93 1228.66 2195.56C1237.41 2208.07 1245.3 2221.14 1252.41 2234.67C1257.46 2244.28 1262.76 2253.77 1267.59 2263.49C1278.55 2285.55 1287.4 2308.41 1293.26 2332.36C1297.31 2348.91 1301.04 2365.53 1303.43 2382.4C1304.54 2390.29 1304.75 2398.31 1305.4 2406.27C1305.75 2410.64 1306.31 2414.98 1306.53 2419.35C1306.97 2428.12 1307.47 2436.89 1306.13 2445.63C1305.94 2446.9 1305.49 2448.19 1305.56 2449.45C1306.09 2459.56 1304.32 2469.52 1303.7 2479.55C1303.2 2487.76 1302.04 2495.96 1300.67 2504.09C1298.31 2518.07 1295.78 2532.03 1292.91 2545.92C1290.71 2556.53 1288.1 2567.07 1285.29 2577.54C1281.6 2591.26 1277.62 2604.9 1273.58 2618.51C1268.15 2636.84 1262.77 2655.19 1256.95 2673.4C1252.15 2688.39 1246.69 2703.17 1241.6 2718.07C1236.84 2732.01 1231.93 2745.91 1227.52 2759.96C1223.89 2771.53 1220.66 2783.25 1217.71 2795.02C1214.95 2806.02 1212.53 2817.13 1210.41 2828.28C1207.62 2842.97 1205.04 2857.71 1202.83 2872.49C1201.65 2880.37 1201.44 2888.4 1200.83 2896.36C1200.71 2897.91 1200.89 2899.49 1200.65 2901.01C1197.94 2918.49 1199.93 2936.09 1199.41 2953.62C1201.95 2963.46 1200.82 2973.63 1201.99 2983.63C1204 3000.81 1206.37 3017.88 1209.8 3034.83C1210.2 3036.84 1210.09 3038.94 1210.22 3041H937.206C939.754 3009.85 943.324 2978.88 950.274 2948.3C958.774 2910.88 970.677 2874.64 985.461 2839.24C998.234 2808.66 1012.98 2779.03 1028.57 2749.81C1041.85 2724.93 1055.8 2700.42 1069.21 2675.62C1080.16 2655.35 1090.12 2634.62 1098.46 2613.12C1107.09 2590.91 1114.65 2568.39 1120.27 2545.25C1126.13 2521.12 1130.48 2496.72 1133.36 2472.08C1134.37 2463.38 1134.81 2454.59 1135.22 2445.83C1135.81 2433.19 1137.28 2420.59 1136.6 2407.91C1135.79 2392.97 1135.2 2378.01 1134.01 2363.09C1131.01 2325.44 1124.83 2288.27 1115.03 2251.76C1105.63 2216.81 1095.35 2182.11 1080.81 2148.84C1076.16 2138.17 1071.66 2127.43 1066.6 2116.96C1054.66 2092.28 1042.75 2067.58 1030.19 2043.2C1020.25 2023.89 1009.44 2005.02 998.854 1986.04C980.576 1953.27 962.918 1920.18 947.022 1886.2C937.811 1866.52 929.167 1846.58 921.764 1826.16C912.765 1801.34 905.104 1776.2 901.398 1749.92C899.379 1735.61 897.201 1721.38 896.18 1706.92C895.069 1691.17 895.046 1675.44 895.001 1659.69C894.963 1647.51 896.46 1635.43 898.789 1623.53C905.172 1590.84 911.933 1558.21 918.633 1525.57C919.298 1522.32 920.554 1519.19 921.537 1516Z" fill="#FFDF60"/>
<path d="M953 1494.83C960.262 1494.86 967.547 1494.25 974.734 1495.98C976.466 1496.41 978.35 1496.22 980.173 1496.27C987.428 1496.48 994.721 1495.89 1001.91 1497.62C1003.64 1498.03 1005.53 1497.81 1007.35 1497.81C1022.43 1497.84 1037.51 1497.81 1052.58 1497.88C1063.55 1497.94 1074.38 1496.61 1085 1494.21C1108.29 1488.95 1131.49 1483.23 1154.71 1477.68C1156.99 1477.13 1159.21 1476.4 1161.45 1475.74C1175.39 1471.61 1189.42 1467.75 1203.25 1463.27C1214.85 1459.52 1226.28 1455.2 1237.7 1450.9C1249.36 1446.52 1260.97 1441.96 1272.52 1437.29C1279.25 1434.57 1285.98 1431.77 1292.47 1428.51C1309.64 1419.9 1326.93 1411.45 1343.71 1402.13C1360.49 1392.82 1376.75 1382.61 1392.39 1371.42C1405.26 1362.21 1418.58 1353.64 1431.63 1344.69C1441.02 1338.24 1450.43 1331.79 1459.61 1325.04C1466.07 1320.28 1472.16 1315.03 1478.41 1309.98C1489.29 1301.2 1500.11 1292.34 1511.06 1283.63C1523.63 1273.64 1536.19 1263.62 1548.96 1253.88C1566.69 1240.37 1584.79 1227.33 1602.38 1213.66C1611.6 1206.5 1620.78 1199.31 1630.55 1192.94C1642.5 1185.17 1654.58 1177.61 1666.74 1170.17C1673.37 1166.11 1680.26 1162.46 1687.08 1158.72C1690.72 1156.73 1694.43 1154.87 1698.16 1153.07C1725.32 1139.88 1753.15 1128.48 1782.85 1122.21C1795.27 1119.57 1807.67 1116.63 1820.23 1114.72C1828.39 1113.48 1836.65 1112.06 1845.01 1112.61C1859.46 1109.94 1874.04 1111.45 1888.57 1111.22C1891.91 1111.17 1895.27 1111.82 1898.62 1112.15C1900.43 1112.33 1902.25 1112.73 1904.04 1112.61C1913.7 1111.95 1923.19 1113.89 1932.76 1114.53C1940.75 1115.05 1948.71 1116.56 1956.59 1118.09C1973.66 1121.39 1990.71 1124.78 2007.68 1128.54C2017.56 1130.74 2027.28 1133.63 2037.02 1136.41C2056.23 1141.92 2075.5 1147.31 2094.59 1153.22C2114.43 1159.36 2134.1 1166.05 2153.85 1172.5C2155.82 1173.15 2157.77 1173.87 2159.74 1174.54C2171.03 1178.44 2182.26 1182.53 2193.64 1186.18C2218.87 1194.25 2244.44 1201.12 2270.51 1205.98C2280.2 1207.79 2289.86 1209.79 2299.57 1211.47C2305.18 1212.44 2310.88 1212.97 2316.53 1213.68C2323.47 1214.54 2330.41 1215.42 2337.36 1216.23C2339.68 1216.5 2342.02 1216.67 2344.35 1216.7C2350.59 1216.8 2356.83 1216.73 2363.07 1216.88C2366.17 1216.95 2369.27 1217.34 2372.37 1217.6C2373.91 1217.74 2375.54 1218.29 2376.99 1217.97C2385.74 1216.05 2394.61 1217 2403.41 1216.82C2415.1 1216.61 2426.66 1215.12 2438.27 1214.03C2452 1212.74 2465.47 1210.09 2479 1207.73C2481.28 1207.33 2483.66 1207.52 2486 1207.44V1477.68C2480.3 1477.43 2474.59 1477.33 2468.91 1476.88C2462.7 1476.4 2456.53 1475.39 2450.32 1474.93C2432.39 1473.58 2414.87 1469.84 2397.32 1466.14C2358.8 1458.03 2321.6 1445.82 2285.25 1430.82C2268.91 1424.07 2252.93 1416.6 2236.96 1409.04C2213.93 1398.16 2191.62 1385.94 2169.23 1373.84C2145.24 1360.88 2121.38 1347.65 2096.93 1335.6C2054.81 1314.82 2010.64 1299.71 1964.33 1291.18C1950.28 1288.6 1936.19 1286.26 1922.08 1284.07C1916.19 1283.16 1910.19 1282.92 1904.25 1282.36C1879.09 1279.99 1853.88 1279.83 1828.68 1280.91C1800.11 1282.13 1771.83 1286.01 1743.61 1290.7C1712.23 1295.9 1681.82 1304.67 1651.41 1313.6C1619.4 1322.99 1588.64 1335.51 1558.51 1349.67C1539.95 1358.4 1521.24 1366.87 1502.99 1376.21C1479.63 1388.15 1456.64 1400.76 1433.56 1413.23C1403.18 1429.66 1373.04 1446.54 1341.79 1461.32C1307.72 1477.43 1273.21 1492.48 1237.05 1503.44C1222.12 1507.96 1207.02 1511.74 1191.47 1513.59C1186.33 1514.19 1181.3 1515.81 1176.15 1516.4C1165.07 1517.67 1153.96 1518.86 1142.83 1519.56C1130.39 1520.35 1117.92 1520.74 1105.45 1520.97C1091.64 1521.24 1077.97 1519.49 1064.36 1517.34C1029.98 1511.89 995.961 1504.51 961.874 1497.51C958.855 1496.9 955.95 1495.73 953 1494.83Z" fill="#FFDF60"/>
<path d="M906 1457C903.035 1456.95 901.393 1454.83 899.684 1452.91C892.279 1444.61 884.7 1436.46 877.605 1427.91C866.811 1414.92 854.361 1403.56 842.349 1391.77C837.206 1386.72 831.382 1382.28 825.535 1378.02C815.452 1370.7 804.635 1364.51 793.668 1358.57C790.256 1356.72 786.996 1354.56 783.812 1352.33C768.896 1341.9 752.807 1333.48 736.771 1324.95C727.839 1320.19 719.132 1315.02 710.131 1310.4C702.295 1306.37 694.247 1302.71 686.191 1299.12C675.995 1294.58 665.617 1290.46 655.452 1285.86C638.153 1278.03 620.256 1271.84 602.133 1266.23C588.238 1261.93 574.411 1257.38 560.373 1253.62C549.102 1250.61 537.59 1248.5 526.138 1246.21C508.333 1242.66 490.497 1239.2 472.646 1235.88C462.45 1233.99 452.208 1232.28 441.944 1230.79C430.144 1229.08 418.322 1227.56 406.476 1226.25C398.489 1225.36 390.441 1225.11 382.438 1224.37C375.729 1223.75 369.05 1222.82 362.363 1222.02C356.963 1221.36 351.562 1220.67 346.161 1220.01C332.524 1218.34 318.871 1216.79 305.255 1214.98C296.262 1213.8 287.329 1212.14 278.343 1210.9C268.843 1209.59 259.289 1208.64 249.797 1207.3C233.353 1204.99 216.969 1202.37 200.706 1198.98C173.673 1193.34 147.57 1184.72 121.625 1175.44C97.2444 1166.72 74.691 1154.6 53.0407 1140.65C40.8295 1132.79 28.6507 1124.87 17.4712 1115.56C13.2944 1112.08 9.06616 1108.65 4.99445 1105.06C-1.21405 1099.57 -7.58441 1094.23 -13.3723 1088.33C-19.5195 1082.06 -25.0768 1075.22 -30.8723 1068.6C-35.1354 1063.75 -39.2373 1058.74 -43.6395 1054.01C-52.6648 1044.31 -59.9656 1033.3 -67.8222 1022.71C-80.954 1005.04 -91.9626 985.983 -103.43 967.231C-107.474 960.625 -110.897 953.635 -114.634 946.841C-123.352 930.982 -132.255 915.222 -140.761 899.25C-147.803 886.03 -154.428 872.592 -161.161 859.214C-168.722 844.19 -176.255 829.15 -183.694 814.074C-194.347 792.481 -206.364 771.684 -219.554 751.512C-229.045 736.999 -238.874 722.719 -249.431 708.987C-260.14 695.053 -271.131 681.301 -283.967 669.141C-290.741 662.724 -297.281 656.06 -303.865 649.448C-311.55 641.731 -320.097 635.002 -328.326 627.899C-347.022 611.766 -367.349 597.884 -388.021 584.478C-396.934 578.698 -406.089 573.243 -415.411 568.139C-427.927 561.286 -440.557 554.6 -453.416 548.411C-473.76 538.619 -494.315 529.291 -516.146 523.045C-527.372 519.833 -538.452 516.11 -549.566 512.522C-561.457 508.683 -573.699 506.303 -585.924 503.908C-600.435 501.065 -615.007 498.528 -629.556 495.881C-630.574 495.696 -631.628 495.702 -632.665 495.618C-632.753 492.778 -632.915 489.939 -632.915 487.101C-632.928 389.68 -632.931 292.259 -632.906 194.839C-632.905 191.537 -633.383 188.153 -632.192 185.102C-629.451 183.341 -626.869 184.103 -624.379 184.586C-614.179 186.562 -603.955 188.442 -593.815 190.695C-554.973 199.326 -516.602 209.661 -479.095 222.961C-455.34 231.384 -431.912 240.615 -408.885 250.896C-383.732 262.126 -358.892 273.967 -334.453 286.642C-312.783 297.881 -291.423 309.673 -270.51 322.26C-261.582 327.633 -253.318 333.915 -245.434 340.647C-231.239 352.766 -217.034 364.873 -203.848 378.118C-191.944 390.075 -181.171 402.993 -170.191 415.754C-151.371 437.629 -135.343 461.445 -120.168 485.863C-107.856 505.674 -97.103 526.338 -87.304 547.462C-70.9522 582.711 -57.595 619.123 -46.0524 656.171C-36.981 685.287 -28.4398 714.564 -19.8002 743.816C-11.8066 770.88 -2.09674 797.283 9.51093 823.033C27.2605 862.416 50.2292 898.634 76.7499 932.628C94.7711 955.732 114.937 976.964 136.436 996.956C165.58 1024.06 197.416 1047.69 230.819 1069.25C243.019 1077.12 255.734 1084.23 268.449 1091.26C281.399 1098.43 294.598 1105.13 307.744 1111.93C328.31 1122.57 349.898 1130.89 371.501 1139.13C400.637 1150.23 430.159 1160.28 459.976 1169.4C487.305 1177.76 514.807 1185.55 542.265 1193.47C584.252 1205.55 625.687 1219.23 666.079 1235.86C689.867 1245.66 713.225 1256.41 735.206 1269.88C739.85 1272.72 744.388 1275.76 748.874 1278.84C755.939 1283.68 762.996 1288.53 769.909 1293.58C774.932 1297.24 779.879 1301.04 784.591 1305.09C799.144 1317.6 813.742 1330.11 826.828 1344.13C834.937 1352.82 842.69 1361.99 849.482 1371.73C867.696 1397.84 885.328 1424.35 903.118 1450.75C904.381 1452.63 905.054 1454.91 906 1457Z" fill="#FFDF60"/>
<path d="M958.001 1468C957.955 1465.36 959.733 1463.75 961.466 1462.2C967.261 1457.03 973.109 1451.92 978.95 1446.81C981.484 1444.59 984.094 1442.47 986.584 1440.2C993.09 1434.27 999.627 1428.37 1005.98 1422.29C1009.53 1418.9 1012.73 1415.14 1016.09 1411.56C1018.57 1408.92 1020.99 1406.22 1023.55 1403.65C1032.76 1394.42 1040.2 1383.85 1047.04 1372.86C1051.54 1365.61 1055.54 1358.07 1059.9 1350.72C1062.28 1346.72 1064.77 1342.78 1067.45 1338.97C1075.51 1327.51 1082.07 1315.19 1088.65 1302.86C1093.64 1293.51 1099.12 1284.42 1103.98 1275.01C1108.48 1266.29 1112.54 1257.33 1116.64 1248.4C1119.65 1241.83 1122.28 1235.08 1125.34 1228.52C1132.86 1212.33 1139.81 1195.91 1145.23 1178.9C1150.7 1161.65 1156.51 1144.5 1161.34 1127.09C1165 1113.92 1167.51 1100.44 1170.25 1087.05C1173.82 1069.61 1177.24 1052.14 1180.48 1034.64C1182.93 1021.46 1185.2 1008.23 1187.12 994.97C1188.2 987.582 1188.33 980.073 1189.06 972.639C1189.72 965.972 1190.6 959.335 1191.41 952.683C1191.54 951.661 1191.87 950.654 1191.91 949.632C1192.47 935.185 1194.57 920.911 1196.57 906.615C1199.23 887.734 1201.8 868.838 1204.31 849.942C1206.1 836.397 1207.47 822.8 1209.49 809.3C1211.43 796.297 1213.79 783.354 1216.27 770.441C1220.07 750.62 1225.99 731.333 1232.26 712.196C1239.68 689.594 1248.04 667.317 1259.83 646.505C1263.53 639.985 1267.38 633.548 1271.39 627.212C1279.27 614.748 1287.01 602.19 1296.38 590.734C1299.49 586.932 1302.49 583.039 1305.69 579.318C1315.49 567.928 1325.48 556.663 1336.79 546.747C1350.61 534.635 1364.46 522.496 1379.01 511.29C1393.79 499.916 1409.23 489.362 1425.35 479.875C1434.29 474.614 1443.17 469.23 1452.16 464.052C1459.8 459.651 1467.54 455.427 1475.28 451.193C1490.75 442.723 1506.08 433.958 1521.8 425.944C1542.15 415.564 1562.85 405.866 1583.34 395.744C1595.67 389.648 1608 383.517 1620.12 377.01C1632 370.628 1643.72 363.938 1655.31 357.038C1670.03 348.275 1684.21 338.684 1698.08 328.66C1708.37 321.226 1718.45 313.504 1728.47 305.721C1733.17 302.073 1737.73 298.194 1741.99 294.05C1752.96 283.384 1763.86 272.651 1774.49 261.665C1779.87 256.099 1784.46 249.775 1789.7 244.064C1799.53 233.359 1808.02 221.623 1816.58 209.951C1828.69 193.456 1839.76 176.28 1850.06 158.618C1861.01 139.839 1870.77 120.473 1879.64 100.632C1884.71 89.294 1889.72 77.948 1893.69 66.1901C1898.24 52.7312 1902.6 39.207 1906.94 25.6827C1912.17 9.41647 1915.02 -7.41199 1918.63 -24.0556C1920.55 -32.876 1922.18 -41.7619 1923.73 -50.6538C1924.3 -53.9438 1924.29 -57.3344 1924.56 -60.6785C1927.68 -60.7859 1930.79 -60.9874 1933.91 -60.9874C2032.21 -61.0039 2130.52 -61.0032 2228.82 -60.9911C2231.9 -60.9911 2234.99 -60.8453 2237.78 -60.7747C2239.68 -58.4483 2238.89 -56.4445 2238.52 -54.4699C2233.33 -26.7863 2226.96 0.632809 2219.62 27.8249C2212.27 55.0372 2203.31 81.7355 2193.45 108.147C2175.87 155.234 2154.08 200.416 2130.43 244.718C2120.45 263.42 2109.5 281.615 2098.87 299.975C2093.27 309.652 2085.99 318.125 2078.62 326.478C2068.35 338.128 2058.14 349.86 2047.42 361.092C2033.98 375.161 2018.8 387.369 2003.86 399.827C1980.29 419.49 1954.86 436.497 1928.41 452.005C1905.32 465.54 1881.26 477.193 1856.7 487.901C1831.19 499.028 1804.97 508.245 1778.6 517.022C1761.1 522.844 1743.28 527.678 1725.62 533.023C1697.52 541.529 1669.27 549.555 1641.41 558.777C1612.25 568.428 1584.42 581.246 1557.52 596.098C1534.29 608.932 1512.21 623.502 1491.07 639.432C1479.48 648.158 1468.44 657.631 1457.52 667.18C1448.36 675.193 1439.42 683.512 1430.91 692.202C1405.85 717.803 1383.36 745.516 1362.65 774.725C1346.89 796.958 1333.11 820.319 1320.14 844.199C1315.94 851.933 1311.77 859.675 1307.68 867.462C1296.49 888.809 1287.01 910.907 1278.68 933.471C1269.91 957.238 1261 980.982 1253.23 1005.07C1243.24 1036.06 1234.11 1067.33 1225 1098.58C1212.18 1142.52 1198.04 1186.01 1180.47 1228.33C1171.34 1250.31 1161.42 1271.95 1149.15 1292.42C1144.37 1300.39 1138.94 1307.99 1133.75 1315.73C1132.02 1318.3 1130 1320.69 1128.32 1323.29C1119.84 1336.37 1109.94 1348.32 1099.24 1359.64C1092.3 1366.97 1085.39 1374.35 1078.47 1381.7C1067.23 1393.65 1054.64 1404.07 1041.1 1413.29C1015.14 1430.94 988.967 1448.28 962.85 1465.71C961.383 1466.69 959.627 1467.25 958.001 1468Z" fill="#FFDF60"/>
<path d="M931.731 1462C931.723 1455.3 931.225 1448.59 932.855 1441.95C933.339 1439.98 933.112 1437.84 933.157 1435.77C933.263 1430.62 933.097 1425.46 934.357 1420.36C934.848 1418.4 934.667 1416.25 934.675 1414.19C934.72 1395.07 934.614 1375.95 934.818 1356.83C934.886 1350.05 933.958 1343.4 932.569 1336.88C930.259 1326.03 927.202 1315.34 924.613 1304.55C922.696 1296.52 921.118 1288.42 919.216 1280.38C917.254 1272.09 915.307 1263.8 912.967 1255.62C908.347 1239.48 903.788 1223.32 898.595 1207.36C895.002 1196.33 890.451 1185.6 886.239 1174.76C881.658 1162.96 877.265 1151.09 872.268 1139.46C866.864 1126.89 861.61 1114.23 854.342 1102.53C852.575 1099.69 851.179 1096.61 849.684 1093.59C839.812 1073.64 828.543 1054.53 815.734 1036.29C807.854 1025.09 800.57 1013.47 792.735 1002.24C781.338 985.921 769.872 969.651 758.06 953.63C752.399 945.957 745.809 938.961 739.763 931.566C729.8 919.362 719.776 907.195 710.055 894.804C697.291 878.541 684.754 862.107 672.186 845.687C663.703 834.61 655.294 823.473 646.931 812.306C639.964 803.002 632.801 793.812 626.272 784.208C619.743 774.604 613.818 764.594 607.772 754.675C599.967 741.862 592.774 728.688 586.472 715.086C580.501 702.199 574.372 689.318 569.511 676.006C564.915 663.423 561.624 650.343 558.227 637.361C555.94 628.637 554.317 619.73 552.687 610.853C551.562 604.78 550.845 598.629 550.106 592.494C549.117 584.316 548.249 576.122 547.388 567.928C547.177 565.878 547.102 563.805 547.086 561.743C547.041 553.217 546.913 544.687 547.094 536.165C547.192 531.286 547.849 526.418 548.241 521.544C548.37 520.001 548.445 518.453 548.543 516.908C549.124 507.908 549.223 498.845 550.392 489.921C552.234 475.875 554.604 461.886 557.095 447.935C560.507 428.867 565.488 410.146 570.508 391.453C574.055 378.239 577.98 365.121 581.95 352.024C588.087 331.755 594.133 311.452 600.73 291.328C608.617 267.269 617.184 243.432 625.185 219.409C632.295 198.073 637.813 176.301 641.957 154.199C644.568 140.262 647.399 126.346 649.361 112.314C651.294 98.5491 653.46 84.7504 652.992 70.7525C652.947 69.2067 652.833 67.5978 653.173 66.1159C655.181 57.425 654.917 48.5417 654.139 39.8779C653.166 29.049 653.717 18.1788 652.645 7.43108C651.218 -6.9057 650.116 -21.3026 647.323 -35.5011C645.686 -43.8283 644.802 -52.3035 643.587 -60.7118C646.697 -60.79 649.807 -60.9365 652.916 -60.9373C736.465 -60.9501 820.013 -60.9523 903.554 -60.9298C906.883 -60.929 910.265 -61.3469 913.971 -60.1527C914.22 -58.6746 914.755 -57.2002 914.657 -55.7693C914.046 -47.0176 913.48 -38.2553 912.559 -29.5328C909.283 1.35685 902.883 31.6641 894.512 61.5363C887.402 86.9222 878.638 111.766 868.486 136.137C854.659 169.345 838.687 201.504 821.531 233.104C814.624 245.828 807.642 258.51 800.796 271.266C791.014 289.487 780.824 307.512 771.714 326.062C753.199 363.783 739.039 403.089 730.268 444.251C726.283 462.948 722.826 481.726 720.388 500.679C719.527 507.331 719.082 514.039 718.622 520.733C717.218 541.349 715.995 561.979 717.119 582.649C717.92 597.336 718.825 612.022 720.041 626.68C720.727 634.899 721.897 643.097 723.264 651.237C726.086 668.035 728.804 684.866 732.283 701.537C735.084 714.914 738.624 728.17 742.42 741.313C747.304 758.184 752.633 774.927 758.037 791.64C763.924 809.856 771.563 827.411 779.368 844.867C792.343 873.897 806.118 902.559 820.98 930.679C831.607 950.796 842.529 970.756 853.64 990.603C871.838 1023.1 889.319 1055.97 905.132 1089.67C917.865 1116.83 929.474 1144.48 938.584 1173.08C943.921 1189.83 948.714 1206.72 950.571 1224.29C950.865 1227.1 951.469 1229.9 952.11 1232.66C955.243 1246.06 956.156 1259.71 956.669 1273.39C957.175 1286.54 957.786 1299.69 957.983 1312.86C958.186 1326.32 956.579 1339.7 954.096 1352.88C947.785 1386.36 941.075 1419.77 934.441 1453.19C933.852 1456.19 932.652 1459.07 931.731 1462Z" fill="#FFDF60"/>
<path d="M901 1483.61C894.777 1483.6 888.553 1483.9 882.39 1482.4C880.175 1481.86 877.732 1482.27 875.403 1482.11C870.753 1481.76 866.117 1481.23 861.467 1480.95C857.323 1480.69 853.164 1480.63 849.012 1480.53C843.053 1480.38 837.072 1480.84 831.174 1479.35C829.45 1478.91 827.552 1479.04 825.744 1479.09C815.12 1479.37 804.427 1478.13 793.886 1480.4C776.532 1480.3 760.001 1484.68 743.501 1489.39C736.771 1491.3 729.898 1492.76 723.024 1494.12C707.976 1497.1 693.208 1501.03 678.621 1505.78C669.252 1508.83 659.671 1511.26 650.264 1514.2C641.598 1516.91 632.955 1519.73 624.448 1522.87C611.056 1527.81 597.732 1532.94 584.483 1538.23C577.254 1541.11 570.123 1544.27 563.129 1547.68C548.897 1554.6 534.673 1561.57 520.661 1568.91C497.877 1580.84 476.205 1594.58 455.213 1609.42C443.152 1617.95 430.69 1625.94 418.591 1634.42C406.5 1642.91 394.416 1651.44 382.733 1660.46C372.086 1668.69 361.991 1677.63 351.631 1686.23C348.644 1688.71 345.634 1691.18 342.557 1693.55C324.295 1707.62 306.071 1721.74 287.71 1735.68C269.146 1749.79 250.582 1763.91 231.745 1777.66C215.411 1789.59 198.632 1800.9 180.65 1810.28C167.303 1817.25 153.994 1824.29 140.496 1830.94C116.399 1842.82 91.0612 1851.16 64.7097 1856.48C56.5723 1858.12 48.4886 1860.04 40.3264 1861.53C33.1985 1862.84 26.033 1863.86 18.7524 1864.27C8.15826 1864.88 -2.38751 1866.35 -12.9824 1866.89C-19.9477 1867.25 -26.9651 1866.62 -33.9568 1866.38C-35.2446 1866.34 -36.5157 1865.92 -37.8058 1865.84C-48.1572 1865.24 -58.5192 1864.79 -68.8631 1864.08C-74.8052 1863.67 -80.7609 1863.12 -86.6365 1862.17C-100.962 1859.86 -115.3 1857.57 -129.527 1854.75C-140.971 1852.48 -152.299 1849.58 -163.603 1846.67C-176.915 1843.24 -190.172 1839.59 -203.401 1835.85C-213.642 1832.96 -223.819 1829.84 -233.997 1826.72C-250.877 1821.56 -267.822 1816.58 -284.578 1811.05C-302.817 1805.02 -320.816 1798.28 -339.022 1792.15C-365.872 1783.11 -393.337 1776.35 -421.149 1770.99C-431.84 1768.92 -442.514 1766.63 -453.298 1765.24C-465.105 1763.71 -476.965 1762.47 -488.825 1761.3C-507.273 1759.49 -525.674 1760.57 -544.087 1760.18C-547.429 1760.12 -550.786 1760.76 -554.134 1761.09C-555.166 1761.19 -556.186 1761.43 -557.22 1761.49C-566.531 1762.09 -575.872 1762.38 -585.148 1763.32C-593.647 1764.19 -602.088 1765.67 -610.533 1767.01C-617.952 1768.19 -625.341 1769.55 -632.744 1770.83C-632.83 1767.99 -632.989 1765.15 -632.989 1762.3C-633.003 1678.21 -633.003 1594.12 -632.993 1510.03C-632.992 1506.96 -632.881 1503.88 -632.812 1500.33C-630.669 1500.02 -628.942 1499.44 -627.289 1499.61C-613.341 1500.98 -599.362 1502.16 -585.48 1504.04C-574.175 1505.57 -562.971 1507.88 -551.754 1510.01C-524.647 1515.16 -498.22 1522.8 -472.114 1531.62C-452.411 1538.28 -433.104 1546.01 -414.213 1554.6C-392.48 1564.49 -370.969 1574.94 -349.782 1585.93C-323.062 1599.81 -296.811 1614.58 -270.275 1628.81C-248.069 1640.72 -225.34 1651.5 -201.779 1660.57C-168.222 1673.5 -133.787 1683.05 -98.3022 1688.98C-81.9073 1691.72 -65.5328 1694.34 -48.8831 1695.09C-35.6597 1695.69 -22.4628 1697.36 -9.24542 1697.46C6.84399 1697.59 22.9742 1697.03 39.0295 1695.93C57.668 1694.67 76.19 1692.18 94.6546 1689.17C112.088 1686.34 129.562 1683.72 146.659 1679.29C184.884 1669.37 222.905 1658.7 259.384 1643.34C289.306 1630.75 318.623 1616.83 347.661 1602.32C376.237 1588.04 404.208 1572.65 432.134 1557.18C459.849 1541.84 487.843 1527.01 516.525 1513.54C547.566 1498.98 579.069 1485.52 611.857 1475.23C628.75 1469.94 645.931 1466.05 663.452 1463.57C671.414 1462.46 679.309 1460.84 687.287 1459.9C696.565 1458.81 705.881 1457.89 715.205 1457.5C726.624 1457.02 738.072 1457.23 749.506 1457.02C764.115 1456.76 778.513 1458.64 792.865 1461.07C826.153 1466.72 859.115 1473.96 892.137 1480.89C895.147 1481.52 898.051 1482.69 901 1483.61Z" fill="#FFDF60"/>
</g>
</svg>
