<svg width="1920" height="2942" viewBox="0 0 1920 2942" fill="none" xmlns="http://www.w3.org/2000/svg">
<mask id="mask0_360_1158" style="mask-type:alpha" maskUnits="userSpaceOnUse" x="0" y="0" width="1921" height="2942">
<path fill-rule="evenodd" clip-rule="evenodd" d="M92.8846 81H0V81.3749V490.234V2942H1920V490.234H1921V43.6646H1895.44L1913.7 35.7256L1884.48 37.7103L1895.44 35.7256H1837C1834.08 35.7256 1845.52 33.0792 1851.61 31.7561H1807.79C1799.02 31.7561 1811.44 29.1097 1818.74 27.7866H1789.52L1800.48 21.8323L1767.61 23.8171L1763.96 15.878L1749.35 17.8628L1756.66 9.92377C1750.57 9.26219 1737.67 7.93902 1734.74 7.93902C1731.82 7.93902 1721.35 13.2317 1716.48 15.878L1727.44 5.95426H1712.83L1698.22 15.878H1683.61L1690.92 9.92377H1679.96L1672.66 13.8933L1654.4 15.878L1661.7 9.92377H1490.05L1497.36 7.93902L1453.53 5.95426V7.93902H1402.4L1398.75 11.9085H1387.79L1373.19 15.878H1343.97L1351.27 11.9085L1311.1 13.8933L1318.4 11.9085H1252.67H1212.49L1216.15 7.93902L1197.89 9.92377L1201.54 5.95426H1186.93L1190.58 3.96951H1132.15L1124.84 0L1110.24 5.95426H1095.63L1110.24 0C1087.11 0.661585 1039.39 1.98475 1033.54 1.98475C1027.7 1.98475 1043.28 4.63109 1051.8 5.95426L975.108 3.96951L989.717 0H949.544L945.892 1.98475H905.719L916.675 5.95426L850.937 3.96951L854.589 7.93902L788.852 9.92377V7.93902H774.243L785.2 1.98475L671.985 3.96951L679.289 7.93902H609.899L598.943 9.92377H584.335L562.422 21.8323L573.378 9.92377L540.51 17.8628L525.901 21.8323L533.205 15.878L511.293 21.8323L507.641 17.8628L489.38 23.8171V29.7713H463.816H445.555L430.947 33.7408L434.599 29.7713H405.382L409.034 33.7408H365.209L376.165 35.7256L332.34 39.6951H449.207L463.816 45.6493H405.382V49.6189H335.992L346.949 55.5731H255.646L244.69 57.5579H226.43C220.586 57.5579 231.299 54.9115 237.386 53.5884H200.865L208.169 57.5579L116.867 53.5884L127.823 49.6189H29.2167L40.173 61.5274L73.0418 69.4664H29.2167L92.8846 81Z" fill="#F8D548"/>
</mask>
<g mask="url(#mask0_360_1158)">
<rect x="-52.0176" y="-31.8066" width="2049" height="2996" fill="#F8D548" stroke="black"/>
<rect x="-15.5176" y="-29.3066" width="1921" height="292" fill="#F8D548"/>
<path d="M2425.96 1424.14V1719.47C2424.72 1722.33 2423.47 1725.2 2422.19 1728.16C2420.9 1728.16 2419.9 1728.32 2418.96 1728.14C2402.06 1724.78 2385.18 1721.39 2368.59 1716.61C2329.55 1705.35 2292.09 1690.43 2256.97 1669.92C2223.51 1650.38 2191.59 1628.63 2162.04 1603.55C2135.43 1580.96 2109.07 1558.08 2081.26 1536.94C2055.84 1517.62 2030.97 1497.6 2004.26 1480.02C1962.99 1452.86 1919.41 1430.52 1871.49 1417.23C1847.82 1410.66 1823.64 1407.07 1799.25 1404.67C1783.27 1403.09 1767.33 1403.53 1751.33 1404.54C1723.1 1406.31 1695.07 1409.51 1667.55 1416.12C1648.14 1420.78 1628.92 1426.24 1609.65 1431.49C1574.96 1440.94 1540.31 1450.54 1506.09 1461.62C1492.08 1466.16 1478.16 1471.08 1463.93 1474.82C1441.48 1480.72 1418.85 1485.96 1396.21 1491.13C1378.69 1495.13 1361.12 1499.02 1343.43 1502.18C1330.17 1504.53 1316.7 1505.74 1303.3 1507.27C1283.18 1509.56 1263.01 1511.05 1242.73 1510.71C1230.74 1510.5 1218.73 1510.76 1206.74 1510.56C1198.76 1510.42 1190.77 1509.96 1182.8 1509.42C1175.57 1508.94 1168.37 1508.08 1161.16 1507.51C1143.47 1506.12 1125.77 1504.93 1108.31 1501.57C1101.94 1500.35 1095.5 1499.32 1089.04 1498.78C1069.24 1497.15 1050.07 1493.07 1031.47 1486.01C1005.06 1475.97 979.525 1464.04 954.044 1451.95C950.91 1450.46 947.617 1449.29 944.397 1447.97C941.467 1446.28 938.559 1444.53 935.564 1442.95C934.873 1442.59 933.87 1442.81 932.212 1442.71C935.135 1448.1 937.534 1452.81 940.994 1456.91C941.569 1457.46 942.15 1458 942.724 1458.54L942.615 1458.43C943.153 1459.46 943.684 1460.48 944.222 1461.5L944.142 1461.43C944.484 1463.1 945.131 1464.48 947.166 1464.51L947.123 1464.44C946.527 1466.95 948.097 1468.71 949.326 1470.54C965.821 1495.14 982.171 1519.83 998.928 1544.25C1004.69 1552.64 1011.01 1560.77 1017.91 1568.25C1044.04 1596.57 1073.46 1621.11 1105.83 1642.13C1106.88 1642.81 1107.95 1643.44 1109.02 1644.09C1131.41 1657.84 1155.19 1668.84 1179.46 1678.8C1219.91 1695.41 1261.46 1708.91 1303.54 1720.8C1352.56 1734.65 1401.45 1748.93 1449.15 1766.88C1464.8 1772.76 1480.47 1778.65 1495.87 1785.14C1525.84 1797.77 1554.24 1813.5 1582.18 1829.96C1596.34 1838.31 1609.87 1847.75 1623.4 1857.11C1644.74 1871.89 1665.15 1887.87 1684.03 1905.69C1691.28 1912.53 1698.76 1919.16 1705.71 1926.28C1712.5 1933.22 1718.65 1940.77 1725.28 1947.87C1742.84 1966.7 1757.78 1987.53 1771.88 2008.95C1785.98 2030.4 1798.55 2052.72 1808.87 2076.24C1815.57 2091.49 1822.42 2106.71 1827.4 2122.63C1835.12 2147.3 1842.55 2172.05 1850.09 2196.77C1855.53 2214.6 1860.55 2232.56 1866.48 2250.24C1874.31 2273.56 1882.69 2296.69 1892.27 2319.4C1902.54 2343.74 1914.16 2367.4 1927.47 2390.18C1941.9 2414.89 1957.74 2438.74 1976.11 2460.83C1987.57 2474.61 1999.02 2488.4 2011.56 2501.25C2024.1 2514.11 2037.76 2525.75 2051.4 2537.4C2059.94 2544.68 2068.78 2551.55 2078.45 2557.36C2101.35 2571.1 2124.81 2583.84 2148.58 2596.01C2175.03 2609.54 2201.92 2622.11 2229.3 2633.66C2260.37 2646.76 2292.17 2657.97 2324.57 2667.34C2352.15 2675.31 2380.07 2681.97 2408.28 2687.44C2414.15 2688.58 2420.06 2689.48 2425.96 2690.48V2927.65H2043.53C2042.82 2925.15 2040.41 2924.57 2038.57 2923.45C2007.4 2904.52 1977.34 2883.92 1948.25 2862.04C1922.55 2842.7 1897.72 2822.21 1872.69 2802.03C1851.84 2785.23 1833.35 2765.98 1815.81 2745.89C1798.61 2726.17 1782.77 2705.39 1768.24 2683.59C1734.34 2632.73 1709.73 2577.97 1696.1 2518.37C1688.56 2485.35 1682.91 2452.08 1680.38 2418.31C1679.1 2401.21 1677.8 2384.11 1676.22 2367.04C1674.93 2353.19 1673.34 2339.36 1671.65 2325.55C1668.07 2296.2 1664.62 2266.84 1659.54 2237.68C1652.73 2198.57 1641.28 2160.83 1626.51 2124.04C1624.94 2120.12 1623.14 2116.29 1621.26 2112.5C1610.08 2089.94 1597.5 2068.24 1582.16 2048.15C1571.72 2034.47 1561.23 2020.83 1548.76 2008.94C1523.44 1984.81 1496.29 1962.93 1466.73 1944.07C1449.89 1933.32 1432.23 1923.99 1414.85 1914.18C1377.92 1893.29 1340.91 1872.56 1302.82 1853.8C1283.77 1844.42 1265.35 1833.93 1247.35 1822.69C1237.82 1816.75 1228.47 1810.51 1218.81 1804.82C1187.97 1786.64 1159.17 1765.69 1131.75 1742.79C1120.64 1733.52 1109.81 1723.95 1099.57 1713.74C1078.41 1692.6 1057.35 1671.42 1038.49 1648.12C1027.68 1634.76 1016.43 1621.79 1006.62 1607.64C1002.23 1601.31 997.278 1595.35 992.421 1589.36C982.985 1577.7 974.545 1565.42 968.285 1551.75C965.174 1544.96 962.077 1538.18 959.118 1531.34C949.645 1509.4 941.976 1486.8 933.971 1464.31C932.896 1461.27 931.95 1458.2 929.813 1455.68C929.13 1452.58 928.526 1449.45 927.712 1446.39C927.509 1445.62 926.643 1445.03 925.415 1443.57C923.765 1449.94 921.54 1455.13 921.664 1460.9C920.719 1463.97 919.512 1466.99 918.872 1470.11C912.431 1501.5 905.932 1532.88 899.796 1564.33C897.557 1575.77 896.117 1587.39 896.154 1599.11C896.197 1614.25 896.219 1629.38 897.288 1644.53C898.269 1658.44 900.363 1672.12 902.304 1685.89C905.866 1711.17 913.231 1735.35 921.882 1759.21C928.999 1778.86 937.308 1798.03 946.163 1816.96C961.444 1849.64 978.42 1881.47 995.991 1912.99C1006.17 1931.25 1016.56 1949.39 1026.12 1967.97C1038.19 1991.41 1049.64 2015.17 1061.11 2038.91C1065.99 2048.98 1070.3 2059.31 1074.78 2069.57C1088.75 2101.57 1098.64 2134.94 1107.67 2168.56C1117.1 2203.67 1123.04 2239.42 1125.93 2275.64C1127.07 2289.98 1127.63 2304.37 1128.41 2318.74C1129.07 2330.93 1127.66 2343.06 1127.08 2355.21C1126.69 2363.64 1126.27 2372.09 1125.29 2380.46C1122.53 2404.16 1118.34 2427.63 1112.71 2450.83C1107.31 2473.09 1100.04 2494.75 1091.75 2516.11C1083.72 2536.79 1074.15 2556.73 1063.62 2576.22C1050.73 2600.08 1037.32 2623.65 1024.56 2647.58C1009.57 2675.68 995.395 2704.18 983.116 2733.6C968.903 2767.65 957.461 2802.5 949.289 2838.49C942.608 2867.9 939.177 2897.68 936.727 2927.65H641.279C639.389 2924.32 634.838 2925.19 632.701 2922.37C632.599 2921.78 632.374 2921.28 632.454 2920.82C633.399 2915.7 634.315 2910.56 635.376 2905.46C644.325 2862.4 658.196 2821.01 678.392 2781.85C699.344 2741.23 724.752 2703.48 754.18 2668.45C778.047 2640.02 802.867 2612.4 825.432 2582.89C844.036 2558.56 863.25 2534.7 880.56 2509.39C900.886 2479.68 917.36 2447.93 931.783 2415.07C933.782 2410.53 935.469 2405.83 936.981 2401.1C940.318 2390.68 943.757 2380.29 946.592 2369.73C952.401 2348.07 955.556 2325.93 957.766 2303.65C959.343 2287.77 958.965 2271.9 957.948 2255.99C956.137 2227.65 952.931 2199.52 946.199 2171.92C941.481 2152.62 936.022 2133.49 930.744 2114.33C920.828 2078.38 910.759 2042.49 899.025 2007.07C893.013 1988.9 886.79 1970.79 882.435 1952.12C878.03 1933.24 873.493 1914.39 869.248 1895.48C865.875 1880.45 862.48 1865.41 859.812 1850.24C857.667 1838.03 856.526 1825.63 855.057 1813.29C852.687 1793.29 850.891 1773.25 851.175 1753.07C851.357 1740.39 851.117 1727.71 851.328 1715.04C851.466 1706.6 851.953 1698.15 852.505 1689.73C852.942 1683.04 853.763 1676.38 854.33 1669.69C855.791 1652.36 856.671 1634.98 860.11 1617.85C861.527 1610.8 862.567 1603.64 863.185 1596.47C864.893 1576.79 868.921 1557.7 876.198 1539.25C883.504 1520.72 891.472 1502.51 900.123 1484.58C903.693 1477.19 907.291 1469.81 910.81 1462.39C911.399 1461.15 912.489 1459.81 911.188 1458.33L911.108 1458.44C912.722 1458.98 912.656 1457.82 912.765 1456.83L912.635 1457.04C914.336 1456.21 914.067 1454.57 914.27 1453.12C915.448 1449.02 919.963 1446.3 919.359 1440.86C913.878 1442.79 909.487 1445.8 905.256 1449.1C904.231 1449.74 903.213 1450.38 902.188 1451.01L902.275 1450.96C901.737 1451.46 901.199 1451.97 900.654 1452.48L900.741 1452.39C900.21 1452.91 899.687 1453.43 899.156 1453.95L899.229 1453.88C897.833 1453.66 896.764 1454.07 896.168 1455.42L896.197 1455.38C894.387 1456.15 892.402 1456.65 890.781 1457.72C865.388 1474.49 839.914 1491.16 814.738 1508.26C806.305 1513.98 798.323 1520.48 790.697 1527.25C777.269 1539.19 765.405 1552.71 753.461 1566.08C740.157 1580.97 729.339 1597.75 717.889 1614.04C717.031 1615.26 716.319 1616.57 715.526 1617.85C702.252 1639.29 691.688 1662.09 682.034 1685.3C664.623 1727.15 650.73 1770.2 638.182 1813.71C630.607 1839.98 622.93 1866.24 614.497 1892.25C606.369 1917.31 597.536 1942.16 588.427 1966.9C580.089 1989.54 570.74 2011.79 559.384 2033.15C555.415 2040.62 551.424 2048.08 547.411 2055.53C534.303 2079.87 520.018 2103.47 503.835 2125.97C485.776 2151.08 466.322 2174.98 444.869 2197.3C434.146 2208.45 423.023 2219.16 411.209 2229.15C403.794 2235.43 396.51 2241.89 388.789 2247.78C354.366 2274.05 317.879 2296.95 277.894 2314.04C264.583 2319.73 251.236 2325.29 237.496 2329.97C210.292 2339.23 182.565 2346.74 155.019 2354.87C118.116 2365.77 81.4843 2377.39 45.7877 2391.83C12.6073 2405.25 -19.277 2421.15 -49.7792 2439.84C-80.7423 2458.81 -109.231 2480.98 -136.068 2505.3C-150.121 2518.03 -162.998 2531.92 -175.514 2546.15C-188.22 2560.6 -199.816 2575.81 -209.197 2592.63C-216.107 2605.01 -223.367 2617.22 -229.992 2629.75C-252.098 2671.57 -272.772 2714.06 -289.709 2758.27C-306.382 2801.79 -319.359 2846.37 -329.168 2891.89C-331.733 2903.78 -334.09 2915.72 -336.543 2927.65H-575V2547.29C-572.583 2545.57 -570.607 2543.56 -569.015 2540.95C-549.941 2509.7 -529.046 2479.63 -506.872 2450.51C-487.57 2425.16 -467.242 2400.58 -446.945 2375.99C-427.698 2352.69 -405.688 2332.06 -382.473 2312.71C-363.686 2297.04 -343.999 2282.61 -323.417 2269.34C-280.993 2241.99 -235.85 2220.59 -187.063 2207.05C-138.009 2193.43 -87.9722 2185.93 -37.1667 2183.15C-28.9372 2182.7 -20.7011 2182.16 -12.5094 2181.29C7.10689 2179.18 26.7152 2176.99 46.2966 2174.58C71.5776 2171.47 96.8804 2168.53 121.955 2163.92C147.783 2159.15 173.317 2153.29 198.122 2144.63C213.2 2139.36 228.459 2134.52 242.955 2127.75C276.179 2112.21 306.596 2092.37 334.44 2068.61C340.125 2063.76 345.744 2058.78 350.899 2053.38C375.405 2027.75 397.986 2000.54 416.655 1970.36C426.992 1953.65 436.523 1936.44 446.323 1919.41C467.42 1882.74 488.117 1845.86 506.968 1807.98C516.07 1789.69 526.328 1772.07 537.175 1754.78C546.436 1740.02 555.829 1725.34 565.084 1710.58C577.261 1691.15 591.008 1672.88 605.112 1654.79C628.484 1624.79 655.855 1598.62 682.899 1572.11C684.324 1570.71 685.851 1569.42 687.377 1568.15C700.165 1557.39 712.895 1546.58 725.777 1535.95C731.731 1531.03 737.947 1526.43 744.112 1521.76C753.853 1514.39 763.777 1507.26 773.387 1499.72C785.608 1490.14 798.425 1481.58 812.71 1475.34C821.165 1471.63 829.547 1467.7 838.176 1464.45C856.86 1457.4 875.682 1450.73 894.438 1443.88C896.474 1443.15 898.473 1442.3 900.486 1441.51C900.428 1441.18 900.363 1440.85 900.305 1440.53C898.146 1440.47 895.979 1440.41 893.82 1440.34C896.168 1438.7 898.858 1439.15 901.468 1439.09C903.38 1441.05 904.063 1441 905.219 1438.81C909.385 1436.66 914.881 1437.84 919.047 1433.47C913.034 1432.31 908.004 1430.15 902.493 1430.05C899.658 1429.17 896.866 1428.05 893.973 1427.44C862.225 1420.78 830.536 1413.83 798.534 1408.4C784.736 1406.07 770.894 1404.27 756.848 1404.52C745.856 1404.72 734.85 1404.51 723.872 1404.98C714.908 1405.35 705.952 1406.24 697.032 1407.28C689.362 1408.19 681.772 1409.74 674.117 1410.81C657.273 1413.19 640.756 1416.93 624.515 1422.01C592.993 1431.89 562.706 1444.82 532.864 1458.81C505.289 1471.74 478.376 1485.98 451.732 1500.72C424.884 1515.58 397.993 1530.36 370.52 1544.08C342.604 1558.01 314.418 1571.38 285.651 1583.47C250.582 1598.22 214.029 1608.47 177.279 1618C160.842 1622.26 144.043 1624.77 127.283 1627.49C109.531 1630.38 91.7246 1632.77 73.8058 1633.98C58.3704 1635.04 42.863 1635.58 27.3949 1635.45C14.6879 1635.35 2.00052 1633.75 -10.7123 1633.17C-26.7191 1632.46 -42.4613 1629.94 -58.2231 1627.3C-92.3378 1621.61 -125.443 1612.44 -157.705 1600.02C-180.356 1591.3 -202.207 1580.95 -223.555 1569.51C-249.067 1555.85 -274.304 1541.66 -299.992 1528.33C-320.362 1517.77 -341.042 1507.74 -361.935 1498.24C-380.097 1489.98 -398.659 1482.57 -417.601 1476.17C-442.698 1467.69 -468.106 1460.35 -494.166 1455.42C-504.95 1453.37 -515.721 1451.15 -526.59 1449.68C-539.936 1447.88 -553.374 1446.74 -566.784 1445.42C-568.374 1445.27 -570.033 1445.82 -572.094 1446.11C-572.16 1449.52 -572.267 1452.48 -572.268 1455.43C-572.277 1536.19 -572.277 1616.96 -572.264 1697.73C-572.264 1700.46 -572.111 1703.19 -572.03 1705.92C-572.098 1707.9 -572.227 1709.89 -572.227 1711.87C-572.236 1817.66 -575 1448 -575 1152.67C-571.209 1150.35 -570.705 1145.64 -567.842 1142.47C-563 1143.4 -558.352 1144.26 -553.717 1145.19C-505.416 1154.9 -459.264 1170.66 -415.944 1194.16C-374.334 1216.74 -335.684 1243.61 -299.96 1274.59C-275.848 1295.5 -251.388 1315.97 -226.004 1335.35C-201.825 1353.81 -177.956 1372.66 -152.708 1389.71C-122.61 1410.02 -90.4977 1426.54 -57.169 1440.84C-53.2767 1442.51 -49.2594 1443.91 -45.2427 1445.27C-22.9795 1452.81 -0.387652 1458.98 22.9268 1462.48C45.9498 1465.94 69.0142 1468.42 92.3309 1467.1C102.8 1466.51 113.256 1465.64 123.704 1464.73C148.132 1462.6 172.285 1458.71 196.028 1452.61C212.713 1448.34 229.266 1443.56 245.878 1439C281.762 1429.18 317.595 1419.19 352.956 1407.63C365.533 1403.52 378.052 1399.14 390.847 1395.83C413.558 1389.97 436.421 1384.64 459.307 1379.45C477.074 1375.43 494.907 1371.6 512.842 1368.4C524.859 1366.27 537.124 1365.46 549.264 1363.97C569.118 1361.53 589.031 1360.07 609.044 1360.21C622.29 1360.3 635.536 1360.24 648.782 1360.34C653.267 1360.37 657.767 1360.6 662.245 1360.94C678.181 1362.16 694.117 1363.41 710.038 1364.78C716.501 1365.34 722.949 1366.13 729.375 1367C743.966 1369 758.52 1371.31 773.133 1373.12C786.808 1374.82 800.264 1377.23 813.306 1381.79C832.659 1388.56 851.48 1396.55 870.026 1405.23C883.577 1411.56 897.099 1417.96 910.628 1424.32C913.609 1425.53 916.575 1426.76 919.577 1427.91C919.919 1428.04 920.457 1427.67 921.693 1427.28C919.054 1422.5 916.844 1417.68 913.122 1413.7C912.482 1412.69 911.849 1411.67 911.21 1410.65L911.282 1410.75C910.766 1410.22 910.25 1409.68 909.734 1409.14L909.814 1409.22C909.298 1408.7 908.774 1408.17 908.251 1407.65L908.331 1407.72C908.571 1406.32 908.12 1405.27 906.768 1404.68L906.819 1404.71C905.91 1402.7 905.263 1400.51 904.049 1398.7C886.95 1373.3 870.004 1347.79 852.498 1322.67C845.97 1313.31 838.518 1304.49 830.725 1296.13C818.148 1282.64 804.117 1270.6 790.13 1258.57C785.601 1254.67 780.846 1251.01 776.019 1247.49C769.374 1242.64 762.591 1237.97 755.801 1233.31C751.49 1230.35 747.129 1227.43 742.665 1224.7C721.539 1211.74 699.089 1201.4 676.225 1191.97C637.404 1175.97 597.58 1162.81 557.225 1151.19C530.835 1143.57 504.402 1136.07 478.136 1128.03C449.478 1119.26 421.104 1109.6 393.1 1098.91C372.337 1090.99 351.589 1082.98 331.822 1072.75C319.187 1066.21 306.501 1059.76 294.055 1052.87C281.835 1046.1 269.614 1039.26 257.888 1031.69C225.784 1010.95 195.185 988.213 167.174 962.14C146.511 942.907 127.13 922.482 109.809 900.256C84.3195 867.553 62.2438 832.71 45.1843 794.823C34.028 770.051 24.6956 744.651 17.0128 718.615C8.70914 690.474 0.500014 662.309 -8.21875 634.299C-19.3126 598.658 -32.1504 563.629 -47.8665 529.719C-57.2846 509.397 -67.6194 489.518 -79.4526 470.459C-94.0382 446.969 -109.442 424.058 -127.531 403.014C-138.084 390.737 -148.438 378.31 -159.879 366.807C-172.553 354.065 -186.206 342.418 -199.848 330.759C-207.426 324.283 -215.369 318.24 -223.949 313.071C-244.049 300.962 -264.579 289.617 -285.407 278.805C-308.896 266.612 -332.769 255.22 -356.944 244.417C-379.076 234.527 -401.594 225.647 -424.425 217.544C-460.473 204.748 -497.353 194.806 -534.685 186.503C-544.43 184.335 -554.257 182.526 -564.06 180.626C-566.454 180.161 -568.935 179.428 -571.57 181.122C-572.714 184.057 -572.255 187.313 -572.256 190.489C-572.28 284.209 -572.277 377.93 -572.264 471.65C-572.264 474.38 -572.109 477.112 -572.025 479.843C-572.094 481.828 -572.224 483.813 -572.224 485.798C-572.235 589.415 -575 230.378 -575 -57H-191.069C-188.727 -55.2806 -186.497 -53.3805 -184.026 -51.8701C-152.714 -32.7226 -122.473 -11.9708 -93.1796 10.0529C-69.0763 28.1743 -45.8411 47.4403 -22.3063 66.3036C0.144524 84.2978 20.0778 104.879 38.9518 126.463C59.4805 149.939 77.9329 174.994 94.4551 201.416C114.046 232.745 130.518 265.647 142.478 300.59C159.715 350.942 169.45 402.853 173.499 455.848C174.597 470.213 175.498 484.593 176.705 498.949C177.577 509.344 178.632 519.729 179.904 530.082C182.536 551.53 185.4 572.949 188.104 594.388C191.594 622.02 196.254 649.451 203.487 676.36C212.655 710.502 223.77 743.943 240.927 775.12C262.097 813.585 288.043 848.226 321.325 877.292C351.487 903.632 383.802 926.842 419.075 945.937C426.091 949.74 433.077 953.608 440.02 957.549C476.049 977.967 512.195 998.183 549.366 1016.51C569.54 1026.45 589.045 1037.53 608.078 1049.46C617.376 1055.29 626.521 1061.38 635.987 1066.93C669.05 1086.29 699.46 1109.23 728.605 1133.93C733.737 1138.27 738.841 1142.69 743.646 1147.38C755.94 1159.4 768.008 1171.64 780.279 1183.69C788.48 1191.73 796.127 1200.23 803.376 1209.11C808.414 1215.28 813.539 1221.39 818.802 1227.38C827.519 1237.3 835.741 1247.59 843.396 1258.37C849.009 1266.28 854.955 1273.97 861.069 1281.5C871.952 1294.92 881.439 1309.18 888.273 1325.05C893.58 1337.38 898.945 1349.69 903.78 1362.21C909.508 1377.05 914.699 1392.09 920.137 1407.03C921.14 1409.8 921.831 1412.74 924.194 1414.8C925.386 1418.55 924.608 1423.04 928.555 1426.34C930.656 1420.67 932.379 1415.42 932.336 1409.75C933.223 1406.93 934.379 1404.16 934.946 1401.28C941.336 1369.12 947.799 1336.98 953.877 1304.76C956.268 1292.08 957.817 1279.21 957.62 1266.26C957.431 1253.59 956.843 1240.94 956.355 1228.28C955.861 1215.12 954.981 1201.99 951.964 1189.09C951.346 1186.44 950.765 1183.74 950.482 1181.04C948.693 1164.13 944.077 1147.88 938.937 1131.77C930.162 1104.25 918.981 1077.65 906.717 1051.51C891.486 1019.09 874.649 987.461 857.122 956.197C846.42 937.101 835.901 917.898 825.665 898.542C811.351 871.486 798.083 843.909 785.586 815.978C778.069 799.182 770.712 782.292 765.042 764.766C759.836 748.686 754.704 732.576 750 716.344C746.343 703.698 742.934 690.944 740.237 678.074C736.885 662.034 734.268 645.84 731.549 629.678C730.233 621.846 729.106 613.958 728.445 606.05C727.274 591.947 726.402 577.817 725.631 563.686C724.548 543.799 725.726 523.95 727.078 504.114C727.522 497.674 727.951 491.219 728.779 484.82C731.128 466.584 734.457 448.517 738.296 430.528C746.743 390.923 760.382 353.105 778.215 316.812C786.989 298.964 796.804 281.622 806.225 264.091C812.819 251.818 819.544 239.615 826.196 227.373C842.72 196.969 858.103 166.028 871.422 134.077C881.2 110.629 889.64 86.725 896.488 62.3001C904.55 33.5588 910.715 4.39872 913.87 -25.3216C914.757 -33.7139 915.303 -42.1445 915.891 -50.565C915.986 -51.9416 915.47 -53.3602 915.23 -54.7825C911.66 -55.9314 908.403 -55.5293 905.197 -55.5301C824.734 -55.5518 744.264 -55.5496 663.794 -55.5373C660.799 -55.5366 657.804 -55.3956 654.808 -55.3204C652.308 -55.3963 649.814 -55.538 647.32 -55.5387C564.357 -55.5474 914.234 -57 1211.18 -57C1214.55 -55.1035 1217.92 -53.207 1221.09 -51.4203C1221.14 -50.5202 1221.26 -50.0075 1221.18 -49.5376C1217.88 -32.7125 1214.54 -15.9077 1209.7 0.576039C1201.22 29.491 1191.14 57.8094 1177.48 84.733C1155.42 128.183 1128.35 168.364 1096.88 205.618C1084.51 220.27 1071.48 234.389 1059.46 249.323C1036.68 277.651 1014.1 306.155 992.058 335.061C980.906 349.692 970.859 365.186 960.797 380.603C947.843 400.441 937.541 421.72 927.516 443.137C921.911 455.106 917.2 467.371 913.216 479.948C907.429 498.22 902.806 516.741 899.832 535.697C896.161 559.078 893.675 582.513 895.041 606.204C895.637 616.616 896.51 627.017 897.455 637.405C899.614 661.194 903.38 684.74 909.399 707.87C913.834 724.941 918.705 741.904 923.423 758.902C933.266 794.338 943.219 829.745 954.785 864.682C959.002 877.422 963.451 890.119 966.839 903.083C972.684 925.432 977.976 947.932 983.13 970.455C987.173 988.126 991.04 1005.85 994.246 1023.7C996.391 1035.65 997.198 1047.85 998.695 1059.92C1001.25 1080.41 1002.7 1100.96 1002.5 1121.62C1002.38 1133.8 1002.49 1145.98 1002.37 1158.15C1002.32 1163.12 1002.06 1168.09 1001.68 1173.04C1000.48 1188.89 999.233 1204.73 997.867 1220.57C997.329 1226.76 996.543 1232.92 995.678 1239.07C993.708 1253.08 991.251 1267.04 989.666 1281.1C987.87 1296.99 984.621 1312.44 979.11 1327.48C970.888 1349.93 961.066 1371.66 950.845 1393.25C946.607 1402.2 941.736 1410.87 938.363 1420.22C937.926 1420.72 937.483 1421.21 937.047 1421.71L937.294 1421.37C936.407 1423.99 934.081 1426.19 934.662 1429.79C940.18 1427.86 944.404 1424.6 948.7 1421.48C949.238 1420.88 949.776 1420.28 950.321 1419.67L950.227 1419.77C951.252 1419.24 952.284 1418.72 953.309 1418.19L953.237 1418.27C955.25 1417.98 956.843 1417.07 957.795 1415.22L957.751 1415.27C959.314 1414.54 961.001 1414.01 962.411 1413.07C987.507 1396.3 1012.66 1379.62 1037.6 1362.64C1050.61 1353.77 1062.71 1343.74 1073.51 1332.25C1080.16 1325.18 1086.8 1318.08 1093.47 1311.03C1103.75 1300.14 1113.26 1288.64 1121.41 1276.07C1123.03 1273.57 1124.97 1271.27 1126.63 1268.79C1131.62 1261.35 1136.84 1254.04 1141.43 1246.37C1153.22 1226.68 1162.75 1205.86 1171.53 1184.72C1188.41 1144.01 1202 1102.18 1214.31 1059.91C1223.07 1029.85 1231.84 999.767 1241.44 969.956C1248.9 946.783 1257.47 923.942 1265.89 901.08C1273.9 879.374 1283.01 858.117 1293.76 837.583C1297.69 830.092 1301.7 822.645 1305.73 815.205C1318.2 792.234 1331.44 769.762 1346.59 748.375C1366.49 720.277 1388.09 693.619 1412.18 668.993C1420.36 660.633 1428.94 652.63 1437.74 644.922C1448.24 635.737 1458.85 626.624 1469.98 618.231C1490.3 602.907 1511.51 588.891 1533.84 576.546C1559.68 562.259 1586.43 549.929 1614.45 540.645C1641.21 531.774 1668.37 524.053 1695.37 515.871C1712.34 510.73 1729.46 506.08 1746.27 500.479C1771.61 492.036 1796.81 483.17 1821.33 472.466C1844.92 462.165 1868.04 450.956 1890.23 437.937C1915.64 423.018 1940.09 406.659 1962.73 387.744C1977.08 375.76 1991.67 364.017 2004.58 350.483C2014.89 339.678 2024.7 328.393 2034.57 317.187C2041.65 309.152 2048.65 301.001 2054.03 291.692C2064.24 274.03 2074.77 256.528 2084.36 238.538C2107.08 195.922 2128.02 152.459 2144.91 107.164C2154.39 81.7577 2162.99 56.0755 2170.05 29.8987C2177.11 3.74149 2183.23 -22.6341 2188.21 -49.2642C2188.57 -51.1637 2189.33 -53.0913 2187.51 -55.3291C2184.83 -55.397 2181.86 -55.5373 2178.9 -55.5373C2084.44 -55.5489 1989.97 -55.5496 1895.51 -55.5337C1892.52 -55.5337 1889.52 -55.3399 1886.53 -55.2365C1883.04 -55.3399 1879.56 -55.5337 1876.07 -55.5344C1774.26 -55.551 2137.51 -57 2425.96 -57V324.844C2424.14 327.743 2422.3 330.632 2420.49 333.543C2402.01 363.408 2381.72 392.063 2360.75 420.214C2348.11 437.176 2334.63 453.52 2321.3 469.963C2311.58 481.957 2301.88 493.997 2291.5 505.422C2271.03 527.957 2248.67 548.518 2224.77 567.461C2183.28 600.341 2138.39 627.422 2089.26 647.513C2057.93 660.33 2025.31 668.631 1992.23 675.399C1960.6 681.87 1928.6 685.413 1896.4 687.423C1886.43 688.045 1876.46 688.818 1866.51 689.809C1851.85 691.262 1837.2 692.86 1822.57 694.61C1790.58 698.435 1758.59 702.18 1726.85 707.957C1689.08 714.826 1652.73 726.25 1617.16 740.385C1613.68 741.766 1610.3 743.407 1606.95 745.056C1584.74 755.995 1563.35 768.251 1543.53 783.145C1529.15 793.948 1514.87 804.851 1502.43 817.851C1477.05 844.394 1453.89 872.715 1434.73 904.066C1425.39 919.344 1416.73 935.041 1407.82 950.579C1386.78 987.273 1365.99 1024.11 1347.14 1061.98C1337.94 1080.49 1327.62 1098.37 1316.61 1115.86C1307.21 1130.82 1297.71 1145.73 1288.32 1160.69C1276.27 1179.9 1262.69 1197.99 1248.74 1215.88C1225.21 1246.08 1197.73 1272.47 1170.42 1299.07C1166.32 1303.07 1161.78 1306.61 1157.39 1310.3C1149.57 1316.87 1141.58 1323.26 1133.87 1329.97C1124.64 1338 1114.95 1345.4 1104.98 1352.49C1097.06 1358.13 1089.31 1364.01 1081.71 1370.07C1068.99 1380.23 1055.49 1389.06 1040.62 1395.85C1022.68 1404.06 1004.39 1411.41 985.849 1418.14C972.72 1422.9 959.634 1427.8 946.527 1432.63C943.008 1433.35 939.286 1433.55 935.818 1436.62C941.699 1439.03 947.123 1440.21 952.757 1440.61C955.592 1441.48 958.384 1442.6 961.284 1443.19C994.043 1449.91 1026.74 1457 1059.78 1462.23C1072.85 1464.3 1085.99 1465.98 1099.26 1465.72C1111.24 1465.5 1123.23 1465.13 1135.18 1464.37C1145.88 1463.7 1156.55 1462.55 1167.2 1461.33C1172.15 1460.76 1176.98 1459.21 1181.93 1458.63C1196.87 1456.86 1211.38 1453.23 1225.73 1448.88C1260.48 1438.35 1293.64 1423.9 1326.38 1408.43C1356.42 1394.23 1385.38 1378.02 1414.58 1362.25C1436.75 1350.27 1458.85 1338.15 1481.29 1326.69C1498.83 1317.72 1516.81 1309.59 1534.65 1301.2C1563.6 1287.6 1593.17 1275.58 1623.93 1266.56C1653.15 1257.98 1682.38 1249.56 1712.53 1244.56C1739.65 1240.07 1766.82 1236.34 1794.28 1235.17C1818.5 1234.13 1842.73 1234.28 1866.9 1236.56C1872.61 1237.1 1878.38 1237.33 1884.04 1238.2C1897.59 1240.31 1911.14 1242.55 1924.64 1245.03C1969.14 1253.22 2011.59 1267.74 2052.07 1287.69C2075.57 1299.26 2098.5 1311.97 2121.55 1324.42C2143.06 1336.04 2164.5 1347.77 2186.64 1358.23C2201.98 1365.48 2217.34 1372.66 2233.04 1379.14C2267.97 1393.55 2303.72 1405.27 2340.74 1413.06C2357.6 1416.61 2374.44 1420.2 2391.68 1421.5C2397.64 1421.95 2403.57 1422.91 2409.54 1423.38C2415 1423.81 2420.49 1423.9 2425.96 1424.14Z" fill="#E2C13D"/>
<path d="M896.195 1455.43C896.173 1457.63 894.857 1459.06 893.308 1460.41C885.973 1466.75 878.798 1473.29 871.302 1479.44C857.199 1491.02 844.949 1504.49 832.002 1517.23C824.688 1524.42 818.705 1532.72 813.391 1541.43C803.678 1557.34 794.547 1573.61 783.911 1588.97C780.531 1593.86 777.834 1599.23 774.977 1604.47C767.816 1617.55 760.451 1630.54 753.712 1643.84C748.216 1654.69 743.338 1665.87 738.482 1677.03C732.143 1691.61 725.89 1706.23 720.016 1721.01C716.723 1729.3 714.215 1737.9 711.467 1746.39C708.784 1754.66 706.356 1763.02 703.616 1771.27C698.585 1786.4 695.531 1801.99 692.435 1817.57C688.509 1837.28 684.576 1856.99 680.97 1876.75C678.883 1888.21 677.4 1899.78 675.699 1911.29C674.187 1921.6 673.489 1931.98 672.588 1942.34C671.541 1954.42 669.876 1966.45 668.502 1978.51C667.375 1988.36 666.408 1998.22 665.136 2008.05C663.682 2019.36 661.959 2030.63 660.374 2041.92C658.964 2051.98 657.641 2062.05 656.187 2072.1C654.871 2081.17 653.235 2090.2 652.072 2099.3C650.335 2112.85 647.507 2126.19 644.395 2139.48C639.168 2161.77 631.775 2183.38 623.967 2204.89C618.689 2219.43 611.877 2233.23 604.782 2246.91C602.95 2250.43 600.965 2253.9 598.748 2257.2C589.74 2270.62 581.845 2284.79 571.456 2297.27C566.68 2302.99 561.613 2308.49 557.04 2314.36C550.279 2323.05 542.326 2330.6 534.395 2338.14C527.379 2344.81 519.63 2350.73 512.57 2357.38C504.566 2364.92 495.719 2371.35 486.981 2377.96C471.263 2389.85 454.673 2400.43 437.814 2410.62C421.595 2420.43 404.816 2429.25 388.219 2438.39C364.628 2451.38 340.943 2464.19 316.735 2476.01C298.124 2485.1 279.338 2493.83 260.887 2503.22C250.012 2508.75 239.543 2515.09 229.067 2521.36C219.878 2526.86 210.711 2532.45 201.929 2538.56C189.257 2547.37 176.775 2556.47 164.532 2565.87C155.467 2572.84 146.591 2580.13 138.221 2587.9C129.66 2595.85 120.96 2603.75 113.728 2613.01C112.662 2614.38 111.304 2615.52 110.159 2616.83C102.312 2625.82 94.4371 2634.79 86.6772 2643.85C83.2843 2647.81 80.063 2651.93 76.9137 2656.09C74.6688 2659.05 72.7764 2662.28 70.5496 2665.26C57.871 2682.23 46.5918 2700.09 36.2991 2718.57C31.3433 2727.47 26.2151 2736.29 21.6968 2745.41C8.65905 2771.73 -2.98726 2798.62 -11.4654 2826.78C-16.0469 2842 -20.6996 2857.21 -23.8598 2872.8C-27.2112 2889.32 -30.2297 2905.92 -33.3288 2922.5C-33.6458 2924.19 -33.5208 2925.96 -33.6 2927.69H-336.546C-334.093 2915.77 -331.736 2903.83 -329.171 2891.93C-319.362 2846.42 -306.385 2801.84 -289.712 2758.32C-272.775 2714.1 -252.1 2671.62 -229.995 2629.8C-223.37 2617.27 -216.11 2605.06 -209.2 2592.68C-199.818 2575.86 -188.223 2560.65 -175.517 2546.2C-163.001 2531.97 -150.124 2518.08 -136.07 2505.35C-109.234 2481.03 -80.7452 2458.86 -49.782 2439.88C-19.2798 2421.19 12.6044 2405.3 45.7849 2391.88C81.4814 2377.44 118.114 2365.82 155.016 2354.92C182.562 2346.79 210.289 2339.28 237.493 2330.02C251.233 2325.34 264.58 2319.77 277.892 2314.08C317.876 2297 354.363 2274.1 388.786 2247.83C396.507 2241.94 403.791 2235.47 411.207 2229.2C423.02 2219.21 434.143 2208.5 444.866 2197.35C466.32 2175.03 485.774 2151.13 503.832 2126.01C520.015 2103.51 534.3 2079.92 547.408 2055.58C551.421 2048.13 555.412 2040.67 559.381 2033.2C570.737 2011.84 580.086 1989.58 588.424 1966.95C597.533 1942.21 606.366 1917.36 614.494 1892.3C622.927 1866.29 630.604 1840.03 638.179 1813.76C650.727 1770.24 664.62 1727.2 682.031 1685.35C691.686 1662.14 702.249 1639.34 715.524 1617.89C716.316 1616.62 717.028 1615.31 717.886 1614.08C729.336 1597.8 740.154 1581.02 753.458 1566.12C765.402 1552.76 777.267 1539.24 790.694 1527.3C798.32 1520.52 806.303 1514.03 814.736 1508.3C839.911 1491.2 865.385 1474.54 890.778 1457.77C892.4 1456.7 894.384 1456.19 896.195 1455.43Z" fill="#FFDF60"/>
<path d="M947.121 1464.49C949.847 1467.02 952.682 1469.42 955.256 1472.09C957.844 1474.76 960.141 1477.72 962.62 1480.5C969.89 1488.66 976.978 1497.02 984.546 1504.9C992.63 1513.34 1000.5 1522.05 1009.77 1529.3C1010.35 1529.76 1010.95 1530.22 1011.48 1530.74C1022.67 1541.61 1036.08 1549.28 1049.44 1557.05C1055.25 1560.44 1061.08 1563.84 1066.67 1567.56C1079.35 1575.99 1092.53 1583.55 1106.09 1590.5C1114.52 1594.81 1122.59 1599.84 1131.03 1604.13C1140.36 1608.86 1149.91 1613.2 1159.44 1617.56C1166.01 1620.56 1172.81 1623.1 1179.34 1626.2C1202.4 1637.18 1226.52 1645.24 1250.92 1652.57C1257.62 1654.58 1264.28 1656.68 1270.99 1658.64C1288.96 1663.92 1307.34 1667.37 1325.78 1670.57C1336.34 1672.4 1346.8 1674.84 1357.36 1676.72C1371.59 1679.25 1385.86 1681.53 1400.11 1683.87C1409.22 1685.36 1418.38 1686.25 1427.59 1686.88C1434.78 1687.37 1441.92 1688.66 1449.09 1689.43C1455.78 1690.14 1462.5 1690.53 1469.19 1691.22C1475.88 1691.9 1482.55 1692.76 1489.21 1693.6C1493.91 1694.19 1498.6 1694.84 1503.29 1695.5C1517.1 1697.43 1530.9 1699.47 1544.73 1701.31C1554.35 1702.59 1564.04 1703.45 1573.66 1704.79C1584.27 1706.27 1594.87 1707.88 1605.4 1709.81C1616.68 1711.87 1627.9 1714.27 1639.1 1716.74C1644.45 1717.91 1649.73 1719.47 1655 1721.02C1684.75 1729.72 1714.14 1739.4 1741.43 1754.37C1749.5 1758.8 1757.36 1763.64 1765.08 1768.66C1776.15 1775.86 1787.48 1782.7 1797.65 1791.18C1801.48 1794.37 1805.36 1797.49 1809.09 1800.78C1819.71 1810.18 1830.77 1819.07 1839.62 1830.34C1844.38 1836.38 1850.05 1841.7 1855 1847.6C1861.87 1855.79 1868.69 1864.04 1875.11 1872.57C1889.19 1891.27 1901.84 1910.94 1913.64 1931.13C1919.29 1940.78 1924.55 1950.66 1929.97 1960.45C1937.8 1974.58 1945.92 1988.57 1953.34 2002.91C1959.86 2015.48 1967.26 2027.6 1972.78 2040.71C1976.64 2049.86 1981.51 2058.59 1985.96 2067.49C1989.06 2073.72 1992.28 2079.88 1995.32 2086.15C2008.16 2112.62 2023.85 2137.39 2040.4 2161.68C2049.93 2175.66 2060.21 2189.09 2070.93 2202.16C2077.07 2209.65 2083.95 2216.54 2090.64 2223.57C2095.46 2228.62 2100.46 2233.49 2105.48 2238.34C2123.57 2255.86 2142.71 2272.12 2163.56 2286.33C2176.12 2294.89 2188.63 2303.56 2201.62 2311.46C2217.37 2321.04 2233.21 2330.63 2250.09 2338.14C2267.16 2345.75 2283.98 2353.99 2301.82 2359.84C2321.26 2366.21 2340.52 2373.21 2360.52 2377.69C2374.63 2380.85 2388.85 2383.47 2403.04 2386.29C2410.6 2387.8 2418.1 2389.94 2425.96 2389.24V2690.54C2420.06 2689.53 2414.15 2688.64 2408.28 2687.49C2380.07 2682.03 2352.15 2675.36 2324.57 2667.39C2292.16 2658.02 2260.37 2646.82 2229.29 2633.71C2201.92 2622.17 2175.02 2609.59 2148.58 2596.06C2124.8 2583.89 2101.35 2571.15 2078.45 2557.41C2068.78 2551.61 2059.94 2544.74 2051.4 2537.46C2037.75 2525.81 2024.09 2514.16 2011.55 2501.3C1999.02 2488.46 1987.56 2474.67 1976.11 2460.89C1957.74 2438.8 1941.9 2414.95 1927.46 2390.23C1914.16 2367.45 1902.54 2343.79 1892.27 2319.45C1882.69 2296.74 1874.31 2273.61 1866.48 2250.29C1860.55 2232.62 1855.53 2214.65 1850.09 2196.83C1842.54 2172.11 1835.11 2147.35 1827.39 2122.68C1822.41 2106.77 1815.57 2091.55 1808.87 2076.29C1798.55 2052.77 1785.98 2030.45 1771.87 2009C1757.78 1987.58 1742.84 1966.76 1725.27 1947.92C1718.65 1940.82 1712.5 1933.27 1705.71 1926.33C1698.75 1919.22 1691.28 1912.59 1684.03 1905.75C1665.14 1887.92 1644.74 1871.95 1623.4 1857.17C1609.87 1847.8 1596.34 1838.36 1582.18 1830.02C1554.24 1813.55 1525.84 1797.82 1495.87 1785.2C1480.47 1778.7 1464.8 1772.82 1449.15 1766.93C1401.44 1748.98 1352.56 1734.7 1303.53 1720.85C1261.46 1708.96 1219.91 1695.47 1179.46 1678.85C1155.19 1668.9 1131.41 1657.89 1109.02 1644.15C1107.95 1643.5 1106.88 1642.87 1105.83 1642.19C1073.46 1621.17 1044.04 1596.63 1017.91 1568.3C1011.01 1560.82 1004.69 1552.7 998.926 1544.3C982.169 1519.89 965.819 1495.19 949.324 1470.59C948.095 1468.76 946.525 1467 947.121 1464.49Z" fill="#FFDF60"/>
<path d="M921.659 1460.95C921.695 1466.9 922.001 1472.85 920.569 1478.75C920.052 1480.88 920.329 1483.2 920.263 1485.43C920.118 1490.64 919.965 1495.8 919.173 1501.01C918.359 1506.37 918.802 1511.91 918.693 1517.38C918.555 1524.07 918.7 1530.73 917.617 1537.43C916.919 1541.75 917.726 1546.32 917.959 1550.77C918.068 1552.99 918.7 1555.22 918.606 1557.42C917.966 1572.77 921.165 1587.59 925.316 1602.17C928.522 1613.42 930.797 1624.85 933.465 1636.2C935.341 1644.17 937.34 1652.12 939.601 1659.99C942.749 1670.97 946.071 1681.91 949.532 1692.8C952.607 1702.5 955.704 1712.21 959.266 1721.75C965.009 1737.11 970.905 1752.42 977.179 1767.58C982.784 1781.12 988.68 1794.56 996.357 1807.14C998.298 1810.32 999.868 1813.73 1001.48 1817.09C1008.92 1832.59 1017.8 1847.28 1027.17 1861.67C1035.16 1873.96 1043.84 1885.82 1052.18 1897.9C1055.7 1903.02 1059.03 1908.27 1062.64 1913.33C1071.91 1926.28 1081.01 1939.34 1090.68 1951.98C1098.22 1961.84 1106.59 1971.08 1114.46 1980.69C1121.39 1989.16 1128.28 1997.66 1134.94 2006.33C1154.19 2031.37 1173.34 2056.48 1192.45 2081.62C1200.73 2092.51 1209.07 2103.36 1216.91 2114.55C1225.32 2126.59 1232.9 2139.16 1239.74 2152.17C1244.59 2161.41 1249.68 2170.54 1254.33 2179.89C1264.87 2201.1 1273.38 2223.09 1279.01 2246.13C1282.9 2262.04 1286.49 2278.03 1288.78 2294.25C1289.85 2301.84 1290.05 2309.56 1290.68 2317.21C1291.02 2321.41 1291.55 2325.59 1291.77 2329.8C1292.19 2338.23 1292.67 2346.66 1291.38 2355.07C1291.2 2356.29 1290.77 2357.53 1290.83 2358.75C1291.35 2368.46 1289.64 2378.05 1289.04 2387.7C1288.56 2395.59 1287.45 2403.48 1286.13 2411.3C1283.87 2424.74 1281.43 2438.17 1278.67 2451.53C1276.56 2461.73 1274.05 2471.87 1271.35 2481.94C1267.8 2495.13 1263.97 2508.25 1260.09 2521.35C1254.87 2538.98 1249.7 2556.63 1244.1 2574.14C1239.49 2588.55 1234.24 2602.77 1229.35 2617.1C1224.77 2630.51 1220.05 2643.87 1215.81 2657.39C1212.32 2668.52 1209.22 2679.79 1206.38 2691.11C1203.72 2701.7 1201.4 2712.37 1199.36 2723.1C1196.68 2737.23 1194.2 2751.4 1192.08 2765.62C1190.94 2773.2 1190.74 2780.93 1190.15 2788.58C1190.03 2790.07 1190.21 2791.59 1189.98 2793.05C1187.37 2809.87 1189.28 2826.79 1188.78 2843.65C1191.23 2853.12 1190.14 2862.9 1191.27 2872.52C1193.2 2889.04 1195.48 2905.46 1198.77 2921.76C1199.16 2923.69 1199.06 2925.71 1199.18 2927.69H936.722C939.172 2897.73 942.604 2867.95 949.285 2838.54C957.456 2802.54 968.899 2767.69 983.111 2733.65C995.39 2704.23 1009.57 2675.73 1024.56 2647.63C1037.32 2623.7 1050.73 2600.12 1063.62 2576.27C1074.14 2556.78 1083.72 2536.84 1091.75 2516.16C1100.03 2494.8 1107.3 2473.14 1112.7 2450.88C1118.34 2427.68 1122.53 2404.21 1125.29 2380.51C1126.26 2372.14 1126.68 2363.68 1127.08 2355.26C1127.65 2343.11 1129.06 2330.98 1128.41 2318.79C1127.63 2304.42 1127.06 2290.03 1125.92 2275.68C1123.03 2239.47 1117.1 2203.72 1107.67 2168.61C1098.64 2134.99 1088.75 2101.62 1074.78 2069.62C1070.3 2059.36 1065.98 2049.03 1061.11 2038.95C1049.63 2015.22 1038.19 1991.46 1026.11 1968.02C1016.55 1949.44 1006.16 1931.29 995.986 1913.04C978.415 1881.52 961.44 1849.69 946.159 1817.01C937.304 1798.08 928.994 1778.91 921.877 1759.26C913.226 1735.39 905.862 1711.22 902.299 1685.94C900.358 1672.17 898.265 1658.49 897.283 1644.58C896.214 1629.43 896.193 1614.3 896.149 1599.15C896.113 1587.44 897.552 1575.82 899.791 1564.38C905.927 1532.93 912.426 1501.55 918.867 1470.16C919.507 1467.03 920.714 1464.02 921.659 1460.95Z" fill="#FFDF60"/>
<path d="M952.764 1440.64C959.743 1440.67 966.744 1440.09 973.65 1441.76C975.315 1442.16 977.125 1441.98 978.877 1442.03C985.849 1442.24 992.857 1441.67 999.763 1443.33C1001.43 1443.72 1003.25 1443.52 1004.99 1443.52C1019.49 1443.54 1033.98 1443.51 1048.46 1443.58C1059 1443.64 1069.41 1442.36 1079.62 1440.05C1102 1435 1124.29 1429.51 1146.61 1424.17C1148.8 1423.65 1150.93 1422.95 1153.09 1422.32C1166.48 1418.35 1179.96 1414.64 1193.25 1410.34C1204.4 1406.74 1215.38 1402.58 1226.36 1398.46C1237.57 1394.25 1248.72 1389.87 1259.82 1385.39C1266.29 1382.78 1272.75 1380.08 1278.99 1376.96C1295.49 1368.69 1312.11 1360.58 1328.23 1351.62C1344.36 1342.68 1359.99 1332.88 1375.01 1322.12C1387.38 1313.28 1400.18 1305.05 1412.72 1296.46C1421.75 1290.26 1430.79 1284.07 1439.61 1277.59C1445.82 1273.02 1451.67 1267.97 1457.68 1263.13C1468.14 1254.69 1478.54 1246.18 1489.06 1237.82C1501.14 1228.22 1513.21 1218.59 1525.48 1209.24C1542.52 1196.27 1559.91 1183.75 1576.82 1170.61C1585.67 1163.74 1594.5 1156.83 1603.89 1150.72C1615.37 1143.26 1626.98 1135.99 1638.66 1128.85C1645.04 1124.95 1651.65 1121.45 1658.21 1117.85C1661.71 1115.94 1665.27 1114.16 1668.85 1112.42C1694.96 1099.76 1721.7 1088.82 1750.24 1082.79C1762.18 1080.25 1774.1 1077.44 1786.17 1075.6C1794 1074.41 1801.94 1073.05 1809.98 1073.57C1823.86 1071.01 1837.88 1072.45 1851.84 1072.24C1855.05 1072.19 1858.28 1072.81 1861.5 1073.13C1863.24 1073.3 1864.99 1073.68 1866.7 1073.57C1875.99 1072.94 1885.11 1074.8 1894.31 1075.41C1901.98 1075.92 1909.63 1077.36 1917.21 1078.83C1933.61 1082 1950 1085.26 1966.3 1088.87C1975.79 1090.98 1985.14 1093.75 1994.5 1096.43C2012.97 1101.71 2031.48 1106.9 2049.82 1112.57C2068.89 1118.47 2087.79 1124.9 2106.77 1131.09C2108.67 1131.71 2110.54 1132.4 2112.43 1133.05C2123.29 1136.79 2134.07 1140.72 2145.01 1144.22C2169.26 1151.97 2193.83 1158.57 2218.89 1163.25C2228.2 1164.98 2237.48 1166.9 2246.81 1168.52C2252.2 1169.45 2257.68 1169.95 2263.11 1170.63C2269.78 1171.47 2276.45 1172.31 2283.13 1173.09C2285.35 1173.35 2287.6 1173.5 2289.85 1173.54C2295.84 1173.64 2301.83 1173.57 2307.83 1173.71C2310.81 1173.77 2313.79 1174.16 2316.77 1174.4C2318.25 1174.53 2319.82 1175.06 2321.21 1174.76C2329.62 1172.91 2338.14 1173.82 2346.6 1173.66C2357.83 1173.45 2368.94 1172.02 2380.1 1170.97C2393.29 1169.74 2406.24 1167.19 2419.24 1164.92C2421.43 1164.54 2423.72 1164.72 2425.97 1164.64V1424.17C2420.49 1423.94 2415 1423.84 2409.54 1423.41C2403.58 1422.94 2397.65 1421.98 2391.68 1421.53C2374.45 1420.24 2357.61 1416.65 2340.75 1413.1C2303.72 1405.3 2267.98 1393.58 2233.05 1379.17C2217.34 1372.69 2201.99 1365.51 2186.64 1358.26C2164.51 1347.81 2143.07 1336.07 2121.56 1324.45C2098.5 1312.01 2075.57 1299.3 2052.08 1287.72C2011.6 1267.77 1969.15 1253.26 1924.64 1245.07C1911.14 1242.59 1897.6 1240.34 1884.04 1238.24C1878.39 1237.36 1872.62 1237.13 1866.91 1236.6C1842.73 1234.32 1818.5 1234.17 1794.29 1235.2C1766.83 1236.37 1739.65 1240.1 1712.54 1244.6C1682.38 1249.6 1653.16 1258.02 1623.93 1266.6C1593.17 1275.62 1563.61 1287.64 1534.66 1301.24C1516.82 1309.62 1498.84 1317.76 1481.3 1326.72C1458.86 1338.19 1436.76 1350.31 1414.58 1362.28C1385.39 1378.06 1356.42 1394.27 1326.39 1408.46C1293.65 1423.94 1260.48 1438.39 1225.73 1448.92C1211.39 1453.26 1196.88 1456.89 1181.93 1458.66C1176.99 1459.24 1172.15 1460.8 1167.21 1461.37C1156.56 1462.59 1145.89 1463.73 1135.19 1464.4C1123.23 1465.16 1111.25 1465.53 1099.27 1465.76C1086 1466.02 1072.85 1464.33 1059.78 1462.26C1026.74 1457.04 994.049 1449.94 961.291 1443.23C958.391 1442.63 955.599 1441.51 952.764 1440.64Z" fill="#FFDF60"/>
<path d="M906.812 1404.76C903.963 1404.72 902.385 1402.67 900.742 1400.83C893.625 1392.85 886.34 1385 879.521 1376.78C869.147 1364.28 857.181 1353.35 845.636 1342.01C840.693 1337.15 835.095 1332.88 829.475 1328.79C819.785 1321.74 809.389 1315.79 798.847 1310.07C795.569 1308.3 792.435 1306.21 789.375 1304.07C775.039 1294.03 759.576 1285.93 744.163 1277.73C735.578 1273.15 727.21 1268.17 718.559 1263.73C711.027 1259.85 703.292 1256.33 695.55 1252.88C685.75 1248.51 675.776 1244.55 666.005 1240.12C649.379 1232.59 632.178 1226.64 614.76 1221.24C601.405 1217.11 588.116 1212.72 574.623 1209.11C563.791 1206.21 552.726 1204.18 541.719 1201.98C524.606 1198.56 507.464 1195.23 490.307 1192.05C480.507 1190.22 470.664 1188.58 460.798 1187.14C449.457 1185.5 438.094 1184.03 426.71 1182.78C419.033 1181.92 411.298 1181.68 403.606 1180.97C397.158 1180.37 390.738 1179.48 384.312 1178.71C379.121 1178.08 373.931 1177.41 368.74 1176.78C355.632 1175.17 342.51 1173.67 329.424 1171.94C320.78 1170.8 312.195 1169.21 303.558 1168.01C294.427 1166.75 285.245 1165.84 276.122 1164.55C260.317 1162.33 244.57 1159.81 228.94 1156.54C202.958 1151.11 177.869 1142.83 152.934 1133.9C129.501 1125.5 107.824 1113.85 87.0155 1100.43C75.279 1092.87 63.5737 1085.25 52.8289 1076.29C48.8144 1072.94 44.7506 1069.64 40.8372 1066.19C34.8701 1060.91 28.7474 1055.77 23.1845 1050.09C17.2763 1044.06 11.9351 1037.48 6.3649 1031.12C2.2676 1026.45 -1.67483 1021.63 -5.90589 1017.08C-14.5803 1007.74 -21.5972 997.152 -29.1484 986.971C-41.7696 969.966 -52.3502 951.637 -63.3721 933.597C-67.2585 927.241 -70.5489 920.517 -74.1402 913.981C-82.5187 898.725 -91.0761 883.563 -99.2518 868.198C-106.02 855.48 -112.387 842.552 -118.858 829.682C-126.125 815.229 -133.365 800.761 -140.516 786.257C-150.754 765.484 -162.304 745.477 -174.981 726.071C-184.103 712.109 -193.549 698.372 -203.697 685.162C-213.989 671.757 -224.553 658.527 -236.889 646.829C-243.4 640.655 -249.686 634.245 -256.014 627.884C-263.4 620.46 -271.615 613.986 -279.524 607.154C-297.493 591.633 -317.03 578.278 -336.898 565.382C-345.464 559.821 -354.264 554.573 -363.223 549.663C-375.253 543.07 -387.392 536.639 -399.751 530.685C-419.304 521.265 -439.06 512.291 -460.042 506.282C-470.831 503.192 -481.48 499.611 -492.162 496.159C-503.591 492.466 -515.357 490.176 -527.107 487.871C-541.054 485.137 -555.059 482.696 -569.043 480.15C-570.021 479.972 -571.034 479.977 -572.031 479.896C-572.115 477.165 -572.271 474.433 -572.271 471.703C-572.284 377.982 -572.286 284.262 -572.263 190.542C-572.261 187.366 -572.721 184.11 -571.576 181.175C-568.942 179.481 -566.46 180.214 -564.067 180.678C-554.263 182.579 -544.436 184.388 -534.691 186.556C-497.359 194.859 -460.48 204.801 -424.431 217.596C-401.6 225.7 -379.082 234.58 -356.951 244.47C-332.775 255.273 -308.902 266.665 -285.413 278.858C-264.586 289.67 -244.055 301.015 -223.956 313.123C-215.375 318.292 -207.433 324.336 -199.855 330.812C-186.212 342.471 -172.559 354.118 -159.885 366.86C-148.444 378.363 -138.09 390.79 -127.537 403.067C-109.449 424.111 -94.0444 447.021 -79.4588 470.512C-67.6257 489.571 -57.2908 509.45 -47.8727 529.772C-32.1567 563.682 -19.3188 598.711 -8.22499 634.351C0.493776 662.362 8.7029 690.527 17.0065 718.667C24.6894 744.704 34.0217 770.104 45.1781 794.875C62.2376 832.762 84.3132 867.605 109.803 900.308C127.123 922.534 146.505 942.96 167.168 962.193C195.179 988.266 225.778 1011 257.882 1031.74C269.608 1039.31 281.829 1046.15 294.049 1052.92C306.495 1059.81 319.181 1066.26 331.816 1072.8C351.583 1083.03 372.331 1091.04 393.094 1098.96C421.097 1109.65 449.472 1119.32 478.13 1128.09C504.396 1136.13 530.829 1143.62 557.219 1151.24C597.574 1162.86 637.398 1176.02 676.219 1192.02C699.083 1201.45 721.532 1211.79 742.659 1224.75C747.122 1227.48 751.484 1230.4 755.795 1233.37C762.585 1238.02 769.368 1242.69 776.013 1247.55C780.84 1251.07 785.594 1254.73 790.124 1258.62C804.111 1270.65 818.142 1282.69 830.719 1296.18C838.512 1304.54 845.963 1313.36 852.492 1322.73C869.998 1347.85 886.944 1373.35 904.043 1398.75C905.257 1400.56 905.904 1402.75 906.812 1404.76Z" fill="#FFDF60"/>
<path d="M957.745 1415.3C957.701 1412.76 959.41 1411.21 961.074 1409.73C966.643 1404.75 972.263 1399.83 977.875 1394.92C980.311 1392.78 982.819 1390.75 985.21 1388.56C991.462 1382.86 997.744 1377.18 1003.85 1371.33C1007.26 1368.06 1010.34 1364.46 1013.56 1361.01C1015.95 1358.47 1018.27 1355.87 1020.73 1353.4C1029.58 1344.52 1036.73 1334.35 1043.3 1323.78C1047.63 1316.81 1051.48 1309.55 1055.66 1302.48C1057.95 1298.64 1060.34 1294.85 1062.92 1291.18C1070.66 1280.16 1076.96 1268.31 1083.29 1256.45C1088.08 1247.45 1093.35 1238.71 1098.02 1229.65C1102.34 1221.27 1106.24 1212.65 1110.18 1204.06C1113.08 1197.74 1115.6 1191.25 1118.54 1184.93C1125.77 1169.36 1132.45 1153.57 1137.65 1137.2C1142.92 1120.61 1148.49 1104.11 1153.14 1087.36C1156.65 1074.7 1159.06 1061.73 1161.69 1048.84C1165.13 1032.07 1168.42 1015.27 1171.53 998.434C1173.88 985.752 1176.06 973.027 1177.91 960.272C1178.95 953.165 1179.07 945.942 1179.77 938.791C1180.41 932.377 1181.26 925.993 1182.03 919.594C1182.15 918.611 1182.47 917.642 1182.51 916.659C1183.05 902.762 1185.07 889.032 1186.99 875.279C1189.54 857.117 1192.02 838.94 1194.42 820.762C1196.15 807.733 1197.46 794.654 1199.4 781.668C1201.26 769.159 1203.53 756.709 1205.92 744.287C1209.57 725.221 1215.26 706.667 1221.29 688.259C1228.41 666.517 1236.45 645.088 1247.78 625.068C1251.33 618.796 1255.03 612.604 1258.88 606.509C1266.45 594.52 1273.89 582.44 1282.9 571.419C1285.89 567.762 1288.76 564.018 1291.85 560.438C1301.26 549.481 1310.86 538.645 1321.73 529.106C1335.01 517.456 1348.32 505.778 1362.3 494.999C1376.5 484.058 1391.33 473.905 1406.83 464.78C1415.42 459.718 1423.95 454.539 1432.58 449.558C1439.93 445.325 1447.37 441.261 1454.81 437.189C1469.68 429.041 1484.4 420.61 1499.5 412.901C1519.06 402.916 1538.96 393.587 1558.64 383.849C1570.49 377.986 1582.34 372.089 1593.98 365.828C1605.4 359.689 1616.66 353.254 1627.8 346.617C1641.94 338.188 1655.57 328.961 1668.9 319.319C1678.79 312.168 1688.47 304.739 1698.1 297.253C1702.62 293.744 1707 290.012 1711.09 286.026C1721.63 275.766 1732.1 265.441 1742.32 254.873C1747.49 249.52 1751.9 243.436 1756.94 237.942C1766.38 227.644 1774.54 216.355 1782.77 205.127C1794.4 189.26 1805.03 172.738 1814.94 155.748C1825.46 137.683 1834.83 119.054 1843.36 99.9691C1848.23 89.0621 1853.04 78.1479 1856.86 66.8374C1861.23 53.8907 1865.42 40.8812 1869.59 27.8716C1874.61 12.2244 1877.36 -3.96366 1880.83 -19.9738C1882.67 -28.4587 1884.23 -37.0064 1885.72 -45.5599C1886.28 -48.7246 1886.27 -51.9862 1886.52 -55.203C1889.52 -55.3064 1892.51 -55.5002 1895.51 -55.5002C1989.97 -55.5161 2084.43 -55.5154 2178.89 -55.5038C2181.85 -55.5038 2184.82 -55.3635 2187.5 -55.2956C2189.33 -53.0578 2188.56 -51.1302 2188.21 -49.2307C2183.22 -22.6006 2177.11 3.77499 2170.05 29.9322C2162.99 56.109 2154.38 81.7912 2144.9 107.198C2128.01 152.493 2107.08 195.956 2084.35 238.571C2074.76 256.562 2064.23 274.064 2054.02 291.725C2048.64 301.034 2041.65 309.185 2034.57 317.22C2024.69 328.427 2014.89 339.712 2004.58 350.517C1991.67 364.051 1977.08 375.793 1962.73 387.778C1940.08 406.692 1915.64 423.052 1890.22 437.97C1868.04 450.99 1844.92 462.199 1821.32 472.499C1796.8 483.203 1771.61 492.069 1746.26 500.513C1729.46 506.113 1712.33 510.763 1695.36 515.905C1668.36 524.087 1641.21 531.808 1614.44 540.679C1586.42 549.963 1559.68 562.292 1533.83 576.58C1511.51 588.925 1490.29 602.941 1469.97 618.264C1458.84 626.658 1448.24 635.771 1437.74 644.956C1428.93 652.664 1420.35 660.666 1412.17 669.026C1388.09 693.653 1366.48 720.311 1346.58 748.408C1331.43 769.796 1318.19 792.268 1305.72 815.238C1301.69 822.679 1297.68 830.126 1293.76 837.616C1283.01 858.151 1273.89 879.408 1265.89 901.113C1257.46 923.976 1248.9 946.817 1241.43 969.99C1231.83 999.801 1223.07 1029.88 1214.31 1059.94C1201.99 1102.21 1188.4 1144.05 1171.52 1184.75C1162.75 1205.89 1153.22 1226.71 1141.43 1246.4C1136.83 1254.07 1131.61 1261.38 1126.62 1268.82C1124.96 1271.3 1123.03 1273.6 1121.4 1276.1C1113.25 1288.67 1103.75 1300.17 1093.46 1311.06C1086.79 1318.12 1080.16 1325.21 1073.5 1332.29C1062.7 1343.78 1050.6 1353.81 1037.6 1362.67C1012.65 1379.65 987.5 1396.33 962.405 1413.1C960.995 1414.04 959.308 1414.58 957.745 1415.3Z" fill="#FFDF60"/>
<path d="M932.341 1409.8C932.334 1403.35 931.854 1396.89 933.424 1390.51C933.89 1388.62 933.672 1386.56 933.715 1384.57C933.817 1379.61 933.657 1374.64 934.871 1369.74C935.344 1367.85 935.169 1365.78 935.177 1363.8C935.22 1345.41 935.118 1327.01 935.315 1308.61C935.38 1302.09 934.486 1295.69 933.148 1289.42C930.924 1278.98 927.979 1268.69 925.486 1258.31C923.639 1250.59 922.12 1242.79 920.288 1235.06C918.398 1227.08 916.522 1219.1 914.268 1211.23C909.819 1195.7 905.428 1180.16 900.427 1164.8C896.966 1154.19 892.582 1143.86 888.526 1133.44C884.113 1122.08 879.882 1110.66 875.069 1099.47C869.864 1087.38 864.804 1075.19 857.803 1063.94C856.102 1061.2 854.757 1058.24 853.318 1055.34C843.809 1036.14 832.955 1017.76 820.618 1000.21C813.028 989.428 806.013 978.25 798.467 967.441C787.489 951.744 776.446 936.09 765.069 920.675C759.616 913.293 753.27 906.561 747.446 899.446C737.85 887.704 728.196 875.998 718.832 864.075C706.539 848.429 694.464 832.616 682.359 816.818C674.188 806.16 666.089 795.445 658.034 784.701C651.324 775.749 644.425 766.907 638.137 757.666C631.848 748.426 626.141 738.795 620.318 729.251C612.801 716.923 605.873 704.248 599.803 691.162C594.052 678.761 588.149 666.369 583.467 653.56C579.04 641.454 575.87 628.869 572.599 616.379C570.396 607.985 568.833 599.415 567.263 590.874C566.179 585.031 565.489 579.113 564.776 573.21C563.824 565.341 562.988 557.457 562.159 549.574C561.956 547.601 561.883 545.607 561.868 543.622C561.825 535.42 561.701 527.212 561.876 519.013C561.97 514.319 562.603 509.635 562.981 504.946C563.104 503.461 563.177 501.972 563.271 500.485C563.831 491.826 563.926 483.106 565.053 474.52C566.826 461.005 569.109 447.546 571.508 434.123C574.794 415.777 579.592 397.765 584.427 379.779C587.844 367.065 591.624 354.444 595.448 341.843C601.358 322.341 607.182 302.806 613.535 283.445C621.132 260.296 629.384 237.361 637.09 214.248C643.938 193.72 649.252 172.772 653.243 151.507C655.759 138.097 658.485 124.707 660.375 111.207C662.236 97.9629 664.323 84.6865 663.872 71.2186C663.828 69.7313 663.719 68.1833 664.046 66.7574C665.98 58.3955 665.726 49.8485 664.977 41.5127C664.039 31.0937 664.57 20.635 663.538 10.2941C662.164 -3.49992 661.102 -17.3518 658.412 -31.0129C656.835 -39.0248 655.984 -47.1792 654.814 -55.2693C657.809 -55.3445 660.804 -55.4855 663.799 -55.4862C744.27 -55.4985 824.74 -55.5006 905.203 -55.4789C908.409 -55.4782 911.666 -55.8802 915.235 -54.7313C915.475 -53.3091 915.991 -51.8905 915.897 -50.5139C915.308 -42.0934 914.763 -33.6628 913.876 -25.2705C910.721 4.44985 904.556 33.6099 896.493 62.3513C889.645 86.7761 881.205 110.68 871.427 134.128C858.109 166.079 842.726 197.02 826.201 227.425C819.549 239.666 812.825 251.869 806.231 264.142C796.809 281.673 786.995 299.015 778.22 316.863C760.387 353.156 746.749 390.974 738.301 430.579C734.463 448.568 731.133 466.635 728.785 484.871C727.956 491.27 727.527 497.725 727.084 504.165C725.731 524.001 724.554 543.85 725.637 563.737C726.407 577.868 727.28 591.999 728.45 606.101C729.112 614.009 730.239 621.898 731.555 629.729C734.273 645.891 736.891 662.085 740.242 678.125C742.939 690.995 746.349 703.75 750.005 716.395C754.709 732.628 759.842 748.737 765.047 764.817C770.717 782.344 778.075 799.234 785.592 816.03C798.088 843.961 811.356 871.537 825.67 898.593C835.906 917.949 846.426 937.153 857.127 956.248C874.655 987.512 891.492 1019.14 906.722 1051.57C918.987 1077.7 930.168 1104.3 938.942 1131.82C944.082 1147.93 948.699 1164.19 950.487 1181.09C950.77 1183.79 951.352 1186.49 951.97 1189.15C954.987 1202.04 955.867 1215.17 956.361 1228.33C956.848 1240.99 957.437 1253.64 957.626 1266.31C957.822 1279.26 956.274 1292.13 953.882 1304.81C947.804 1337.03 941.341 1369.17 934.951 1401.33C934.384 1404.21 933.228 1406.98 932.341 1409.8Z" fill="#FFDF60"/>
<path d="M902.498 1430.09C896.515 1430.08 890.532 1430.37 884.607 1428.94C882.477 1428.41 880.129 1428.81 877.89 1428.65C873.419 1428.32 868.962 1427.81 864.491 1427.54C860.507 1427.29 856.509 1427.24 852.518 1427.13C846.789 1426.99 841.039 1427.44 835.368 1426C833.711 1425.58 831.886 1425.71 830.148 1425.75C819.934 1426.02 809.655 1424.83 799.52 1427.01C782.836 1426.92 766.944 1431.13 751.081 1435.65C744.611 1437.48 738.003 1438.88 731.394 1440.19C716.927 1443.05 702.729 1446.82 688.706 1451.39C679.698 1454.32 670.487 1456.65 661.444 1459.48C653.112 1462.08 644.803 1464.78 636.624 1467.81C623.749 1472.55 610.94 1477.47 598.203 1482.56C591.253 1485.32 584.398 1488.36 577.673 1491.63C563.991 1498.28 550.316 1504.97 536.845 1512.02C514.941 1523.48 494.106 1536.67 473.924 1550.93C462.329 1559.13 450.348 1566.8 438.717 1574.95C427.092 1583.09 415.475 1591.29 404.243 1599.95C394.007 1607.86 384.301 1616.44 374.342 1624.7C371.47 1627.09 368.577 1629.46 365.618 1631.74C348.061 1645.25 330.541 1658.81 312.889 1672.2C295.042 1685.75 277.194 1699.31 259.085 1712.52C243.382 1723.98 227.25 1734.84 209.963 1743.85C197.131 1750.54 184.336 1757.3 171.36 1763.69C148.193 1775.1 123.834 1783.11 98.4995 1788.22C90.6764 1789.8 82.9048 1791.64 75.0577 1793.08C68.2051 1794.34 61.3162 1795.31 54.3168 1795.71C44.1317 1796.29 33.9931 1797.71 23.8073 1798.23C17.111 1798.57 10.3646 1797.97 3.64286 1797.73C2.4048 1797.69 1.18272 1797.29 -0.0575251 1797.21C-10.0093 1796.63 -19.9712 1796.21 -29.9156 1795.52C-35.6283 1795.13 -41.3541 1794.6 -47.0028 1793.69C-60.7755 1791.47 -74.5599 1789.27 -88.2367 1786.56C-99.239 1784.38 -110.13 1781.6 -120.997 1778.8C-133.795 1775.51 -146.54 1772 -159.258 1768.41C-169.105 1765.63 -178.888 1762.64 -188.673 1759.64C-204.902 1754.68 -221.192 1749.91 -237.301 1744.59C-254.836 1738.8 -272.14 1732.32 -289.643 1726.44C-315.456 1717.75 -341.86 1711.26 -368.599 1706.11C-378.877 1704.13 -389.138 1701.92 -399.507 1700.59C-410.857 1699.12 -422.259 1697.93 -433.662 1696.81C-451.398 1695.07 -469.088 1696.1 -486.79 1695.74C-490.003 1695.67 -493.23 1696.28 -496.449 1696.6C-497.441 1696.7 -498.422 1696.93 -499.416 1696.99C-508.367 1697.56 -517.348 1697.85 -526.265 1698.75C-534.436 1699.58 -542.551 1701.01 -550.67 1702.29C-557.802 1703.42 -564.906 1704.73 -572.024 1705.96C-572.106 1703.23 -572.259 1700.5 -572.259 1697.77C-572.272 1617 -572.272 1536.23 -572.263 1455.47C-572.262 1452.52 -572.155 1449.56 -572.089 1446.15C-570.028 1445.86 -568.368 1445.3 -566.779 1445.46C-553.369 1446.78 -539.931 1447.91 -526.585 1449.72C-515.716 1451.19 -504.945 1453.41 -494.16 1455.46C-468.101 1460.39 -442.693 1467.73 -417.596 1476.21C-398.654 1482.61 -380.092 1490.02 -361.93 1498.28C-341.037 1507.78 -320.357 1517.81 -299.987 1528.37C-274.299 1541.7 -249.062 1555.89 -223.55 1569.55C-202.202 1580.99 -180.35 1591.34 -157.7 1600.06C-125.438 1612.48 -92.3326 1621.65 -58.218 1627.34C-42.4562 1629.98 -26.714 1632.5 -10.7072 1633.21C2.00567 1633.79 14.693 1635.39 27.4001 1635.49C42.8682 1635.62 58.3756 1635.08 73.811 1634.02C91.7297 1632.81 109.537 1630.42 127.288 1627.53C144.048 1624.81 160.847 1622.3 177.285 1618.04C214.034 1608.51 250.587 1598.26 285.657 1583.51C314.423 1571.42 342.609 1558.05 370.525 1544.11C397.998 1530.4 424.889 1515.62 451.737 1500.76C478.381 1486.02 505.294 1471.78 532.869 1458.85C562.712 1444.86 592.998 1431.93 624.52 1422.05C640.761 1416.97 657.278 1413.23 674.122 1410.85C681.777 1409.78 689.367 1408.23 697.037 1407.32C705.957 1406.28 714.914 1405.39 723.877 1405.02C734.855 1404.55 745.861 1404.76 756.853 1404.56C770.899 1404.31 784.741 1406.11 798.539 1408.44C830.541 1413.87 862.23 1420.82 893.978 1427.48C896.871 1428.09 899.663 1429.21 902.498 1430.09Z" fill="#FFDF60"/>
</g>
</svg>
