<svg width="924" height="577" viewBox="0 0 924 577" fill="none" xmlns="http://www.w3.org/2000/svg">
<g filter="url(#filter0_d_364_845)">
<path d="M36.1796 113.556L141.981 141.35L180.157 47.0689L191.064 35.0794L209.061 31.8096L264.144 22H497.016L582.094 31.8096C632.139 61.2576 657.34 82.5303 696.621 129.36C696.621 129.36 723.344 123.911 730.434 126.636C737.524 129.36 740.796 150.615 740.796 150.615L808.422 181.133L867.321 200.207L872.775 220.917L869.503 239.991L891.318 321.192L899.498 329.367V371.33C899.498 371.33 912.042 430.188 880.956 469.426C849.87 508.664 790.97 500.49 790.97 500.49C749.898 490.902 734.687 479.575 718.436 450.897L511.196 466.156C511.196 466.156 506.833 491.77 496.471 510.299C486.109 528.828 471.384 553.897 406.485 554.987C341.586 556.077 325.225 486.32 319.226 468.336C313.227 450.352 314.318 417.108 314.318 417.108L215.061 375.145L149.616 344.626C149.616 344.626 147.435 364.245 144.708 377.87C141.981 391.494 138.164 401.849 131.619 408.934C125.075 416.018 94.534 413.838 80.3544 412.203C66.1749 410.568 49.8138 389.859 45.4509 351.711C41.0879 313.563 43.2694 292.853 43.2694 292.853L26.3629 249.8L22 162.604L36.1796 113.556Z" fill="#58C08D" fill-opacity="0.2" shape-rendering="crispEdges"/>
<path d="M36.1796 113.556L141.981 141.35L180.157 47.0689L191.064 35.0794L209.061 31.8096L264.144 22H497.016L582.094 31.8096C632.139 61.2576 657.34 82.5303 696.621 129.36C696.621 129.36 723.344 123.911 730.434 126.636C737.524 129.36 740.796 150.615 740.796 150.615L808.422 181.133L867.321 200.207L872.775 220.917L869.503 239.991L891.318 321.192L899.498 329.367V371.33C899.498 371.33 912.042 430.188 880.956 469.426C849.87 508.664 790.97 500.49 790.97 500.49C749.898 490.902 734.687 479.575 718.436 450.897L511.196 466.156C511.196 466.156 506.833 491.77 496.471 510.299C486.109 528.828 471.384 553.897 406.485 554.987C341.586 556.077 325.225 486.32 319.226 468.336C313.227 450.352 314.318 417.108 314.318 417.108L215.061 375.145L149.616 344.626C149.616 344.626 147.435 364.245 144.708 377.87C141.981 391.494 138.164 401.849 131.619 408.934C125.075 416.018 94.534 413.838 80.3544 412.203C66.1749 410.568 49.8138 389.859 45.4509 351.711C41.0879 313.563 43.2694 292.853 43.2694 292.853L26.3629 249.8L22 162.604L36.1796 113.556Z" stroke="#05C489" stroke-width="5" shape-rendering="crispEdges"/>
</g>
<defs>
<filter id="filter0_d_364_845" x="0.482422" y="0.5" width="923.018" height="576" filterUnits="userSpaceOnUse" color-interpolation-filters="sRGB">
<feFlood flood-opacity="0" result="BackgroundImageFix"/>
<feColorMatrix in="SourceAlpha" type="matrix" values="0 0 0 0 0 0 0 0 0 0 0 0 0 0 0 0 0 0 127 0" result="hardAlpha"/>
<feOffset/>
<feGaussianBlur stdDeviation="9.5"/>
<feComposite in2="hardAlpha" operator="out"/>
<feColorMatrix type="matrix" values="0 0 0 0 0.345098 0 0 0 0 0.752941 0 0 0 0 0.552941 0 0 0 1 0"/>
<feBlend mode="normal" in2="BackgroundImageFix" result="effect1_dropShadow_364_845"/>
<feBlend mode="normal" in="SourceGraphic" in2="effect1_dropShadow_364_845" result="shape"/>
</filter>
</defs>
</svg>
