<svg width="440" height="128" viewBox="0 0 440 128" fill="none" xmlns="http://www.w3.org/2000/svg">
<path fill-rule="evenodd" clip-rule="evenodd" d="M437.443 45.3683C437.443 35.1444 428.136 26.8438 416.672 26.8438H35.1096C23.6455 26.8438 14.3389 35.1444 14.3389 45.3683V105.467C14.3389 115.691 23.6455 123.992 35.1096 123.992H416.672C428.136 123.992 437.443 115.691 437.443 105.467V45.3683Z" fill="#14143C"/>
<path fill-rule="evenodd" clip-rule="evenodd" d="M439.657 44.585C439.703 38.8667 437.194 33.6722 433.132 29.838C428.802 25.7524 422.693 23.2264 415.933 23.1887C415.933 23.1887 293.829 22.4885 188.1 22.1065C107.383 21.8149 36.2114 21.7305 36.2114 21.7305C28.9331 21.7247 22.3391 24.4177 17.6392 28.7871C13.2381 32.8767 10.5116 38.4456 10.5039 44.585L10.55 105.031C10.5577 111.161 13.2791 116.723 17.6751 120.801C22.3673 125.157 28.951 127.84 36.2114 127.826L415.933 126.652C422.775 126.627 428.963 124.078 433.357 119.949C437.479 116.076 440.03 110.821 439.999 105.031L439.657 44.585ZM436.604 44.585C436.604 34.302 427.342 25.9533 415.933 25.9533H36.2114C24.8026 25.9533 15.5408 34.302 15.5408 44.585V105.031C15.5408 115.315 24.8026 123.663 36.2114 123.663H415.933C427.342 123.663 436.604 115.315 436.604 105.031V44.585Z" fill="#31825A"/>
<path fill-rule="evenodd" clip-rule="evenodd" d="M389.823 3.83398C394.996 3.83398 400.08 6.01031 403.88 8.47509C408.268 11.3185 423.888 32.5434 424.698 34.4209C425.501 36.2831 425.939 38.2945 425.939 40.3884V97.511C425.939 107.187 416.587 115.043 405.066 115.043H40.2294C33.0571 115.043 26.722 111.996 22.9656 107.36C21.1289 105.096 6.03307 88.6744 5.26647 87.2038C4.14417 85.0532 4.11328 80.9865 4.11328 78.4882V21.3656C4.11328 11.6893 13.4659 3.83398 24.9863 3.83398H389.823Z" fill="#31825A"/>
<path fill-rule="evenodd" clip-rule="evenodd" d="M397.13 87.6272L420.366 110.781C420.366 110.781 427.652 110.303 427.652 85.0343L428.619 47.4299L397.012 3.79297L397.13 87.6272Z" fill="#BEE6D3"/>
<path fill-rule="evenodd" clip-rule="evenodd" d="M390.049 1.21333L25.7478 0.000133302C18.7911 -0.0204727 12.4805 2.34924 7.90298 6.17681C3.31626 10.0121 0.478093 15.3233 0.45666 21.1883L0.279047 78.3158C0.272923 80.1652 0.297286 82.8054 0.680023 85.0437C0.912727 86.4011 1.29237 87.6375 1.79145 88.6034C2.04253 89.0876 3.5339 90.9859 5.69865 93.469C10.414 98.8832 18.5188 107.806 19.8231 109.428C22.1563 112.318 25.307 114.703 28.9935 116.355C32.5668 117.954 36.642 118.863 40.9684 118.866C40.9684 118.866 132.044 118.935 223.12 118.745C314.196 118.552 405.269 118.101 405.269 118.101C412.07 118.07 418.221 115.736 422.655 111.965C427.076 108.207 429.81 103.038 429.774 97.3403L429.388 40.2127C429.379 39.0176 429.25 37.8482 429.005 36.7123C428.754 35.5429 428.387 34.4096 427.909 33.3175C427.401 32.161 421.448 23.8696 415.713 16.776C411.73 11.846 407.808 7.51104 405.915 6.29786C403.793 4.93786 401.31 3.66027 398.637 2.733C395.909 1.78512 392.988 1.19788 390.049 1.21333ZM390.049 3.65514C395.214 3.65514 400.291 5.83165 404.084 8.29665C408.466 11.1403 424.063 32.367 424.872 34.2448C425.674 36.107 426.112 38.1187 426.112 40.2127V97.3403C426.112 107.017 416.773 114.873 405.269 114.873H40.9684C33.8066 114.873 27.4808 111.826 23.73 107.19C21.896 104.926 6.82234 88.5029 6.05687 87.0322C4.93622 84.8814 4.90537 80.8143 4.90537 78.3158V21.1883C4.90537 11.5112 14.2442 3.65514 25.7478 3.65514H390.049Z" fill="#14143C"/>
</svg>
