<svg width="284" height="95" viewBox="0 0 284 95" fill="none" xmlns="http://www.w3.org/2000/svg">
<path fill-rule="evenodd" clip-rule="evenodd" d="M281.526 30.1581C281.526 22.1663 275.451 15.6777 267.969 15.6777H18.9344C11.4521 15.6777 5.37793 22.1663 5.37793 30.1581V77.1361C5.37793 85.1286 11.4521 91.6169 18.9344 91.6169H267.969C275.451 91.6169 281.526 85.1286 281.526 77.1361V30.1581Z" fill="#14143C"/>
<path fill-rule="evenodd" clip-rule="evenodd" d="M283.528 30.1588C283.558 25.7146 281.912 21.6774 279.248 18.6976C276.409 15.5223 272.402 13.5591 267.969 13.5298C267.969 13.5298 187.889 12.9856 118.548 12.6887C65.6108 12.4621 18.9341 12.3965 18.9341 12.3965C14.1607 12.392 9.83613 14.485 6.75381 17.8808C3.86739 21.0592 2.07924 25.3873 2.07422 30.1588L2.10447 77.1368C2.10949 81.9011 3.89428 86.2237 6.77736 89.3928C9.85465 92.7782 14.1725 94.8635 18.9341 94.8528L267.969 93.9407C272.456 93.921 276.514 91.9395 279.396 88.7311C282.099 85.7212 283.772 81.6365 283.752 77.1368L283.528 30.1588ZM281.525 30.1588C281.525 22.1669 275.451 15.6784 267.969 15.6784H18.9341C11.4518 15.6784 5.37761 22.1669 5.37761 30.1588V77.1368C5.37761 85.1292 11.4518 91.6176 18.9341 91.6176H267.969C275.451 91.6176 281.525 85.1292 281.525 77.1368V30.1588Z" fill="#31825A"/>
<path fill-rule="evenodd" clip-rule="evenodd" d="M254.238 1.10156C257.625 1.10156 260.955 2.79842 263.443 4.72019C266.317 6.93714 273.546 20.486 274.076 21.9499C274.602 23.4018 274.89 24.9701 274.89 26.6027V71.1406C274.89 78.6851 268.765 84.8099 261.22 84.8099H25.2953C20.5983 84.8099 16.4496 82.4343 13.9896 78.8197C12.7867 77.0545 2.90079 64.2508 2.39876 63.1042C1.66378 61.4274 1.64355 58.2566 1.64355 56.3087V14.7708C1.64355 7.2263 7.7684 1.10156 15.3129 1.10156H254.238Z" fill="#31825A"/>
<path fill-rule="evenodd" clip-rule="evenodd" d="M255.683 63.5533L270.897 81.6672C270.897 81.6672 275.668 81.2926 275.668 61.5249L276.301 32.1065L255.605 1.96875L255.683 63.5533Z" fill="#BEE6D3"/>
<path fill-rule="evenodd" clip-rule="evenodd" d="M255.239 1.1979L17.3144 0.252057C12.7519 0.235992 8.61309 2.08348 5.61094 5.06753C2.60277 8.05761 0.741372 12.1983 0.727315 16.7708L0.610828 56.3087C0.606812 57.7506 0.62279 59.8089 0.873806 61.5539C1.02642 62.6122 1.27541 63.5761 1.60273 64.3291C1.7674 64.7067 2.74551 66.1866 4.16525 68.1225C7.25776 72.3435 12.5733 79.2996 13.4287 80.5647C14.9589 82.8178 17.0253 84.6774 19.4431 85.9646C21.7866 87.2116 24.4593 87.9205 27.2967 87.9225C27.2967 87.9225 82.0285 87.9767 141.76 87.8281C201.492 87.6775 261.222 87.3261 261.222 87.3261C265.682 87.302 269.716 85.4826 272.624 82.5427C275.524 79.6129 277.317 75.5826 277.293 71.1407L277.04 26.6027C277.034 25.671 276.949 24.7593 276.789 23.8737C276.624 22.962 276.383 22.0785 276.07 21.227C275.736 20.3254 274.078 15.5 271.5 12C268.922 8.5 266.886 6.10773 265.645 5.16191C264.254 4.10162 262.625 3.10558 260.872 2.38266C259.083 1.64368 257.167 1.18585 255.239 1.1979ZM255.239 3.10158C258.627 3.10158 261.389 3.94041 264.444 6.72021C267.5 9.5 273.548 20.486 274.078 21.9499C274.604 23.4018 274.891 24.9701 274.891 26.6027V71.1407C274.891 78.6851 268.766 84.8099 261.222 84.8099H27.2967C22.5997 84.8099 18.451 82.4343 15.991 78.8197C14.7882 77.0546 4.90222 64.2508 4.40019 63.1042C3.66521 61.4274 3.64498 58.2566 3.64498 56.3087V16.7708C3.64498 9.22632 9.76983 3.10158 17.3144 3.10158L255.239 3.10158Z" fill="#14143C"/>
</svg>
