<svg width="289" height="100" viewBox="0 0 289 100" fill="none" xmlns="http://www.w3.org/2000/svg">
<path fill-rule="evenodd" clip-rule="evenodd" d="M286.526 35.1581C286.526 27.1663 280.451 20.6777 272.969 20.6777H23.9344C16.4521 20.6777 10.3779 27.1663 10.3779 35.1581V82.1361C10.3779 90.1286 16.4521 96.6169 23.9344 96.6169H272.969C280.451 96.6169 286.526 90.1286 286.526 82.1361V35.1581Z" fill="#14143C"/>
<path fill-rule="evenodd" clip-rule="evenodd" d="M288.528 35.1588C288.558 30.7146 286.912 26.6774 284.248 23.6976C281.409 20.5223 277.402 18.5591 272.969 18.5298C272.969 18.5298 192.889 17.9856 123.548 17.6887C70.6108 17.4621 23.9341 17.3965 23.9341 17.3965C19.1607 17.392 14.8361 19.485 11.7538 22.8808C8.86739 26.0592 7.07924 30.3873 7.07422 35.1588L7.10447 82.1368C7.10949 86.9011 8.89428 91.2237 11.7774 94.3928C14.8546 97.7782 19.1725 99.8635 23.9341 99.8528L272.969 98.9407C277.456 98.921 281.514 96.9395 284.396 93.7311C287.099 90.7212 288.772 86.6365 288.752 82.1368L288.528 35.1588ZM286.525 35.1588C286.525 27.1669 280.451 20.6784 272.969 20.6784H23.9341C16.4518 20.6784 10.3776 27.1669 10.3776 35.1588V82.1368C10.3776 90.1292 16.4518 96.6176 23.9341 96.6176H272.969C280.451 96.6176 286.525 90.1292 286.525 82.1368V35.1588Z" fill="#31825A"/>
<path fill-rule="evenodd" clip-rule="evenodd" d="M256.238 3.10156C259.625 3.10156 262.955 4.79842 265.443 6.72019C268.317 8.93714 278.546 25.486 279.076 26.9499C279.602 28.4018 279.89 29.9701 279.89 31.6027V76.1406C279.89 83.6851 273.765 89.8099 266.22 89.8099H27.2953C22.5983 89.8099 18.4496 87.4343 15.9896 83.8197C14.7867 82.0545 4.90079 69.2508 4.39876 68.1042C3.66378 66.4274 3.64355 63.2566 3.64355 61.3087V16.7708C3.64355 9.2263 9.7684 3.10156 17.3129 3.10156H256.238Z" fill="#31825A"/>
<path fill-rule="evenodd" clip-rule="evenodd" d="M260.683 68.5533L275.897 86.6672C275.897 86.6672 280.668 86.2926 280.668 66.5249L281.301 37.1065L260.605 2.96875L260.683 68.5533Z" fill="#BEE6D3"/>
<path fill-rule="evenodd" clip-rule="evenodd" d="M256.239 1.19789L17.3144 0.252057C12.7519 0.235992 8.61309 2.08348 5.61094 5.06753C2.60277 8.05761 0.741372 12.1983 0.727315 16.7708L0.610828 61.3087C0.606812 62.7506 0.62279 64.8089 0.873806 66.5539C1.02642 67.6122 1.27541 68.5761 1.60273 69.3291C1.7674 69.7067 2.74551 71.1866 4.16525 73.1225C7.25776 77.3435 12.5733 84.2996 13.4287 85.5647C14.9589 87.8178 17.0253 89.6774 19.4431 90.9646C21.7866 92.2116 24.4593 92.9205 27.2967 92.9225C27.2967 92.9225 87.0285 92.9767 146.76 92.8281C206.492 92.6775 266.222 92.3261 266.222 92.3261C270.682 92.302 274.716 90.4826 277.624 87.5427C280.524 84.6129 282.317 80.5826 282.293 76.1407L282.04 31.6027C282.034 30.671 281.949 29.7593 281.789 28.8737C281.624 27.962 281.383 27.0785 281.07 26.227C280.736 25.3254 276.833 18.8612 273.071 13.3309C270.459 9.48737 267.886 6.10773 266.645 5.16191C265.254 4.10162 263.625 3.10558 261.872 2.38266C260.083 1.64368 258.167 1.18585 256.239 1.19789ZM256.239 3.10158C259.627 3.10158 262.956 4.79844 265.444 6.72021C268.318 8.93716 278.548 25.486 279.078 26.9499C279.604 28.4018 279.891 29.9701 279.891 31.6027V76.1407C279.891 83.6851 273.766 89.8099 266.222 89.8099H27.2967C22.5997 89.8099 18.451 87.4343 15.991 83.8197C14.7882 82.0546 4.90222 69.2508 4.40019 68.1042C3.66521 66.4274 3.64498 63.2566 3.64498 61.3087V16.7708C3.64498 9.22632 9.76983 3.10158 17.3144 3.10158H256.239Z" fill="#14143C"/>
</svg>
