<svg width="921" height="513" viewBox="0 0 921 513" fill="none" xmlns="http://www.w3.org/2000/svg">
<path d="M45.0572 7.52459C69.4315 5.18361 120.584 0.401311 130.2 0H182.288L258.416 7.52459L343.559 13.5443C345.061 57.5213 348.066 146.78 348.066 151.997C348.066 157.214 367.766 197.311 377.616 216.708L396.147 251.321L399.653 13.5443H730.208L699.657 269.38L677.119 272.892L715.183 295.967L752.746 301.987L801.828 315.531L814.349 346.633L865.435 360.177L892.481 385.761L904 419.872L900.494 445.456L865.435 451.977L808.339 428.902H777.788L315.011 423.384L286.964 459H93.138L81.1178 397.298L11 20.5672L45.0572 7.52459Z" fill="#EDEDED"/>
<path fill-rule="evenodd" clip-rule="evenodd" d="M670.345 303.185L343.698 297.028L321.938 390.022H732.837L670.345 303.185Z" fill="#524A42" fill-opacity="0.8"/>
<path fill-rule="evenodd" clip-rule="evenodd" d="M765.438 405.196L340.809 405.07L334.715 431.079H784.293L765.438 405.196Z" fill="#524A42" fill-opacity="0.8"/>
<path fill-rule="evenodd" clip-rule="evenodd" d="M887.767 398.331L794.676 398.182L836.069 440.885C879.122 488.654 955.533 463.876 903.486 413.244L887.767 398.331Z" fill="#524A42" fill-opacity="0.8"/>
<path fill-rule="evenodd" clip-rule="evenodd" d="M804.384 361.885C804.384 361.885 800.967 359.519 799.268 350.897C798.313 346.038 797.943 339.364 798.925 330.287C799.802 322.169 794.399 317.52 784.977 315.192C765.611 310.401 728.026 315.515 707.959 308.551C700.341 305.901 695.456 301.392 696.185 293.202C696.504 289.673 695.8 287.227 694.499 285.517C692.992 283.544 690.576 282.437 687.322 282.052C682.363 281.473 675.12 282.589 666.742 283.047C657.983 283.531 647.913 283.262 637.982 279.109C627.889 274.881 617.991 266.615 609.732 251.161C609.124 250.022 607.706 249.588 606.567 250.203C605.427 250.809 605 252.226 605.608 253.365C614.519 270.034 625.292 278.858 636.177 283.418C652.69 290.337 669.569 287.304 680.869 286.658C683.733 286.494 686.201 286.479 688.139 286.927C689.406 287.222 690.409 287.686 690.975 288.647C691.55 289.625 691.691 290.975 691.528 292.789C690.578 303.408 696.546 309.536 706.432 312.966C723.74 318.975 753.946 316.199 774.597 318.246C781.189 318.898 786.755 320.018 790.418 322.257C793.167 323.938 794.648 326.328 794.276 329.784C793.227 339.485 793.663 346.61 794.683 351.801C796.896 363.065 801.945 365.88 801.945 365.88C803.047 366.551 804.488 366.204 805.156 365.104C805.833 364.002 805.487 362.565 804.384 361.885Z" fill="#756E68"/>
<path fill-rule="evenodd" clip-rule="evenodd" d="M797.094 328.044C798.021 322.711 794.926 319.441 789.285 317.414C781.639 314.669 769.262 314.227 755.961 313.999C748.045 313.867 739.797 313.8 732.03 313.374C723.181 312.89 714.954 311.924 708.533 309.783C699.887 306.904 694.543 301.873 695.596 292.908C696.374 286.186 692.621 283.699 686.753 283.051C677.214 282.001 661.98 285.914 652.468 283.45C652.409 283.434 652.352 283.467 652.341 283.522C652.322 283.578 652.358 283.632 652.417 283.647C661.893 286.219 677.162 282.485 686.686 283.635C690.087 284.043 692.746 285.068 694.067 287.312C694.865 288.671 695.171 290.466 694.88 292.822C693.707 302.207 699.207 307.573 708.248 310.628C714.724 312.822 723.041 313.822 731.98 314.291C739.763 314.697 748.024 314.695 755.95 314.763C769.189 314.869 781.512 315.149 789.154 317.787C794.655 319.691 797.721 322.817 796.894 328.009C796.883 328.064 796.92 328.118 796.973 328.129C797.035 328.14 797.088 328.103 797.094 328.044Z" fill="#FCF9F7"/>
<path fill-rule="evenodd" clip-rule="evenodd" d="M309.576 155.047C309.576 155.047 317.599 155.821 328.745 165.057C335.281 170.475 342.816 178.729 350.455 191.268C367.596 219.436 367.173 255.089 374.106 276.47C377.08 285.64 381.419 292.311 388.446 295.299C395.857 298.455 411.359 298.064 428.66 287.531C441.944 279.445 456.386 265.364 468.921 242.302C469.556 241.123 469.118 239.653 467.943 239.011C466.768 238.37 465.295 238.808 464.66 239.988C452.65 262.093 438.87 275.642 426.131 283.391C410.698 292.788 396.957 293.65 390.349 290.836C384.511 288.351 381.192 282.595 378.712 274.971C371.697 253.317 371.954 217.267 354.591 188.752C346.597 175.616 338.678 166.993 331.832 161.32C319.19 150.852 309.985 150.211 309.985 150.211C308.645 150.098 307.474 151.099 307.368 152.43C307.25 153.76 308.248 154.936 309.576 155.047Z" fill="black"/>
<path fill-rule="evenodd" clip-rule="evenodd" d="M359.095 174.831C364.193 183.428 367.671 192.686 370.262 202.013C371.822 207.616 373.049 213.234 374.115 218.757C375.247 224.575 376.176 230.274 377.103 235.714C378.148 241.758 379.178 247.482 380.399 252.666C381.897 259.024 383.725 264.582 386.246 268.972C387.719 271.533 391.543 275.712 397.46 277.82C401.32 279.197 406.079 279.699 411.666 278.273C411.74 278.253 411.79 278.17 411.769 278.091C411.747 278.012 411.673 277.966 411.587 277.984C406.085 279.266 401.422 278.689 397.667 277.256C392.005 275.11 388.387 271.035 387.009 268.54C384.601 264.18 382.927 258.682 381.533 252.409C380.384 247.221 379.432 241.519 378.409 235.487C377.495 230.041 376.52 224.334 375.329 218.514C374.194 212.979 372.864 207.343 371.196 201.746C368.405 192.417 364.672 183.196 359.359 174.678C359.312 174.611 359.221 174.587 359.154 174.633C359.076 174.669 359.061 174.758 359.095 174.831Z" fill="#FCF9F7"/>
<path fill-rule="evenodd" clip-rule="evenodd" d="M786.315 386.026L787.14 379.214C787.14 379.214 787.095 378.516 787.882 378.053C787.882 378.053 787.001 377.279 788.428 374.45C789.855 371.621 794.029 365.082 803.512 360.768C803.512 360.768 804.298 358.574 811.333 358.066C811.333 358.066 828.807 355.51 842.958 358.415C842.958 358.415 852.168 358.193 867.322 370.422C882.469 382.645 891.787 398.972 892.358 409.159C892.795 416.942 892.942 427.325 888.165 433.142C883.731 438.54 870.151 444.185 844.81 436.383C832.524 432.603 816.273 420.145 803.365 407.713C792.69 397.431 786.315 386.026 786.315 386.026Z" fill="#C0C1BE"/>
<path fill-rule="evenodd" clip-rule="evenodd" d="M799.324 379.468C807.012 385.316 821.613 400.178 832.352 409.381C840.979 416.771 864.251 424.605 875.535 420.165C886.09 416.01 897.742 401.865 874.159 378.352C856.906 361.149 848.482 358.669 826.922 357.635C820.427 357.325 805.915 357.401 796.692 367.118C796.476 367.346 791.636 373.62 799.324 379.468Z" fill="#D7D7D7"/>
<path fill-rule="evenodd" clip-rule="evenodd" d="M804.804 359.404C804.804 359.404 810.741 359.718 818.113 361.585C822.135 362.608 826.576 364.092 830.711 366.218L831.148 365.343C826.888 363.329 822.335 361.985 818.238 361.074C810.778 359.416 804.81 359.225 804.81 359.225L804.804 359.404Z" fill="black"/>
<path fill-rule="evenodd" clip-rule="evenodd" d="M785.948 376.499L789.639 382.525L790.058 382.423C790.058 382.423 791.612 382.068 794.13 382.887C795.253 383.248 796.553 383.832 797.993 384.77L799.008 385.436L798.837 384.238C798.837 384.238 798.646 382.836 799.331 381.333C799.693 380.552 800.289 379.753 801.272 379.106C803.137 377.882 807.267 375.262 812.423 372.725C816.033 370.943 820.143 369.198 824.336 367.987C828.471 366.801 830.913 365.735 832.531 364.784C834.948 363.356 835.487 362.17 837.06 361.13C838.398 360.242 839.635 359.493 841.043 359.075C842.312 358.701 843.713 358.587 845.451 358.885C845.66 358.916 845.8 358.916 845.864 358.904C846.016 358.866 846.086 358.777 846.124 358.701C846.168 358.606 846.187 358.472 846.073 358.326C846.029 358.269 845.895 358.162 845.66 358.041C844.817 357.616 842.394 356.703 839.476 355.827C836 354.787 831.826 353.798 828.769 353.734C824.741 353.645 816.698 354.14 809.556 355.599C804.577 356.62 800.042 358.111 797.581 360.204C795.741 361.771 793.959 363.858 792.373 366.008C788.808 370.835 786.233 375.941 786.233 375.941L785.948 376.499ZM844.049 358.054C842.857 357.99 841.817 358.13 840.846 358.409C839.368 358.834 838.062 359.601 836.66 360.521C835.087 361.542 834.548 362.716 832.138 364.111C830.552 365.031 828.154 366.046 824.107 367.175C819.851 368.367 815.677 370.099 812.011 371.875C806.784 374.4 802.598 377.007 800.701 378.224C799.515 378.992 798.799 379.95 798.361 380.882C797.936 381.783 797.784 382.665 797.739 383.318C796.16 382.379 794.758 381.846 793.591 381.548C791.986 381.136 790.813 381.161 790.223 381.225L786.887 375.687L786.778 375.516C787.539 374.07 789.747 370.029 792.602 366.173C794.175 364.048 795.944 361.98 797.778 360.439C800.22 358.384 804.71 356.95 809.626 355.98C816.743 354.571 824.748 354.14 828.757 354.261C830.317 354.305 832.175 354.597 834.078 355.015C837.884 355.853 841.88 357.191 844.049 358.054ZM785.948 376.499L785.84 376.322L785.948 376.499Z" fill="#352B23"/>
<path fill-rule="evenodd" clip-rule="evenodd" d="M785.948 385.983L785.936 386.103L785.993 386.205C785.993 386.205 788.821 391.241 793.857 397.641C796.407 400.882 799.535 404.479 803.144 407.942C810.375 414.888 818.653 421.84 826.696 427.282C833.064 431.595 839.286 434.957 844.735 436.625C855.981 440.076 864.912 440.882 871.769 440.254C880.471 439.448 885.831 436.315 888.324 433.276C890.329 430.834 891.483 427.593 892.105 424.079C892.974 419.163 892.815 413.714 892.561 409.147C892.288 404.282 890.037 398.022 886.117 391.476C881.791 384.257 875.435 376.684 867.469 370.239C862.02 365.837 857.339 363.04 853.571 361.264C847.133 358.219 843.352 358.15 842.984 358.156C837.815 357.09 832.208 356.748 827.165 356.748C818.52 356.741 811.536 357.731 811.295 357.769C809.011 357.928 807.381 358.27 806.208 358.657C804.121 359.342 803.461 360.198 803.277 360.528C799.668 362.177 796.82 364.15 794.6 366.11C790.971 369.326 789.012 372.529 788.117 374.299C787.635 375.25 787.407 375.986 787.312 376.538C787.198 377.236 787.286 377.686 787.407 377.959C787.254 378.086 787.147 378.213 787.058 378.339C786.804 378.726 786.779 379.088 786.779 379.202C786.779 379.196 785.948 385.983 785.948 385.983ZM786.69 385.951L787.496 379.227V379.196C787.496 379.196 787.489 378.974 787.648 378.739C787.736 378.606 787.864 378.473 788.06 378.358L788.479 378.111L788.117 377.788C788.117 377.788 787.87 377.509 788.009 376.652C788.092 376.151 788.301 375.485 788.739 374.61C789.608 372.884 791.511 369.757 795.044 366.605C797.232 364.651 800.055 362.691 803.638 361.055L803.765 360.998L803.81 360.871C803.81 360.871 804.165 359.989 806.404 359.247C807.54 358.866 809.131 358.537 811.352 358.372H811.365C811.377 358.372 818.412 357.331 827.165 357.312C832.182 357.3 837.764 357.623 842.908 358.67L842.933 358.676H842.965C842.965 358.676 846.714 358.587 853.362 361.714C857.104 363.471 861.759 366.237 867.176 370.601C873.665 375.828 879.082 381.809 883.199 387.74C888.66 395.611 891.826 403.382 892.155 409.173C892.409 413.708 892.567 419.125 891.698 424.003C891.089 427.447 889.967 430.618 888 433.01C885.546 435.991 880.269 439.036 871.725 439.803C864.919 440.425 856.045 439.594 844.881 436.143C839.483 434.475 833.318 431.113 827.007 426.819C819.008 421.377 810.781 414.425 803.588 407.479C800.016 404.022 796.922 400.445 794.397 397.216C789.836 391.387 787.115 386.7 786.69 385.951Z" fill="#352B23"/>
<path fill-rule="evenodd" clip-rule="evenodd" d="M809.548 359.563C809.548 359.563 809.395 359.43 808.571 360.071C807.753 360.705 808.641 360.68 809.516 360.876C810.398 361.073 816.088 362.481 817.229 362.697C818.377 362.913 820.641 362.418 821.815 361.917C822.988 361.416 824.016 360.813 821.441 360.109C821.441 360.109 821.289 360.153 821.301 359.969C820.902 359.557 819.652 358.377 818.048 357.635C817.635 357.629 817.756 357.508 817.603 357.451C816.842 357.153 816.018 356.969 815.168 357.013C814.032 357.077 813.011 357.4 812.161 357.794C812.041 357.908 811.901 358.047 811.552 358.105C810.296 358.796 809.548 359.563 809.548 359.563Z" fill="#59667D"/>
<path fill-rule="evenodd" clip-rule="evenodd" d="M821.823 360.022C820.661 360.041 819.598 360.159 818.728 360.612C818.063 360.957 817.553 361.509 817.174 362.175L816.937 363.733C816.931 363.766 816.956 363.799 816.993 363.804C817.024 363.809 817.062 363.79 817.068 363.752L817.801 362.539C818.193 361.835 818.802 361.382 819.511 360.99C820.195 360.612 820.953 360.277 821.83 360.05C821.836 360.05 821.842 360.041 821.842 360.036C821.842 360.027 821.829 360.022 821.823 360.022Z" fill="#3B4453"/>
<path fill-rule="evenodd" clip-rule="evenodd" d="M818.45 357.772C817.424 357.31 815.683 357.456 814.651 358.603C813.893 359.444 813.613 360.804 814.166 362.508C814.172 362.546 814.21 362.565 814.241 362.555C814.272 362.551 814.297 362.513 814.291 362.48C814.061 360.908 814.571 359.878 815.236 359.118C816.137 358.084 817.461 357.569 818.437 357.796C818.443 357.801 818.456 357.796 818.456 357.791C818.456 357.782 818.456 357.777 818.45 357.772Z" fill="#3B4453"/>
<path fill-rule="evenodd" clip-rule="evenodd" d="M812.85 357.377C811.903 357.678 811.056 358.32 810.82 359.193C810.603 359.972 810.89 360.881 811.783 361.738C811.798 361.757 811.824 361.756 811.839 361.741C811.854 361.729 811.856 361.701 811.843 361.685C811.171 360.811 811.103 360.017 811.289 359.32C811.5 358.522 812.056 357.817 812.859 357.402C812.866 357.399 812.87 357.39 812.867 357.384C812.863 357.377 812.857 357.373 812.85 357.377Z" fill="#3B4453"/>
<path fill-rule="evenodd" clip-rule="evenodd" d="M809.77 359.311C809.294 359.786 809.041 360.522 809.567 361.302C810.1 362.082 807.651 361.093 807.797 360.357C807.943 359.628 810.245 358.841 809.77 359.311Z" fill="black"/>
<path fill-rule="evenodd" clip-rule="evenodd" d="M821.448 360.109C822.026 360.775 822.952 361.453 822.229 362.164C822.229 362.164 823.999 361.567 823.358 360.667C822.711 359.772 820.878 359.449 821.448 360.109Z" fill="black"/>
<path fill-rule="evenodd" clip-rule="evenodd" d="M809.549 359.563C809.549 359.563 809.485 359.506 809.225 359.633C809.079 359.703 808.864 359.83 808.565 360.058C808.286 360.274 808.204 360.42 808.242 360.521C808.318 360.724 808.915 360.762 809.511 360.902C810.101 361.041 812.809 361.733 814.895 362.246C815.942 362.506 816.83 362.716 817.217 362.792C817.706 362.887 818.391 362.862 819.12 362.754C820.116 362.614 821.175 362.329 821.867 362.037C822.317 361.847 822.748 361.644 822.977 361.422C823.192 361.219 823.256 361.003 823.123 360.781C822.983 360.528 822.501 360.242 821.486 359.957L821.442 360.267L821.41 359.957L821.461 360.001C821.461 360.001 821.461 359.988 821.461 359.982L821.467 359.906L821.416 359.855C821.175 359.608 820.624 359.075 819.875 358.523C819.368 358.155 818.777 357.781 818.118 357.477L818.086 357.464H818.055C817.934 357.464 817.877 357.458 817.851 357.432C817.775 357.388 817.775 357.331 817.667 357.286C817.274 357.134 816.862 357.013 816.443 356.937C816.025 356.868 815.593 356.836 815.162 356.868C814.61 356.906 814.09 357.007 813.601 357.147C813.069 357.299 812.574 357.502 812.13 357.718L812.117 357.724C812.041 357.794 811.971 357.87 811.851 357.933C811.775 357.978 811.673 358.016 811.54 358.041H811.528C811.122 358.282 810.773 358.53 810.488 358.745C809.885 359.202 809.549 359.557 809.549 359.563ZM809.549 359.563C809.549 359.557 809.898 359.221 810.519 358.796C810.811 358.593 811.166 358.377 811.572 358.168C811.718 358.149 811.826 358.111 811.921 358.066C812.048 358.009 812.137 357.933 812.213 357.863C812.65 357.673 813.139 357.502 813.659 357.369C814.135 357.254 814.642 357.178 815.175 357.159C815.587 357.147 815.987 357.185 816.38 357.261C816.78 357.343 817.173 357.458 817.54 357.61C817.572 357.622 817.572 357.641 817.585 357.66C817.617 357.698 817.661 357.737 817.737 357.768C817.795 357.787 817.877 357.8 818.01 357.806C818.632 358.098 819.196 358.453 819.678 358.796C820.37 359.297 820.89 359.779 821.15 360.033C821.156 360.102 821.181 360.153 821.213 360.185C821.283 360.267 821.391 360.267 821.429 360.267C822.311 360.502 822.742 360.711 822.875 360.927C822.932 361.029 822.882 361.124 822.78 361.219C822.571 361.422 822.177 361.612 821.759 361.796C821.194 362.037 820.37 362.284 819.545 362.449C818.689 362.621 817.826 362.703 817.249 362.602C816.868 362.532 815.98 362.335 814.934 362.094C812.841 361.618 810.113 360.978 809.523 360.851C809.079 360.756 808.629 360.718 808.407 360.616C808.191 360.528 808.191 360.382 808.578 360.077C808.876 359.842 809.079 359.709 809.225 359.64C809.485 359.506 809.549 359.563 809.549 359.563Z" fill="black"/>
<path d="M543.74 314.624C586.682 317.839 621.494 304.552 621.494 284.948C621.494 265.343 586.682 246.843 543.74 243.628C500.798 240.413 465.987 253.7 465.987 273.305C465.987 292.91 500.798 311.409 543.74 314.624Z" fill="#B1A8A2"/>
<path fill-rule="evenodd" clip-rule="evenodd" d="M543.567 240.389C522.772 238.265 503.85 240.201 489.757 245.047C473.989 250.476 464.429 259.722 464.232 270.613C464.035 281.386 473.003 292.232 488.18 300.616C497.148 305.583 508.187 309.715 520.604 312.486C527.799 314.087 535.387 315.15 543.272 315.764C564.559 317.146 583.777 314.501 597.87 309.017C613.639 302.88 623.001 293.17 622.902 282.139C622.607 271.541 613.441 261.176 598.264 253.525C584.072 246.395 564.756 241.456 543.567 240.389ZM543.567 240.389C564.46 242.472 583.285 248.272 596.885 255.971C610.19 263.483 618.665 272.639 618.369 282.13C618.271 291.518 609.401 298.833 595.899 303.653C582.299 308.512 563.967 310.657 543.863 308.963C536.274 308.395 528.982 307.306 521.984 305.861C510.257 303.402 499.613 299.795 490.94 295.369C477.636 288.519 468.963 279.938 468.766 270.599C468.569 261.071 477.241 253.222 490.743 247.765C504.343 242.291 522.969 239.389 543.567 240.389Z" fill="#726E6A"/>
<path fill-rule="evenodd" clip-rule="evenodd" d="M542.701 247.809C524.979 246 508.654 247.064 496.432 250.275C489.098 252.191 483.162 254.891 479.059 258.138C474.869 261.522 472.599 265.531 472.511 269.937C472.337 278.372 480.805 287.134 495.035 293.772C502.892 297.433 512.496 300.51 523.146 302.629C529.258 303.836 535.717 304.677 542.527 305.187C560.511 306.355 577.011 304.715 589.321 300.956C596.654 298.737 602.591 295.752 606.606 292.283C610.797 288.703 612.98 284.58 612.892 280.144C612.805 276.797 611.495 273.466 608.876 270.304C605.035 265.587 598.4 261.161 589.757 257.549C577.361 252.351 560.86 248.722 542.701 247.809ZM542.701 247.809C560.598 249.596 576.836 253.991 588.797 259.727C595.431 262.868 600.67 266.386 604.249 270.119C607.392 273.373 609.138 276.737 609.051 280.142C608.963 283.475 607.043 286.422 603.9 288.991C600.146 291.996 594.646 294.407 588.011 296.25C576.051 299.516 560.249 300.816 542.963 299.343C536.416 298.853 530.13 298.007 524.193 296.902C513.979 295.03 504.725 292.372 497.13 289.106C490.582 286.276 485.257 283.055 481.59 279.548C478.36 276.483 476.44 273.268 476.44 269.927C476.353 266.563 478.099 263.478 481.242 260.731C484.908 257.522 490.32 254.801 497.13 252.668C509.09 248.883 525.067 246.971 542.701 247.809Z" fill="#524A42"/>
<path fill-rule="evenodd" clip-rule="evenodd" d="M512.912 270.58L534.622 301.404C534.622 301.404 562.453 303.317 570.486 301.902C574.694 292.022 575.747 281.894 574.981 271.613L512.912 270.58Z" fill="#524A42"/>
<path fill-rule="evenodd" clip-rule="evenodd" d="M543.741 243.637C534.195 242.713 525.047 242.61 516.595 243.258C506.552 244.043 497.503 245.881 489.846 248.544C483.284 250.824 477.815 253.745 473.638 257.134C468.07 261.747 464.987 267.268 464.987 273.323C464.987 278.213 466.977 283.042 470.755 287.61C474.932 292.626 481.196 297.287 489.051 301.345C503.171 308.643 522.462 313.883 543.642 315.422C564.524 316.892 583.516 314.495 597.537 309.397C612.651 303.892 621.998 295.231 621.899 284.954C621.899 274.894 612.75 265.105 598.133 257.56C584.112 250.339 564.921 245.13 543.741 243.637ZM543.741 243.637C564.822 245.309 583.913 250.674 597.934 258.011C612.153 265.526 621.102 275.091 621.102 284.965C621.003 294.9 611.756 303.104 597.139 308.32C583.217 313.262 564.424 315.464 543.841 313.853C522.86 312.213 503.867 306.902 489.946 299.619C482.389 295.677 476.323 291.147 472.346 286.309C468.965 282.143 467.076 277.764 467.076 273.316C467.076 267.867 469.96 262.937 475.031 258.752C478.909 255.456 484.179 252.614 490.444 250.266C497.901 247.494 506.85 245.509 516.694 244.383C525.146 243.456 534.195 243.132 543.741 243.637Z" fill="#352B23"/>
<path fill-rule="evenodd" clip-rule="evenodd" d="M512.104 252.886V267.28C512.104 271.985 515.451 274.252 522.05 274.252C528.649 274.252 565.948 274.338 572.93 274.156C579.911 273.974 579.242 270.053 574.556 266.878V253.68L512.104 252.886Z" fill="#6C6157"/>
<path fill-rule="evenodd" clip-rule="evenodd" d="M519.822 253.68V264.173C519.822 267.603 522.386 269.255 527.442 269.255C532.498 269.255 561.074 269.318 566.423 269.185C571.772 269.053 571.259 266.194 567.668 263.88V254.259L519.822 253.68Z" fill="#B1A8A2"/>
<path fill-rule="evenodd" clip-rule="evenodd" d="M561.064 328.005C561.064 328.005 560.796 324.443 565.62 318.774C568.353 315.565 572.62 311.795 579.241 307.682C594.911 297.949 617.02 295.184 630.086 290.568C636.477 288.312 640.798 285.424 642.038 281.637C643.375 277.562 641.103 269.133 630.08 261.25C623.299 256.405 613.138 251.634 598.436 248.174C597.334 247.918 596.232 248.602 595.975 249.699C595.719 250.795 596.398 251.897 597.5 252.159C611.523 255.458 621.235 259.956 627.7 264.577C632.925 268.31 635.974 272.075 637.396 275.294C638.316 277.359 638.562 279.124 638.156 280.364C637.209 283.252 633.594 284.996 628.727 286.718C615.443 291.403 593.007 294.317 577.081 304.206C569.984 308.618 565.433 312.683 562.507 316.127C556.143 323.604 557.015 328.54 557.015 328.54C557.159 329.663 558.192 330.449 559.309 330.299C560.427 330.15 561.213 329.123 561.064 328.005Z" fill="black"/>
<path fill-rule="evenodd" clip-rule="evenodd" d="M579.089 304.897C584.148 301.838 589.855 299.506 595.706 297.57C599.77 296.227 603.909 295.083 607.942 294.029C610.76 293.291 613.525 292.601 616.189 291.922C619.076 291.184 621.847 290.457 624.419 289.719C629.243 288.328 633.382 286.868 636.367 285.098C637.794 284.248 639.945 282.285 640.715 279.59C641.271 277.654 641.127 275.338 639.49 272.787C639.464 272.744 639.405 272.728 639.362 272.755C639.324 272.782 639.308 272.84 639.335 272.883C640.865 275.386 640.972 277.627 640.389 279.488C639.597 282.055 637.506 283.895 636.121 284.676C633.142 286.371 629.019 287.724 624.227 289.034C621.649 289.735 618.879 290.419 615.991 291.141C613.322 291.81 610.552 292.5 607.744 293.259C603.695 294.35 599.561 295.564 595.508 296.992C589.667 299.051 583.999 301.554 578.993 304.747C578.95 304.768 578.939 304.827 578.966 304.87C578.992 304.913 579.046 304.923 579.089 304.897Z" fill="#FCF9F7"/>
<path fill-rule="evenodd" clip-rule="evenodd" d="M403.651 23.0884L405.373 256.961L693.816 259.667L721.455 23.184L403.651 23.0884Z" fill="#726E6A"/>
<path fill-rule="evenodd" clip-rule="evenodd" d="M395.979 173.073L397.691 259.959L703.43 261.032L708.66 214.036L395.979 173.073Z" fill="#524A42"/>
<path fill-rule="evenodd" clip-rule="evenodd" d="M395.979 21.2874L397.691 74.7272L718.17 112.374L730.819 21.3485L395.979 21.2874Z" fill="#B1A8A2"/>
<path fill-rule="evenodd" clip-rule="evenodd" d="M419.886 36.6924L421.33 234.772L679.357 237.219L702.472 36.9192L419.886 36.6924Z" fill="#46467B"/>
<path d="M691.799 183.262L413.123 144.565V239.188L691.799 277.884V183.262Z" fill="#59599C"/>
<path fill-rule="evenodd" clip-rule="evenodd" d="M419.886 36.6928C419.886 36.7252 420.688 234.773 420.688 234.773V235.429H421.33L680.642 238.677L680.722 237.381L704.638 35.016H702.472C702.472 35.016 665.232 34.8378 617.72 34.8621C599.823 34.8783 580.481 34.9188 561.139 35.0322C536.66 35.178 512.101 35.4048 490.512 35.6559C449.982 36.1338 419.886 36.6928 419.886 36.6928ZM419.886 36.6928C419.886 36.6928 449.982 37.3003 490.512 37.843C512.101 38.1265 536.66 38.3938 561.139 38.5801C580.481 38.7259 599.823 38.7988 617.72 38.8393C658.491 38.9365 691.797 38.8636 700.385 38.8393C698.057 59.2678 679.839 219.731 677.994 235.761L421.973 234.109L419.886 36.6928Z" fill="#726E6A"/>
<path fill-rule="evenodd" clip-rule="evenodd" d="M420.865 252.457C420.865 252.457 485.421 253.126 549.976 253.891C614.532 254.647 679.183 255.498 679.183 255.498C680.14 255.508 681 254.714 681 253.719C681 252.734 680.14 251.921 679.183 251.902C679.183 251.902 614.628 251.233 550.072 250.477C485.421 249.712 420.865 248.861 420.865 248.861C419.909 248.851 419.049 249.645 419.049 250.64C419.049 251.634 419.813 252.447 420.865 252.457Z" fill="#160E11"/>
<path fill-rule="evenodd" clip-rule="evenodd" d="M403.65 23.0893C403.65 23.0989 403.267 53.9516 402.981 93.2586C402.885 108.054 402.79 124.044 402.79 140.035C402.79 160.339 402.79 180.652 402.885 198.508C402.981 232.067 403.268 256.971 403.268 256.971V259.037L405.372 259.056L695.153 261.217L695.345 259.85L722.41 22.2668H721.454L403.65 23.0893ZM403.65 23.0893L720.402 24.0936C718.489 40.065 694.675 239.622 692.476 258.119L407.476 254.886C407.476 248.268 407.284 226.358 406.998 198.47C406.806 180.614 406.52 160.31 406.233 140.006C405.946 124.016 405.659 108.035 405.276 93.2395C404.511 53.942 403.65 23.0989 403.65 23.0893Z" fill="#352B23"/>
<path fill-rule="evenodd" clip-rule="evenodd" d="M340.05 413.976C340.05 413.976 336.13 407.846 338.042 397.067C339.955 386.289 350.188 336.911 351.91 328.285C353.536 319.658 357.935 319.524 366.925 319.888C375.915 320.251 699.744 324.641 708.925 324.641C718.202 324.641 721.454 334.319 726.523 340.325C731.687 346.331 764.49 395.03 770.706 402.891C776.923 410.762 775.967 415.564 771.472 418.232L340.05 413.976Z" fill="#635041"/>
<path fill-rule="evenodd" clip-rule="evenodd" d="M738.624 356.995H345.561L337.394 407.515H773.846L738.624 356.995Z" fill="#DBB79F"/>
<path fill-rule="evenodd" clip-rule="evenodd" d="M753.937 379.164H341.478L338.414 394.701H765.167L753.937 379.164Z" fill="#FCF9F7"/>
<path fill-rule="evenodd" clip-rule="evenodd" d="M357.745 341.035L373.717 341.226L384.142 341.341L384.81 344.286H388.349L389.019 341.417L400.782 341.522L401.452 344.286H404.608L405.277 341.599L417.04 341.714L417.71 344.286H421.536L422.205 341.781L433.777 341.905L434.351 344.286H437.124L437.699 341.981L449.366 342.106L449.94 344.306L452.713 344.315L453.287 342.154L464.859 342.288L465.337 344.411L469.833 344.449L470.311 342.354L481.979 342.488L482.552 344.535L485.899 344.554L486.378 342.546L498.046 342.67L498.524 344.65L501.871 344.669L502.349 342.727L513.921 342.861L514.399 344.755L518.512 344.784L518.894 342.919L530.945 343.062L531.519 345.539C533.145 345.549 533.049 345.549 534.675 345.558L535.249 343.12L547.204 343.254L547.777 345.654C549.403 345.664 549.307 345.664 550.933 345.673L551.603 343.311L562.506 343.435L563.079 345.759L567.67 345.788L568.244 343.502L594.926 343.808L598.657 348.418L620.367 402.817L346.269 397.987L354.206 344.774L357.745 341.035Z" fill="black"/>
<path fill-rule="evenodd" clip-rule="evenodd" d="M370.069 385.357C370.189 384.536 369.594 383.879 368.816 383.879H351.961C351.183 383.879 350.395 384.536 350.274 385.357L349.399 391.312C349.279 392.125 349.873 392.79 350.651 392.79H367.507C368.285 392.79 369.074 392.125 369.194 391.312L370.069 385.357Z" fill="#2C2C2C"/>
<path fill-rule="evenodd" clip-rule="evenodd" d="M384.224 373.383C384.327 372.677 383.858 372.121 382.617 372.121L354.486 372.15C353.245 372.15 352.754 372.677 352.651 373.383L351.899 378.496C351.797 379.194 352.121 379.803 353.362 379.803L381.492 379.773C382.733 379.773 383.37 379.194 383.472 378.496L384.224 373.383Z" fill="#2C2C2C"/>
<path fill-rule="evenodd" clip-rule="evenodd" d="M379.564 362.029C379.664 361.348 379.206 360.805 377.995 360.805L356.877 360.827C355.666 360.827 355.187 361.341 355.086 362.029L354.353 367.017C354.253 367.698 354.569 368.291 355.78 368.291L376.898 368.27C378.109 368.27 378.73 367.705 378.83 367.024L379.564 362.029Z" fill="#2C2C2C"/>
<path fill-rule="evenodd" clip-rule="evenodd" d="M381.114 351.427C381.211 350.767 380.765 350.241 379.583 350.241L358.971 350.262C357.789 350.262 357.321 350.76 357.223 351.427L356.246 356.261C356.148 356.921 356.456 357.496 357.637 357.496L378.119 357.475C379.432 357.475 380.037 356.928 380.135 356.268L381.114 351.427Z" fill="#2C2C2C"/>
<path fill-rule="evenodd" clip-rule="evenodd" d="M393.749 385.357C393.87 384.536 393.312 383.879 392.577 383.879H376.638C375.902 383.879 375.152 384.536 375.031 385.357L374.156 391.312C374.036 392.125 374.593 392.79 375.328 392.79H391.267C392.003 392.79 392.754 392.125 392.874 391.312L393.749 385.357Z" fill="#2C2C2C"/>
<path fill-rule="evenodd" clip-rule="evenodd" d="M403.883 373.545C403.99 372.82 403.622 372.241 403.113 372.241H392.086C391.577 372.241 391.04 372.82 390.933 373.545L390.161 378.798C390.056 379.515 390.422 380.102 390.931 380.102H401.958C402.467 380.102 403.006 379.515 403.111 378.798L403.883 373.545Z" fill="#2C2C2C"/>
<path fill-rule="evenodd" clip-rule="evenodd" d="M396.935 362.187C397.039 361.48 396.68 360.915 396.184 360.915H385.427C384.931 360.915 384.406 361.48 384.302 362.187L383.549 367.311C383.447 368.01 383.804 368.583 384.3 368.583H395.057C395.554 368.583 396.079 368.01 396.182 367.311L396.935 362.187Z" fill="#2C2C2C"/>
<path fill-rule="evenodd" clip-rule="evenodd" d="M398.038 351.581C398.139 350.897 397.789 350.349 397.305 350.349H386.806C386.321 350.349 385.809 350.897 385.708 351.581L384.704 356.548C384.603 357.226 384.952 357.781 385.437 357.781H395.882C396.42 357.781 396.933 357.226 397.033 356.548L398.038 351.581Z" fill="#2C2C2C"/>
<path fill-rule="evenodd" clip-rule="evenodd" d="M548.308 375.38C548.202 374.653 548.569 374.083 549.078 374.095L560.105 374.365C560.614 374.378 561.152 374.97 561.258 375.697L562.65 380.969C562.755 381.689 562.389 382.267 561.88 382.254L550.853 381.984C550.344 381.971 549.805 381.371 549.7 380.652L548.308 375.38Z" fill="#2C2C2C"/>
<path fill-rule="evenodd" clip-rule="evenodd" d="M537.857 363.972C537.754 363.27 538.112 362.713 538.664 362.727L549.366 362.989C549.862 363.001 550.386 363.579 550.489 364.281L551.848 369.432C551.951 370.133 551.592 370.69 551.096 370.677L540.339 370.414C539.843 370.402 539.318 369.824 539.215 369.122L537.857 363.972Z" fill="#2C2C2C"/>
<path fill-rule="evenodd" clip-rule="evenodd" d="M535.54 353.309C535.44 352.629 535.789 352.09 536.328 352.103L546.773 352.357C547.257 352.369 547.769 352.929 547.869 353.609L549.196 358.601C549.296 359.281 548.946 359.82 548.461 359.808L537.963 359.553C537.478 359.541 536.966 358.981 536.866 358.301L535.54 353.309Z" fill="#2C2C2C"/>
<path fill-rule="evenodd" clip-rule="evenodd" d="M554.975 363.972C554.872 363.27 555.23 362.713 555.782 362.727L566.484 362.989C566.98 363.001 567.504 363.579 567.607 364.281L568.966 369.432C569.069 370.133 568.71 370.69 568.214 370.677L557.457 370.414C556.961 370.402 556.436 369.824 556.334 369.122L554.975 363.972Z" fill="#2C2C2C"/>
<path fill-rule="evenodd" clip-rule="evenodd" d="M552.277 353.309C552.177 352.629 552.527 352.09 553.065 352.103L563.51 352.357C563.995 352.369 564.506 352.929 564.606 353.609L565.933 358.601C566.033 359.281 565.683 359.82 565.199 359.808L554.7 359.553C554.215 359.541 553.703 358.981 553.603 358.301L552.277 353.309Z" fill="#2C2C2C"/>
<path fill-rule="evenodd" clip-rule="evenodd" d="M567.628 375.379C567.521 374.652 567.889 374.082 568.398 374.094L603.822 374.36C604.33 374.373 604.869 374.973 604.975 375.692L606.649 380.971C606.754 381.691 606.443 382.262 605.878 382.249L570.511 381.984C569.945 381.97 569.463 381.371 569.358 380.652L567.628 375.379Z" fill="#2C2C2C"/>
<path fill-rule="evenodd" clip-rule="evenodd" d="M571.427 363.977C571.325 363.275 571.682 362.711 572.178 362.723L600.139 362.985C600.635 362.997 601.161 363.582 601.263 364.284L602.897 369.434C602.999 370.135 602.696 370.693 602.145 370.68L574.24 370.42C573.688 370.406 573.163 369.828 573.06 369.119L571.427 363.977Z" fill="#2C2C2C"/>
<path fill-rule="evenodd" clip-rule="evenodd" d="M568.28 353.312C568.179 352.632 568.528 352.086 569.012 352.097L596.302 352.351C596.787 352.362 597.3 352.93 597.4 353.61L598.994 358.601C599.095 359.281 598.799 359.821 598.26 359.808L571.024 359.556C570.486 359.543 569.974 358.983 569.873 358.296L568.28 353.312Z" fill="#2C2C2C"/>
<path fill-rule="evenodd" clip-rule="evenodd" d="M421.29 373.545C421.396 372.821 421.029 372.241 420.52 372.241H409.493C408.984 372.241 408.446 372.821 408.34 373.545L407.568 378.798C407.462 379.515 407.829 380.102 408.338 380.102H419.365C419.873 380.102 420.412 379.515 420.518 378.798L421.29 373.545Z" fill="#2C2C2C"/>
<path fill-rule="evenodd" clip-rule="evenodd" d="M413.922 362.187C414.026 361.48 413.668 360.915 413.171 360.915H402.414C401.918 360.915 401.394 361.48 401.29 362.187L400.537 367.311C400.434 368.01 400.791 368.583 401.288 368.583H412.044C412.541 368.583 413.066 368.01 413.169 367.311L413.922 362.187Z" fill="#2C2C2C"/>
<path fill-rule="evenodd" clip-rule="evenodd" d="M414.611 351.581C414.712 350.897 414.362 350.349 413.878 350.349H403.379C402.894 350.349 402.382 350.897 402.281 351.581L401.277 356.548C401.177 357.226 401.525 357.781 402.01 357.781H412.455C412.994 357.781 413.506 357.226 413.607 356.548L414.611 351.581Z" fill="#2C2C2C"/>
<path fill-rule="evenodd" clip-rule="evenodd" d="M530.902 374.954C530.795 374.227 531.163 373.656 531.671 373.669L542.698 373.939C543.207 373.952 543.745 374.544 543.851 375.271L544.848 380.541C544.953 381.26 544.587 381.839 544.078 381.826L533.108 381.557C532.543 381.543 532.061 380.945 531.955 380.225L530.902 374.954Z" fill="#2C2C2C"/>
<path fill-rule="evenodd" clip-rule="evenodd" d="M520.834 363.554C520.731 362.852 521.089 362.295 521.641 362.309L532.343 362.571C532.839 362.583 533.363 363.161 533.466 363.863L534.44 369.011C534.543 369.713 534.24 370.278 533.689 370.265L522.988 370.003C522.436 369.989 521.966 369.405 521.863 368.703L520.834 363.554Z" fill="#2C2C2C"/>
<path fill-rule="evenodd" clip-rule="evenodd" d="M518.995 352.907C518.895 352.227 519.244 351.687 519.783 351.7L530.228 351.955C530.713 351.966 531.224 352.527 531.324 353.207L532.275 358.196C532.375 358.876 532.08 359.424 531.542 359.411L521.097 359.157C520.559 359.144 520.099 358.578 519.999 357.898L518.995 352.907Z" fill="#2C2C2C"/>
<path fill-rule="evenodd" clip-rule="evenodd" d="M439.267 373.309C439.374 372.584 439.016 372.005 438.517 372.005H427.722C427.224 372.005 426.696 372.584 426.59 373.309L425.818 378.562C425.712 379.279 426.069 379.866 426.567 379.866H437.362C437.861 379.866 438.39 379.279 438.495 378.562L439.267 373.309Z" fill="#2C2C2C"/>
<path fill-rule="evenodd" clip-rule="evenodd" d="M431.462 361.957C431.566 361.25 431.217 360.685 430.731 360.685H420.2C419.714 360.685 419.199 361.25 419.095 361.957L418.342 367.081C418.24 367.781 418.588 368.353 419.074 368.353H429.604C430.09 368.353 430.606 367.781 430.709 367.081L431.462 361.957Z" fill="#2C2C2C"/>
<path fill-rule="evenodd" clip-rule="evenodd" d="M431.738 351.357C431.84 350.673 431.499 350.125 431.025 350.125H420.747C420.272 350.125 419.77 350.673 419.668 351.357L418.933 356.324C418.833 357.002 419.173 357.557 419.647 357.557H429.925C430.399 357.557 430.903 357.002 431.003 356.324L431.738 351.357Z" fill="#2C2C2C"/>
<path fill-rule="evenodd" clip-rule="evenodd" d="M512.906 374.278C512.799 373.551 513.157 372.98 513.655 372.992L524.45 373.257C524.949 373.269 525.477 373.861 525.583 374.588L526.355 379.86C526.46 380.58 526.104 381.158 525.605 381.146L514.811 380.881C514.312 380.869 513.783 380.269 513.678 379.55L512.906 374.278Z" fill="#2C2C2C"/>
<path fill-rule="evenodd" clip-rule="evenodd" d="M503.332 362.895C503.23 362.194 503.578 361.637 504.064 361.649L514.595 361.907C515.081 361.919 515.596 362.497 515.698 363.198L516.453 368.349C516.555 369.05 516.206 369.607 515.72 369.595L505.19 369.337C504.704 369.325 504.189 368.747 504.086 368.046L503.332 362.895Z" fill="#2C2C2C"/>
<path fill-rule="evenodd" clip-rule="evenodd" d="M501.915 352.267C501.815 351.587 502.155 351.047 502.63 351.059L512.908 351.309C513.382 351.32 513.885 351.88 513.985 352.56L514.721 357.552C514.821 358.232 514.481 358.772 514.006 358.76L503.728 358.51C503.254 358.498 502.752 357.938 502.651 357.258L501.915 352.267Z" fill="#2C2C2C"/>
<path fill-rule="evenodd" clip-rule="evenodd" d="M456.769 373.545C456.865 372.82 456.499 372.241 456.001 372.241H445.206C444.708 372.241 444.188 372.82 444.091 373.545L443.393 378.798C443.297 379.515 443.662 380.102 444.16 380.102H454.955C455.454 380.102 455.975 379.515 456.07 378.798L456.769 373.545Z" fill="#2C2C2C"/>
<path fill-rule="evenodd" clip-rule="evenodd" d="M447.78 362.187C447.874 361.48 447.517 360.915 447.031 360.915H436.555C436.015 360.915 435.562 361.48 435.468 362.187L434.786 367.311C434.693 368.01 434.995 368.583 435.535 368.583H446.011C446.497 368.583 447.005 368.01 447.098 367.311L447.78 362.187Z" fill="#2C2C2C"/>
<path fill-rule="evenodd" clip-rule="evenodd" d="M447.67 351.581C447.761 350.897 447.413 350.349 446.939 350.349H436.714C436.186 350.349 435.744 350.897 435.652 351.581L434.987 356.548C434.896 357.226 435.191 357.781 435.718 357.781H445.943C446.417 357.781 446.914 357.226 447.004 356.548L447.67 351.581Z" fill="#2C2C2C"/>
<path fill-rule="evenodd" clip-rule="evenodd" d="M495.44 374.086C495.344 373.359 495.71 372.789 496.208 372.801L507.003 373.065C507.501 373.078 508.021 373.67 508.118 374.396L508.816 379.667C508.912 380.386 508.547 380.964 508.049 380.952L497.254 380.687C496.755 380.675 496.234 380.075 496.139 379.356L495.44 374.086Z" fill="#2C2C2C"/>
<path fill-rule="evenodd" clip-rule="evenodd" d="M486.734 362.71C486.641 362.009 486.997 361.445 487.483 361.457L497.959 361.713C498.499 361.727 498.953 362.31 499.046 363.012L499.729 368.16C499.822 368.862 499.519 369.42 498.979 369.406L488.503 369.15C488.016 369.138 487.509 368.56 487.416 367.859L486.734 362.71Z" fill="#2C2C2C"/>
<path fill-rule="evenodd" clip-rule="evenodd" d="M485.623 352.085C485.533 351.405 485.88 350.859 486.354 350.87L496.579 351.119C497.107 351.132 497.55 351.698 497.641 352.378L498.307 357.368C498.398 358.048 498.102 358.588 497.575 358.575L487.35 358.326C486.875 358.315 486.38 357.755 486.29 357.075L485.623 352.085Z" fill="#2C2C2C"/>
<path fill-rule="evenodd" clip-rule="evenodd" d="M474.092 373.516C474.159 372.792 473.77 372.213 473.271 372.213H462.476C461.978 372.213 461.482 372.792 461.415 373.516L460.929 378.77C460.863 379.486 461.251 380.073 461.75 380.073H472.545C473.043 380.073 473.54 379.486 473.606 378.77L474.092 373.516Z" fill="#2C2C2C"/>
<path fill-rule="evenodd" clip-rule="evenodd" d="M464.076 362.161C464.142 361.454 463.816 360.889 463.276 360.889H452.799C452.313 360.889 451.829 361.454 451.763 362.161L451.289 367.285C451.225 367.984 451.604 368.557 452.09 368.557H462.567C463.107 368.557 463.538 367.984 463.602 367.285L464.076 362.161Z" fill="#2C2C2C"/>
<path fill-rule="evenodd" clip-rule="evenodd" d="M463.573 351.555C463.637 350.87 463.319 350.323 462.792 350.323H452.566C452.092 350.323 451.619 350.87 451.555 351.555L451.093 356.522C451.03 357.199 451.4 357.754 451.874 357.754H462.1C462.627 357.754 463.047 357.199 463.11 356.522L463.573 351.555Z" fill="#2C2C2C"/>
<path fill-rule="evenodd" clip-rule="evenodd" d="M478.1 373.634C478.033 372.908 478.423 372.338 478.921 372.351L489.716 372.615C490.214 372.627 490.711 373.219 490.778 373.945L491.264 379.21C491.33 379.928 490.941 380.506 490.443 380.494L479.648 380.229C479.15 380.217 478.652 379.618 478.586 378.899L478.1 373.634Z" fill="#2C2C2C"/>
<path fill-rule="evenodd" clip-rule="evenodd" d="M469.788 362.268C469.723 361.567 470.102 361.003 470.588 361.015L481.119 361.273C481.605 361.285 482.089 361.87 482.154 362.571L482.628 367.714C482.693 368.415 482.314 368.971 481.828 368.959L471.297 368.701C470.811 368.689 470.327 368.112 470.262 367.411L469.788 362.268Z" fill="#2C2C2C"/>
<path fill-rule="evenodd" clip-rule="evenodd" d="M469.106 351.661C469.042 350.982 469.413 350.436 469.887 350.448L480.165 350.698C480.639 350.709 481.112 351.276 481.175 351.955L481.638 356.94C481.702 357.619 481.331 358.158 480.857 358.146L470.579 357.896C470.105 357.885 469.632 357.325 469.569 356.646L469.106 351.661Z" fill="#2C2C2C"/>
<path fill-rule="evenodd" clip-rule="evenodd" d="M417.067 385.357C417.193 384.536 416.648 383.879 415.923 383.879H400.201C399.475 383.879 398.729 384.536 398.603 385.357L397.69 391.312C397.566 392.125 398.109 392.79 398.834 392.79H414.556C415.282 392.79 416.029 392.125 416.154 391.312L417.067 385.357Z" fill="#2C2C2C"/>
<path fill-rule="evenodd" clip-rule="evenodd" d="M568.419 387.327C568.213 386.633 568.731 386.087 569.497 386.097L586.109 386.331C586.876 386.342 587.722 386.907 587.927 387.601L589.417 392.637C589.62 393.324 589.105 393.877 588.338 393.866L571.726 393.633C570.959 393.622 570.111 393.05 569.908 392.363L568.419 387.327Z" fill="#2C2C2C"/>
<path fill-rule="evenodd" clip-rule="evenodd" d="M591.278 387.327C591.073 386.633 591.59 386.087 592.357 386.097L608.969 386.331C609.735 386.342 610.581 386.907 610.787 387.601L612.276 392.637C612.479 393.324 611.964 393.877 611.197 393.866L594.585 393.633C593.819 393.622 592.971 393.05 592.767 392.363L591.278 387.327Z" fill="#2C2C2C"/>
<path fill-rule="evenodd" clip-rule="evenodd" d="M545.993 387.011C545.813 386.317 546.314 385.771 547.039 385.781L562.748 386.002C563.473 386.012 564.261 386.576 564.441 387.27L565.746 392.304C565.924 392.99 565.425 393.544 564.7 393.533L548.992 393.313C548.267 393.303 547.476 392.731 547.298 392.044L545.993 387.011Z" fill="#2C2C2C"/>
<path fill-rule="evenodd" clip-rule="evenodd" d="M523.064 386.689C522.875 385.995 523.36 385.449 524.075 385.459L539.57 385.676C540.285 385.686 541.072 386.251 541.261 386.945L542.631 391.979C542.817 392.666 542.335 393.219 541.62 393.209L526.125 392.991C525.41 392.981 524.621 392.41 524.434 391.723L523.064 386.689Z" fill="#2C2C2C"/>
<path fill-rule="evenodd" clip-rule="evenodd" d="M518.32 392.782C518.128 392.811 423.925 392.782 423.925 392.782C419.908 392.782 420.577 392.122 420.673 391.309L421.629 385.351C421.725 384.538 421.248 383.878 425.264 383.878C425.264 383.878 516.789 385.418 517.172 385.466C517.363 385.504 517.554 385.542 517.745 385.618C517.936 385.657 518.032 385.724 518.128 385.819C518.224 385.848 518.224 385.886 518.32 385.934C518.32 386.058 519.371 391.759 519.371 391.806C519.371 391.854 519.371 391.892 519.371 391.931C519.467 392.084 519.467 392.256 519.371 392.399C519.371 392.428 519.371 392.447 519.371 392.466C519.276 392.504 519.276 392.533 519.276 392.552C519.18 392.591 519.084 392.619 519.084 392.638C518.989 392.667 518.893 392.696 518.798 392.715C518.606 392.744 518.511 392.763 518.32 392.782Z" fill="#2C2C2C"/>
<path fill-rule="evenodd" clip-rule="evenodd" d="M384.357 342.846C384.452 342.337 384.016 341.931 382.862 341.931L362.733 341.948C361.58 341.948 361.123 342.332 361.026 342.846L360.072 346.575C359.977 347.084 360.277 347.528 361.431 347.528L381.432 347.512C382.714 347.512 383.305 347.089 383.401 346.581L384.357 342.846Z" fill="#2C2C2C"/>
<path fill-rule="evenodd" clip-rule="evenodd" d="M400.889 342.966C400.988 342.437 400.646 342.015 400.173 342.015H389.92C389.447 342.015 388.947 342.437 388.848 342.966L387.868 346.797C387.77 347.319 388.11 347.747 388.584 347.747H398.784C399.31 347.747 399.81 347.319 399.908 346.797L400.889 342.966Z" fill="#2C2C2C"/>
<path fill-rule="evenodd" clip-rule="evenodd" d="M535.146 344.301C535.049 343.777 535.39 343.361 535.916 343.371L546.116 343.567C546.589 343.576 547.088 344.008 547.186 344.533L548.482 348.383C548.58 348.907 548.238 349.323 547.765 349.314L537.512 349.117C537.039 349.108 536.539 348.676 536.441 348.151L535.146 344.301Z" fill="#2C2C2C"/>
<path fill-rule="evenodd" clip-rule="evenodd" d="M551.469 344.218C551.38 343.74 551.691 343.361 552.17 343.37L561.465 343.549C561.896 343.557 562.351 343.951 562.441 344.429L563.621 347.938C563.71 348.416 563.399 348.795 562.968 348.786L553.625 348.607C553.194 348.598 552.738 348.205 552.649 347.727L551.469 344.218Z" fill="#2C2C2C"/>
<path fill-rule="evenodd" clip-rule="evenodd" d="M568.22 344.306C568.122 343.781 568.462 343.36 568.936 343.369L595.585 343.564C596.059 343.573 596.559 344.011 596.657 344.535L598.214 348.385C598.312 348.91 598.023 349.327 597.497 349.316L570.9 349.122C570.375 349.112 569.874 348.68 569.775 348.15L568.22 344.306Z" fill="#2C2C2C"/>
<path fill-rule="evenodd" clip-rule="evenodd" d="M417.069 342.966C417.168 342.437 416.827 342.015 416.354 342.015H406.101C405.628 342.015 405.128 342.437 405.029 342.966L404.048 346.797C403.951 347.319 404.291 347.747 404.764 347.747H414.964C415.49 347.747 415.991 347.319 416.089 346.797L417.069 342.966Z" fill="#2C2C2C"/>
<path fill-rule="evenodd" clip-rule="evenodd" d="M518.984 343.989C518.886 343.464 519.228 343.048 519.754 343.058L529.954 343.254C530.427 343.264 530.926 343.696 531.024 344.22L531.952 348.069C532.05 348.593 531.762 349.016 531.237 349.006L521.037 348.81C520.511 348.8 520.063 348.363 519.965 347.838L518.984 343.989Z" fill="#2C2C2C"/>
<path fill-rule="evenodd" clip-rule="evenodd" d="M433.796 342.794C433.895 342.266 433.563 341.844 433.099 341.844H423.063C422.599 341.844 422.108 342.266 422.009 342.794L421.292 346.625C421.194 347.148 421.525 347.576 421.989 347.576H432.026C432.489 347.576 432.981 347.148 433.079 346.625L433.796 342.794Z" fill="#2C2C2C"/>
<path fill-rule="evenodd" clip-rule="evenodd" d="M502.286 343.496C502.188 342.972 502.52 342.556 502.984 342.565L513.02 342.758C513.484 342.766 513.975 343.198 514.073 343.723L514.791 347.573C514.889 348.098 514.557 348.514 514.093 348.505L504.056 348.312C503.593 348.303 503.103 347.871 503.005 347.347L502.286 343.496Z" fill="#2C2C2C"/>
<path fill-rule="evenodd" clip-rule="evenodd" d="M449.355 342.966C449.445 342.437 449.105 342.015 448.641 342.015H438.656C438.142 342.015 437.71 342.437 437.62 342.966L436.97 346.797C436.882 347.319 437.17 347.747 437.684 347.747H447.669C448.133 347.747 448.617 347.319 448.706 346.797L449.355 342.966Z" fill="#2C2C2C"/>
<path fill-rule="evenodd" clip-rule="evenodd" d="M486.471 343.358C486.382 342.834 486.721 342.412 487.185 342.421L497.17 342.613C497.685 342.623 498.118 343.059 498.206 343.584L498.857 347.433C498.945 347.957 498.657 348.374 498.142 348.364L488.157 348.172C487.693 348.163 487.21 347.731 487.121 347.207L486.471 343.358Z" fill="#2C2C2C"/>
<path fill-rule="evenodd" clip-rule="evenodd" d="M464.883 342.947C464.945 342.419 464.634 341.996 464.12 341.996H454.134C453.671 341.996 453.209 342.419 453.147 342.947L452.695 346.778C452.633 347.301 452.995 347.729 453.458 347.729H463.444C463.958 347.729 464.369 347.301 464.431 346.778L464.883 342.947Z" fill="#2C2C2C"/>
<path fill-rule="evenodd" clip-rule="evenodd" d="M470.314 343.026C470.252 342.503 470.614 342.081 471.077 342.09L481.114 342.283C481.577 342.292 482.039 342.729 482.1 343.253L482.553 347.098C482.614 347.622 482.253 348.037 481.789 348.029L471.753 347.836C471.289 347.827 470.828 347.395 470.766 346.872L470.314 343.026Z" fill="#2C2C2C"/>
<path fill-rule="evenodd" clip-rule="evenodd" d="M451.241 338.74L385.828 338.425L388.887 328.409L392.216 328.406L392.846 325.707L403.913 325.798L404.543 328.398L407.512 328.396L408.142 325.867L419.209 325.967L419.839 328.387L423.438 328.385L424.068 326.027L434.955 326.136L435.495 328.376L438.104 328.375L438.914 326.251L449.531 326.225L449.892 328.106L452.141 328.077L451.241 338.74Z" fill="black"/>
<path fill-rule="evenodd" clip-rule="evenodd" d="M404.013 327.156C404.106 326.659 403.785 326.262 403.339 326.262L393.694 326.269C393.249 326.269 392.778 326.667 392.685 327.164L391.763 330.769C391.671 331.261 391.991 331.663 392.436 331.663L402.032 331.656C402.527 331.656 402.998 331.253 403.09 330.761L404.013 327.156Z" fill="#2C2C2C"/>
<path fill-rule="evenodd" clip-rule="evenodd" d="M419.237 327.146C419.33 326.649 419.008 326.252 418.563 326.252L408.917 326.259C408.472 326.259 408.002 326.657 407.909 327.154L406.986 330.759C406.894 331.25 407.215 331.653 407.66 331.653L417.256 331.646C417.751 331.646 418.222 331.243 418.314 330.751L419.237 327.146Z" fill="#2C2C2C"/>
<path fill-rule="evenodd" clip-rule="evenodd" d="M434.973 326.975C435.066 326.478 434.753 326.081 434.317 326.081L424.874 326.088C424.438 326.088 423.976 326.486 423.883 326.983L423.208 330.588C423.116 331.079 423.428 331.482 423.864 331.482L433.306 331.475C433.742 331.475 434.205 331.072 434.297 330.58L434.973 326.975Z" fill="#2C2C2C"/>
<path fill-rule="evenodd" clip-rule="evenodd" d="M449.152 327.088C449.245 326.591 448.957 326.194 448.549 326.194L439.712 326.2C439.304 326.2 438.867 326.598 438.774 327.095L438.099 330.7C438.006 331.191 438.294 331.594 438.702 331.594L447.539 331.588C447.947 331.587 448.385 331.184 448.477 330.692L449.152 327.088Z" fill="#2C2C2C"/>
<path fill-rule="evenodd" clip-rule="evenodd" d="M529.392 340.006L593.995 339.682L590.126 329.665L588.147 329.663L587.517 326.964L576.45 327.055L575.82 329.655L572.851 329.653L572.221 327.124L561.154 327.224L560.524 329.644L556.925 329.642L556.295 327.284L545.408 327.393L544.867 329.633L542.259 329.632L541.449 327.508L530.831 327.482L530.471 329.363L527.413 329.334L529.392 340.006Z" fill="black"/>
<path fill-rule="evenodd" clip-rule="evenodd" d="M576.348 328.412C576.255 327.915 576.577 327.517 577.022 327.518L586.668 327.524C587.113 327.525 587.583 327.923 587.676 328.42L588.599 332.024C588.691 332.516 588.37 332.919 587.925 332.918L578.329 332.912C577.834 332.911 577.363 332.508 577.271 332.016L576.348 328.412Z" fill="#2C2C2C"/>
<path fill-rule="evenodd" clip-rule="evenodd" d="M561.124 328.403C561.031 327.906 561.352 327.509 561.797 327.509L571.443 327.516C571.888 327.516 572.358 327.914 572.452 328.411L573.374 332.016C573.466 332.508 573.146 332.91 572.701 332.91L563.104 332.903C562.61 332.903 562.139 332.5 562.046 332.008L561.124 328.403Z" fill="#2C2C2C"/>
<path fill-rule="evenodd" clip-rule="evenodd" d="M545.388 328.231C545.295 327.734 545.608 327.336 546.043 327.337L555.486 327.343C555.922 327.343 556.384 327.741 556.477 328.238L557.152 331.843C557.245 332.335 556.932 332.737 556.497 332.737L547.054 332.73C546.618 332.73 546.155 332.327 546.063 331.835L545.388 328.231Z" fill="#2C2C2C"/>
<path fill-rule="evenodd" clip-rule="evenodd" d="M531.21 328.345C531.117 327.848 531.405 327.451 531.813 327.451L540.65 327.457C541.058 327.458 541.495 327.855 541.588 328.352L542.264 331.957C542.356 332.449 542.069 332.851 541.661 332.851L532.823 332.845C532.416 332.845 531.977 332.442 531.885 331.95L531.21 328.345Z" fill="#2C2C2C"/>
<path fill-rule="evenodd" clip-rule="evenodd" d="M690.735 402.648L764.229 402.493L727.762 346.086L725.705 346.085L725.05 343.279L713.55 343.374L712.895 346.076L709.81 346.074L709.155 343.446L697.654 343.55L697 346.065L693.259 346.062L692.605 343.612L681.291 343.726L680.73 346.054L678.019 346.052L677.177 343.845L666.144 343.818L665.769 345.772L662.591 345.742L690.735 402.648Z" fill="black"/>
<path fill-rule="evenodd" clip-rule="evenodd" d="M713.674 344.79C713.453 344.272 713.687 343.858 714.15 343.858L724.174 343.865C724.636 343.865 725.225 344.28 725.446 344.798L727.306 348.557C727.525 349.07 727.293 349.49 726.83 349.49L716.858 349.483C716.344 349.482 715.753 349.062 715.535 348.549L713.674 344.79Z" fill="#2C2C2C"/>
<path fill-rule="evenodd" clip-rule="evenodd" d="M719.519 354.759C719.264 354.234 719.475 353.815 719.943 353.815L730.085 353.822C730.553 353.823 731.174 354.243 731.43 354.767L733.544 358.57C733.797 359.089 733.588 359.514 733.12 359.514L723.03 359.507C722.51 359.506 721.887 359.081 721.634 358.562L719.519 354.759Z" fill="#2C2C2C"/>
<path fill-rule="evenodd" clip-rule="evenodd" d="M726.221 364.954C725.962 364.423 726.176 363.998 726.65 363.999L736.926 364.006C737.401 364.006 738.03 364.431 738.289 364.963L740.431 368.817C740.688 369.342 740.476 369.773 740.002 369.772L729.778 369.765C729.251 369.765 728.62 369.334 728.363 368.808L726.221 364.954Z" fill="#2C2C2C"/>
<path fill-rule="evenodd" clip-rule="evenodd" d="M732.676 376.077C732.415 375.542 732.631 375.115 733.109 375.115L743.458 375.122C743.936 375.122 744.569 375.551 744.83 376.086L746.988 379.967C747.246 380.497 747.033 380.93 746.556 380.93L736.259 380.923C735.728 380.922 735.092 380.488 734.834 379.959L732.676 376.077Z" fill="#2C2C2C"/>
<path fill-rule="evenodd" clip-rule="evenodd" d="M740.922 388.918C740.654 388.369 740.875 387.931 741.365 387.932L751.968 387.939C752.457 387.939 753.106 388.378 753.373 388.926L755.584 392.903C755.849 393.445 755.63 393.889 755.141 393.889L744.592 393.881C744.048 393.881 743.397 393.436 743.132 392.894L740.922 388.918Z" fill="#2C2C2C"/>
<path fill-rule="evenodd" clip-rule="evenodd" d="M697.854 344.778C697.633 344.26 697.867 343.846 698.33 343.846L708.353 343.853C708.816 343.853 709.404 344.268 709.625 344.786L711.486 348.545C711.705 349.058 711.473 349.478 711.01 349.478L701.038 349.471C700.523 349.47 699.933 349.05 699.714 348.537L697.854 344.778Z" fill="#2C2C2C"/>
<path fill-rule="evenodd" clip-rule="evenodd" d="M703.512 354.748C703.256 354.224 703.467 353.805 703.936 353.805L714.077 353.812C714.545 353.813 715.166 354.232 715.422 354.757L717.536 358.56C717.789 359.079 717.581 359.504 717.112 359.503L707.022 359.496C706.502 359.496 705.879 359.071 705.626 358.552L703.512 354.748Z" fill="#2C2C2C"/>
<path fill-rule="evenodd" clip-rule="evenodd" d="M709.997 364.942C709.738 364.411 709.952 363.986 710.427 363.986L720.703 363.994C721.177 363.994 721.806 364.419 722.065 364.951L724.208 368.804C724.464 369.33 724.252 369.76 723.778 369.76L713.554 369.753C713.027 369.753 712.396 369.322 712.14 368.796L709.997 364.942Z" fill="#2C2C2C"/>
<path fill-rule="evenodd" clip-rule="evenodd" d="M716.344 376.065C716.083 375.53 716.299 375.102 716.777 375.103L727.126 375.11C727.604 375.11 728.237 375.538 728.498 376.074L730.656 379.955C730.914 380.484 730.701 380.918 730.223 380.917L719.927 380.91C719.396 380.91 718.76 380.476 718.502 379.947L716.344 376.065Z" fill="#2C2C2C"/>
<path fill-rule="evenodd" clip-rule="evenodd" d="M724.186 388.905C723.919 388.357 724.14 387.919 724.629 387.919L735.232 387.926C735.722 387.927 736.371 388.366 736.638 388.914L738.849 392.89C739.113 393.433 738.895 393.877 738.405 393.876L727.857 393.869C727.313 393.869 726.661 393.424 726.397 392.882L724.186 388.905Z" fill="#2C2C2C"/>
<path fill-rule="evenodd" clip-rule="evenodd" d="M681.453 344.599C681.232 344.081 681.458 343.667 681.911 343.667L691.724 343.674C692.176 343.674 692.756 344.089 692.977 344.607L694.581 348.366C694.8 348.879 694.576 349.299 694.123 349.298L684.31 349.292C683.857 349.291 683.276 348.871 683.057 348.358L681.453 344.599Z" fill="#2C2C2C"/>
<path fill-rule="evenodd" clip-rule="evenodd" d="M686.913 354.566C686.657 354.041 686.86 353.622 687.318 353.622L697.247 353.629C697.705 353.63 698.317 354.049 698.573 354.574L700.427 358.377C700.68 358.896 700.48 359.32 700.022 359.32L690.093 359.313C689.635 359.313 689.02 358.888 688.767 358.369L686.913 354.566Z" fill="#2C2C2C"/>
<path fill-rule="evenodd" clip-rule="evenodd" d="M693.184 364.757C692.925 364.226 693.131 363.801 693.595 363.802L703.655 363.808C704.119 363.809 704.739 364.234 704.999 364.765L706.878 368.619C707.134 369.145 706.931 369.575 706.467 369.575L696.407 369.568C695.943 369.568 695.32 369.137 695.063 368.611L693.184 364.757Z" fill="#2C2C2C"/>
<path fill-rule="evenodd" clip-rule="evenodd" d="M699.406 375.88C699.145 375.345 699.352 374.917 699.82 374.918L709.952 374.925C710.419 374.925 711.044 375.353 711.305 375.889L713.197 379.77C713.455 380.299 713.251 380.733 712.783 380.732L702.652 380.725C702.184 380.725 701.557 380.291 701.299 379.761L699.406 375.88Z" fill="#2C2C2C"/>
<path fill-rule="evenodd" clip-rule="evenodd" d="M706.835 388.714C706.568 388.166 706.78 387.728 707.259 387.728L717.639 387.735C718.118 387.736 718.758 388.174 719.025 388.723L720.964 392.699C721.229 393.241 721.019 393.685 720.54 393.685L710.16 393.678C709.681 393.677 709.039 393.233 708.774 392.69L706.835 388.714Z" fill="#2C2C2C"/>
<path fill-rule="evenodd" clip-rule="evenodd" d="M666.757 344.72C666.536 344.202 666.736 343.787 667.16 343.788L676.344 343.794C676.768 343.794 677.321 344.209 677.543 344.728L679.146 348.486C679.365 348.999 679.167 349.419 678.743 349.419L669.56 349.412C669.136 349.412 668.58 348.992 668.361 348.479L666.757 344.72Z" fill="#2C2C2C"/>
<path fill-rule="evenodd" clip-rule="evenodd" d="M672.051 354.688C671.795 354.164 671.972 353.745 672.401 353.745L681.693 353.751C682.122 353.752 682.707 354.171 682.963 354.696L684.818 358.499C685.071 359.018 684.897 359.443 684.468 359.442L675.176 359.436C674.747 359.436 674.159 359.01 673.906 358.491L672.051 354.688Z" fill="#2C2C2C"/>
<path fill-rule="evenodd" clip-rule="evenodd" d="M678.125 364.882C677.866 364.351 678.045 363.926 678.48 363.926L687.895 363.933C688.329 363.933 688.923 364.358 689.182 364.89L691.061 368.743C691.318 369.269 691.141 369.699 690.707 369.699L681.292 369.693C680.857 369.692 680.261 369.261 680.004 368.736L678.125 364.882Z" fill="#2C2C2C"/>
<path fill-rule="evenodd" clip-rule="evenodd" d="M684.232 376.003C683.971 375.468 684.152 375.04 684.589 375.04L694.072 375.047C694.509 375.047 695.107 375.475 695.368 376.011L697.261 379.892C697.519 380.421 697.341 380.855 696.904 380.854L687.421 380.848C686.984 380.847 686.383 380.413 686.125 379.884L684.232 376.003Z" fill="#2C2C2C"/>
<path fill-rule="evenodd" clip-rule="evenodd" d="M691.294 388.843C691.026 388.295 691.211 387.857 691.659 387.857L701.374 387.864C701.822 387.864 702.435 388.303 702.702 388.851L704.641 392.827C704.905 393.37 704.723 393.814 704.275 393.813L694.561 393.807C694.112 393.806 693.497 393.362 693.232 392.819L691.294 388.843Z" fill="#2C2C2C"/>
<path fill-rule="evenodd" clip-rule="evenodd" d="M602.183 339.906L652.315 339.628L647.029 331.375L644.122 331.373L643.505 328.595L632.668 328.684L632.051 330.843L628.527 330.84L627.91 328.737L617.25 328.834L616.72 330.832L614.166 330.83L613.373 328.936L602.976 328.913L602.623 331.111L598.659 331.084L602.183 339.906Z" fill="black"/>
<path fill-rule="evenodd" clip-rule="evenodd" d="M632.639 329.737C632.548 329.294 632.863 328.939 633.299 328.94L642.744 328.946C643.18 328.947 643.64 329.301 643.731 329.745L644.635 332.96C644.725 333.398 644.411 333.757 643.975 333.757L634.579 333.751C634.094 333.75 633.633 333.391 633.543 332.952L632.639 329.737Z" fill="#2C2C2C"/>
<path fill-rule="evenodd" clip-rule="evenodd" d="M617.231 329.581C617.14 329.137 617.446 328.783 617.873 328.783L627.12 328.79C627.546 328.79 627.999 329.145 628.09 329.588L628.751 332.803C628.841 333.242 628.536 333.601 628.109 333.6L618.863 333.594C618.436 333.594 617.982 333.234 617.892 332.796L617.231 329.581Z" fill="#2C2C2C"/>
<path fill-rule="evenodd" clip-rule="evenodd" d="M603.347 329.683C603.256 329.24 603.538 328.885 603.938 328.886L612.591 328.892C612.991 328.892 613.419 329.247 613.51 329.69L614.171 332.905C614.261 333.344 613.98 333.703 613.581 333.702L604.927 333.696C604.528 333.696 604.099 333.337 604.008 332.898L603.347 329.683Z" fill="#2C2C2C"/>
<path fill-rule="evenodd" clip-rule="evenodd" d="M611.619 359.338L662.123 359.057L653.676 346.239L650.742 346.237L650.119 343.435L639.183 343.524L638.56 345.702L635.004 345.7L634.381 343.578L623.622 343.675L623.088 345.692L620.51 345.69L619.71 343.778L609.218 343.755L608.862 345.973L604.86 345.946L611.619 359.338Z" fill="black"/>
<path fill-rule="evenodd" clip-rule="evenodd" d="M639.157 344.585C639.065 344.138 639.382 343.78 639.822 343.781L649.354 343.787C649.794 343.788 650.259 344.146 650.351 344.593L651.263 347.838C651.354 348.281 651.037 348.643 650.597 348.643L641.114 348.636C640.625 348.636 640.159 348.273 640.068 347.83L639.157 344.585Z" fill="#2C2C2C"/>
<path fill-rule="evenodd" clip-rule="evenodd" d="M623.603 344.429C623.511 343.982 623.821 343.624 624.251 343.624L633.583 343.631C634.014 343.631 634.47 343.989 634.562 344.437L635.229 347.681C635.32 348.124 635.012 348.486 634.581 348.486L625.25 348.479C624.819 348.479 624.362 348.116 624.271 347.674L623.603 344.429Z" fill="#2C2C2C"/>
<path fill-rule="evenodd" clip-rule="evenodd" d="M609.593 344.533C609.501 344.086 609.786 343.728 610.189 343.729L618.922 343.735C619.325 343.735 619.757 344.093 619.849 344.54L620.516 347.785C620.608 348.228 620.324 348.59 619.921 348.59L611.187 348.584C610.784 348.583 610.351 348.22 610.26 347.778L609.593 344.533Z" fill="#2C2C2C"/>
<path fill-rule="evenodd" clip-rule="evenodd" d="M613.743 365.754L666.35 365.461L660.802 356.801L657.752 356.799L657.104 353.884L645.732 353.978L645.085 356.242L641.387 356.24L640.739 354.033L629.553 354.135L628.998 356.231L626.317 356.23L625.484 354.242L614.575 354.217L614.205 356.524L610.044 356.496L613.743 365.754Z" fill="black"/>
<path fill-rule="evenodd" clip-rule="evenodd" d="M645.574 355.028C645.36 354.553 645.608 354.173 646.079 354.173L656.281 354.18C656.752 354.18 657.342 354.561 657.556 355.037L659.369 358.487C659.58 358.958 659.335 359.343 658.864 359.342L648.713 359.335C648.19 359.335 647.598 358.949 647.387 358.479L645.574 355.028Z" fill="#2C2C2C"/>
<path fill-rule="evenodd" clip-rule="evenodd" d="M628.88 354.862C628.666 354.386 628.905 354.006 629.366 354.006L639.354 354.013C639.815 354.013 640.396 354.394 640.61 354.87L642.161 358.32C642.372 358.791 642.136 359.176 641.675 359.175L631.687 359.169C631.226 359.168 630.642 358.782 630.431 358.312L628.88 354.862Z" fill="#2C2C2C"/>
<path fill-rule="evenodd" clip-rule="evenodd" d="M613.922 354.972C613.708 354.496 613.92 354.116 614.352 354.117L623.7 354.123C624.131 354.123 624.686 354.504 624.9 354.98L626.451 358.43C626.662 358.9 626.452 359.286 626.021 359.285L616.673 359.279C616.241 359.279 615.684 358.893 615.473 358.422L613.922 354.972Z" fill="#2C2C2C"/>
<path fill-rule="evenodd" clip-rule="evenodd" d="M627.124 402.778L685.002 402.344L678.899 389.84L677.474 389.839L674.626 386.068L662.217 386.157L661.607 389.038L659.98 389L653.877 377.725L652.045 377.517L651.028 374.914L639.025 374.943L638.517 378.006L635.16 378.077L639.127 386.153L628.04 386.121L627.632 389.452L623.055 389.412L627.124 402.778Z" fill="black"/>
<path fill-rule="evenodd" clip-rule="evenodd" d="M662.415 387.619C662.185 386.947 662.449 386.41 662.952 386.411L673.857 386.418C674.36 386.419 674.991 386.956 675.221 387.628L677.167 392.5C677.394 393.164 677.133 393.708 676.63 393.708L665.781 393.7C665.222 393.7 664.588 393.155 664.361 392.491L662.415 387.619Z" fill="#2C2C2C"/>
<path fill-rule="evenodd" clip-rule="evenodd" d="M644.572 387.389C644.343 386.718 644.597 386.181 645.09 386.181L655.765 386.188C656.257 386.189 656.879 386.726 657.109 387.398L658.775 392.269C659.003 392.934 658.751 393.478 658.258 393.478L647.583 393.47C647.09 393.47 646.466 392.925 646.239 392.261L644.572 387.389Z" fill="#2C2C2C"/>
<path fill-rule="evenodd" clip-rule="evenodd" d="M639.761 376.37C639.547 375.746 639.784 375.246 640.242 375.247L650.165 375.254C650.623 375.254 651.201 375.754 651.415 376.378L652.964 380.907C653.175 381.524 652.941 382.03 652.483 382.03L642.559 382.023C642.101 382.023 641.521 381.516 641.31 380.898L639.761 376.37Z" fill="#2C2C2C"/>
<path fill-rule="evenodd" clip-rule="evenodd" d="M628.586 387.549C628.356 386.877 628.582 386.34 629.044 386.34L639.034 386.347C639.495 386.348 640.089 386.885 640.319 387.557L641.985 392.428C642.212 393.093 641.989 393.637 641.528 393.637L631.537 393.63C631.076 393.63 630.48 393.085 630.252 392.42L628.586 387.549Z" fill="#2C2C2C"/>
<path fill-rule="evenodd" clip-rule="evenodd" d="M522.586 339.909L457.136 338.939L458.762 328.954L462.09 328.985L462.334 326.292L473.412 326.494L474.414 329.1L477.383 329.128L477.651 326.606L488.73 326.817L489.707 329.243L493.305 329.277L493.597 326.925L504.498 327.144L505.359 329.389L507.967 329.413L508.473 327.298L519.085 327.379L519.715 329.262L521.96 329.257L522.586 339.909Z" fill="black"/>
<path fill-rule="evenodd" clip-rule="evenodd" d="M473.707 327.854C473.729 327.358 473.35 326.958 472.905 326.953L463.262 326.863C462.817 326.859 462.404 327.252 462.382 327.748L461.975 331.344C461.953 331.834 462.331 332.24 462.776 332.244L472.37 332.334C472.865 332.338 473.278 331.94 473.3 331.449L473.707 327.854Z" fill="#2C2C2C"/>
<path fill-rule="evenodd" clip-rule="evenodd" d="M488.927 327.997C488.949 327.501 488.571 327.1 488.126 327.096L478.483 327.006C478.038 327.002 477.624 327.395 477.602 327.891L477.196 331.486C477.174 331.977 477.552 332.383 477.997 332.387L487.591 332.476C488.086 332.481 488.499 332.083 488.521 331.592L488.927 327.997Z" fill="#2C2C2C"/>
<path fill-rule="evenodd" clip-rule="evenodd" d="M504.636 327.982C504.658 327.486 504.288 327.085 503.853 327.081L494.412 326.993C493.976 326.989 493.571 327.382 493.549 327.878L493.39 331.476C493.368 331.967 493.738 332.372 494.173 332.376L503.614 332.464C504.05 332.468 504.455 332.07 504.477 331.579L504.636 327.982Z" fill="#2C2C2C"/>
<path fill-rule="evenodd" clip-rule="evenodd" d="M518.831 328.238C518.853 327.742 518.508 327.342 518.1 327.338L509.264 327.255C508.857 327.252 508.477 327.645 508.455 328.141L508.295 331.739C508.273 332.229 508.618 332.635 509.026 332.639L517.861 332.721C518.269 332.725 518.649 332.326 518.671 331.835L518.831 328.238Z" fill="#2C2C2C"/>
<path fill-rule="evenodd" clip-rule="evenodd" d="M373.237 337.929L354.162 337.861L357.221 327.844L360.55 327.842L361.18 325.142L372.247 325.234L372.877 327.834L375.846 327.832L373.237 337.929Z" fill="black"/>
<path fill-rule="evenodd" clip-rule="evenodd" d="M372.349 326.593C372.442 326.096 372.121 325.698 371.675 325.699L362.03 325.705C361.585 325.706 361.114 326.103 361.021 326.6L360.099 330.205C360.006 330.697 360.327 331.1 360.772 331.099L370.368 331.093C370.863 331.092 371.334 330.689 371.426 330.197L372.349 326.593Z" fill="#2C2C2C"/>
<path fill-rule="evenodd" clip-rule="evenodd" d="M387.572 326.582C387.666 326.085 387.344 325.688 386.899 325.688L377.253 325.695C376.808 325.695 376.338 326.093 376.245 326.59L375.322 330.195C375.23 330.687 375.55 331.089 375.996 331.089L385.592 331.082C386.087 331.082 386.558 330.679 386.65 330.187L387.572 326.582Z" fill="#2C2C2C"/>
<path fill-rule="evenodd" clip-rule="evenodd" d="M403.308 326.41C403.401 325.913 403.088 325.515 402.652 325.516L393.209 325.522C392.773 325.522 392.311 325.92 392.218 326.417L391.543 330.022C391.451 330.514 391.763 330.916 392.199 330.916L401.641 330.909C402.077 330.909 402.54 330.506 402.632 330.014L403.308 326.41Z" fill="#2C2C2C"/>
<path fill-rule="evenodd" clip-rule="evenodd" d="M417.487 326.524C417.58 326.027 417.292 325.63 416.884 325.63L408.047 325.636C407.639 325.636 407.202 326.034 407.109 326.531L406.434 330.136C406.341 330.628 406.629 331.03 407.036 331.03L415.874 331.024C416.282 331.024 416.72 330.62 416.812 330.129L417.487 326.524Z" fill="#2C2C2C"/>
<path fill-rule="evenodd" clip-rule="evenodd" d="M338.807 414.742L339.19 415.392L339.955 415.402L771.567 418.606L771.663 418.558C774.054 417.142 775.488 415.153 775.488 412.494C775.488 409.922 774.15 406.689 770.994 402.682C766.403 396.934 747.562 369.295 735.799 352.568C731.495 346.447 728.052 341.789 726.713 340.183C723.653 336.606 721.262 331.719 717.915 328.352C715.524 326.038 712.75 324.431 708.925 324.441C704.334 324.431 621.13 323.351 537.925 322.031C454.72 320.711 371.42 319.143 366.925 318.942C361.282 318.693 357.457 318.741 354.779 320.634C352.962 321.983 351.622 324.25 350.857 328.085C349.709 333.842 344.641 357.713 340.911 376.171C338.999 385.381 337.372 393.243 336.703 396.829C336.129 400.31 336.034 403.323 336.321 405.828C336.799 411.595 338.807 414.742 338.807 414.742ZM340.911 412.571C340.337 411.49 339.381 409.099 338.999 405.57C338.807 403.265 338.807 400.501 339.381 397.298C339.954 393.721 341.485 385.859 343.302 376.659C346.936 358.172 351.814 334.244 352.866 328.486C353.535 325.302 354.396 323.36 355.927 322.241C358.318 320.52 361.856 320.644 366.829 320.826C371.993 321.017 479.107 322.088 572.163 323.169C642.552 323.991 705.004 324.852 708.925 324.852C712.655 324.852 715.332 326.411 717.532 328.658C720.975 332.025 723.366 336.902 726.331 340.479C727.766 342.076 731.112 346.734 735.32 352.845C747.084 369.62 765.829 397.336 770.42 403.112C773.48 406.948 774.819 410.027 774.723 412.485C774.723 414.857 773.48 416.607 771.376 417.869L340.911 412.571Z" fill="#352B23"/>
<path fill-rule="evenodd" clip-rule="evenodd" d="M118.286 366.907L316.191 361.872L271.902 512.445L0.507902 506.338L118.286 366.907Z" fill="#726E6A" fill-opacity="0.8"/>
<path fill-rule="evenodd" clip-rule="evenodd" d="M24.584 21.9454C24.584 21.9454 85.5549 402.046 95.03 444.229C95.03 444.229 169.295 452.048 281.791 450.934C281.791 450.934 289.17 451.265 294.941 435.08C300.711 418.894 342.263 283.026 342.263 283.026L339.955 16.2952L243.494 15.5364C243.494 15.5364 244.361 12.2534 243.054 12.1209C182.107 6.03106 104.897 7.10327 48.9978 13.3437C47.3473 13.4883 47.7989 17.3013 47.7989 17.3013C47.7989 17.3013 28.8246 20.1142 24.584 21.9454Z" fill="#B1A8A2"/>
<path fill-rule="evenodd" clip-rule="evenodd" d="M288.531 68.4973V88.1342L337.045 59.8233L337.467 46.0896L288.531 68.4973Z" fill="#726E6A"/>
<path fill-rule="evenodd" clip-rule="evenodd" d="M278.555 284.122L285.384 468.378L353.101 259.244L345.257 175.732L278.555 284.122Z" fill="#9F938C"/>
<path fill-rule="evenodd" clip-rule="evenodd" d="M24.584 21.9464C24.584 21.9464 85.5549 402.047 95.03 444.23C95.03 444.23 169.295 452.049 281.791 450.935L293.158 447.609C282.99 304.061 277.22 160.007 273.094 15.7722L243.494 15.5374C243.494 15.5374 244.361 12.2544 243.054 12.1219C182.107 6.03203 104.897 7.10425 48.9978 13.3447C47.3473 13.4893 47.7989 17.3022 47.7989 17.3022C47.7989 17.3022 28.8246 20.1152 24.584 21.9464Z" fill="#726E6A"/>
<path fill-rule="evenodd" clip-rule="evenodd" d="M24.5054 21.7601L24.3613 21.8204L24.3854 21.977C24.3854 21.977 51.443 192.517 72.1883 317.838C82.4224 379.652 91.1267 430.467 94.2409 444.406L94.3674 444.966L94.9456 445.032C94.9456 445.032 129.942 448.755 188.293 450.742C214.959 451.646 246.499 452.182 281.798 451.845H281.924L294.128 448.285L294.074 447.55C288.947 375.731 284.948 303.791 281.653 231.761C278.37 159.833 275.798 87.8148 273.653 15.7546L273.636 15.2125L273.093 15.2065L244.138 15.0197C244.246 14.4113 244.361 13.5018 244.234 12.8272C244.102 12.1345 243.734 11.6706 243.108 11.6104C213.17 8.65885 179.318 7.43593 145.996 7.71301C111.432 7.99612 77.4348 9.88162 48.9734 13.0982C48.4071 13.1524 48.0399 13.5379 47.811 14.0981C47.4255 15.0619 47.4976 16.5376 47.5398 17.1038C46.0821 17.3207 37.8055 18.5977 31.4085 19.9289C28.3846 20.5553 25.7824 21.2059 24.5054 21.7601ZM24.8131 22.0733C26.1202 21.5432 28.6198 20.941 31.499 20.3506C38.5286 18.905 47.8351 17.5436 47.8351 17.5436L48.0639 17.5074L48.0339 17.2786C48.0339 17.2786 47.8651 15.7967 48.1422 14.6763C48.2807 14.1161 48.5157 13.6342 49.0157 13.592H49.0216C77.4831 10.4538 111.462 8.66475 146.001 8.47802C179.294 8.30334 213.104 9.61055 242.999 12.6404C243.12 12.6525 243.15 12.7669 243.186 12.8873C243.252 13.1102 243.264 13.3813 243.252 13.6644C243.228 14.5077 242.987 15.4052 242.987 15.4052L242.819 16.0557L243.487 16.0618L272.545 16.3268C274.527 88.2184 276.894 160.074 280.05 231.833C283.213 303.634 287.165 375.345 292.188 446.941L281.653 450.019C246.433 450.381 214.966 449.863 188.354 448.983C134.406 447.212 100.439 443.96 95.6862 443.484C92.4395 428.798 83.7475 378.556 73.4954 317.615C52.7923 194.571 25.7588 27.9222 24.8131 22.0733Z" fill="#352B23"/>
<path fill-rule="evenodd" clip-rule="evenodd" d="M27.9082 24.1141C27.9082 24.1141 89.8594 400.568 99.0054 441.286C99.0054 441.286 172.76 447.496 281.349 446.42C281.349 446.42 261.138 162.617 257.155 23.3873L231.031 20.0441C231.031 20.0441 231.875 16.8753 230.607 16.7474C171.778 10.8633 105.43 9.7876 51.4733 15.8112C49.8859 15.9508 50.3166 19.6371 50.3166 19.6371C50.3166 19.6371 32.0073 22.3466 27.9082 24.1141Z" fill="#91837B"/>
<path fill-rule="evenodd" clip-rule="evenodd" d="M53.6875 42.0962L79.0589 235.236L245.702 238.278L233.413 42.4215L53.6875 42.0962Z" fill="#9F938C"/>
<path fill-rule="evenodd" clip-rule="evenodd" d="M53.6878 41.8976H53.459L53.4831 42.1266L78.4269 235.947L79.0475 235.96C79.0475 235.96 110.279 236.604 145.698 237.297C192.098 238.2 245.684 239.2 245.684 239.2L246.684 239.218L246.624 238.218C246.624 238.218 243.521 189.259 240.377 140.299C237.233 91.3393 234.046 42.3856 234.046 42.3856L234.01 41.7832H233.414L53.6878 41.8976ZM53.9231 42.3073L232.811 43.0603C233.155 48.7706 235.925 94.5859 238.738 140.401C241.491 185.283 244.28 230.159 244.726 237.339C237.197 237.206 188.424 236.333 145.735 235.61C113.219 235.062 84.2394 234.598 79.6916 234.526L53.9231 42.3073Z" fill="#352B23"/>
<path fill-rule="evenodd" clip-rule="evenodd" d="M64.1748 46.4304L66.9496 67.647L224.635 70.5239L224.926 46.7214L64.1748 46.4304Z" fill="#B1A8A2"/>
<path fill-rule="evenodd" clip-rule="evenodd" d="M64.1754 46.2531H63.9707L63.9923 46.4579L66.6861 67.9383L66.9449 67.9437C66.9449 67.9437 106.361 68.8812 145.782 69.7486C162.559 70.115 179.342 70.4652 193.085 70.74C211.619 71.1117 224.619 71.3487 224.619 71.3487L225.449 71.3595L225.46 70.5352L225.729 45.9299H224.926C224.926 45.9299 194.799 45.9406 160.625 46.0053C115.87 46.0915 64.1754 46.2531 64.1754 46.2531ZM64.3858 46.6196C67.9901 46.6411 117.524 46.9751 160.625 47.2067C191.528 47.3791 219.124 47.4923 224.118 47.5139L223.827 69.6893C220.691 69.63 208.914 69.4145 193.112 69.1559C179.374 68.9297 162.586 68.6711 145.804 68.4233C108.225 67.8791 70.641 67.3996 67.2091 67.3512L64.3858 46.6196Z" fill="#352B23"/>
<path fill-rule="evenodd" clip-rule="evenodd" d="M198.109 77.7197L198.961 86.2933L222.019 86.1042L222.12 77.8302L198.109 77.7197Z" fill="#B1A8A2"/>
<path fill-rule="evenodd" clip-rule="evenodd" d="M198.111 77.5674L197.94 77.5655L197.957 77.736L198.63 86.6598L198.963 86.6579C198.963 86.6579 206.377 86.7778 212.801 86.8077C217.704 86.8302 222.025 86.7927 222.025 86.7927L222.701 86.7871L222.708 86.1129L222.742 77.2172L222.124 77.2153C222.124 77.2153 216.12 77.2753 210.117 77.3633C204.111 77.4513 198.111 77.5674 198.111 77.5674ZM198.283 77.8783C199.311 77.9064 204.711 78.0581 210.114 78.1873C214.958 78.3034 219.805 78.4008 221.493 78.4326C221.491 78.4326 221.345 85.42 221.345 85.42C219.948 85.4349 216.539 85.4724 212.792 85.5511C207.164 85.6691 200.778 85.8676 199.281 85.9163L198.283 77.8783Z" fill="#352B23"/>
<path fill-rule="evenodd" clip-rule="evenodd" d="M60.5127 92.5583L67.1797 141.275L239.747 144.573L236.644 94.3749L60.5127 92.5583Z" fill="#9F938C"/>
<path fill-rule="evenodd" clip-rule="evenodd" d="M60.5148 92.4067L60.3389 92.4048L60.3614 92.5808L66.8918 141.599L67.1745 141.605C67.1745 141.605 122.663 142.861 170.709 143.873C207.392 144.642 239.735 145.262 239.735 145.262L240.482 145.275L240.437 144.53L237.236 93.7532L236.65 93.7476C236.65 93.7476 192.617 93.3787 148.584 93.0434C104.55 92.7082 60.5148 92.4067 60.5148 92.4067ZM60.6891 92.7138C63.7623 92.7569 106.168 93.3393 148.575 93.8918C189.641 94.4255 230.708 94.9312 236.053 94.9967L239.015 143.871C233.981 143.775 204.159 143.21 170.734 142.635C124.673 141.842 71.7721 141.017 67.4684 140.949L60.6891 92.7138Z" fill="#352B23"/>
<path fill-rule="evenodd" clip-rule="evenodd" d="M73.1934 190.812L79.4391 234.815L245.869 237.996L243.06 192.563L73.1934 190.812Z" fill="#91837B"/>
<path fill-rule="evenodd" clip-rule="evenodd" d="M73.1949 190.666L73.0234 190.664L73.0487 190.834L79.1697 235.121L79.4334 235.127C79.4334 235.127 132.948 236.344 179.286 237.319C214.663 238.065 245.856 238.661 245.856 238.661L246.576 238.676L246.533 237.957L243.634 191.961L243.067 191.955C243.067 191.955 200.599 191.6 158.132 191.276C115.663 190.955 73.1949 190.666 73.1949 190.666ZM73.3647 190.962C76.3359 191.004 117.229 191.567 158.123 192.1C197.719 192.617 237.314 193.104 242.485 193.167L245.162 237.319C240.307 237.227 211.546 236.683 179.309 236.131C134.859 235.367 83.8026 234.572 79.7098 234.509L73.3647 190.962Z" fill="#352B23"/>
<path fill-rule="evenodd" clip-rule="evenodd" d="M105.463 243.29L108.163 271.389L220.725 273.542L219.004 245.693L105.463 243.29Z" fill="#726E6A"/>
<path fill-rule="evenodd" clip-rule="evenodd" d="M105.467 243.086L105.238 243.08L105.26 243.308L107.78 271.803L108.156 271.811C108.156 271.811 144.346 272.778 175.686 273.503C199.611 274.056 220.709 274.458 220.709 274.458L221.703 274.478L221.642 273.484L219.802 244.861L219.022 244.845C219.022 244.845 190.635 244.359 162.245 243.918C133.856 243.479 105.467 243.086 105.467 243.086ZM105.69 243.5C108.442 243.578 135.331 244.341 162.222 245.063C187.839 245.75 213.456 246.4 218.205 246.52L219.751 272.605C215.314 272.521 196.593 272.172 175.717 271.858C146.228 271.412 112.442 271.017 108.544 270.972L105.69 243.5Z" fill="#352B23"/>
<path fill-rule="evenodd" clip-rule="evenodd" d="M71.5418 274.004C71.5418 274.004 77.9871 280.967 104.967 286.418C112.183 287.876 120.875 289.237 131.338 290.28C139.162 291.063 147.981 291.635 157.89 292.014C166.889 292.255 175.545 292.255 183.755 291.876C198.139 291.213 211.162 289.629 222.33 287.593C243.521 283.738 258.056 278.022 262.772 272.721C263.092 272.371 263.073 271.829 262.73 271.51C262.381 271.185 261.839 271.209 261.519 271.552C256.731 276.461 242.358 281.009 221.74 283.961C210.65 285.551 197.766 286.593 183.568 287.033C175.454 287.286 166.907 287.418 158.016 287.19C148.198 287.051 139.457 286.635 131.687 286.099C121.345 285.376 112.719 284.395 105.545 283.238C79.3244 279.015 72.7582 272.805 72.7582 272.805C72.433 272.468 71.8848 272.462 71.5535 272.793C71.2162 273.124 71.2105 273.666 71.5418 274.004Z" fill="#E9E6EC"/>
<path fill-rule="evenodd" clip-rule="evenodd" d="M96.6669 313.669C96.6669 313.669 110.256 355.587 124.152 384.133C127.387 390.789 130.555 396.789 133.766 401.234C135.23 403.258 136.718 404.939 138.133 406.276C140.284 408.294 142.295 409.498 144.066 409.8C144.422 409.89 144.783 409.673 144.874 409.318C144.964 408.956 144.747 408.595 144.391 408.505C143.181 408.089 141.994 407.041 140.681 405.589C139.271 404.029 137.844 401.945 136.254 399.517C133.32 395.03 129.983 389.325 126.718 382.862C112.485 354.63 97.9257 313.242 97.9257 313.242C97.8113 312.892 97.4316 312.705 97.0822 312.826C96.7389 312.94 96.5464 313.32 96.6669 313.669Z" fill="#352B23"/>
<path fill-rule="evenodd" clip-rule="evenodd" d="M238.41 301.555C238.41 301.555 235.581 335.622 231.086 366.439C229.491 377.372 227.511 387.859 225.721 396.342C225.139 399.111 224.631 401.663 224.08 403.951C223.633 405.806 223.219 407.485 222.743 408.948C222.629 409.232 222.766 409.55 223.048 409.665C223.33 409.78 223.653 409.645 223.766 409.361C224.884 407.032 226.046 404.127 227.104 400.722C227.479 399.51 227.836 398.238 228.163 396.911C229.556 391.251 230.676 384.609 231.759 377.555C236.845 344.402 239.512 301.636 239.512 301.636C239.533 301.331 239.305 301.067 239 301.047C238.696 301.027 238.432 301.25 238.41 301.555Z" fill="#352B23"/>
<path fill-rule="evenodd" clip-rule="evenodd" d="M137.99 437.739C137.99 437.739 150.844 437.591 167.224 437.587C173.383 437.582 180.049 437.589 186.708 437.681C193.368 437.767 200.027 437.943 206.192 438.118C222.56 438.566 235.408 439.08 235.408 439.08C236.312 439.093 237.054 438.368 237.066 437.465C237.078 436.562 236.355 435.817 235.457 435.804C235.457 435.804 222.596 435.965 206.222 435.968C200.057 435.967 193.398 435.96 186.732 435.868C180.073 435.771 173.413 435.594 167.254 435.419C150.88 434.965 138.031 434.463 138.031 434.463C137.127 434.45 136.386 435.175 136.374 436.078C136.362 436.982 137.086 437.727 137.99 437.739Z" fill="#352B23"/>
<path fill-rule="evenodd" clip-rule="evenodd" d="M146.559 432.301C146.559 432.301 157.172 432.122 170.69 432.079C175.782 432.059 181.278 432.05 186.774 432.126C192.277 432.196 197.773 432.356 202.859 432.516C216.371 432.925 226.978 433.408 226.978 433.408C227.876 433.421 228.623 432.696 228.635 431.793C228.647 430.889 227.924 430.145 227.02 430.132C227.02 430.132 216.407 430.323 202.889 430.366C197.797 430.38 192.301 430.389 186.805 430.313C181.303 430.231 175.806 430.071 170.72 429.911C157.208 429.496 146.602 429.025 146.602 429.025C145.704 429.012 144.957 429.737 144.944 430.64C144.932 431.544 145.655 432.289 146.559 432.301Z" fill="#352B23"/>
<path fill-rule="evenodd" clip-rule="evenodd" d="M27.8321 23.9336L27.6924 23.9916L27.7157 24.1428C27.7157 24.1428 55.1532 192.654 76.0847 316.411C86.4459 377.677 95.22 427.971 98.2376 441.46L98.3654 442.024L98.9412 442.071C98.9412 442.071 133.484 445.019 190.104 446.542C216.228 447.24 247.055 447.635 281.36 447.304L282.301 447.292L282.232 446.356C282.232 446.356 273.098 318.72 265.795 192.654C262.207 130.749 259.044 69.2212 257.684 23.3694L257.667 22.9161L257.219 22.8579L231.63 19.6192C231.74 19.0378 231.868 18.1075 231.74 17.4272C231.612 16.7644 231.258 16.3225 230.659 16.2585C201.814 13.4153 171.167 11.7292 141.054 11.4675C109.721 11.1943 78.9744 12.4618 51.4494 15.5725C50.9086 15.6248 50.5482 16.0027 50.3331 16.5376C49.9551 17.4679 50.0249 18.8924 50.0656 19.439C48.6585 19.6483 40.6701 20.881 34.4953 22.166C31.5765 22.7765 29.0647 23.3986 27.8321 23.9336ZM28.1285 24.2358C29.396 23.7241 31.8029 23.1428 34.5821 22.573C41.3675 21.1775 50.3507 19.8635 50.3507 19.8635L50.5715 19.8286L50.5483 19.6076C50.5483 19.6076 50.3796 18.1774 50.647 17.0959C50.7808 16.5552 51.0075 16.09 51.4959 16.0493C79.0093 13.0142 109.738 11.8397 141.048 12.2001C171.132 12.5432 201.75 14.3108 230.56 17.2354C230.676 17.2471 230.711 17.3633 230.746 17.4796C230.81 17.6947 230.821 17.9622 230.816 18.2297C230.787 19.0495 230.554 19.9158 230.554 19.9158L230.415 20.4565L230.967 20.5321L256.637 23.8521C257.905 69.6632 260.881 131.016 264.347 192.735C271.068 312.522 279.569 433.727 280.4 445.542C246.497 445.873 216.018 445.495 190.144 444.827C137.827 443.478 104.372 440.919 99.6504 440.547C96.4932 426.285 87.7368 376.567 77.364 316.191C56.4789 194.66 29.082 29.9629 28.1285 24.2358Z" fill="#352B23"/>
<path fill-rule="evenodd" clip-rule="evenodd" d="M24.5054 21.7516L24.3613 21.8119L24.3854 21.9685C24.3854 21.9685 51.4553 192.508 72.2065 317.823C82.4406 379.637 91.1448 430.452 94.265 444.391L94.3856 444.939L94.9456 444.999C94.9456 444.999 129.949 448.728 188.293 450.716C214.953 451.625 246.481 452.167 281.773 451.83C282.045 451.842 285.538 451.884 289.598 447.029C291.616 444.626 293.802 440.963 295.796 435.38C297.693 430.067 303.446 411.882 310.307 389.823C324.36 344.658 343.094 283.272 343.094 283.272L343.129 283.145V283.007L340.569 15.6678L339.955 15.6618C339.955 15.6618 252.354 15.0835 244.12 15.0293C244.229 14.4209 244.349 13.4992 244.222 12.8246C244.09 12.1379 243.722 11.6801 243.102 11.6198C213.171 8.66226 179.318 7.43948 145.996 7.71054C111.432 7.99365 77.4409 9.87914 48.9734 13.0957C48.4132 13.1439 48.0397 13.5354 47.8169 14.0896C47.4253 15.0533 47.4976 16.5291 47.5398 17.0953C46.0881 17.3122 37.8055 18.5892 31.4085 19.9204C28.3846 20.5528 25.7824 21.1974 24.5054 21.7516ZM24.8131 22.0648C26.1202 21.5347 28.6198 20.9325 31.4991 20.3421C38.5286 18.8965 47.8351 17.529 47.8351 17.529L48.0639 17.4989L48.0339 17.27C48.0339 17.27 47.8592 15.7882 48.1363 14.6678C48.2748 14.1076 48.5157 13.6197 49.0157 13.5775H49.0216C77.4831 10.4392 111.462 8.65022 146.001 8.46349C179.294 8.28278 213.104 9.58998 243.005 12.6138C243.126 12.6259 243.162 12.7463 243.198 12.8728C243.265 13.1017 243.277 13.3728 243.271 13.6559C243.247 14.4992 243.005 15.4027 243.005 15.4027L242.837 16.0292L243.487 16.0352L339.335 16.9025L341.389 282.892C340.437 286.001 322.246 345.315 308.554 389.275C301.693 411.297 295.971 429.465 294.079 434.765C292.182 440.084 290.122 443.578 288.206 445.867C284.707 450.053 281.833 450.017 281.833 450.017H281.803C246.505 450.384 214.996 449.866 188.354 448.993C134.352 447.222 100.367 443.963 95.6685 443.499C92.4279 428.826 83.7299 378.571 73.4777 317.612C52.7807 194.569 25.7588 27.9137 24.8131 22.0648Z" fill="#352B23"/>
<path d="M488 134.948H525.086L554 85L582.913 134.948H620L591.086 185H516.914L488 134.948ZM582.913 134.948H525.086L554 185L582.913 134.948Z" fill="white" fill-opacity="0.07"/>
</svg>
