<svg width="921" height="513" fill="none" xmlns="http://www.w3.org/2000/svg"><path d="M45.057 7.525C69.431 5.184 120.584.4 130.2 0h52.088l76.128 7.525 85.143 6.02c1.502 43.976 4.507 133.235 4.507 138.452 0 5.217 19.7 45.314 29.55 64.711l18.531 34.613 3.506-237.777h330.555L699.657 269.38l-22.538 3.512 38.064 23.075 37.563 6.02 49.082 13.544 12.521 31.102 51.086 13.544 27.046 25.584L904 419.872l-3.506 25.584-35.059 6.521-57.096-23.075h-30.551l-462.777-5.518L286.964 459H93.138l-12.02-61.702L11 20.568 45.057 7.524Z" fill="#EDEDED"/><path fill-rule="evenodd" clip-rule="evenodd" d="m670.345 303.185-326.647-6.157-21.76 92.994h410.899l-62.492-86.837ZM765.438 405.196l-424.629-.126-6.094 26.009h449.578l-18.855-25.883ZM887.767 398.331l-93.091-.149 41.393 42.703c43.053 47.769 119.464 22.991 67.417-27.641l-15.719-14.913Z" fill="#524A42" fill-opacity=".8"/><path fill-rule="evenodd" clip-rule="evenodd" d="M804.384 361.885s-3.417-2.366-5.116-10.988c-.955-4.859-1.325-11.533-.343-20.61.877-8.118-4.526-12.767-13.948-15.095-19.366-4.791-56.951.323-77.018-6.641-7.618-2.65-12.503-7.159-11.774-15.349.319-3.529-.385-5.975-1.686-7.685-1.507-1.973-3.923-3.08-7.177-3.465-4.959-.579-12.202.537-20.58.995-8.759.484-18.829.215-28.76-3.938-10.093-4.228-19.991-12.494-28.25-27.948a2.333 2.333 0 0 0-3.165-.958 2.334 2.334 0 0 0-.959 3.162c8.911 16.669 19.684 25.493 30.569 30.053 16.513 6.919 33.392 3.886 44.692 3.24 2.864-.164 5.332-.179 7.27.269 1.267.295 2.27.759 2.836 1.72.575.978.716 2.328.553 4.142-.95 10.619 5.018 16.747 14.904 20.177 17.308 6.009 47.514 3.233 68.165 5.28 6.592.652 12.158 1.772 15.821 4.011 2.749 1.681 4.23 4.071 3.858 7.527-1.049 9.701-.613 16.826.407 22.017 2.213 11.264 7.262 14.079 7.262 14.079a2.337 2.337 0 0 0 3.211-.776 2.34 2.34 0 0 0-.772-3.219Z" fill="#756E68"/><path fill-rule="evenodd" clip-rule="evenodd" d="M797.094 328.044c.927-5.333-2.168-8.603-7.809-10.63-7.646-2.745-20.023-3.187-33.324-3.415-7.916-.132-16.164-.199-23.931-.625-8.849-.484-17.076-1.45-23.497-3.591-8.646-2.879-13.99-7.91-12.937-16.875.778-6.722-2.975-9.209-8.843-9.857-9.539-1.05-24.773 2.863-34.285.399-.059-.016-.116.017-.127.072-.019.056.017.11.076.125 9.476 2.572 24.745-1.162 34.269-.012 3.401.408 6.06 1.433 7.381 3.677.798 1.359 1.104 3.154.813 5.51-1.173 9.385 4.327 14.751 13.368 17.806 6.476 2.194 14.793 3.194 23.732 3.663 7.783.406 16.044.404 23.97.472 13.239.106 25.562.386 33.204 3.024 5.501 1.904 8.567 5.03 7.74 10.222a.103.103 0 0 0 .079.12c.062.011.115-.026.121-.085Z" fill="#FCF9F7"/><path fill-rule="evenodd" clip-rule="evenodd" d="M309.576 155.047s8.023.774 19.169 10.01c6.536 5.418 14.071 13.672 21.71 26.211 17.141 28.168 16.718 63.821 23.651 85.202 2.974 9.17 7.313 15.841 14.34 18.829 7.411 3.156 22.913 2.765 40.214-7.768 13.284-8.086 27.726-22.167 40.261-45.229a2.435 2.435 0 0 0-.978-3.291 2.415 2.415 0 0 0-3.283.977c-12.01 22.105-25.79 35.654-38.529 43.403-15.433 9.397-29.174 10.259-35.782 7.445-5.838-2.485-9.157-8.241-11.637-15.865-7.015-21.654-6.757-57.704-24.121-86.219-7.994-13.136-15.913-21.759-22.759-27.432-12.642-10.468-21.847-11.109-21.847-11.109a2.422 2.422 0 0 0-2.617 2.219 2.42 2.42 0 0 0 2.208 2.617Z" fill="#000"/><path fill-rule="evenodd" clip-rule="evenodd" d="M359.095 174.831c5.098 8.597 8.576 17.855 11.167 27.182 1.56 5.603 2.787 11.221 3.853 16.744 1.132 5.818 2.061 11.517 2.988 16.957 1.045 6.044 2.075 11.768 3.296 16.952 1.498 6.358 3.326 11.916 5.847 16.306 1.473 2.561 5.297 6.74 11.214 8.848 3.86 1.377 8.619 1.879 14.206.453a.15.15 0 0 0-.079-.289c-5.502 1.282-10.165.705-13.92-.728-5.662-2.146-9.28-6.221-10.658-8.716-2.408-4.36-4.082-9.858-5.476-16.131-1.149-5.188-2.101-10.89-3.124-16.922-.914-5.446-1.889-11.153-3.08-16.973-1.135-5.535-2.465-11.171-4.133-16.768-2.791-9.329-6.524-18.55-11.837-27.068-.047-.067-.138-.091-.205-.045-.078.036-.093.125-.059.198Z" fill="#FCF9F7"/><path fill-rule="evenodd" clip-rule="evenodd" d="m786.314 386.026.825-6.813s-.045-.697.742-1.16c0 0-.881-.774.546-3.603s5.601-9.369 15.084-13.682c0 0 .786-2.195 7.821-2.702 0 0 17.474-2.556 31.625.349 0 0 9.21-.222 24.364 12.007 15.147 12.223 24.465 28.55 25.036 38.737.437 7.783.584 18.166-4.193 23.983-4.434 5.398-18.014 11.043-43.355 3.241-12.286-3.78-28.537-16.238-41.445-28.67-10.675-10.282-17.05-21.687-17.05-21.687Z" fill="#C0C1BE"/><path fill-rule="evenodd" clip-rule="evenodd" d="M799.323 379.468c7.688 5.848 22.29 20.709 33.028 29.913 8.627 7.39 31.899 15.223 43.183 10.783 10.555-4.154 22.207-18.299-1.376-41.813-17.253-17.202-25.677-19.682-47.237-20.716-6.495-.311-21.007-.235-30.23 9.483-.216.228-5.056 6.501 2.632 12.35Z" fill="#D7D7D7"/><path fill-rule="evenodd" clip-rule="evenodd" d="M804.803 359.404s5.937.314 13.309 2.181c4.022 1.022 8.463 2.507 12.598 4.633l.437-.875c-4.26-2.015-8.813-3.358-12.91-4.27-7.46-1.657-13.428-1.848-13.428-1.848l-.006.179Z" fill="#000"/><path fill-rule="evenodd" clip-rule="evenodd" d="m787.116 378.546 3.978 5.701.452-.097s1.674-.336 4.388.439c1.21.342 2.611.894 4.163 1.782l1.093.63-.184-1.134s-.206-1.326.532-2.749c.39-.738 1.033-1.494 2.092-2.106 2.01-1.158 6.46-3.636 12.017-6.036 3.889-1.686 8.319-3.337 12.837-4.483 4.456-1.122 7.088-2.13 8.831-3.03 2.604-1.35 3.185-2.472 4.88-3.456 1.442-.84 2.775-1.548 4.293-1.944 1.367-.354 2.877-.462 4.75-.18.225.03.376.03.444.018a.397.397 0 0 0 .281-.192c.047-.09.068-.216-.055-.354-.048-.054-.192-.156-.445-.27-.909-.402-3.52-1.267-6.664-2.095-3.746-.984-8.243-1.92-11.538-1.98-4.34-.084-13.008.384-20.704 1.764-5.366.966-10.253 2.376-12.905 4.357-1.982 1.482-3.903 3.456-5.612 5.49-3.841 4.567-6.616 9.397-6.616 9.397l-.308.528Zm62.611-17.449a11.643 11.643 0 0 0-3.452.336c-1.592.402-3 1.128-4.511 1.998-1.695.966-2.276 2.076-4.873 3.396-1.709.87-4.293 1.83-8.654 2.898-4.586 1.128-9.084 2.767-13.035 4.447a123.417 123.417 0 0 0-12.187 6.006c-1.278.726-2.05 1.632-2.522 2.514a5.846 5.846 0 0 0-.67 2.305c-1.702-.888-3.213-1.392-4.47-1.675-1.73-.39-2.994-.366-3.63-.306l-3.595-5.238-.117-.162c.821-1.368 3.2-5.19 6.276-8.839 1.695-2.01 3.602-3.966 5.577-5.424 2.632-1.944 7.471-3.301 12.768-4.219 7.67-1.332 16.296-1.74 20.616-1.626 1.681.042 3.684.318 5.734.714 4.101.792 8.407 2.058 10.745 2.875Zm-62.611 17.449-.116-.168.116.168Z" fill="#352B23"/><path fill-rule="evenodd" clip-rule="evenodd" d="m785.947 385.983-.012.12.057.101s2.828 5.037 7.865 11.437c2.549 3.241 5.677 6.838 9.286 10.301 7.231 6.946 15.509 13.897 23.552 19.34 6.368 4.313 12.59 7.675 18.039 9.343 11.246 3.451 20.177 4.256 27.034 3.628 8.702-.805 14.062-3.939 16.555-6.977 2.005-2.442 3.159-5.683 3.781-9.197.869-4.916.71-10.365.456-14.932-.273-4.865-2.524-11.125-6.444-17.671-4.326-7.219-10.682-14.792-18.648-21.237-5.449-4.402-10.13-7.199-13.898-8.975-6.438-3.045-10.219-3.115-10.587-3.108-5.169-1.066-10.776-1.408-15.819-1.408-8.645-.007-15.629.983-15.87 1.021-2.284.158-3.914.501-5.087.888-2.087.685-2.747 1.541-2.931 1.871-3.609 1.649-6.457 3.622-8.677 5.582-3.629 3.216-5.588 6.419-6.483 8.189-.482.951-.71 1.687-.805 2.239-.114.697-.026 1.148.095 1.421-.153.126-.26.253-.349.38a1.637 1.637 0 0 0-.279.863l-.831 6.781Zm.742-.032.806-6.724v-.031s-.007-.223.152-.457a1.21 1.21 0 0 1 .412-.381l.419-.247-.362-.324s-.247-.279-.108-1.135c.083-.501.292-1.167.73-2.043.869-1.725 2.772-4.852 6.305-8.004 2.188-1.954 5.011-3.914 8.594-5.55l.127-.058.045-.126s.355-.882 2.594-1.624c1.136-.381 2.728-.711 4.948-.876h.013c.012 0 7.047-1.04 15.8-1.059 5.017-.012 10.599.311 15.743 1.358l.025.006h.032s3.749-.089 10.397 3.038c3.742 1.757 8.397 4.523 13.814 8.887 6.489 5.226 11.906 11.208 16.023 17.139 5.461 7.871 8.627 15.641 8.956 21.433.254 4.535.412 9.952-.457 14.829-.609 3.445-1.731 6.616-3.698 9.007-2.454 2.982-7.731 6.026-16.275 6.794-6.806.621-15.68-.21-26.844-3.66-5.398-1.668-11.563-5.03-17.874-9.324-7.999-5.443-16.226-12.395-23.419-19.34-3.572-3.457-6.666-7.034-9.191-10.263-4.561-5.829-7.282-10.517-7.707-11.265Z" fill="#352B23"/><path fill-rule="evenodd" clip-rule="evenodd" d="M809.548 359.563s-.153-.133-.977.508c-.818.634.07.608.945.805.882.197 6.572 1.605 7.713 1.821 1.148.215 3.412-.279 4.586-.781 1.173-.501 2.201-1.103-.374-1.807 0 0-.152.044-.14-.14-.399-.412-1.649-1.592-3.253-2.334-.413-.006-.292-.127-.445-.184-.761-.298-1.585-.482-2.435-.438-1.136.064-2.157.387-3.007.781-.12.114-.26.253-.609.31-1.256.692-2.004 1.459-2.004 1.459Z" fill="#59667D"/><path fill-rule="evenodd" clip-rule="evenodd" d="M821.823 360.022c-1.162.019-2.225.137-3.095.59-.665.345-1.175.897-1.554 1.563l-.237 1.558c-.006.033.019.066.056.071.031.004.069-.014.075-.052l.733-1.214c.392-.703 1.001-1.156 1.71-1.548a9.851 9.851 0 0 1 2.319-.94c.006 0 .012-.009.012-.014 0-.01-.013-.014-.019-.014ZM818.45 357.772c-1.026-.462-2.767-.316-3.799.831-.758.841-1.038 2.2-.485 3.905a.058.058 0 0 0 .075.047c.031-.005.056-.042.05-.075-.23-1.573.28-2.602.945-3.362.901-1.034 2.225-1.549 3.201-1.322.006.004.019 0 .019-.005 0-.009 0-.014-.006-.019ZM812.85 357.377c-.947.301-1.794.943-2.03 1.816-.217.778.07 1.688.963 2.545a.037.037 0 0 0 .056.003c.015-.012.017-.04.004-.056-.672-.874-.74-1.668-.554-2.365a3.053 3.053 0 0 1 1.57-1.918c.007-.004.011-.013.008-.018-.004-.008-.01-.011-.017-.007Z" fill="#3B4453"/><path fill-rule="evenodd" clip-rule="evenodd" d="M809.77 359.31c-.476.476-.729 1.212-.203 1.992.533.78-1.916-.209-1.77-.945.146-.729 2.448-1.516 1.973-1.047ZM821.448 360.108c.578.666 1.504 1.345.781 2.055 0 0 1.77-.596 1.129-1.497-.647-.894-2.48-1.217-1.91-.558Z" fill="#000"/><path fill-rule="evenodd" clip-rule="evenodd" d="M809.549 359.563s-.064-.057-.324.07a3.88 3.88 0 0 0-.66.425c-.279.216-.361.361-.323.463.076.203.673.241 1.269.381.59.139 3.298.83 5.384 1.344 1.047.26 1.935.47 2.322.546.489.095 1.174.069 1.903-.038.996-.14 2.055-.425 2.747-.717.45-.19.881-.393 1.11-.615.215-.203.279-.419.146-.641-.14-.254-.622-.539-1.637-.825l-.044.311-.032-.311.051.045v-.019l.006-.076-.051-.051c-.241-.247-.792-.78-1.541-1.332a10.58 10.58 0 0 0-1.757-1.047l-.032-.012h-.031c-.121 0-.178-.007-.204-.032-.076-.044-.076-.102-.184-.146a6.747 6.747 0 0 0-1.224-.349 5.42 5.42 0 0 0-1.281-.07 7.535 7.535 0 0 0-1.561.28 9.172 9.172 0 0 0-1.471.57l-.013.007c-.076.069-.146.146-.266.209a1.007 1.007 0 0 1-.311.108h-.012c-.406.241-.755.488-1.04.704-.603.457-.939.812-.939.818Zm0 0c0-.006.349-.342.97-.767a9.386 9.386 0 0 1 1.053-.628 1.122 1.122 0 0 0 .641-.305c.437-.19.926-.361 1.446-.495.476-.114.983-.19 1.516-.209.412-.012.812.026 1.205.102.4.082.793.196 1.16.349.032.012.032.031.045.05a.38.38 0 0 0 .152.108c.058.019.14.032.273.038.622.292 1.186.647 1.668.99a13.52 13.52 0 0 1 1.472 1.236c.006.07.031.121.063.153.07.082.178.082.216.082.882.235 1.313.444 1.446.66.057.101.007.197-.095.292-.209.203-.603.393-1.021.577-.565.241-1.389.488-2.214.653-.856.171-1.719.254-2.296.152a69.276 69.276 0 0 1-2.315-.507c-2.093-.476-4.821-1.116-5.411-1.243-.444-.095-.894-.133-1.116-.235-.216-.089-.216-.235.171-.539.298-.235.501-.368.647-.438.26-.133.324-.076.324-.076Z" fill="#000"/><path d="M543.74 314.624c42.942 3.215 77.754-10.072 77.754-29.676 0-19.605-34.812-38.105-77.754-41.32-42.942-3.215-77.753 10.072-77.753 29.677s34.811 38.104 77.753 41.319Z" fill="#B1A8A2"/><path fill-rule="evenodd" clip-rule="evenodd" d="M543.567 240.389c-20.795-2.124-39.717-.188-53.81 4.658-15.768 5.429-25.328 14.675-25.525 25.566-.197 10.773 8.771 21.619 23.948 30.003 8.968 4.967 20.007 9.099 32.424 11.87 7.195 1.601 14.783 2.664 22.668 3.278 21.287 1.382 40.505-1.263 54.598-6.747 15.769-6.137 25.131-15.847 25.032-26.878-.295-10.598-9.461-20.963-24.638-28.614-14.192-7.13-33.508-12.069-54.697-13.136Zm0 0c20.893 2.083 39.718 7.883 53.318 15.582 13.305 7.512 21.78 16.668 21.484 26.159-.098 9.388-8.968 16.703-22.47 21.523-13.6 4.859-31.932 7.004-52.036 5.31-7.589-.568-14.881-1.657-21.879-3.102-11.727-2.459-22.371-6.066-31.044-10.492-13.304-6.85-21.977-15.431-22.174-24.77-.197-9.528 8.475-17.377 21.977-22.834 13.6-5.474 32.226-8.376 52.824-7.376Z" fill="#726E6A"/><path fill-rule="evenodd" clip-rule="evenodd" d="M542.701 247.809c-17.722-1.809-34.047-.745-46.269 2.466-7.334 1.916-13.27 4.616-17.373 7.863-4.19 3.384-6.46 7.393-6.548 11.799-.174 8.435 8.294 17.197 22.524 23.835 7.857 3.661 17.461 6.738 28.111 8.857 6.112 1.207 12.571 2.048 19.381 2.558 17.984 1.168 34.484-.472 46.794-4.231 7.333-2.219 13.27-5.204 17.285-8.673 4.191-3.58 6.374-7.703 6.286-12.139-.087-3.347-1.397-6.678-4.016-9.84-3.841-4.717-10.476-9.143-19.119-12.755-12.396-5.198-28.897-8.827-47.056-9.74Zm0 0c17.897 1.787 34.135 6.182 46.096 11.918 6.634 3.141 11.873 6.659 15.452 10.392 3.143 3.254 4.889 6.618 4.802 10.023-.088 3.333-2.008 6.28-5.151 8.849-3.754 3.005-9.254 5.416-15.889 7.259-11.96 3.266-27.762 4.566-45.048 3.093a173.501 173.501 0 0 1-18.77-2.441c-10.214-1.872-19.468-4.53-27.063-7.796-6.548-2.83-11.873-6.051-15.54-9.558-3.23-3.065-5.15-6.28-5.15-9.621-.087-3.364 1.659-6.449 4.802-9.196 3.666-3.209 9.078-5.93 15.888-8.063 11.96-3.785 27.937-5.697 45.571-4.859Z" fill="#524A42"/><path fill-rule="evenodd" clip-rule="evenodd" d="m512.912 270.58 21.71 30.824s27.831 1.913 35.864.498c4.208-9.88 5.261-20.008 4.495-30.289l-62.069-1.033Z" fill="#524A42"/><path fill-rule="evenodd" clip-rule="evenodd" d="M543.741 243.637c-9.546-.924-18.694-1.027-27.146-.379-10.043.785-19.092 2.623-26.749 5.286-6.562 2.28-12.031 5.201-16.208 8.59-5.568 4.613-8.651 10.134-8.651 16.189 0 4.89 1.99 9.719 5.768 14.287 4.177 5.016 10.441 9.677 18.296 13.735 14.12 7.298 33.411 12.538 54.591 14.077 20.882 1.47 39.874-.927 53.895-6.025 15.114-5.505 24.461-14.166 24.362-24.443 0-10.06-9.149-19.849-23.766-27.394-14.021-7.221-33.212-12.43-54.392-13.923Zm0 0c21.081 1.672 40.172 7.037 54.193 14.374 14.219 7.515 23.168 17.08 23.168 26.954-.099 9.935-9.346 18.139-23.963 23.355-13.921 4.942-32.715 7.144-53.298 5.533-20.981-1.64-39.974-6.951-53.895-14.234-7.557-3.942-13.623-8.472-17.6-13.31-3.381-4.166-5.27-8.545-5.27-12.993 0-5.449 2.884-10.379 7.955-14.564 3.878-3.296 9.148-6.138 15.413-8.486 7.457-2.772 16.406-4.757 26.25-5.883a167.092 167.092 0 0 1 27.047-.746Z" fill="#352B23"/><path fill-rule="evenodd" clip-rule="evenodd" d="M512.104 252.886v14.394c0 4.705 3.347 6.972 9.946 6.972s43.898.086 50.88-.096c6.981-.181 6.312-4.103 1.626-7.278V253.68l-62.452-.794Z" fill="#6C6157"/><path fill-rule="evenodd" clip-rule="evenodd" d="M519.822 253.68v10.493c0 3.43 2.564 5.082 7.62 5.082s33.632.063 38.981-.069c5.349-.133 4.836-2.991 1.245-5.306v-9.621l-47.846-.579Z" fill="#B1A8A2"/><path fill-rule="evenodd" clip-rule="evenodd" d="M561.064 328.005s-.268-3.562 4.556-9.231c2.733-3.208 7-6.979 13.621-11.091 15.67-9.734 37.779-12.499 50.845-17.114 6.391-2.257 10.712-5.145 11.952-8.932 1.337-4.075-.935-12.503-11.958-20.386-6.781-4.846-16.942-9.616-31.644-13.076a2.05 2.05 0 0 0-2.461 1.524 2.051 2.051 0 0 0 1.525 2.46c14.023 3.3 23.735 7.797 30.2 12.418 5.225 3.733 8.274 7.498 9.696 10.718.92 2.064 1.166 3.829.76 5.07-.947 2.888-4.562 4.631-9.429 6.353-13.284 4.685-35.72 7.6-51.646 17.488-7.097 4.412-11.648 8.477-14.574 11.921-6.364 7.477-5.492 12.413-5.492 12.413a2.04 2.04 0 0 0 2.294 1.76 2.044 2.044 0 0 0 1.755-2.295Z" fill="#000"/><path fill-rule="evenodd" clip-rule="evenodd" d="M579.089 304.897c5.059-3.059 10.766-5.391 16.617-7.327 4.064-1.342 8.203-2.487 12.236-3.54 2.818-.738 5.583-1.428 8.247-2.108 2.888-.738 5.658-1.465 8.23-2.203 4.824-1.39 8.963-2.85 11.948-4.621 1.427-.85 3.578-2.813 4.348-5.508.556-1.936.412-4.252-1.225-6.803a.094.094 0 0 0-.128-.032c-.038.027-.054.086-.027.128 1.53 2.503 1.637 4.744 1.054 6.605-.792 2.567-2.883 4.407-4.268 5.188-2.979 1.695-7.102 3.048-11.894 4.359-2.578.7-5.348 1.385-8.236 2.107-2.669.668-5.439 1.358-8.247 2.117-4.049 1.091-8.183 2.305-12.236 3.733-5.841 2.059-11.509 4.562-16.515 7.755-.043.022-.054.08-.027.123.026.043.08.054.123.027Z" fill="#FCF9F7"/><path fill-rule="evenodd" clip-rule="evenodd" d="m403.651 23.088 1.722 233.873 288.443 2.706 27.639-236.483-317.804-.096Z" fill="#726E6A"/><path fill-rule="evenodd" clip-rule="evenodd" d="m403 173 1.626 86.927L695.032 261 700 213.982 403 173Z" fill="#524A42"/><path fill-rule="evenodd" clip-rule="evenodd" d="m404 22.998 1.625 52.216 304.362 36.784L722 23.058l-318-.06Z" fill="#B1A8A2"/><path fill-rule="evenodd" clip-rule="evenodd" d="m419.886 36.692 1.444 198.08 258.027 2.446 23.115-200.299-282.586-.227Z" fill="#46467B"/><path d="M684 181.501 421.5 145.5v89l256.5 1.501 6-54.5Z" fill="#59599C"/><path fill-rule="evenodd" clip-rule="evenodd" d="m419.886 36.693.802 198.08v.656h.642l259.312 3.248.08-1.296 23.916-202.365h-2.166s-37.24-.178-84.752-.154c-17.897.016-37.239.057-56.581.17-24.479.146-49.038.373-70.627.624-40.53.478-70.626 1.037-70.626 1.037Zm0 0s30.096.607 70.626 1.15c21.589.283 46.148.55 70.627.737 19.342.146 38.684.219 56.581.26 40.771.096 74.077.024 82.665 0-2.328 20.428-20.546 180.891-22.391 196.921l-256.021-1.652-2.087-197.416Z" fill="#726E6A"/><path fill-rule="evenodd" clip-rule="evenodd" d="M420.865 252.457s64.556.669 129.111 1.434c64.556.756 129.207 1.607 129.207 1.607.957.01 1.817-.784 1.817-1.779 0-.985-.86-1.798-1.817-1.817 0 0-64.555-.669-129.111-1.425-64.651-.765-129.207-1.616-129.207-1.616-.956-.01-1.816.784-1.816 1.779 0 .994.764 1.807 1.816 1.817Z" fill="#160E11"/><path fill-rule="evenodd" clip-rule="evenodd" d="M403.65 23.09c0 .009-.383 30.862-.669 70.169-.096 14.795-.191 30.785-.191 46.776 0 20.304 0 40.617.095 58.473.096 33.559.383 58.463.383 58.463v2.066l2.104.019 289.781 2.161.192-1.367L722.41 22.267h-.956l-317.804.822Zm0 0 316.752 1.004c-1.913 15.971-25.727 215.528-27.926 234.025l-285-3.233c0-6.618-.192-28.528-.478-56.416-.192-17.856-.478-38.16-.765-58.464-.287-15.99-.574-31.971-.957-46.766-.765-39.298-1.626-70.141-1.626-70.15Z" fill="#352B23"/><path fill-rule="evenodd" clip-rule="evenodd" d="M340.05 413.976s-3.92-6.13-2.008-16.909c1.913-10.778 12.146-60.156 13.868-68.782 1.626-8.627 6.025-8.761 15.015-8.397 8.99.363 332.819 4.753 342 4.753 9.277 0 12.529 9.678 17.598 15.684 5.164 6.006 37.967 54.705 44.183 62.566 6.217 7.871 5.261 12.673.766 15.341l-431.422-4.256Z" fill="#635041"/><path fill-rule="evenodd" clip-rule="evenodd" d="M738.624 356.995H345.561l-8.167 50.52h436.452l-35.222-50.52Z" fill="#DBB79F"/><path fill-rule="evenodd" clip-rule="evenodd" d="M753.937 379.164H341.478l-3.064 15.537h426.753l-11.23-15.537Z" fill="#FCF9F7"/><path fill-rule="evenodd" clip-rule="evenodd" d="m357.745 341.035 15.972.191 10.425.115.668 2.945h3.539l.67-2.869 11.763.105.67 2.764h3.156l.669-2.687 11.763.115.67 2.572h3.826l.669-2.505 11.572.124.574 2.381h2.773l.575-2.305 11.667.125.574 2.2 2.773.009.574-2.161 11.572.134.478 2.123 4.496.038.478-2.095 11.668.134.573 2.047 3.347.019.479-2.008 11.668.124.478 1.98 3.347.019.478-1.942 11.572.134.478 1.894 4.113.029.382-1.865 12.051.143.574 2.477 3.156.019.574-2.438 11.955.134.573 2.4 3.156.019.67-2.362 10.903.124.573 2.324 4.591.029.574-2.286 26.682.306 3.731 4.61 21.71 54.399-274.098-4.83 7.937-53.213 3.539-3.739Z" fill="#000"/><path fill-rule="evenodd" clip-rule="evenodd" d="M370.069 385.357c.12-.821-.475-1.478-1.253-1.478h-16.855c-.778 0-1.566.657-1.687 1.478l-.875 5.955c-.12.813.474 1.478 1.252 1.478h16.856c.778 0 1.567-.665 1.687-1.478l.875-5.955ZM384.224 373.383c.103-.706-.366-1.262-1.607-1.262l-28.131.029c-1.241 0-1.732.527-1.835 1.233l-.752 5.113c-.102.698.222 1.307 1.463 1.307l28.13-.03c1.241 0 1.878-.579 1.98-1.277l.752-5.113ZM379.564 362.029c.1-.681-.358-1.224-1.569-1.224l-21.118.022c-1.211 0-1.69.514-1.791 1.202l-.733 4.988c-.1.681.216 1.274 1.427 1.274l21.118-.021c1.211 0 1.832-.565 1.932-1.246l.734-4.995ZM381.114 351.427c.097-.66-.349-1.186-1.531-1.186l-20.612.021c-1.182 0-1.65.498-1.748 1.165l-.977 4.834c-.098.66.21 1.235 1.391 1.235l20.482-.021c1.313 0 1.918-.547 2.016-1.207l.979-4.841ZM393.749 385.357c.121-.821-.437-1.478-1.172-1.478h-15.939c-.736 0-1.486.657-1.607 1.478l-.875 5.955c-.12.813.437 1.478 1.172 1.478h15.939c.736 0 1.487-.665 1.607-1.478l.875-5.955ZM403.883 373.545c.107-.725-.261-1.304-.77-1.304h-11.027c-.509 0-1.046.579-1.153 1.304l-.772 5.253c-.105.717.261 1.304.77 1.304h11.027c.509 0 1.048-.587 1.153-1.304l.772-5.253ZM396.935 362.187c.104-.707-.255-1.272-.751-1.272h-10.757c-.496 0-1.021.565-1.125 1.272l-.753 5.124c-.102.699.255 1.272.751 1.272h10.757c.497 0 1.022-.573 1.125-1.272l.753-5.124ZM398.038 351.581c.101-.684-.249-1.232-.733-1.232h-10.499c-.485 0-.997.548-1.098 1.232l-1.004 4.967c-.101.678.248 1.233.733 1.233h10.445c.538 0 1.051-.555 1.151-1.233l1.005-4.967ZM548.308 375.38c-.106-.727.261-1.297.77-1.285l11.027.27c.509.013 1.047.605 1.153 1.332l1.392 5.272c.105.72-.261 1.298-.77 1.285l-11.027-.27c-.509-.013-1.048-.613-1.153-1.332l-1.392-5.272ZM537.857 363.972c-.103-.702.255-1.259.807-1.245l10.702.262c.496.012 1.02.59 1.123 1.292l1.359 5.151c.103.701-.256 1.258-.752 1.245l-10.757-.263c-.496-.012-1.021-.59-1.124-1.292l-1.358-5.15ZM535.54 353.309c-.1-.68.249-1.219.788-1.206l10.445.254c.484.012.996.572 1.096 1.252l1.327 4.992c.1.68-.25 1.219-.735 1.207l-10.498-.255c-.485-.012-.997-.572-1.097-1.252l-1.326-4.992ZM554.975 363.972c-.103-.702.255-1.259.807-1.245l10.702.262c.496.012 1.02.59 1.123 1.292l1.359 5.151c.103.701-.256 1.258-.752 1.245l-10.757-.263c-.496-.012-1.021-.59-1.123-1.292l-1.359-5.15ZM552.277 353.309c-.1-.68.25-1.219.788-1.206l10.445.254c.485.012.996.572 1.096 1.252l1.327 4.992c.1.68-.25 1.219-.734 1.207l-10.499-.255c-.485-.012-.997-.572-1.097-1.252l-1.326-4.992ZM567.628 375.379c-.107-.727.261-1.297.77-1.285l35.424.266c.508.013 1.047.613 1.153 1.332l1.674 5.279c.105.72-.206 1.291-.771 1.278l-35.367-.265c-.566-.014-1.048-.613-1.153-1.332l-1.73-5.273ZM571.427 363.977c-.102-.702.255-1.266.751-1.254l27.961.262c.496.012 1.022.597 1.124 1.299l1.634 5.15c.102.701-.201 1.259-.752 1.246l-27.905-.26c-.552-.014-1.077-.592-1.18-1.301l-1.633-5.142ZM568.28 353.312c-.101-.68.248-1.226.732-1.215l27.29.254c.485.011.998.579 1.098 1.259l1.594 4.991c.101.68-.195 1.22-.734 1.207l-27.236-.252c-.538-.013-1.05-.573-1.151-1.26l-1.593-4.984ZM421.29 373.545c.106-.724-.261-1.304-.77-1.304h-11.027c-.509 0-1.047.58-1.153 1.304l-.772 5.253c-.106.717.261 1.304.77 1.304h11.027c.508 0 1.047-.587 1.153-1.304l.772-5.253ZM413.922 362.187c.104-.707-.254-1.272-.751-1.272h-10.757c-.496 0-1.02.565-1.124 1.272l-.753 5.124c-.103.699.254 1.272.751 1.272h10.756c.497 0 1.022-.573 1.125-1.272l.753-5.124ZM414.611 351.581c.101-.684-.249-1.232-.733-1.232h-10.499c-.485 0-.997.548-1.098 1.232l-1.004 4.967c-.1.678.248 1.233.733 1.233h10.445c.539 0 1.051-.555 1.152-1.233l1.004-4.967ZM530.902 374.954c-.107-.727.261-1.298.769-1.285l11.027.27c.509.013 1.047.605 1.153 1.332l.997 5.27c.105.719-.261 1.298-.77 1.285l-10.97-.269c-.565-.014-1.047-.612-1.153-1.332l-1.053-5.271ZM520.834 363.554c-.103-.702.255-1.259.807-1.245l10.702.262c.496.012 1.02.59 1.123 1.292l.974 5.148c.103.702-.2 1.267-.751 1.254l-10.701-.262c-.552-.014-1.022-.598-1.125-1.3l-1.029-5.149ZM518.995 352.907c-.1-.68.249-1.22.788-1.207l10.445.255c.485.011.996.572 1.096 1.252l.951 4.989c.1.68-.195 1.228-.733 1.215l-10.445-.254c-.538-.013-.998-.579-1.098-1.259l-1.004-4.991ZM439.267 373.309c.107-.725-.251-1.304-.75-1.304h-10.795c-.498 0-1.026.579-1.132 1.304l-.772 5.253c-.106.717.251 1.304.749 1.304h10.795c.499 0 1.028-.587 1.133-1.304l.772-5.253ZM431.462 361.957c.104-.707-.245-1.272-.731-1.272H420.2c-.486 0-1.001.565-1.105 1.272l-.753 5.124c-.102.7.246 1.272.732 1.272h10.53c.486 0 1.002-.572 1.105-1.272l.753-5.124ZM431.738 351.357c.102-.684-.239-1.232-.713-1.232h-10.278c-.475 0-.977.548-1.079 1.232l-.735 4.967c-.1.678.24 1.233.714 1.233h10.278c.474 0 .978-.555 1.078-1.233l.735-4.967ZM512.906 374.278c-.107-.727.251-1.298.749-1.286l10.795.265c.499.012 1.027.604 1.133 1.331l.772 5.272c.105.72-.251 1.298-.75 1.286l-10.794-.265c-.499-.012-1.028-.612-1.133-1.331l-.772-5.272ZM503.332 362.895c-.102-.701.246-1.258.732-1.246l10.531.258c.486.012 1.001.59 1.103 1.291l.755 5.151c.102.701-.247 1.258-.733 1.246l-10.53-.258c-.486-.012-1.001-.59-1.104-1.291l-.754-5.151ZM501.915 352.267c-.1-.68.24-1.22.715-1.208l10.278.25c.474.011.977.571 1.077 1.251l.736 4.992c.1.68-.24 1.22-.715 1.208l-10.278-.25c-.474-.012-.976-.572-1.077-1.252l-.736-4.991ZM456.769 373.545c.096-.725-.27-1.304-.768-1.304h-10.795c-.498 0-1.018.579-1.115 1.304l-.698 5.253c-.096.717.269 1.304.767 1.304h10.795c.499 0 1.02-.587 1.115-1.304l.699-5.253ZM447.78 362.187c.094-.707-.263-1.272-.749-1.272h-10.476c-.54 0-.993.565-1.087 1.272l-.682 5.124c-.093.699.209 1.272.749 1.272h10.476c.486 0 .994-.573 1.087-1.272l.682-5.124ZM447.67 351.581c.091-.684-.257-1.232-.731-1.232h-10.225c-.528 0-.97.548-1.062 1.232l-.665 4.967c-.091.678.204 1.233.731 1.233h10.225c.474 0 .971-.555 1.061-1.233l.666-4.967ZM495.44 374.086c-.096-.727.27-1.297.768-1.285l10.795.264c.498.013 1.018.605 1.115 1.331l.698 5.271c.096.719-.269 1.297-.767 1.285l-10.795-.265c-.499-.012-1.02-.612-1.115-1.331l-.699-5.27ZM486.734 362.71c-.093-.701.263-1.265.749-1.253l10.476.256c.54.014.994.597 1.087 1.299l.683 5.148c.093.702-.21 1.26-.75 1.246l-10.476-.256c-.487-.012-.994-.59-1.087-1.291l-.682-5.149ZM485.623 352.085c-.09-.68.257-1.226.731-1.215l10.225.249c.528.013.971.579 1.062 1.259l.666 4.99c.091.68-.205 1.22-.732 1.207l-10.225-.249c-.475-.011-.97-.571-1.06-1.251l-.667-4.99ZM474.092 373.516c.067-.724-.322-1.303-.821-1.303h-10.795c-.498 0-.994.579-1.061 1.303l-.486 5.254c-.066.716.322 1.303.821 1.303h10.795c.498 0 .995-.587 1.061-1.303l.486-5.254ZM464.076 362.161c.066-.707-.26-1.272-.8-1.272h-10.477c-.486 0-.97.565-1.036 1.272l-.474 5.124c-.064.699.315 1.272.801 1.272h10.477c.54 0 .971-.573 1.035-1.272l.474-5.124ZM463.573 351.555c.064-.685-.254-1.232-.781-1.232h-10.226c-.474 0-.947.547-1.011 1.232l-.462 4.967c-.063.677.307 1.232.781 1.232H462.1c.527 0 .947-.555 1.01-1.232l.463-4.967ZM478.1 373.634c-.067-.726.323-1.296.821-1.283l10.795.264c.498.012.995.604 1.062 1.33l.486 5.265c.066.718-.323 1.296-.821 1.284l-10.795-.265c-.498-.012-.996-.611-1.062-1.33l-.486-5.265ZM469.788 362.268c-.065-.701.314-1.265.8-1.253l10.531.258c.486.012.97.597 1.035 1.298l.474 5.143c.065.701-.314 1.257-.8 1.245l-10.531-.258c-.486-.012-.97-.589-1.035-1.29l-.474-5.143ZM469.106 351.661c-.064-.679.307-1.225.781-1.213l10.278.25c.474.011.947.578 1.01 1.257l.463 4.985c.064.679-.307 1.218-.781 1.206l-10.278-.25c-.474-.011-.947-.571-1.01-1.25l-.463-4.985ZM417.067 385.357c.126-.821-.419-1.478-1.144-1.478h-15.722c-.726 0-1.472.657-1.598 1.478l-.913 5.955c-.124.813.419 1.478 1.144 1.478h15.722c.726 0 1.473-.665 1.598-1.478l.913-5.955ZM568.419 387.327c-.206-.694.312-1.24 1.078-1.23l16.612.234c.767.011 1.613.576 1.818 1.27l1.49 5.036c.203.687-.312 1.24-1.079 1.229l-16.612-.233c-.767-.011-1.615-.583-1.818-1.27l-1.489-5.036ZM591.278 387.327c-.205-.694.312-1.24 1.079-1.23l16.612.234c.766.011 1.612.576 1.818 1.27l1.489 5.036c.203.687-.312 1.24-1.079 1.229l-16.612-.233c-.766-.011-1.614-.583-1.818-1.27l-1.489-5.036ZM545.993 387.011c-.18-.694.321-1.24 1.046-1.23l15.709.221c.725.01 1.513.574 1.693 1.268l1.305 5.034c.178.686-.321 1.24-1.046 1.229l-15.708-.22c-.725-.01-1.516-.582-1.694-1.269l-1.305-5.033ZM523.064 386.689c-.189-.694.296-1.24 1.011-1.23l15.495.217c.715.01 1.502.575 1.691 1.269l1.37 5.034c.186.687-.296 1.24-1.011 1.23l-15.495-.218c-.715-.01-1.504-.581-1.691-1.268l-1.37-5.034ZM518.32 392.782c-.192.029-94.395 0-94.395 0-4.017 0-3.348-.66-3.252-1.473l.956-5.958c.096-.813-.381-1.473 3.635-1.473 0 0 91.525 1.54 91.908 1.588.191.038.382.076.573.152a.677.677 0 0 1 .383.201c.096.029.096.067.192.115 0 .124 1.051 5.825 1.051 5.872v.125a.416.416 0 0 1 0 .468v.067c-.095.038-.095.067-.095.086-.096.039-.192.067-.192.086a3.03 3.03 0 0 1-.286.077c-.192.029-.287.048-.478.067ZM384.357 342.846c.095-.509-.341-.915-1.495-.915l-20.129.017c-1.153 0-1.61.384-1.707.898l-.954 3.729c-.095.509.205.953 1.359.953l20.001-.016c1.282 0 1.873-.423 1.969-.931l.956-3.735ZM400.889 342.966c.099-.529-.243-.951-.716-.951H389.92c-.473 0-.973.422-1.072.951l-.98 3.831c-.098.522.242.95.716.95h10.2c.526 0 1.026-.428 1.124-.95l.981-3.831ZM535.146 344.301c-.097-.524.244-.94.77-.93l10.2.196c.473.009.972.441 1.07.966l1.296 3.85c.098.524-.244.94-.717.931l-10.253-.197c-.473-.009-.973-.441-1.071-.966l-1.295-3.85ZM551.469 344.218c-.089-.478.222-.857.701-.848l9.295.179c.431.008.886.402.976.88l1.18 3.509c.089.478-.222.857-.653.848l-9.343-.179c-.431-.009-.887-.402-.976-.88l-1.18-3.509ZM568.22 344.306c-.098-.525.242-.946.716-.937l26.649.195c.474.009.974.447 1.072.971l1.557 3.85c.098.525-.191.942-.717.931l-26.597-.194c-.525-.01-1.026-.442-1.125-.972l-1.555-3.844ZM417.069 342.966c.099-.529-.242-.951-.715-.951h-10.253c-.473 0-.973.422-1.072.951l-.981 3.831c-.097.522.243.95.716.95h10.2c.526 0 1.027-.428 1.125-.95l.98-3.831ZM518.984 343.989c-.098-.525.244-.941.77-.931l10.2.196c.473.01.972.442 1.07.966l.928 3.849c.098.524-.19.947-.715.937l-10.2-.196c-.526-.01-.974-.447-1.072-.972l-.981-3.849ZM433.796 342.794c.099-.528-.233-.95-.697-.95h-10.036c-.464 0-.955.422-1.054.95l-.717 3.831c-.098.523.233.951.697.951h10.037c.463 0 .955-.428 1.053-.951l.717-3.831ZM502.286 343.496c-.098-.524.234-.94.698-.931l10.036.193c.464.008.955.44 1.053.965l.718 3.85c.098.525-.234.941-.698.932l-10.037-.193c-.463-.009-.953-.441-1.051-.965l-.719-3.851ZM449.355 342.966c.09-.529-.25-.951-.714-.951h-9.985c-.514 0-.946.422-1.036.951l-.65 3.831c-.088.522.2.95.714.95h9.985c.464 0 .948-.428 1.037-.95l.649-3.831ZM486.471 343.358c-.089-.524.25-.946.714-.937l9.985.192c.515.01.948.446 1.036.971l.651 3.849c.088.524-.2.941-.715.931l-9.985-.192c-.464-.009-.947-.441-1.036-.965l-.65-3.849ZM464.883 342.947c.062-.528-.249-.951-.763-.951h-9.986c-.463 0-.925.423-.987.951l-.452 3.831c-.062.523.3.951.763.951h9.986c.514 0 .925-.428.987-.951l.452-3.831ZM470.314 343.026c-.062-.523.3-.945.763-.936l10.037.193c.463.009.925.446.986.97l.453 3.845c.061.524-.3.939-.764.931l-10.036-.193c-.464-.009-.925-.441-.987-.964l-.452-3.846Z" fill="#2C2C2C"/><path fill-rule="evenodd" clip-rule="evenodd" d="m451.241 338.74-65.413-.315 3.059-10.016 3.329-.003.63-2.699 11.067.091.63 2.6 2.969-.002.63-2.529 11.067.1.63 2.42 3.599-.002.63-2.358 10.887.109.54 2.24 2.609-.001.81-2.124 10.617-.026.361 1.881 2.249-.029-.9 10.663Z" fill="#000"/><path fill-rule="evenodd" clip-rule="evenodd" d="M404.013 327.156c.093-.497-.228-.894-.674-.894l-9.645.007c-.445 0-.916.398-1.009.895l-.922 3.605c-.092.492.228.894.673.894l9.596-.007c.495 0 .966-.403 1.058-.895l.923-3.605ZM419.237 327.146c.093-.497-.229-.894-.674-.894l-9.646.007c-.445 0-.915.398-1.008.895l-.923 3.605c-.092.491.229.894.674.894l9.596-.007c.495 0 .966-.403 1.058-.895l.923-3.605ZM434.973 326.975c.093-.497-.22-.894-.656-.894l-9.443.007c-.436 0-.898.398-.991.895l-.675 3.605c-.092.491.22.894.656.894l9.442-.007c.436 0 .899-.403.991-.895l.676-3.605ZM449.152 327.088c.093-.497-.195-.894-.603-.894l-8.837.006c-.408 0-.845.398-.938.895l-.675 3.605c-.093.491.195.894.603.894l8.837-.006c.408-.001.846-.404.938-.896l.675-3.604Z" fill="#2C2C2C"/><path fill-rule="evenodd" clip-rule="evenodd" d="m529.392 340.006 64.603-.324-3.869-10.017-1.979-.002-.63-2.699-11.067.091-.63 2.6-2.969-.002-.63-2.529-11.067.1-.63 2.42-3.599-.002-.63-2.358-10.887.109-.541 2.24-2.608-.001-.81-2.124-10.618-.026-.36 1.881-3.058-.029 1.979 10.672Z" fill="#000"/><path fill-rule="evenodd" clip-rule="evenodd" d="M576.348 328.412c-.093-.497.229-.895.674-.894l9.646.006c.445.001.915.399 1.008.896l.923 3.604c.092.492-.229.895-.674.894l-9.596-.006c-.495-.001-.966-.404-1.058-.896l-.923-3.604ZM561.124 328.403c-.093-.497.228-.894.673-.894l9.646.007c.445 0 .915.398 1.009.895l.922 3.605c.092.492-.228.894-.673.894l-9.597-.007c-.494 0-.965-.403-1.058-.895l-.922-3.605ZM545.388 328.231c-.093-.497.22-.895.655-.894l9.443.006c.436 0 .898.398.991.895l.675 3.605c.093.492-.22.894-.655.894l-9.443-.007c-.436 0-.899-.403-.991-.895l-.675-3.604ZM531.21 328.345c-.093-.497.195-.894.603-.894l8.837.006c.408.001.845.398.938.895l.676 3.605c.092.492-.195.894-.603.894l-8.838-.006c-.407 0-.846-.403-.938-.895l-.675-3.605Z" fill="#2C2C2C"/><path fill-rule="evenodd" clip-rule="evenodd" d="m690.735 402.648 73.494-.155-36.467-56.407-2.057-.001-.655-2.806-11.5.095-.655 2.702-3.085-.002-.655-2.628-11.501.104-.654 2.515-3.741-.003-.654-2.45-11.314.114-.561 2.328-2.711-.002-.842-2.207-11.033-.027-.375 1.954-3.178-.03 28.144 56.906Z" fill="#000"/><path fill-rule="evenodd" clip-rule="evenodd" d="M713.674 344.79c-.221-.518.013-.932.476-.932l10.024.007c.462 0 1.051.415 1.272.933l1.86 3.759c.219.513-.013.933-.476.933l-9.972-.007c-.514-.001-1.105-.421-1.323-.934l-1.861-3.759ZM719.519 354.759c-.255-.525-.044-.944.424-.944l10.142.007c.468.001 1.089.421 1.345.945l2.114 3.803c.253.519.044.944-.424.944l-10.09-.007c-.52-.001-1.143-.426-1.396-.945l-2.115-3.803ZM726.221 364.954c-.259-.531-.045-.956.429-.955l10.276.007c.475 0 1.104.425 1.363.957l2.142 3.854c.257.525.045.956-.429.955l-10.224-.007c-.527 0-1.158-.431-1.415-.957l-2.142-3.854ZM732.676 376.077c-.261-.535-.045-.962.433-.962l10.349.007c.478 0 1.111.429 1.372.964l2.158 3.881c.258.53.045.963-.432.963l-10.297-.007c-.531-.001-1.167-.435-1.425-.964l-2.158-3.882ZM740.922 388.918c-.268-.549-.047-.987.443-.986l10.603.007c.489 0 1.138.439 1.405.987l2.211 3.977c.265.542.046.986-.443.986l-10.549-.008c-.544 0-1.195-.445-1.46-.987l-2.21-3.976ZM697.854 344.778c-.221-.518.013-.932.476-.932l10.023.007c.463 0 1.051.415 1.272.933l1.861 3.759c.219.513-.013.933-.476.933l-9.972-.007c-.515-.001-1.105-.421-1.324-.934l-1.86-3.759ZM703.512 354.748c-.256-.524-.045-.943.424-.943l10.141.007c.468.001 1.089.42 1.345.945l2.114 3.803c.253.519.045.944-.424.943l-10.09-.007c-.52 0-1.143-.425-1.396-.944l-2.114-3.804ZM709.997 364.942c-.259-.531-.045-.956.43-.956l10.276.008c.474 0 1.103.425 1.362.957l2.143 3.853c.256.526.044.956-.43.956l-10.224-.007c-.527 0-1.158-.431-1.414-.957l-2.143-3.854ZM716.344 376.065c-.261-.535-.045-.963.433-.962l10.349.007c.478 0 1.111.428 1.372.964l2.158 3.881c.258.529.045.963-.433.962l-10.296-.007c-.531 0-1.167-.434-1.425-.963l-2.158-3.882ZM724.186 388.905c-.267-.548-.046-.986.443-.986l10.603.007c.49.001 1.139.44 1.406.988l2.211 3.976c.264.543.046.987-.444.986l-10.548-.007c-.544 0-1.196-.445-1.46-.987l-2.211-3.977ZM681.453 344.599c-.221-.518.005-.932.458-.932l9.813.007c.452 0 1.032.415 1.253.933l1.604 3.759c.219.513-.005.933-.458.932l-9.813-.006c-.453-.001-1.034-.421-1.253-.934l-1.604-3.759ZM686.913 354.566c-.256-.525-.053-.944.405-.944l9.929.007c.458.001 1.07.42 1.326.945l1.854 3.803c.253.519.053.943-.405.943l-9.929-.007c-.458 0-1.073-.425-1.326-.944l-1.854-3.803ZM693.184 364.757c-.259-.531-.053-.956.411-.955l10.06.006c.464.001 1.084.426 1.344.957l1.879 3.854c.256.526.053.956-.411.956l-10.06-.007c-.464 0-1.087-.431-1.344-.957l-1.879-3.854ZM699.406 375.88c-.261-.535-.054-.963.414-.962l10.132.007c.467 0 1.092.428 1.353.964l1.892 3.881c.258.529.054.963-.414.962l-10.131-.007c-.468 0-1.095-.434-1.353-.964l-1.893-3.881ZM706.835 388.714c-.267-.548-.055-.986.424-.986l10.38.007c.479.001 1.119.439 1.386.988l1.939 3.976c.265.542.055.986-.424.986l-10.38-.007c-.479-.001-1.121-.445-1.386-.988l-1.939-3.976ZM666.757 344.72c-.221-.518-.021-.933.403-.932l9.184.006c.424 0 .977.415 1.199.934l1.603 3.758c.219.513.021.933-.403.933l-9.183-.007c-.424 0-.98-.42-1.199-.933l-1.604-3.759ZM672.051 354.688c-.256-.524-.079-.943.35-.943l9.292.006c.429.001 1.014.42 1.27.945l1.855 3.803c.253.519.079.944-.35.943l-9.292-.006c-.429 0-1.017-.426-1.27-.945l-1.855-3.803ZM678.125 364.882c-.259-.531-.08-.956.355-.956l9.415.007c.434 0 1.028.425 1.287.957l1.879 3.853c.257.526.08.956-.354.956l-9.415-.006c-.435-.001-1.031-.432-1.288-.957l-1.879-3.854ZM684.232 376.003c-.261-.535-.08-.963.357-.963l9.483.007c.437 0 1.035.428 1.296.964l1.893 3.881c.258.529.08.963-.357.962l-9.483-.006c-.437-.001-1.038-.435-1.296-.964l-1.893-3.881ZM691.294 388.843c-.268-.548-.083-.986.365-.986l9.715.007c.448 0 1.061.439 1.328.987l1.939 3.976c.264.543.082.987-.366.986l-9.714-.006c-.449-.001-1.064-.445-1.329-.988l-1.938-3.976Z" fill="#2C2C2C"/><path fill-rule="evenodd" clip-rule="evenodd" d="m602.183 339.906 50.132-.278-5.286-8.253-2.907-.002-.617-2.778-10.837.089-.617 2.159-3.524-.003-.617-2.103-10.66.097-.53 1.998-2.554-.002-.793-1.894-10.397-.023-.353 2.198-3.964-.027 3.524 8.822Z" fill="#000"/><path fill-rule="evenodd" clip-rule="evenodd" d="M632.639 329.737c-.091-.443.224-.798.66-.797l9.445.006c.436.001.896.355.987.799l.904 3.215c.09.438-.224.797-.66.797l-9.396-.006c-.485-.001-.946-.36-1.036-.799l-.904-3.215ZM617.231 329.581c-.091-.444.215-.798.642-.798l9.247.007c.426 0 .879.355.97.798l.661 3.215c.09.439-.215.798-.642.797l-9.246-.006c-.427 0-.881-.36-.971-.798l-.661-3.215ZM603.347 329.683c-.091-.443.191-.798.591-.797l8.653.006c.4 0 .828.355.919.798l.661 3.215c.09.439-.191.798-.59.797l-8.654-.006c-.399 0-.828-.359-.919-.798l-.661-3.215Z" fill="#2C2C2C"/><path fill-rule="evenodd" clip-rule="evenodd" d="m611.619 359.338 50.504-.281-8.447-12.818-2.934-.002-.623-2.802-10.936.089-.623 2.178-3.556-.002-.623-2.122-10.759.097-.534 2.017-2.578-.002-.8-1.912-10.492-.023-.356 2.218-4.002-.027 6.759 13.392Z" fill="#000"/><path fill-rule="evenodd" clip-rule="evenodd" d="M639.157 344.585c-.092-.447.225-.805.665-.804l9.532.006c.44.001.905.359.997.806l.912 3.245c.091.443-.226.805-.666.805l-9.483-.007c-.489 0-.955-.363-1.046-.806l-.911-3.245ZM623.603 344.429a.647.647 0 0 1 .648-.805l9.332.007c.431 0 .887.358.979.806l.667 3.244a.648.648 0 0 1-.648.805l-9.331-.007c-.431 0-.888-.363-.979-.805l-.668-3.245ZM609.593 344.533c-.092-.447.193-.805.596-.804l8.733.006c.403 0 .835.358.927.805l.667 3.245c.092.443-.192.805-.595.805l-8.734-.006c-.403-.001-.836-.364-.927-.806l-.667-3.245Z" fill="#2C2C2C"/><path fill-rule="evenodd" clip-rule="evenodd" d="m613.743 365.754 52.607-.293-5.548-8.66-3.05-.002-.648-2.915-11.372.094-.647 2.264-3.698-.002-.648-2.207-11.186.102-.555 2.096-2.681-.001-.833-1.988-10.909-.025-.37 2.307-4.161-.028 3.699 9.258Z" fill="#000"/><path fill-rule="evenodd" clip-rule="evenodd" d="M645.574 355.028c-.214-.475.034-.855.505-.855l10.202.007c.471 0 1.061.381 1.275.857l1.813 3.45c.211.471-.034.856-.505.855l-10.151-.007c-.523 0-1.115-.386-1.326-.856l-1.813-3.451ZM628.88 354.862c-.214-.476.025-.856.486-.856l9.988.007c.461 0 1.042.381 1.256.857l1.551 3.45c.211.471-.025.856-.486.855l-9.988-.006c-.461-.001-1.045-.387-1.256-.857l-1.551-3.45ZM613.922 354.972c-.214-.476-.002-.856.43-.855l9.348.006c.431 0 .986.381 1.2.857l1.551 3.45c.211.47.001.856-.43.855l-9.348-.006c-.432 0-.989-.386-1.2-.857l-1.551-3.45Z" fill="#2C2C2C"/><path fill-rule="evenodd" clip-rule="evenodd" d="m627.124 402.778 57.878-.435-6.103-12.503-1.425-.001-2.848-3.771-12.409.089-.61 2.881-1.627-.038-6.103-11.275-1.832-.208-1.017-2.603-12.003.029-.508 3.063-3.357.071 3.967 8.076-11.087-.032-.408 3.331-4.577-.04 4.069 13.366Z" fill="#000"/><path fill-rule="evenodd" clip-rule="evenodd" d="M662.415 387.619c-.23-.672.034-1.209.537-1.208l10.905.007c.503.001 1.134.538 1.364 1.21l1.946 4.872c.227.664-.034 1.208-.537 1.208l-10.849-.008c-.559 0-1.193-.545-1.42-1.209l-1.946-4.872ZM644.572 387.389c-.229-.671.025-1.208.518-1.208l10.675.007c.492.001 1.114.538 1.344 1.21l1.666 4.871c.228.665-.024 1.209-.517 1.209l-10.675-.008c-.493 0-1.117-.545-1.344-1.209l-1.667-4.872ZM639.761 376.37c-.214-.624.023-1.124.481-1.123l9.923.007c.458 0 1.036.5 1.25 1.124l1.549 4.529c.211.617-.023 1.123-.481 1.123l-9.924-.007c-.458 0-1.038-.507-1.249-1.125l-1.549-4.528ZM628.586 387.549c-.23-.672-.004-1.209.458-1.209l9.99.007c.461.001 1.055.538 1.285 1.21l1.666 4.871c.227.665.004 1.209-.457 1.209l-9.991-.007c-.461 0-1.057-.545-1.285-1.21l-1.666-4.871Z" fill="#2C2C2C"/><path fill-rule="evenodd" clip-rule="evenodd" d="m522.586 339.909-65.45-.97 1.626-9.985 3.328.031.244-2.693 11.078.202 1.002 2.606 2.969.028.268-2.522 11.079.211.977 2.426 3.598.034.292-2.352 10.901.219.861 2.245 2.608.024.506-2.115 10.612.081.63 1.883 2.245-.005.626 10.652Z" fill="#000"/><path fill-rule="evenodd" clip-rule="evenodd" d="M473.707 327.854c.022-.496-.357-.896-.802-.901l-9.643-.09c-.445-.004-.858.389-.88.885l-.407 3.596c-.022.49.356.896.801.9l9.594.09a.93.93 0 0 0 .93-.885l.407-3.595ZM488.927 327.997c.022-.496-.356-.897-.801-.901l-9.643-.09c-.445-.004-.859.389-.881.885l-.406 3.595c-.022.491.356.897.801.901l9.594.089a.93.93 0 0 0 .93-.884l.406-3.595ZM504.636 327.982c.022-.496-.348-.897-.783-.901l-9.441-.088c-.436-.004-.841.389-.863.885l-.159 3.598c-.022.491.348.896.783.9l9.441.088c.436.004.841-.394.863-.885l.159-3.597ZM518.831 328.238c.022-.496-.323-.896-.731-.9l-8.836-.083c-.407-.003-.787.39-.809.886l-.16 3.598c-.022.49.323.896.731.9l8.835.082c.408.004.788-.395.81-.886l.16-3.597Z" fill="#2C2C2C"/><path fill-rule="evenodd" clip-rule="evenodd" d="m373.237 337.929-19.075-.068 3.059-10.017 3.329-.002.63-2.7 11.067.092.63 2.6 2.969-.002-2.609 10.097Z" fill="#000"/><path fill-rule="evenodd" clip-rule="evenodd" d="M372.349 326.593c.093-.497-.228-.895-.674-.894l-9.645.006c-.445.001-.916.398-1.009.895l-.922 3.605c-.093.492.228.895.673.894l9.596-.006c.495-.001.966-.404 1.058-.896l.923-3.604ZM403.308 326.41c.093-.497-.22-.895-.656-.894l-9.443.006c-.436 0-.898.398-.991.895l-.675 3.605c-.092.492.22.894.656.894l9.442-.007c.436 0 .899-.403.991-.895l.676-3.604ZM417.487 326.524c.093-.497-.195-.894-.603-.894l-8.837.006c-.408 0-.845.398-.938.895l-.675 3.605c-.093.492.195.894.602.894l8.838-.006c.408 0 .846-.404.938-.895l.675-3.605Z" fill="#2C2C2C"/><path fill-rule="evenodd" clip-rule="evenodd" d="m338.807 414.742.383.65.765.01 431.612 3.204.096-.048c2.391-1.416 3.825-3.405 3.825-6.064 0-2.572-1.338-5.805-4.494-9.812-4.591-5.748-23.432-33.387-35.195-50.114-4.304-6.121-7.747-10.779-9.086-12.385-3.06-3.577-5.451-8.464-8.798-11.831-2.391-2.314-5.165-3.921-8.99-3.911-4.591-.01-87.795-1.09-171-2.41s-166.505-2.888-171-3.089c-5.643-.249-9.468-.201-12.146 1.692-1.817 1.349-3.157 3.616-3.922 7.451-1.148 5.757-6.216 29.628-9.946 48.086-1.912 9.21-3.539 17.072-4.208 20.658-.574 3.481-.669 6.494-.382 8.999.478 5.767 2.486 8.914 2.486 8.914Zm2.104-2.171c-.574-1.081-1.53-3.472-1.912-7.001a31.494 31.494 0 0 1 .382-8.272c.573-3.577 2.104-11.439 3.921-20.639 3.634-18.487 8.512-42.415 9.564-48.173.669-3.184 1.53-5.126 3.061-6.245 2.391-1.721 5.929-1.597 10.902-1.415 5.164.191 112.278 1.262 205.334 2.343 70.389.822 132.841 1.683 136.762 1.683 3.73 0 6.407 1.559 8.607 3.806 3.443 3.367 5.834 8.244 8.799 11.821 1.435 1.597 4.781 6.255 8.989 12.366 11.764 16.775 30.509 44.491 35.1 50.267 3.06 3.836 4.399 6.915 4.303 9.373 0 2.372-1.243 4.122-3.347 5.384l-430.465-5.298Z" fill="#352B23"/><path fill-rule="evenodd" clip-rule="evenodd" d="m118.286 366.907 197.905-5.035-44.289 150.573L.508 506.338l117.778-139.431Z" fill="#726E6A" fill-opacity=".8"/><path fill-rule="evenodd" clip-rule="evenodd" d="M24.584 21.945S85.554 402.046 95.03 444.23c0 0 74.265 7.819 186.761 6.705 0 0 7.379.331 13.15-15.854 5.77-16.186 47.322-152.054 47.322-152.054l-2.308-266.73-96.461-.76s.867-3.283-.44-3.415c-60.947-6.09-138.157-5.018-194.056 1.223-1.65.144-1.2 3.957-1.2 3.957s-18.973 2.813-23.214 4.644Z" fill="#B1A8A2"/><path fill-rule="evenodd" clip-rule="evenodd" d="M288.531 68.497v19.637l48.514-28.31.422-13.734-48.936 22.407Z" fill="#726E6A"/><path fill-rule="evenodd" clip-rule="evenodd" d="m278.555 284.122 6.829 184.256 67.717-209.134-7.844-83.512-66.702 108.39Z" fill="#9F938C"/><path fill-rule="evenodd" clip-rule="evenodd" d="M24.584 21.946S85.554 402.047 95.03 444.23c0 0 74.265 7.819 186.761 6.705l11.367-3.326C282.99 304.061 277.22 160.007 273.094 15.772l-29.6-.235s.867-3.283-.44-3.415c-60.947-6.09-138.157-5.018-194.056 1.223-1.65.144-1.2 3.957-1.2 3.957s-18.973 2.813-23.214 4.644Z" fill="#726E6A"/><path fill-rule="evenodd" clip-rule="evenodd" d="m24.505 21.76-.144.06.024.157s27.058 170.54 47.803 295.861c10.234 61.814 18.939 112.629 22.053 126.568l.126.56.579.066s34.997 3.723 93.347 5.71c26.666.904 58.206 1.44 93.505 1.103h.126l12.204-3.56-.054-.735c-5.127-71.819-9.126-143.759-12.421-215.789-3.283-71.928-5.855-143.946-8-216.006l-.017-.543-.543-.005-28.955-.187c.108-.609.223-1.518.096-2.193-.132-.693-.5-1.156-1.126-1.217-29.938-2.951-63.79-4.174-97.112-3.897-34.564.283-68.561 2.169-97.023 5.385-.566.054-.933.44-1.162 1-.386.964-.313 2.44-.271 3.006-1.458.217-9.734 1.494-16.131 2.825-3.024.626-5.627 1.277-6.904 1.831Zm.308.313c1.307-.53 3.807-1.132 6.686-1.722 7.03-1.446 16.336-2.807 16.336-2.807l.229-.037-.03-.228s-.169-1.482.108-2.603c.139-.56.374-1.042.874-1.084h.006c28.461-3.138 62.44-4.927 96.979-5.114 33.293-.175 67.103 1.133 96.998 4.162.121.012.151.127.187.247.066.223.078.494.066.777-.024.844-.265 1.741-.265 1.741l-.168.65.668.007 29.058.265c1.982 71.891 4.349 143.747 7.505 215.506 3.163 71.801 7.115 143.512 12.138 215.108l-10.535 3.078c-35.22.362-66.687-.156-93.299-1.036-53.948-1.771-87.915-5.023-92.668-5.499-3.247-14.686-11.939-64.928-22.19-125.869C52.791 194.571 25.758 27.922 24.812 22.073Z" fill="#352B23"/><path fill-rule="evenodd" clip-rule="evenodd" d="M27.908 24.114S89.86 400.568 99.005 441.286c0 0 73.755 6.21 182.344 5.134 0 0-20.211-283.803-24.194-423.033l-26.124-3.343s.844-3.169-.424-3.297c-58.829-5.884-125.177-6.96-179.134-.936-1.587.14-1.156 3.826-1.156 3.826s-18.31 2.71-22.409 4.477Z" fill="#91837B"/><path fill-rule="evenodd" clip-rule="evenodd" d="m53.688 42.096 25.37 193.14 166.644 3.042-12.289-195.856-179.726-.326Z" fill="#9F938C"/><path fill-rule="evenodd" clip-rule="evenodd" d="M53.688 41.898h-.229l.024.229 24.944 193.82.62.013s31.232.644 66.651 1.337c46.4.903 99.986 1.903 99.986 1.903l1 .018-.06-1s-3.103-48.959-6.247-97.919c-3.144-48.96-6.331-97.913-6.331-97.913l-.036-.603h-.596l-179.726.115Zm.235.41 178.888.752c.344 5.71 3.114 51.526 5.927 97.341 2.753 44.882 5.542 89.758 5.988 96.938-7.529-.133-56.302-1.006-98.991-1.729-32.516-.548-61.496-1.012-66.043-1.084L53.923 42.307Z" fill="#352B23"/><path fill-rule="evenodd" clip-rule="evenodd" d="m64.175 46.43 2.775 21.217 157.685 2.877.291-23.803-160.751-.29Z" fill="#B1A8A2"/><path fill-rule="evenodd" clip-rule="evenodd" d="M64.175 46.253h-.204l.021.205 2.694 21.48.259.006s39.416.937 78.837 1.805c16.777.366 33.56.716 47.303.991 18.534.372 31.534.609 31.534.609l.83.01.011-.824.269-24.605h-.803s-30.127.01-64.301.075c-44.755.087-96.45.248-96.45.248Zm.21.367c3.605.021 53.139.355 96.24.587 30.903.172 58.499.285 63.493.307l-.291 22.175c-3.136-.059-14.913-.274-30.715-.533-13.738-.226-30.526-.485-47.308-.733-37.579-.544-75.163-1.023-78.595-1.072L64.386 46.62Z" fill="#352B23"/><path fill-rule="evenodd" clip-rule="evenodd" d="m198.109 77.72.852 8.573 23.058-.189.101-8.274-24.011-.11Z" fill="#B1A8A2"/><path fill-rule="evenodd" clip-rule="evenodd" d="m198.111 77.567-.171-.001.017.17.673 8.924.333-.002s7.414.12 13.838.15c4.903.022 9.224-.015 9.224-.015l.676-.006.007-.674.034-8.896-.618-.002s-6.004.06-12.007.148c-6.006.088-12.006.204-12.006.204Zm.172.311c1.028.028 6.428.18 11.831.31 4.844.115 9.691.213 11.379.245-.002 0-.148 6.987-.148 6.987-1.397.015-4.806.052-8.553.131-5.628.118-12.014.317-13.511.365l-.998-8.038Z" fill="#352B23"/><path fill-rule="evenodd" clip-rule="evenodd" d="m60.513 92.558 6.667 48.717 172.567 3.298-3.103-50.198-176.131-1.817Z" fill="#9F938C"/><path fill-rule="evenodd" clip-rule="evenodd" d="m60.515 92.407-.176-.002.022.176 6.53 49.018.283.006s55.489 1.256 103.535 2.268c36.683.769 69.026 1.389 69.026 1.389l.747.013-.045-.745-3.201-50.777-.586-.005s-44.033-.37-88.066-.705c-44.034-.335-88.07-.636-88.07-.636Zm.174.307c3.073.043 45.479.625 87.886 1.178 41.066.534 82.133 1.04 87.478 1.105l2.962 48.874c-5.034-.096-34.856-.661-68.281-1.236-46.061-.793-98.962-1.618-103.266-1.686L60.69 92.714Z" fill="#352B23"/><path fill-rule="evenodd" clip-rule="evenodd" d="m73.193 190.812 6.246 44.003 166.43 3.181-2.809-45.433-169.867-1.751Z" fill="#91837B"/><path fill-rule="evenodd" clip-rule="evenodd" d="m73.195 190.666-.172-.002.026.17 6.12 44.287.264.006s53.515 1.217 99.853 2.192c35.377.746 66.57 1.342 66.57 1.342l.72.015-.043-.719-2.899-45.996-.567-.006s-42.468-.355-84.935-.679c-42.469-.321-84.937-.61-84.937-.61Zm.17.296c2.97.042 43.864.605 84.758 1.138 39.596.517 79.191 1.004 84.362 1.067l2.677 44.152c-4.855-.092-33.616-.636-65.853-1.188a68593.29 68593.29 0 0 0-99.6-1.622l-6.344-43.547Z" fill="#352B23"/><path fill-rule="evenodd" clip-rule="evenodd" d="m105.463 243.29 2.7 28.099 112.562 2.153-1.721-27.849-113.541-2.403Z" fill="#726E6A"/><path fill-rule="evenodd" clip-rule="evenodd" d="m105.467 243.086-.229-.006.022.228 2.52 28.495.376.008s36.19.967 67.53 1.692c23.925.553 45.023.955 45.023.955l.994.02-.061-.994-1.84-28.623-.78-.016s-28.387-.486-56.777-.927c-28.389-.439-56.778-.832-56.778-.832Zm.223.414c2.752.078 29.641.841 56.532 1.563 25.617.687 51.234 1.337 55.983 1.457l1.546 26.085c-4.437-.084-23.158-.433-44.034-.747-29.489-.446-63.275-.841-67.173-.886L105.69 243.5Z" fill="#352B23"/><path fill-rule="evenodd" clip-rule="evenodd" d="M71.542 274.004s6.445 6.963 33.425 12.414c7.216 1.458 15.908 2.819 26.371 3.862 7.824.783 16.643 1.355 26.552 1.734 8.999.241 17.655.241 25.865-.138 14.384-.663 27.407-2.247 38.575-4.283 21.191-3.855 35.726-9.571 40.442-14.872a.862.862 0 0 0-.042-1.211.857.857 0 0 0-1.211.042c-4.788 4.909-19.161 9.457-39.779 12.409-11.09 1.59-23.974 2.632-38.172 3.072-8.114.253-16.661.385-25.552.157a479.26 479.26 0 0 1-26.329-1.091c-10.342-.723-18.968-1.704-26.142-2.861-26.22-4.223-32.787-10.433-32.787-10.433a.85.85 0 0 0-1.204-.012.857.857 0 0 0-.012 1.211Z" fill="#E9E6EC"/><path fill-rule="evenodd" clip-rule="evenodd" d="M96.667 313.669s13.589 41.918 27.485 70.464c3.235 6.656 6.403 12.656 9.614 17.101 1.464 2.024 2.952 3.705 4.367 5.042 2.151 2.018 4.162 3.222 5.933 3.524a.667.667 0 0 0 .325-1.295c-1.21-.416-2.397-1.464-3.71-2.916-1.41-1.56-2.837-3.644-4.427-6.072-2.934-4.487-6.271-10.192-9.536-16.655-14.233-28.232-28.792-69.62-28.792-69.62a.659.659 0 0 0-.844-.416.664.664 0 0 0-.415.843ZM238.41 301.555s-2.829 34.067-7.324 64.884c-1.595 10.933-3.575 21.42-5.365 29.903-.582 2.769-1.09 5.321-1.641 7.609-.447 1.855-.861 3.534-1.337 4.997a.55.55 0 0 0 .305.717.549.549 0 0 0 .718-.304c1.118-2.329 2.28-5.234 3.338-8.639a67.687 67.687 0 0 0 1.059-3.811c1.393-5.66 2.513-12.302 3.596-19.356 5.086-33.153 7.753-75.919 7.753-75.919a.55.55 0 0 0-.512-.589.55.55 0 0 0-.59.508ZM137.99 437.739s12.854-.148 29.234-.152c6.159-.005 12.825.002 19.484.094 6.66.086 13.319.262 19.484.437 16.368.448 29.216.962 29.216.962a1.64 1.64 0 0 0 .049-3.276s-12.861.161-29.235.164c-6.165-.001-12.824-.008-19.49-.1-6.659-.097-13.319-.274-19.478-.449a2875.218 2875.218 0 0 1-29.223-.956 1.636 1.636 0 0 0-1.657 1.615 1.64 1.64 0 0 0 1.616 1.661ZM146.559 432.301s10.613-.179 24.131-.222c5.092-.02 10.588-.029 16.084.047 5.503.07 10.999.23 16.085.39 13.512.409 24.119.892 24.119.892a1.64 1.64 0 0 0 .042-3.276s-10.613.191-24.131.234c-5.092.014-10.588.023-16.084-.053-5.502-.082-10.999-.242-16.085-.402-13.512-.415-24.118-.886-24.118-.886a1.639 1.639 0 0 0-.043 3.276Z" fill="#352B23"/><path fill-rule="evenodd" clip-rule="evenodd" d="m27.832 23.934-.14.058.024.15s27.437 168.512 48.369 292.269c10.36 61.266 19.135 111.56 22.153 125.049l.127.564.576.047s34.543 2.948 91.163 4.471c26.124.698 56.951 1.093 91.256.762l.941-.012-.069-.936s-9.134-127.636-16.437-253.702c-3.588-61.905-6.751-123.433-8.111-169.285l-.017-.453-.448-.058-25.589-3.239c.11-.581.238-1.511.11-2.192-.128-.663-.482-1.104-1.081-1.168-28.845-2.844-59.492-4.53-89.605-4.792-31.333-.273-62.08.995-89.605 4.105-.54.053-.9.43-1.116.966-.378.93-.308 2.354-.267 2.901-1.408.21-9.396 1.442-15.57 2.727-2.92.61-5.431 1.233-6.664 1.768Zm.296.302c1.268-.512 3.675-1.093 6.454-1.663 6.785-1.396 15.769-2.71 15.769-2.71l.22-.034-.023-.221s-.168-1.43.099-2.512c.134-.54.36-1.006.849-1.047 27.513-3.035 58.242-4.21 89.552-3.849 30.084.343 60.702 2.11 89.512 5.035.116.012.151.128.186.245.064.215.075.482.07.75-.029.82-.262 1.686-.262 1.686l-.139.54.552.076 25.67 3.32c1.268 45.811 4.244 107.164 7.71 168.883 6.721 119.787 15.222 240.992 16.053 252.807a2544.49 2544.49 0 0 1-90.256-.715c-52.317-1.349-85.772-3.908-90.494-4.28-3.157-14.262-11.913-63.98-22.286-124.356C56.479 194.66 29.082 29.963 28.128 24.236Z" fill="#352B23"/><path fill-rule="evenodd" clip-rule="evenodd" d="m24.505 21.752-.144.06.024.156s27.07 170.54 47.822 295.855c10.234 61.814 18.938 112.629 22.058 126.568l.12.548.56.06s35.004 3.729 93.348 5.717c26.66.909 58.188 1.451 93.48 1.114.272.012 3.765.054 7.825-4.801 2.018-2.403 4.204-6.066 6.198-11.649 1.897-5.313 7.65-23.498 14.511-45.557 14.053-45.165 32.787-106.551 32.787-106.551l.035-.127v-.138l-2.56-267.34-.614-.005-95.835-.633c.109-.608.229-1.53.102-2.204-.132-.687-.5-1.145-1.12-1.205-29.931-2.958-63.784-4.18-97.106-3.91-34.564.284-68.555 2.17-97.023 5.386-.56.048-.933.44-1.156.994-.392.963-.32 2.44-.277 3.005-1.452.217-9.734 1.494-16.131 2.825-3.024.633-5.627 1.277-6.904 1.832Zm.308.313c1.307-.53 3.807-1.133 6.686-1.723 7.03-1.445 16.336-2.813 16.336-2.813l.229-.03-.03-.229s-.175-1.482.102-2.602c.139-.56.38-1.048.88-1.09h.006C77.483 10.439 111.462 8.65 146 8.463c33.293-.18 67.103 1.127 97.004 4.15.121.013.157.133.193.26.067.229.079.5.073.783-.024.843-.266 1.747-.266 1.747l-.168.626.65.006 95.848.867 2.054 265.99c-.952 3.109-19.143 62.423-32.835 106.383-6.861 22.022-12.583 40.19-14.475 45.49-1.897 5.319-3.957 8.813-5.873 11.102-3.499 4.186-6.373 4.15-6.373 4.15h-.03c-35.298.367-66.807-.151-93.449-1.024-54.002-1.771-87.987-5.03-92.685-5.494-3.241-14.673-11.94-64.928-22.191-125.887C52.78 194.569 25.758 27.914 24.813 22.065Z" fill="#352B23"/><path d="M488 134.948h37.086L554 85l28.913 49.948H620L591.086 185h-74.172L488 134.948Zm94.913 0h-57.827L554 185l28.913-50.052Z" fill="#fff" fill-opacity=".07"/></svg>