<svg width="200" height="173" viewBox="0 0 200 173" fill="none" xmlns="http://www.w3.org/2000/svg">
<g clip-path="url(#clip0_330_921)">
<path opacity="0.11" d="M49.9857 0.643246L149.273 0.643245L198.917 86.6289L149.273 172.615L49.9857 172.615L0.34183 86.6289L49.9857 0.643246Z" fill="#FF267E"/>
<path opacity="0.11" d="M61.2257 20.1116L138.034 20.1116L176.438 86.6293L138.034 153.147L61.2257 153.147L22.8217 86.6293L61.2257 20.1116Z" fill="#FF267E"/>
<path opacity="0.11" d="M70.2025 35.6595L129.055 35.6595L158.482 86.6276L129.055 137.596L70.2025 137.596L40.776 86.6276L70.2025 35.6595Z" fill="#FF267E"/>
<path opacity="0.11" d="M81.9319 55.9751L117.325 55.9751L135.022 86.6268L117.325 117.278L81.9319 117.278L64.2352 86.6268L81.9319 55.9751Z" fill="#FF267E"/>
<path d="M74.597 42.6054L126.093 42.6054L151.841 87.2024L126.093 131.799L74.597 131.799L48.8489 87.2024L74.597 42.6054Z" fill="#FF8AB9" stroke="#FF267E" stroke-width="6"/>
<path d="M79.8628 70.3826C86.6562 63.3238 86.4411 52.0944 79.3823 45.3009C72.3235 38.5075 61.094 38.7226 54.3006 45.7814C47.5072 52.8402 47.7223 64.0697 54.7811 70.8631C61.8399 77.6565 73.0694 77.4414 79.8628 70.3826Z" fill="#FFD300"/>
<path d="M108.28 55.1071C112.115 51.1218 111.994 44.7818 108.009 40.9463C104.023 37.1109 97.6835 37.2323 93.848 41.2176C90.0126 45.2029 90.134 51.5429 94.1193 55.3783C98.1046 59.2138 104.445 59.0923 108.28 55.1071Z" fill="#FFD300"/>
<path fill-rule="evenodd" clip-rule="evenodd" d="M58.1591 41.5891C60.9872 39.9735 64.2135 39.1241 67.5135 39.1548C70.782 38.9891 74.0658 39.746 76.9536 41.292C79.6193 42.7184 81.9078 44.8486 83.5794 47.3426C85.1953 49.7512 86.2148 52.7176 86.5245 55.3618C87.0434 59.7911 85.8918 64.4972 83.3796 68.1853C80.9536 71.7483 77.4045 74.4452 73.1078 75.7294C69.2183 76.8939 64.9449 76.7698 61.1213 75.3598C55.3389 73.2289 50.7516 68.1195 49.3166 62.0698C48.0683 56.8048 49.2328 51.0231 52.458 46.6656C53.9811 44.6081 55.9332 42.8699 58.1591 41.5891ZM61.5155 41.6616L62.7718 43.8413C62.9007 44.0644 62.8233 44.3505 62.601 44.4789L58.6563 46.752C58.434 46.8803 58.1484 46.8038 58.0195 46.5807L56.7899 44.4471C56.3449 44.8171 55.9181 45.2112 55.5124 45.6287C53.0866 48.1222 51.5083 51.378 50.9655 54.8141L53.2629 54.8146C53.5201 54.8139 53.7292 55.0229 53.7292 55.2806L53.7293 59.8326C53.7293 60.0902 53.5202 60.2993 53.2626 60.2993L50.9937 60.2996C51.1166 61.0166 51.2881 61.7282 51.5109 62.4295C52.4935 65.5336 54.4252 68.3194 56.9565 70.3774L58.0201 68.5323C58.1481 68.3096 58.4338 68.2331 58.6569 68.3619L62.6005 70.635C62.8236 70.7638 62.9002 71.0494 62.7722 71.2721L61.7282 73.0821C65.4174 74.4069 69.5607 74.3635 73.2389 72.9805L72.2534 71.2718C72.1246 71.0487 72.2016 70.7638 72.4247 70.635L76.3689 68.3611C76.5912 68.2327 76.8769 68.3092 77.0057 68.5324L77.9715 70.2071C79.7805 68.6895 81.2587 66.784 82.3049 64.5577C82.9394 63.2072 83.3733 61.7667 83.6135 60.299L81.7628 60.2992C81.5052 60.2992 81.2961 60.0901 81.2961 59.8325L81.296 55.2805C81.2964 55.0236 81.5055 54.8145 81.7627 54.8137L83.6276 54.8139C83.5445 54.2927 83.4362 53.7785 83.3048 53.2745C82.4365 49.9502 80.5315 46.9626 78.0526 44.7655L77.0064 46.5811C76.8776 46.8042 76.5919 46.8808 76.3688 46.752L72.4252 44.4789C72.2021 44.3501 72.1256 44.0644 72.2535 43.8418L73.4069 41.8403C72.4623 41.4382 71.4808 41.1199 70.4719 40.894C69.4985 40.6755 68.5094 40.5362 67.5123 40.4802C67.4751 40.4812 67.4388 40.4817 67.4024 40.4822C65.3894 40.5223 63.3904 40.9284 61.5155 41.6616ZM61.3077 46.9717C63.1332 45.9253 65.2271 45.3438 67.3109 45.3049C67.3995 45.3033 67.5036 45.3025 67.5036 45.3025C71.3158 45.3522 75.1021 47.2354 77.3801 50.3332C79.6727 53.4528 80.4363 57.688 79.2643 61.386C77.5611 66.7554 71.9859 70.6965 66.0453 69.9849C62.3585 69.5437 58.9125 67.4156 56.9257 64.1852C55.9932 62.6691 55.3839 60.9491 55.1853 59.1806C54.6578 54.475 56.9926 49.531 61.1756 47.0491C61.2196 47.0226 61.2641 46.997 61.3077 46.9717ZM68.8803 68.7415L68.8802 69.7085C70.0245 69.5825 71.1495 69.2887 72.2108 68.8193L71.7352 67.9955C70.8243 68.3651 69.8628 68.6173 68.8803 68.7415ZM76.3262 64.5138C76.0234 64.9118 75.6927 65.2892 75.3333 65.6432C74.9787 65.9924 74.6009 66.3162 74.2025 66.612L74.644 67.3768C75.5575 66.6812 76.3756 65.8596 77.0666 64.9411L76.3262 64.5138ZM67.3334 47.0727C62.251 47.1213 57.3619 51.1977 56.7469 56.5382C56.6264 57.5822 56.6548 58.6415 56.8304 59.6774C57.172 61.6899 58.1154 63.6245 59.5102 65.1087C62.7706 68.5771 68.3253 69.7163 72.7027 67.2537C76.2132 65.2797 78.4734 61.295 78.226 57.1456C78.0858 54.8098 77.1585 52.5297 75.6087 50.7771C73.5887 48.4918 70.6024 47.0814 67.5324 47.072C67.4655 47.0718 67.3998 47.072 67.3334 47.0727ZM63.198 67.9919L62.7295 68.8046C63.788 69.2509 64.9101 69.5495 66.0514 69.6893L66.0518 68.747C65.0851 68.626 64.1254 68.377 63.198 67.9919ZM78.5134 59.1818C78.3795 60.169 78.1169 61.1387 77.7347 62.06L78.4946 62.4987C78.7976 61.8042 79.0334 61.0795 79.1927 60.3322C79.2748 59.9517 79.3354 59.5675 79.3766 59.1815L78.5134 59.1818ZM71.7937 62.9365L66.9775 62.8562L70.827 56.3835L75.6434 56.4625L71.7937 62.9365ZM57.8377 64.9565C58.3303 65.6228 58.8912 66.2379 59.5097 66.7863C59.7548 67.0037 60.0085 67.2097 60.2707 67.4043L60.7473 66.5794C59.9576 65.979 59.2483 65.275 58.6413 64.4925L57.8377 64.9565ZM77.7924 53.441C77.9851 53.8979 78.1452 54.3713 78.2709 54.856C78.3979 55.3486 78.4903 55.8483 78.5477 56.353L79.3344 56.3526C79.1817 55.2292 78.8712 54.1257 78.4158 53.0811L77.7924 53.441ZM66.9775 62.8562L62.1611 62.7773L58.5267 56.18L63.3437 56.2597L66.9775 62.8562ZM70.827 56.3835L63.3437 56.2597L67.1926 49.7862L70.827 56.3835ZM74.6012 48.2328L74.2326 48.8714C75.031 49.4851 75.751 50.2001 76.366 50.9984L76.9966 50.6343C76.3227 49.7321 75.5197 48.9183 74.6012 48.2328ZM55.5581 59.182C55.5924 59.5029 55.64 59.8225 55.7026 60.1399C55.8604 60.951 56.1066 61.7434 56.4307 62.5027L57.2004 62.0584C56.8061 61.1477 56.5335 60.1808 56.402 59.182L55.5581 59.182ZM56.516 53.082C56.0663 54.1253 55.7574 55.2295 55.6049 56.3524L56.3907 56.3525C56.5115 55.3537 56.7637 54.3715 57.1429 53.4433L56.516 53.082ZM68.8798 45.9761L68.88 46.5925C69.8868 46.7345 70.8697 47.0197 71.7988 47.4286L72.1421 46.8338C71.1022 46.3993 70.0051 46.1122 68.8798 45.9761ZM60.3224 48.2187C59.9524 48.4927 59.5988 48.7895 59.2641 49.1078C58.7743 49.5738 58.326 50.0838 57.9241 50.6273L58.5519 50.9903C59.168 50.1905 59.8914 49.4775 60.6948 48.8638L60.3224 48.2187ZM62.7817 46.8214L63.1323 47.4285C64.0632 47.0226 65.0435 46.7379 66.0517 46.5946L66.051 45.9643C64.9284 46.094 63.8249 46.384 62.7817 46.8214Z" fill="#FF267E"/>
<path opacity="0.6" fill-rule="evenodd" clip-rule="evenodd" d="M90.4605 45.2237C90.8981 43.4898 91.7904 41.89 93.059 40.5962C94.2379 39.24 95.7876 38.2291 97.4988 37.6753C99.078 37.1637 100.792 37.0695 102.415 37.3577C103.983 37.6355 105.545 38.3616 106.709 39.2458C108.659 40.727 110.082 42.9744 110.585 45.3724C111.071 47.6888 110.786 50.1196 109.658 52.3085C108.638 54.2905 106.962 55.9339 104.948 56.9097C101.904 58.386 98.1359 58.2554 95.1962 56.5198C92.638 55.009 90.7941 52.347 90.2982 49.412C90.0641 48.0261 90.1197 46.592 90.4605 45.2237ZM91.7671 43.9235L93.1077 44.2564C93.245 44.2904 93.3288 44.4299 93.2949 44.5667L92.6923 46.9927C92.6584 47.1296 92.5194 47.2134 92.3821 47.1794L91.0698 46.8536C91.0468 47.1705 91.0402 47.4894 91.0509 47.8088C91.1138 49.7179 91.8008 51.5819 92.9536 53.1049L93.8285 52.1962C93.9261 52.0942 94.0884 52.0911 94.1903 52.1892L95.9912 53.9223C96.0931 54.0204 96.0962 54.1827 95.9981 54.2846L95.1344 55.1823C95.4649 55.4067 95.8117 55.6097 96.174 55.7887C97.7761 56.5818 99.6137 56.8782 101.392 56.6604L101.067 55.5371C101.027 55.4017 101.106 55.2595 101.242 55.2203L103.642 54.5256C103.778 54.4864 103.92 54.5649 103.96 54.7003L104.278 55.8024C106.207 54.8473 107.768 53.1917 108.621 51.21L107.57 50.9492C107.432 50.9153 107.349 50.7763 107.383 50.639L107.985 48.2129C108.019 48.076 108.158 47.9922 108.295 48.0262L109.326 48.2817C109.414 46.9883 109.223 45.678 108.74 44.4164C108.448 43.6512 108.043 42.9311 107.554 42.2773L106.849 43.0095C106.751 43.1114 106.589 43.1145 106.487 43.0164L104.686 41.2833C104.585 41.1854 104.582 41.023 104.679 40.921L105.389 40.1833C105.151 40.0177 104.907 39.8648 104.657 39.7249C103.012 38.8027 101.104 38.4188 99.2913 38.563L99.6113 39.6682C99.6505 39.8041 99.572 39.9462 99.4361 39.9855L97.0354 40.6801C96.8995 40.7194 96.7573 40.6409 96.718 40.5055L96.3653 39.2871C95.8466 39.5078 95.347 39.7748 94.8734 40.088C94.4164 40.3899 93.9847 40.7281 93.5829 41.1013C93.5692 41.1164 93.5555 41.1309 93.5419 41.1455C92.7913 41.9572 92.1908 42.9026 91.7671 43.9235ZM93.7887 46.0275C94.0698 44.9069 94.637 43.8571 95.4149 43.0179C95.448 42.9823 95.4874 42.9408 95.4874 42.9408C96.9585 41.4516 99.1451 40.6706 101.238 40.9489C103.345 41.2297 105.311 42.5401 106.328 44.4117C107.804 47.1299 107.24 50.836 104.697 52.9153C103.119 54.2058 100.965 54.7588 98.9302 54.3149C97.9753 54.1066 97.0629 53.6928 96.2876 53.098C94.2252 51.5151 93.1582 48.709 93.769 46.1092C93.7753 46.0817 93.7821 46.0543 93.7887 46.0275ZM105.284 51.3203L105.667 51.6885C106.053 51.1879 106.365 50.631 106.583 50.0324L106.076 49.9069C105.876 50.408 105.609 50.8843 105.284 51.3203ZM106.447 46.765C106.489 47.0363 106.512 47.3108 106.516 47.5878C106.519 47.861 106.503 48.1338 106.468 48.404L106.939 48.5205C107.011 47.8943 106.998 47.2578 106.898 46.6348L106.447 46.765ZM96.1228 43.6821C94.207 45.7113 93.9582 49.1975 95.8368 51.4741C96.204 51.9193 96.6339 52.3114 97.1105 52.6363C98.0368 53.2674 99.1613 53.6308 100.28 53.6441C102.893 53.6748 105.459 51.911 106.151 49.2416C106.707 47.1013 105.991 44.69 104.255 43.208C103.278 42.3741 102.023 41.8729 100.739 41.8187C99.0659 41.7477 97.3709 42.3921 96.1984 43.6031C96.1728 43.6295 96.1479 43.6555 96.1228 43.6821ZM102.824 53.2829L102.967 53.7777C103.547 53.5288 104.092 53.1986 104.582 52.8003L104.21 52.4414C103.794 52.7778 103.33 53.0627 102.824 53.2829ZM105.17 43.8696C105.51 44.2984 105.793 44.7715 106.012 45.2735L106.475 45.1399C106.316 44.7556 106.119 44.3864 105.884 44.0388C105.765 43.8615 105.636 43.6912 105.499 43.5279L105.17 43.8696ZM104.097 47.9575L102.232 49.8323L101.136 45.845L103.002 43.9696L104.097 47.9575ZM99.5825 54.2478C100.034 54.3066 100.491 54.3189 100.943 54.283C101.122 54.2688 101.3 54.2469 101.477 54.2173L101.332 53.7146C100.794 53.7984 100.246 53.811 99.7049 53.7532L99.5825 54.2478ZM102.624 41.969C102.879 42.0668 103.127 42.1837 103.366 42.3185C103.61 42.4558 103.842 42.6095 104.064 42.7789L104.363 42.4676C103.861 42.1003 103.306 41.803 102.719 41.5854L102.624 41.969ZM102.232 49.8323L100.366 51.7077L96.3728 50.6336L98.2383 48.7584L102.232 49.8323ZM101.136 45.845L98.2383 48.7584L97.1428 44.7709L101.136 45.845ZM99.3489 41.2486L99.4612 41.6375C100.008 41.5553 100.565 41.5427 101.115 41.6033L101.211 41.2153C100.598 41.1384 99.9699 41.1462 99.3489 41.2486ZM96.4301 52.9511C96.5701 53.0597 96.7147 53.1625 96.8641 53.2586C97.2451 53.505 97.6523 53.7093 98.0761 53.8702L98.1933 53.3965C97.6829 53.2057 97.1966 52.9454 96.7514 52.6172L96.4301 52.9511ZM94.3816 50.2495C94.6231 50.8247 94.9424 51.3673 95.3285 51.8552L95.6278 51.5444C95.2786 51.1163 94.9861 50.6426 94.7632 50.1391L94.3816 50.2495ZM96.2778 42.6528L96.5218 42.8874C96.9613 42.5432 97.4483 42.2629 97.9639 42.051L97.8592 41.6887C97.2914 41.9347 96.7601 42.2594 96.2778 42.6528ZM93.9068 46.8921C93.8744 47.1428 93.8572 47.3957 93.8557 47.6493C93.8535 48.0205 93.8846 48.392 93.9466 48.7579L94.3293 48.6478C94.2474 48.0995 94.2408 47.5418 94.3039 46.9903L93.9068 46.8921ZM94.2904 45.3871L94.6641 45.4796C94.8579 44.9568 95.1186 44.4605 95.4457 44.0071L95.1961 43.7674C94.82 44.2609 94.5146 44.8079 94.2904 45.3871Z" fill="#FF267E"/>
<path opacity="0.42" fill-rule="evenodd" clip-rule="evenodd" d="M110.641 56.8191C110.932 55.6627 111.528 54.5958 112.374 53.7329C113.16 52.8284 114.193 52.1542 115.335 51.7849C116.388 51.4437 117.531 51.3809 118.613 51.5731C119.659 51.7583 120.701 52.2426 121.477 52.8323C122.778 53.8201 123.727 55.319 124.062 56.9183C124.386 58.4631 124.196 60.0843 123.444 61.5441C122.764 62.866 121.646 63.962 120.303 64.6128C118.272 65.5974 115.76 65.5103 113.799 64.3527C112.093 63.3452 110.863 61.5698 110.532 59.6124C110.376 58.6881 110.413 57.7316 110.641 56.8191ZM111.512 55.9519L112.406 56.174C112.498 56.1966 112.554 56.2897 112.531 56.3809L112.129 57.9989C112.106 58.0902 112.014 58.1461 111.922 58.1234L111.047 57.9061C111.032 58.1175 111.027 58.3301 111.034 58.5432C111.076 59.8164 111.535 61.0595 112.303 62.0753L112.887 61.4692C112.952 61.4012 113.06 61.3991 113.128 61.4645L114.329 62.6204C114.397 62.6858 114.399 62.7941 114.334 62.862L113.758 63.4607C113.978 63.6104 114.209 63.7458 114.451 63.8651C115.52 64.3941 116.745 64.5918 117.931 64.4465L117.714 63.6973C117.688 63.607 117.74 63.5122 117.831 63.4861L119.432 63.0228C119.523 62.9966 119.617 63.0489 119.644 63.1392L119.856 63.8743C121.142 63.2373 122.183 62.1331 122.752 60.8115L122.051 60.6376C121.96 60.6149 121.904 60.5223 121.927 60.4307L122.328 58.8126C122.351 58.7214 122.443 58.6655 122.535 58.6881L123.222 58.8586C123.281 57.9959 123.154 57.1221 122.832 56.2807C122.637 55.7704 122.367 55.2901 122.041 54.854L121.571 55.3424C121.505 55.4104 121.397 55.4124 121.329 55.347L120.128 54.1912C120.06 54.1258 120.058 54.0176 120.123 53.9495L120.597 53.4575C120.438 53.3471 120.275 53.2451 120.109 53.1518C119.011 52.5368 117.739 52.2808 116.53 52.3769L116.744 53.114C116.77 53.2046 116.717 53.2994 116.627 53.3256L115.026 53.7889C114.935 53.815 114.84 53.7627 114.814 53.6724L114.579 52.8599C114.233 53.007 113.9 53.1851 113.584 53.394C113.279 53.5953 112.991 53.8209 112.723 54.0698C112.714 54.0798 112.705 54.0895 112.696 54.0993C112.195 54.6406 111.795 55.2711 111.512 55.9519ZM112.86 57.3552C113.048 56.6078 113.426 55.9077 113.945 55.348C113.967 55.3242 113.993 55.2966 113.993 55.2966C114.974 54.3034 116.433 53.7825 117.828 53.9681C119.234 54.1554 120.545 55.0293 121.223 56.2776C122.207 58.0904 121.831 60.5621 120.135 61.9488C119.083 62.8095 117.646 63.1783 116.289 62.8823C115.652 62.7433 115.044 62.4673 114.527 62.0707C113.151 61.015 112.44 59.1436 112.847 57.4097C112.851 57.3913 112.856 57.3731 112.86 57.3552ZM120.527 60.8851L120.782 61.1306C121.039 60.7967 121.248 60.4253 121.393 60.0261L121.055 59.9424C120.921 60.2766 120.744 60.5943 120.527 60.8851ZM121.302 57.847C121.33 58.0279 121.346 58.211 121.348 58.3958C121.35 58.578 121.34 58.7599 121.317 58.9401L121.63 59.0178C121.679 58.6002 121.67 58.1757 121.603 57.7602L121.302 57.847ZM114.417 55.791C113.139 57.1443 112.973 59.4693 114.226 60.9877C114.471 61.2846 114.758 61.546 115.076 61.7628C115.693 62.1837 116.443 62.426 117.189 62.4349C118.932 62.4553 120.643 61.279 121.105 59.4988C121.476 58.0713 120.998 56.4631 119.841 55.4748C119.189 54.9187 118.352 54.5843 117.496 54.5482C116.38 54.5009 115.249 54.9307 114.467 55.7383C114.45 55.7559 114.434 55.7733 114.417 55.791ZM118.886 62.194L118.982 62.524C119.368 62.358 119.732 62.1378 120.059 61.8721L119.81 61.6328C119.533 61.8571 119.223 62.0471 118.886 62.194ZM120.451 55.916C120.677 56.202 120.866 56.5175 121.012 56.8523L121.321 56.7632C121.215 56.5069 121.084 56.2607 120.927 56.0289C120.847 55.9106 120.761 55.797 120.67 55.6881L120.451 55.916ZM119.735 58.6424L118.491 59.8927L117.761 57.2335L119.005 55.9827L119.735 58.6424ZM116.724 62.8375C117.025 62.8767 117.33 62.8849 117.632 62.861C117.751 62.8515 117.87 62.8369 117.988 62.8171L117.891 62.4819C117.532 62.5378 117.167 62.5462 116.806 62.5076L116.724 62.8375ZM118.753 54.6485C118.923 54.7137 119.088 54.7916 119.248 54.8815C119.41 54.9731 119.565 55.0756 119.713 55.1886L119.913 54.981C119.578 54.736 119.208 54.5377 118.816 54.3926L118.753 54.6485ZM118.491 59.8927L117.247 61.1434L114.584 60.4271L115.828 59.1764L118.491 59.8927ZM117.761 57.2335L115.828 59.1764L115.097 56.5171L117.761 57.2335ZM116.569 54.168L116.643 54.4274C117.008 54.3726 117.38 54.3642 117.746 54.4046L117.81 54.1458C117.401 54.0945 116.983 54.0997 116.569 54.168ZM114.622 61.9727C114.715 62.0451 114.812 62.1137 114.911 62.1778C115.165 62.3421 115.437 62.4783 115.72 62.5856L115.798 62.2697C115.457 62.1425 115.133 61.9689 114.836 61.75L114.622 61.9727ZM113.256 60.171C113.417 60.5545 113.63 60.9164 113.887 61.2418L114.087 61.0345C113.854 60.749 113.659 60.4331 113.51 60.0973L113.256 60.171ZM114.52 55.1045L114.683 55.261C114.976 55.0314 115.301 54.8445 115.645 54.7032L115.575 54.4616C115.196 54.6256 114.842 54.8422 114.52 55.1045ZM112.939 57.9318C112.917 58.099 112.906 58.2676 112.905 58.4368C112.904 58.6843 112.924 58.9321 112.966 59.1762L113.221 59.1027C113.166 58.737 113.162 58.3651 113.204 57.9973L112.939 57.9318ZM113.195 56.9281L113.444 56.9897C113.573 56.6411 113.747 56.3101 113.965 56.0077L113.799 55.8479C113.548 56.177 113.344 56.5418 113.195 56.9281Z" fill="#FF267E"/>
<path d="M87.386 76.5095C83.9983 78.0352 78.3521 86.4266 76.47 89.0965C74.337 90.2409 69.4686 92.9874 67.0595 94.8183C64.0482 97.1068 62.5427 100.158 62.1663 102.828C61.8651 104.964 62.0408 113.127 62.1663 116.941C66.6832 117.45 76.5453 118.467 79.8577 118.467C83.9983 118.467 104.325 117.704 105.077 117.704C105.83 117.704 111.477 114.652 111.853 114.652C112.229 114.652 116.5 110 116.5 110C116.5 110 118 111 119.758 111.601L140.46 103.972C140.46 99.5225 144.5 100.921 144.5 100.921H147.612C148.817 100.616 149.871 99.0139 150.247 98.2511C150.498 92.1483 151 79.4849 151 77.6541C151 75.8232 147.378 73.2457 146.5 73.5L140.46 79.1798L133.309 71.9327C132.681 71.6783 131.05 71.1695 129.544 71.1695C127.662 71.1695 105.077 70.7881 102.443 71.1695C99.8077 71.5509 90.7737 74.9838 87.386 76.5095Z" fill="#FF267E"/>
<path d="M84.386 74.5095C80.9983 76.0352 75.3521 84.4266 73.47 87.0965C71.337 88.2409 66.4686 90.9874 64.0595 92.8183C61.0482 95.1068 59.5427 98.1582 59.1663 100.828C58.8651 102.964 59.0408 111.127 59.1663 114.941C63.6832 115.45 73.5453 116.467 76.8577 116.467C80.9983 116.467 101.325 115.704 102.077 115.704C102.83 115.704 108.477 112.652 108.853 112.652C109.229 112.652 109.229 98.1582 112.617 97.7768C115.327 97.4717 116.507 105.532 116.758 109.601L137.46 101.972C137.46 97.5225 138.138 88.6226 140.848 88.6226C143.558 88.6226 144.487 95.4882 144.612 98.9211C145.817 98.6159 146.871 97.0139 147.247 96.2511C147.498 90.1483 148 77.4849 148 75.6541C148 73.8232 146.243 73.8741 145.365 74.1284L137.46 77.1798L130.309 69.9327C129.681 69.6783 128.05 69.1695 126.544 69.1695C124.662 69.1695 102.077 68.7881 99.4426 69.1695C96.8077 69.5509 87.7737 72.9838 84.386 74.5095Z" fill="#FFD300" stroke="#FF267E" stroke-linecap="round"/>
<path d="M83.8216 77.4774L75.9521 87.7519C87.9251 88.75 95.393 88.737 109.678 87.7519L111.552 77.4774C100.818 77.6165 94.6115 77.4639 83.8216 77.4774Z" fill="#FF267E" stroke="#FF267E" stroke-linecap="round"/>
<path d="M63.6231 98.029C65.7373 98.029 65.7625 100.271 65.5108 101.392L59.8477 100.645V98.4027C60.2252 98.2782 61.5088 98.029 63.6231 98.029Z" fill="#FF267E"/>
<path d="M60.6027 109.239V106.997H64.7557V109.239H60.6027Z" fill="#FF267E"/>
<path d="M83.6328 109.239H70.4188V112.229H83.6328V109.239Z" fill="#FF267E"/>
<path d="M90.4286 109.239V106.997H95.7142C96.3182 106.997 95.9659 108.492 95.7142 109.239H90.4286Z" fill="#FF267E"/>
<path d="M95.7142 98.029C93.2979 98.029 91.9387 100.271 91.5612 101.392C93.3231 101.143 97.2998 100.645 99.112 100.645C100.924 100.645 101.629 98.901 101.755 98.029H95.7142Z" fill="#FF267E"/>
<path d="M145.172 77.8502L146.305 77.4766V82.7081C146.305 84.2028 145.801 84.0783 145.55 83.8291L145.172 77.8502Z" fill="#FF267E"/>
<path d="M63.6231 98.029C65.7373 98.029 65.7625 100.271 65.5108 101.392L59.8477 100.645V98.4027C60.2252 98.2782 61.5088 98.029 63.6231 98.029Z" stroke="#FF267E" stroke-linecap="round"/>
<path d="M60.6027 109.239V106.997H64.7557V109.239H60.6027Z" stroke="#FF267E" stroke-linecap="round"/>
<path d="M83.6328 109.239H70.4188V112.229H83.6328V109.239Z" stroke="#FF267E" stroke-linecap="round"/>
<path d="M90.4286 109.239V106.997H95.7142C96.3182 106.997 95.9659 108.492 95.7142 109.239H90.4286Z" stroke="#FF267E" stroke-linecap="round"/>
<path d="M95.7142 98.029C93.2979 98.029 91.9387 100.271 91.5612 101.392C93.3231 101.143 97.2998 100.645 99.112 100.645C100.924 100.645 101.629 98.901 101.755 98.029H95.7142Z" stroke="#FF267E" stroke-linecap="round"/>
<path d="M145.172 77.8502L146.305 77.4766V82.7081C146.305 84.2028 145.801 84.0783 145.55 83.8291L145.172 77.8502Z" stroke="#FF267E" stroke-linecap="round"/>
<path d="M115.938 78.0543C116.233 76.5194 118.764 75.3682 119.992 74.9844L124.046 82.6592L114.096 87.6478L115.938 78.0543Z" fill="#FF267E"/>
<path d="M127.363 73.4495C126.478 72.8355 123.063 73.7053 121.466 74.2169L125.889 81.8919L131.048 78.0543C130.188 76.7752 128.247 74.0634 127.363 73.4495Z" fill="#FF267E"/>
<path d="M115.938 78.0543C116.233 76.5194 118.764 75.3682 119.992 74.9844L124.046 82.6592L114.096 87.6478L115.938 78.0543Z" stroke="#FF267E" stroke-linecap="round"/>
<path d="M127.363 73.4495C126.478 72.8355 123.063 73.7053 121.466 74.2169L125.889 81.8919L131.048 78.0543C130.188 76.7752 128.247 74.0634 127.363 73.4495Z" stroke="#FF267E" stroke-linecap="round"/>
<path d="M113.282 102.793C112.379 102.197 111.149 102.545 110.648 102.793C108.54 105.774 108.766 111.239 109.143 113.598L100.864 116.579C100.563 120.454 101.993 123.659 102.745 124.776C105.379 124.901 111.174 125.074 113.282 124.776C115.916 124.404 115.54 116.952 115.54 113.598C115.54 110.245 114.411 103.538 113.282 102.793Z" fill="#FF267E"/>
<path d="M140.375 92.7324C139.171 92.7324 138.87 93.726 138.87 94.2228L138.494 102.42C135.86 103.414 130.667 105.401 130.968 105.401C131.344 109.127 132.473 112.108 133.226 112.108H141.88C142.633 112.108 143.762 108.009 143.762 102.793C143.762 97.5767 141.88 92.7324 140.375 92.7324Z" fill="#FF267E"/>
<path d="M70.384 116.579C65.8371 116.752 63.6757 116.433 59.8477 115.834C60.6003 122.913 61.7291 124.404 62.4817 124.776C63.2343 125.149 72.6418 124.776 73.0181 124.776C73.3191 124.776 74.8995 119.311 75.6521 116.579H73.7707C73.5198 117.573 72.7923 119.485 71.8892 119.187C70.9861 118.889 70.5094 117.324 70.384 116.579Z" fill="#FF267E"/>
<path d="M113.282 102.793C112.379 102.197 111.149 102.545 110.648 102.793C108.54 105.774 108.766 111.239 109.143 113.598L100.864 116.579C100.563 120.454 101.993 123.659 102.745 124.776C105.379 124.901 111.174 125.074 113.282 124.776C115.916 124.404 115.54 116.952 115.54 113.598C115.54 110.245 114.411 103.538 113.282 102.793Z" stroke="#FF267E" stroke-linecap="round"/>
<path d="M140.375 92.7324C139.171 92.7324 138.87 93.726 138.87 94.2228L138.494 102.42C135.86 103.414 130.667 105.401 130.968 105.401C131.344 109.127 132.473 112.108 133.226 112.108H141.88C142.633 112.108 143.762 108.009 143.762 102.793C143.762 97.5767 141.88 92.7324 140.375 92.7324Z" stroke="#FF267E" stroke-linecap="round"/>
<path d="M70.384 116.579C65.8371 116.752 63.6757 116.433 59.8477 115.834C60.6003 122.913 61.7291 124.404 62.4817 124.776C63.2343 125.149 72.6418 124.776 73.0181 124.776C73.3191 124.776 74.8995 119.311 75.6521 116.579H73.7707C73.5198 117.573 72.7923 119.485 71.8892 119.187C70.9861 118.889 70.5094 117.324 70.384 116.579Z" stroke="#FF267E" stroke-linecap="round"/>
<path d="M114.156 113.88C114.156 111.639 113.389 107.904 112.239 107.904C111.089 107.904 110.705 111.265 110.705 113.133C110.705 115.001 110.705 119.856 112.239 119.856C113.773 119.856 114.156 116.121 114.156 113.88Z" stroke="#FFD300" stroke-linecap="round"/>
<path d="M142.915 102.674C142.915 101.18 142.531 97.8184 141.381 97.8184C140.23 97.8184 140.23 101.18 140.23 102.674C140.23 104.168 140.997 107.904 141.764 107.904C142.531 107.904 142.915 104.168 142.915 102.674Z" stroke="#FFD300" stroke-linecap="round"/>
<path d="M89.5147 100.271C81.1737 99.3871 76.5245 99.2924 68.388 99.9058C68.2623 101.124 68.2371 103.78 69.1425 104.658C70.2743 105.754 74.8015 105.389 77.4423 105.389C80.0831 105.389 86.1193 105.389 87.6284 104.658C88.8356 104.073 89.3889 101.49 89.5147 100.271Z" fill="#FF267E" stroke="#FF267E" stroke-linecap="round"/>
</g>
<defs>
<clipPath id="clip0_330_921">
<rect width="200" height="173" fill="white"/>
</clipPath>
</defs>
</svg>
