<svg width="200" height="173" viewBox="0 0 200 173" fill="none" xmlns="http://www.w3.org/2000/svg">
<g clip-path="url(#clip0_330_891)">
<path opacity="0.11" d="M49.9857 0.643246L149.273 0.643245L198.917 86.6289L149.273 172.615L49.9857 172.615L0.34183 86.6289L49.9857 0.643246Z" fill="#FF267E"/>
<path opacity="0.11" d="M61.2257 20.1116L138.034 20.1116L176.438 86.6293L138.034 153.147L61.2257 153.147L22.8217 86.6293L61.2257 20.1116Z" fill="#FF267E"/>
<path opacity="0.11" d="M70.2025 35.6595L129.055 35.6595L158.482 86.6276L129.055 137.596L70.2025 137.596L40.776 86.6276L70.2025 35.6595Z" fill="#FF267E"/>
<path opacity="0.11" d="M81.9319 55.9751L117.325 55.9751L135.022 86.6268L117.325 117.278L81.9319 117.278L64.2352 86.6268L81.9319 55.9751Z" fill="#FF267E"/>
<path d="M73.8802 42.6054L125.376 42.6054L151.124 87.2024L125.376 131.799L73.8802 131.799L48.1321 87.2024L73.8802 42.6054Z" fill="#FF8AB9" stroke="#FF267E" stroke-width="6"/>
<path d="M81.6176 71.3219C81.6176 69.9125 82.7353 57.7918 83.5735 55.5367C84.4118 53.2817 83.2941 47.6441 82.4559 46.2348C81.6176 44.8254 77.7059 41.7247 76.8676 46.7985C76.0294 51.8723 75.4706 55.5372 73.7941 59.2016C72.1176 62.866 71 70.1949 71 75.2687C71 80.3425 72.6765 89.6445 73.7941 95.8458C74.9118 102.047 72.9559 118.114 72.9559 118.114L70 119.5M104 128.5L109 106.275" stroke="#FF267E" stroke-width="3"/>
<path d="M81.5735 55.5367C81.298 56.2778 80.9924 58.0845 80.7061 60.2264C81.2641 58.0462 82.0799 56.2625 83.25 55.5367C87.1364 53.1262 107 97.2795 107 106.275L101 128.5H75.5C75.7794 126.433 70.9559 118.114 70.9559 118.114C70.9559 118.114 72.9118 102.047 71.7941 95.8458C70.6765 89.6445 69 80.3425 69 75.2687C69 70.1949 70.1176 62.866 71.7941 59.2016C73.4706 55.5372 74.0294 51.8723 74.8676 46.7985C75.7059 41.7247 79.6176 44.8254 80.4559 46.2348C81.2941 47.6441 82.4118 53.2817 81.5735 55.5367Z" fill="#FFD300"/>
<path d="M127.632 34.2436C126.33 32.4648 87.0586 32.7107 84.6432 34.2436C82.2278 35.7766 82.6889 96.493 84.6432 97.8269C86.5974 99.1608 125.353 99.6055 127.632 97.8269C129.912 96.0483 128.935 36.0224 127.632 34.2436Z" fill="#FF267E"/>
<path d="M127.039 38.2814C128.573 36.5658 132.1 33.6494 133.941 35.7081C136.242 38.2814 134.27 41.4986 132.955 43.7503C131.903 45.5516 128.573 49.2186 127.039 50.8269M127.039 53.7219C128.573 54.7941 131.772 57.1315 132.298 57.9035C132.955 58.8685 134.598 61.7635 132.955 64.0152C132.318 64.8881 131.236 66.293 129.997 67.5549M127.039 58.8685C124.081 61.8497 121.452 67.5535 124.081 69.8051C124.92 70.5234 125.959 70.4234 127.039 69.881M129.997 67.5549C131.64 68.4122 134.73 70.8988 133.941 73.9868C133.076 77.372 132.717 77.7884 131.312 79.3584M129.997 67.5549C129.06 68.5095 128.032 69.3823 127.039 69.881M127.039 69.881C127.039 70.4485 127.395 72.751 127.039 73.0218C124.081 75.2734 122.438 82.0284 124.081 83.6367C124.782 84.3225 125.721 84.1895 126.722 83.6367M131.312 79.3584C131.115 79.5786 130.897 79.8215 130.654 80.0984C129.523 81.3899 128.068 82.8931 126.722 83.6367M131.312 79.3584C132.079 80.2484 133.481 82.6717 132.955 85.245C132.298 88.4617 130.983 92 128.354 92C125.724 92 124.738 91.3567 124.738 88.7834C124.738 86.7247 126.061 84.4945 126.722 83.6367" stroke="#FF267E" stroke-width="3"/>
<path d="M119.633 44.2427C118.33 42.4639 76.4776 38.9997 76.6436 44.2427C76.8096 49.4857 75.8604 113 72.5009 119C69.1414 125 104.72 123.779 107 122C109.28 120.221 120.936 46.0215 119.633 44.2427Z" fill="black" fill-opacity="0.15"/>
<path d="M79.6176 71.3219C79.6176 69.9125 80.7353 57.7918 81.5735 55.5367C82.4118 53.2817 81.2941 47.6441 80.4559 46.2348C79.6176 44.8254 75.7059 41.7247 74.8676 46.7985C74.0294 51.8723 73.4706 55.5372 71.7941 59.2016C70.1176 62.866 69 70.1949 69 75.2687C69 80.3425 70.6765 89.6445 71.7941 95.8458C72.9118 102.047 70.9559 118.114 70.9559 118.114M102 128.5L107 106.275" stroke="#FF267E" stroke-width="2"/>
<path d="M124.632 31.2436C123.33 29.4648 84.0586 29.7107 81.6432 31.2436C79.2278 32.7766 79.6889 93.493 81.6432 94.8269C83.5974 96.1608 122.353 96.6055 124.632 94.8269C126.912 93.0483 125.935 33.0224 124.632 31.2436Z" fill="#FFD300" stroke="#FF267E" stroke-width="3"/>
<path d="M74.3517 116.674C72.2577 113.185 80.1101 96.3213 82.2041 95.1583C84.2981 93.9953 127.225 91.6692 128.795 93.9953C130.365 96.3213 122.513 116.674 118.849 117.837C115.184 119 76.4457 120.163 74.3517 116.674Z" fill="#FF267E"/>
<path d="M74.3359 113.356C72.3359 110.356 79.8359 95.8558 81.8359 94.8558C83.8359 93.8558 124.836 91.8558 126.336 93.8558C127.836 95.8558 120.336 113.356 116.836 114.356C113.336 115.356 76.3359 116.355 74.3359 113.356Z" fill="#FFD300" stroke="#FF267E" stroke-width="3" stroke-linecap="round"/>
<path d="M132.941 33.7081C131.1 31.6494 127.573 34.5658 126.039 36.2814V48.8269C127.573 47.2186 130.903 43.5516 131.955 41.7503C133.27 39.4986 135.242 36.2814 132.941 33.7081Z" fill="#FFD300"/>
<path d="M126.039 51.7219C127.573 52.7941 130.772 55.1315 131.298 55.9035C131.955 56.8685 133.598 59.7635 131.955 62.0152C131.318 62.8881 130.236 64.293 128.997 65.5549C128.803 65.7528 128.604 65.9472 128.403 66.1356C129.103 66.0053 129.772 66.0768 130.173 66.2997C131.766 67.4816 133.564 69.5464 132.941 71.9868C132.076 75.372 131.717 75.7884 130.312 77.3584C131.079 78.2484 132.481 80.6717 131.955 83.245C131.298 86.4617 129.983 90 127.354 90C124.724 90 123.738 89.3567 123.738 86.7834C123.738 84.7247 125.061 82.4945 125.722 81.6367C124.721 82.1895 123.782 82.3225 123.081 81.6367C121.438 80.0284 123.101 73.2996 126.039 71.0218C125.586 69.6907 125.642 68.6695 125.98 67.9101C124.921 68.4267 123.904 68.5103 123.081 67.8051C120.452 65.5535 123.081 59.8497 126.039 56.8685V51.7219Z" fill="#FFD300"/>
<path d="M126.039 36.2814C127.573 34.5658 131.1 31.6494 132.941 33.7081C135.242 36.2814 133.27 39.4986 131.955 41.7503C130.903 43.5516 127.573 47.2186 126.039 48.8269M126.039 51.7219C127.573 52.7941 130.772 55.1315 131.298 55.9035C131.955 56.8685 133.598 59.7635 131.955 62.0152C131.318 62.8881 130.236 64.293 128.997 65.5549M126.039 56.8685C123.081 59.8497 120.452 65.5535 123.081 67.8051C123.92 68.5234 124.959 68.4234 126.039 67.881M128.997 65.5549C130.64 66.4122 133.73 68.8988 132.941 71.9868C132.076 75.372 131.717 75.7884 130.312 77.3584M128.997 65.5549C128.06 66.5095 127.032 67.3823 126.039 67.881M126.039 67.881C126.039 68.4485 126.395 70.751 126.039 71.0218C123.081 73.2734 121.438 80.0284 123.081 81.6367C123.782 82.3225 124.721 82.1895 125.722 81.6367M130.312 77.3584C130.115 77.5786 129.897 77.8215 129.654 78.0984C128.523 79.3899 127.068 80.8931 125.722 81.6367M130.312 77.3584C131.079 78.2484 132.481 80.6717 131.955 83.245C131.298 86.4617 129.983 90 127.354 90C124.724 90 123.738 89.3567 123.738 86.7834C123.738 84.7247 125.061 82.4945 125.722 81.6367" stroke="#FF267E" stroke-width="2"/>
<path d="M96.4219 35.411C96.4219 35.411 112.559 34.4863 112.876 35.411C113.192 36.3357 112.876 36.027 112.243 36.6439C111.61 37.2608 97.3712 36.9521 96.4219 36.6439C95.4726 36.3357 96.4219 35.411 96.4219 35.411Z" fill="#FF267E"/>
<path d="M94 52.4923H99.9001L104.5 45L109.1 52.4923H115L110.4 60H98.5999L94 52.4923ZM109.1 52.4923H99.9001L104.5 60L109.1 52.4923Z" fill="#FF267E"/>
<path d="M88.0002 71.0002C88.5002 70.5002 93.4997 70.4997 94.0002 71.0002C94.5006 71.5006 94.5006 74.5 94.0002 75.0002C93.4997 75.5003 88.5006 75.5 88.0002 75.0002C87.4997 74.5003 87.5002 71.5002 88.0002 71.0002Z" fill="#FF267E"/>
<path d="M87.8224 42.8361C87.8674 42.7906 88.0078 42.6854 88.3192 42.5515C88.6168 42.4235 89.0111 42.2943 89.503 42.1687C90.4863 41.9178 91.7782 41.702 93.2952 41.5269C96.3243 41.1771 100.154 41.0002 103.999 41C107.843 40.9998 111.673 41.1765 114.703 41.5262C116.22 41.7013 117.512 41.9171 118.495 42.1681C118.987 42.2937 119.382 42.423 119.679 42.5511C119.991 42.6851 120.131 42.7904 120.177 42.8361C120.375 43.0364 120.623 43.4501 120.869 44.144C121.108 44.8169 121.316 45.6679 121.486 46.655C121.826 48.6277 122 51.0552 122 53.501C122 55.9469 121.826 58.3743 121.486 60.3467C121.316 61.3338 121.108 62.1846 120.869 62.8574C120.623 63.5511 120.375 63.9646 120.177 64.1646C120.132 64.2103 119.991 64.3156 119.68 64.4495C119.382 64.5776 118.987 64.7068 118.495 64.8323C117.512 65.0832 116.22 65.2989 114.703 65.474C111.674 65.8235 107.844 66.0001 104 66C100.155 65.9999 96.3255 65.8231 93.2962 65.4735C91.7791 65.2984 90.4871 65.0826 89.5035 64.8318C89.0116 64.7063 88.6171 64.5772 88.3193 64.4492C88.0078 64.3153 87.8672 64.21 87.822 64.1644C87.624 63.9647 87.3763 63.5515 87.13 62.8579C86.8912 62.1852 86.6832 61.3344 86.5131 60.3473C86.1732 58.3747 85.9998 55.947 86 53.5009C86.0002 51.0547 86.1738 48.6269 86.5138 46.6542C86.6839 45.667 86.8919 44.8161 87.1307 44.1432C87.3768 43.4494 87.6245 43.036 87.8224 42.8361Z" stroke="#FF267E" stroke-width="2"/>
<path d="M88.0002 78.3752C88.5002 77.8752 93.4997 77.8747 94.0002 78.3752C94.5006 78.8756 94.5006 81.875 94.0002 82.3752C93.4997 82.8753 88.5006 82.875 88.0002 82.3752C87.4997 81.8753 87.5002 78.8752 88.0002 78.3752Z" fill="#FF267E"/>
<path d="M88.0002 85.3752C88.5002 84.8752 93.4997 84.8747 94.0002 85.3752C94.5006 85.8756 94.5006 88.875 94.0002 89.3752C93.4997 89.8753 88.5006 89.875 88.0002 89.3752C87.4997 88.8753 87.5002 85.8752 88.0002 85.3752Z" fill="#FF267E"/>
<path d="M99.3752 71.0002C99.8752 70.5002 104.875 70.4997 105.375 71.0002C105.876 71.5006 105.876 74.5 105.375 75.0002C104.875 75.5003 99.8756 75.5 99.3752 75.0002C98.8747 74.5003 98.8752 71.5002 99.3752 71.0002Z" fill="#FF267E"/>
<path d="M99.3752 78.3752C99.8752 77.8752 104.875 77.8747 105.375 78.3752C105.876 78.8756 105.876 81.875 105.375 82.3752C104.875 82.8753 99.8756 82.875 99.3752 82.3752C98.8747 81.8753 98.8752 78.8752 99.3752 78.3752Z" fill="#FF267E"/>
<path d="M99.3752 85.3752C99.8752 84.8752 104.875 84.8747 105.375 85.3752C105.876 85.8756 105.876 88.875 105.375 89.3752C104.875 89.8753 99.8756 89.875 99.3752 89.3752C98.8747 88.8753 98.8752 85.8752 99.3752 85.3752Z" fill="#FF267E"/>
<path d="M111.375 71.0002C111.875 70.5002 116.875 70.4997 117.375 71.0002C117.876 71.5006 117.876 74.5 117.375 75.0002C116.875 75.5003 111.876 75.5 111.375 75.0002C110.875 74.5003 110.875 71.5002 111.375 71.0002Z" fill="#FF267E"/>
<path d="M111.375 78.3752C111.875 77.8752 116.875 77.8747 117.375 78.3752C117.876 78.8756 117.876 81.875 117.375 82.3752C116.875 82.8753 111.876 82.875 111.375 82.3752C110.875 81.8753 110.875 78.8752 111.375 78.3752Z" fill="#FF267E"/>
<path d="M111.375 85.3752C111.875 84.8752 116.875 84.8747 117.375 85.3752C117.876 85.8756 117.876 88.875 117.375 89.3752C116.875 89.8753 111.876 89.875 111.375 89.3752C110.875 88.8753 110.875 85.8752 111.375 85.3752Z" fill="#FF267E"/>
</g>
<defs>
<clipPath id="clip0_330_891">
<rect width="200" height="173" fill="white"/>
</clipPath>
</defs>
</svg>
