<svg width="200" height="173" viewBox="0 0 200 173" fill="none" xmlns="http://www.w3.org/2000/svg">
<g clip-path="url(#clip0_330_821)">
<path opacity="0.11" d="M50.9857 0.643246L150.273 0.643245L199.917 86.6289L150.273 172.615L50.9857 172.615L1.34183 86.6289L50.9857 0.643246Z" fill="#FF267E"/>
<path opacity="0.11" d="M62.2257 20.1116L139.034 20.1116L177.438 86.6293L139.034 153.147L62.2257 153.147L23.8217 86.6293L62.2257 20.1116Z" fill="#FF267E"/>
<path opacity="0.11" d="M71.2025 35.6595L130.055 35.6595L159.482 86.6276L130.055 137.596L71.2025 137.596L41.776 86.6276L71.2025 35.6595Z" fill="#FF267E"/>
<path opacity="0.11" d="M82.9319 55.9751L118.325 55.9751L136.022 86.6268L118.325 117.278L82.9319 117.278L65.2352 86.6268L82.9319 55.9751Z" fill="#FF267E"/>
<path d="M72.597 42.6054L124.093 42.6054L149.841 87.2024L124.093 131.799L72.597 131.799L46.8489 87.2024L72.597 42.6054Z" fill="#FF8AB9" stroke="#FF267E" stroke-width="6"/>
<path d="M118.999 132.21C136.789 132.21 151.21 117.788 151.21 99.9993C151.21 82.2101 136.788 67.789 118.999 67.789C101.21 67.7891 86.7891 82.2101 86.7891 99.9993C86.7891 117.789 101.21 132.21 118.999 132.21Z" fill="#FFD300"/>
<path fill-rule="evenodd" clip-rule="evenodd" d="M102.036 70.9863C107.172 68.0527 113.03 66.5102 119.022 66.566C124.957 66.2652 130.92 67.6395 136.164 70.4468C141.004 73.0368 145.16 76.905 148.195 81.4335C151.129 85.8071 152.981 91.1935 153.543 95.9951C154.485 104.038 152.394 112.583 147.832 119.28C143.427 125.75 136.983 130.647 129.181 132.979C122.118 135.093 114.358 134.868 107.415 132.308C96.9155 128.438 88.5859 119.161 85.9801 108.176C83.7135 98.6152 85.8279 88.1167 91.6843 80.2043C94.45 76.4683 97.9947 73.312 102.036 70.9863ZM108.131 71.1178L110.412 75.0758C110.646 75.4809 110.506 76.0004 110.102 76.2335L102.939 80.3611C102.536 80.5942 102.017 80.4552 101.783 80.05L99.5502 76.1758C98.7423 76.8478 97.9673 77.5633 97.2306 78.3214C92.8258 82.8493 89.9599 88.7611 88.9743 95.0005L93.1459 95.0014C93.6129 95 93.9926 95.3797 93.9926 95.8475L93.9928 104.113C93.9928 104.581 93.6131 104.961 93.1453 104.961L89.0254 104.961C89.2486 106.263 89.56 107.555 89.9646 108.829C91.7488 114.465 95.2565 119.524 99.8528 123.26L101.784 119.91C102.017 119.506 102.535 119.367 102.94 119.601L110.101 123.728C110.506 123.962 110.645 124.481 110.413 124.885L108.517 128.172C115.216 130.577 122.74 130.499 129.419 127.987L127.629 124.885C127.395 124.479 127.535 123.962 127.94 123.728L135.102 119.599C135.506 119.366 136.025 119.505 136.258 119.91L138.012 122.951C141.297 120.196 143.981 116.736 145.881 112.693C147.033 110.241 147.821 107.625 148.257 104.96L144.897 104.96C144.429 104.96 144.049 104.581 144.049 104.113L144.049 95.8473C144.05 95.3809 144.429 95.0012 144.896 94.9998L148.283 95C148.132 94.0537 147.935 93.12 147.696 92.2048C146.12 86.1686 142.661 80.7435 138.159 76.7541L136.26 80.0509C136.026 80.456 135.507 80.595 135.102 80.3611L127.941 76.2336C127.536 75.9997 127.397 75.481 127.629 75.0767L129.724 71.4424C128.008 70.7123 126.226 70.1343 124.394 69.724C122.627 69.3274 120.831 69.0744 119.02 68.9727C118.953 68.9745 118.887 68.9754 118.821 68.9764C115.165 69.0492 111.536 69.7865 108.131 71.1178ZM107.754 80.7602C111.069 78.8601 114.871 77.8041 118.655 77.7334C118.815 77.7306 119.004 77.7292 119.004 77.7292C125.927 77.8194 132.802 81.2388 136.938 86.864C141.101 92.5285 142.488 100.219 140.36 106.934C137.267 116.684 127.144 123.84 116.356 122.548C109.662 121.747 103.405 117.882 99.7969 112.017C98.1037 109.264 96.9973 106.14 96.6367 102.929C95.6788 94.3847 99.9183 85.4073 107.514 80.9006C107.594 80.8526 107.675 80.8059 107.754 80.7602ZM121.504 120.29L121.504 122.046C123.582 121.817 125.625 121.284 127.552 120.431L126.688 118.936C125.034 119.607 123.288 120.065 121.504 120.29ZM135.025 112.613C134.475 113.336 133.874 114.021 133.222 114.664C132.578 115.298 131.892 115.886 131.168 116.423L131.97 117.812C133.629 116.549 135.114 115.057 136.369 113.389L135.025 112.613ZM118.695 80.9434C109.467 81.0318 100.589 88.4337 99.4722 98.131C99.2534 100.027 99.3051 101.95 99.6238 103.831C100.244 107.486 101.957 110.998 104.49 113.694C110.41 119.992 120.496 122.06 128.445 117.588C134.82 114.004 138.924 106.769 138.474 99.234C138.22 94.9927 136.536 90.8524 133.722 87.6699C130.054 83.5203 124.631 80.9592 119.057 80.9422C118.935 80.9419 118.816 80.9422 118.695 80.9434ZM111.186 118.929L110.335 120.405C112.258 121.215 114.295 121.757 116.368 122.011L116.368 120.3C114.613 120.08 112.87 119.628 111.186 118.929ZM138.996 102.931C138.753 104.724 138.276 106.485 137.582 108.158L138.962 108.954C139.512 107.693 139.94 106.377 140.23 105.02C140.379 104.329 140.489 103.632 140.564 102.931L138.996 102.931ZM126.794 109.749L118.049 109.604L125.039 97.8502L133.785 97.9936L126.794 109.749ZM101.453 113.417C102.347 114.627 103.366 115.744 104.489 116.74C104.934 117.134 105.395 117.509 105.871 117.862L106.736 116.364C105.302 115.274 104.014 113.995 102.912 112.575L101.453 113.417ZM137.687 92.5072C138.037 93.3367 138.328 94.1964 138.556 95.0765C138.787 95.971 138.954 96.8783 139.059 97.7948L140.487 97.7941C140.21 95.7542 139.646 93.7505 138.819 91.8537L137.687 92.5072ZM118.049 109.604L109.303 109.46L102.704 97.4806L111.451 97.6254L118.049 109.604ZM125.039 97.8502L111.451 97.6254L118.44 85.8707L125.039 97.8502ZM131.892 83.05L131.223 84.2096C132.673 85.3239 133.98 86.6223 135.097 88.0719L136.242 87.4108C135.018 85.7725 133.56 84.2948 131.892 83.05ZM97.3135 102.932C97.3758 103.514 97.4623 104.095 97.5759 104.671C97.8625 106.144 98.3096 107.583 98.8981 108.962L100.296 108.155C99.5797 106.501 99.0847 104.745 98.846 102.932L97.3135 102.932ZM99.053 91.8552C98.2364 93.7496 97.6755 95.7548 97.3985 97.7938L98.8255 97.7939C99.0447 95.9802 99.5026 94.1969 100.191 92.5114L99.053 91.8552ZM121.503 78.9522L121.504 80.0716C123.332 80.3294 125.117 80.8473 126.804 81.5898L127.427 80.5096C125.539 79.7207 123.547 79.1994 121.503 78.9522ZM105.965 83.0243C105.293 83.5218 104.651 84.0609 104.043 84.6388C103.154 85.485 102.34 86.411 101.61 87.3981L102.75 88.0572C103.869 86.6048 105.182 85.3101 106.641 84.1958L105.965 83.0243ZM110.43 80.4871L111.067 81.5896C112.757 80.8525 114.537 80.3356 116.368 80.0753L116.367 78.9309C114.328 79.1664 112.325 79.693 110.43 80.4871Z" fill="#FF267E"/>
<circle cx="85" cy="72" r="32" fill="black" fill-opacity="0.33"/>
<path d="M78.5686 98.7799C96.3579 98.7798 110.779 84.3588 110.779 66.5696C110.779 48.7804 96.3578 34.3593 78.5686 34.3594C60.7794 34.3594 46.3584 48.7804 46.3584 66.5696C46.3584 84.3588 60.7794 98.7799 78.5686 98.7799Z" fill="#FFD300"/>
<path fill-rule="evenodd" clip-rule="evenodd" d="M61.6058 37.5566C66.7412 34.623 72.5995 33.0806 78.5917 33.1363C84.5268 32.8355 90.4895 34.2098 95.7333 37.0171C100.574 39.6071 104.729 43.4753 107.764 48.0038C110.699 52.3774 112.55 57.7638 113.112 62.5654C114.055 70.6081 111.963 79.1534 107.402 85.8505C102.996 92.3202 96.552 97.2173 88.7499 99.5492C81.6873 101.664 73.9276 101.438 66.9846 98.8781C56.4849 95.0087 48.1552 85.731 45.5494 74.7458C43.2828 65.1855 45.3972 54.6871 51.2537 46.7747C54.0193 43.0386 57.564 39.8823 61.6058 37.5566ZM67.7005 37.6882L69.9817 41.6461C70.2156 42.0512 70.0752 42.5708 69.6715 42.8038L62.5087 46.9314C62.105 47.1645 61.5864 47.0255 61.3524 46.6204L59.1196 42.7461C58.3116 43.4181 57.5367 44.1337 56.8 44.8917C52.3952 49.4196 49.5293 55.3314 48.5436 61.5708L52.7152 61.5718C53.1822 61.5703 53.5619 61.95 53.5619 62.4178L53.5621 70.6834C53.5621 71.1513 53.1824 71.5309 52.7146 71.5309L48.5947 71.5314C48.8179 72.8334 49.1294 74.1254 49.5339 75.399C51.3182 81.0355 54.8258 86.0939 59.4221 89.8308L61.3535 86.4805C61.5859 86.0762 62.1046 85.9372 62.5098 86.1711L69.6707 90.2986C70.0758 90.5325 70.2147 91.0512 69.9823 91.4555L68.0866 94.7422C74.7856 97.1477 82.3091 97.069 88.9879 94.5576L87.1985 91.4549C86.9646 91.0498 87.1045 90.5326 87.5096 90.2986L94.6715 86.1696C95.0752 85.9365 95.5939 86.0755 95.8278 86.4806L97.5816 89.5217C100.866 86.766 103.551 83.3059 105.45 79.2634C106.602 76.8111 107.39 74.1955 107.826 71.5303L104.466 71.5307C103.998 71.5307 103.618 71.151 103.618 70.6832L103.618 62.4176C103.619 61.9512 103.999 61.5715 104.466 61.5701L107.852 61.5703C107.701 60.624 107.504 59.6903 107.266 58.7751C105.689 52.7389 102.23 47.3138 97.7287 43.3244L95.8291 46.6212C95.5952 47.0263 95.0765 47.1653 94.6713 46.9314L87.5105 42.8039C87.1054 42.57 86.9664 42.0513 87.1988 41.647L89.2931 38.0127C87.5778 37.2826 85.7957 36.7046 83.9636 36.2943C82.1961 35.8977 80.4001 35.6447 78.5896 35.543C78.5221 35.5448 78.4561 35.5458 78.3901 35.5467C74.7347 35.6195 71.1049 36.3568 67.7005 37.6882ZM67.3232 47.3305C70.638 45.4304 74.4401 44.3744 78.2239 44.3038C78.3847 44.3009 78.5737 44.2995 78.5737 44.2995C85.496 44.3897 92.3713 47.8091 96.5076 53.4343C100.671 59.0988 102.057 66.7891 99.929 73.5042C96.8363 83.2541 86.7129 90.4103 75.9258 89.1181C69.2312 88.317 62.974 84.4527 59.3662 78.587C57.673 75.834 56.5666 72.7108 56.206 69.4995C55.2481 60.955 59.4876 51.9777 67.0833 47.4709C67.1632 47.4229 67.2439 47.3762 67.3232 47.3305ZM81.0736 86.8604L81.0735 88.6162C83.1512 88.3875 85.194 87.854 87.1211 87.0017L86.2575 85.5059C84.6035 86.177 82.8577 86.6349 81.0736 86.8604ZM94.594 79.1837C94.0442 79.9063 93.4436 80.5916 92.7911 81.2345C92.1472 81.8686 91.4611 82.4565 90.7377 82.9936L91.5394 84.3823C93.1982 83.1193 94.6837 81.6275 95.9384 79.9596L94.594 79.1837ZM78.2646 47.5137C69.036 47.6021 60.1583 55.004 59.0416 64.7013C58.8227 66.5971 58.8744 68.5207 59.1931 70.4016C59.8134 74.056 61.5264 77.5688 64.0591 80.2639C69.9795 86.5619 80.0658 88.6304 88.0144 84.1587C94.3889 80.5744 98.4929 73.339 98.0437 65.8043C97.7891 61.563 96.1053 57.4227 93.2912 54.2402C89.6232 50.0906 84.2005 47.5295 78.6261 47.5125C78.5045 47.5122 78.3853 47.5125 78.2646 47.5137ZM70.7556 85.4992L69.9048 86.9749C71.8269 87.7853 73.8644 88.3275 75.9369 88.5813L75.9375 86.8703C74.1822 86.6506 72.4395 86.1986 70.7556 85.4992ZM98.5656 69.5018C98.3224 71.2942 97.8455 73.0551 97.1516 74.728L98.5314 75.5246C99.0815 74.2636 99.5098 72.9476 99.799 71.5906C99.9481 70.8997 100.058 70.202 100.133 69.5011L98.5656 69.5018ZM86.3637 76.3195L77.6185 76.1738L84.6084 64.4206L93.3542 64.5639L86.3637 76.3195ZM61.0223 79.9875C61.9166 81.1975 62.9352 82.3142 64.0582 83.31C64.5034 83.7048 64.964 84.0789 65.4401 84.4323L66.3055 82.9344C64.8716 81.8441 63.5836 80.5658 62.4815 79.145L61.0223 79.9875ZM97.2564 59.0775C97.6062 59.907 97.897 60.7667 98.1253 61.6469C98.3559 62.5413 98.5235 63.4486 98.6279 64.3651L100.056 64.3644C99.779 62.3245 99.2152 60.3208 98.3882 58.424L97.2564 59.0775ZM77.6185 76.1738L68.8727 76.0305L62.2734 64.0509L71.0201 64.1957L77.6185 76.1738ZM84.6084 64.4206L71.0201 64.1957L78.009 52.441L84.6084 64.4206ZM91.4616 49.6203L90.7923 50.7799C92.2421 51.8943 93.5495 53.1926 94.6663 54.6422L95.8114 53.9811C94.5876 52.3428 93.1296 50.8651 91.4616 49.6203ZM56.8828 69.5022C56.9451 70.0847 57.0316 70.665 57.1452 71.2415C57.4318 72.7143 57.8789 74.1531 58.4674 75.5319L59.865 74.725C59.1491 73.0714 58.6541 71.3157 58.4153 69.5021L56.8828 69.5022ZM58.6223 58.4255C57.8057 60.3199 57.2449 62.3251 56.9678 64.3641L58.3948 64.3643C58.614 62.5505 59.072 60.7672 59.7606 59.0817L58.6223 58.4255ZM81.0727 45.5225L81.0731 46.6419C82.9013 46.8997 84.6859 47.4176 86.3731 48.1601L86.9963 47.0799C85.1081 46.2911 83.116 45.7697 81.0727 45.5225ZM65.5339 49.5947C64.8621 50.0922 64.22 50.6312 63.6123 51.2091C62.7229 52.0554 61.9089 52.9814 61.1791 53.9684L62.3191 54.6275C63.4379 53.1751 64.7515 51.8804 66.2103 50.7661L65.5339 49.5947ZM69.9997 47.0574L70.6362 48.1599C72.3265 47.4228 74.1067 46.9059 75.9373 46.6456L75.9362 45.5012C73.8976 45.7367 71.8939 46.2633 69.9997 47.0574Z" fill="#FF267E"/>
</g>
<defs>
<clipPath id="clip0_330_821">
<rect width="200" height="173" fill="white"/>
</clipPath>
</defs>
</svg>
