<svg width="179" height="32" viewBox="0 0 179 32" fill="none" xmlns="http://www.w3.org/2000/svg">
<g clip-path="url(#clip0_330_612)">
<path d="M64.9355 22.5078H71.7709V24.0064H66.7817V26.3224H71.4962V27.821H66.7817V31.8475H64.9355V22.5078Z" fill="#000055"/>
<path d="M84.9076 27.1706C84.9076 27.8971 84.8008 28.548 84.5872 29.1384C84.3736 29.7287 84.0685 30.2434 83.6565 30.6672C83.2598 31.0911 82.7716 31.4241 82.2071 31.6512C81.6425 31.8782 81.0017 31.9993 80.3151 31.9993C79.6133 31.9993 78.9877 31.8782 78.4232 31.6512C77.8587 31.4241 77.3705 31.0911 76.9738 30.6672C76.5771 30.2434 76.2567 29.7287 76.0431 29.1384C75.8295 28.548 75.7227 27.882 75.7227 27.1706C75.7227 26.444 75.8295 25.7931 76.0431 25.2027C76.2567 24.6124 76.5618 24.0977 76.9738 23.6739C77.3705 23.25 77.8587 22.9321 78.4232 22.69C78.9877 22.4629 79.6286 22.3418 80.3151 22.3418C81.017 22.3418 81.6425 22.4629 82.2071 22.69C82.7716 22.917 83.2598 23.25 83.6565 23.6739C84.0532 24.0977 84.3736 24.5972 84.5872 25.2027C84.8008 25.7931 84.9076 26.444 84.9076 27.1706ZM77.6298 27.1706C77.6298 27.7155 77.7061 28.1999 77.8434 28.6237C77.9808 29.0476 78.1791 29.3957 78.4232 29.6833C78.6673 29.9709 78.9572 30.1829 79.2776 30.3191C79.6133 30.4705 79.949 30.531 80.3151 30.531C80.6813 30.531 81.017 30.4553 81.3526 30.3191C81.6731 30.1677 81.9629 29.9558 82.2071 29.6833C82.4512 29.3957 82.6343 29.0476 82.7868 28.6237C82.9242 28.1999 83.0004 27.7155 83.0004 27.1706C83.0004 26.6256 82.9242 26.1412 82.7868 25.7174C82.6495 25.3087 82.4512 24.9454 82.2071 24.6729C81.9629 24.3853 81.6731 24.1734 81.3526 24.0372C81.017 23.8858 80.6813 23.8252 80.3151 23.8252C79.949 23.8252 79.6133 23.9009 79.2776 24.0372C78.9572 24.1885 78.6673 24.4005 78.4232 24.6729C78.1791 24.9605 77.996 25.3087 77.8434 25.7174C77.6909 26.1412 77.6298 26.6105 77.6298 27.1706Z" fill="#000055"/>
<path d="M91.392 22.5078V27.8967C91.392 28.3054 91.4226 28.6686 91.4683 29.0017C91.5141 29.3347 91.6209 29.6072 91.7735 29.8342C91.9261 30.0613 92.1397 30.2429 92.399 30.3489C92.6584 30.47 93.0093 30.5305 93.4365 30.5305C93.8637 30.5305 94.1994 30.47 94.474 30.3489C94.7487 30.2278 94.947 30.0613 95.0843 29.8342C95.2217 29.6072 95.3285 29.3347 95.3742 29.0017C95.42 28.6838 95.4505 28.3054 95.4505 27.8967V22.5078H97.2967V27.8815C97.2967 28.6535 97.2204 29.3044 97.0831 29.8191C96.9305 30.3489 96.7016 30.7576 96.3965 31.0906C96.0913 31.4085 95.6794 31.6507 95.1911 31.7869C94.7029 31.9231 94.1079 31.9988 93.4365 31.9988C92.75 31.9988 92.1549 31.9231 91.6667 31.7869C91.1784 31.6507 90.7817 31.4085 90.4613 31.0906C90.1409 30.7727 89.9121 30.3489 89.7595 29.8191C89.6069 29.2893 89.5459 28.6535 89.5459 27.8815V22.5078H91.392Z" fill="#000055"/>
<path d="M107.824 31.8323L104.071 24.733V31.8323H102.316V22.5078H104.727L108.48 29.6072V22.5078H110.235V31.8323H107.824Z" fill="#000055"/>
<path d="M118.184 22.5078C118.931 22.5078 119.618 22.5835 120.259 22.7197C120.9 22.856 121.449 23.0982 121.922 23.4463C122.395 23.7945 122.746 24.2789 123.02 24.8692C123.28 25.4747 123.417 26.2316 123.417 27.1549C123.417 28.0783 123.28 28.8352 123.02 29.4406C122.761 30.0461 122.395 30.5154 121.922 30.8787C121.449 31.242 120.9 31.4842 120.259 31.6204C119.618 31.7566 118.931 31.8323 118.184 31.8323H115.392V22.5078H118.184ZM121.479 27.1701C121.479 26.4738 121.388 25.9137 121.189 25.4898C121.006 25.066 120.747 24.733 120.427 24.5211C120.106 24.294 119.74 24.1426 119.343 24.0669C118.931 23.9913 118.519 23.961 118.092 23.961H117.238V30.3943H118.092C118.519 30.3943 118.931 30.364 119.343 30.2883C119.755 30.2126 120.106 30.0613 120.427 29.8342C120.747 29.6072 121.006 29.2741 121.189 28.8654C121.388 28.4265 121.479 27.8664 121.479 27.1701Z" fill="#000055"/>
<path d="M130.832 22.5078H132.693L136.202 31.8323H134.188L133.532 29.9402H129.886L129.23 31.8323H127.338L130.832 22.5078ZM130.42 28.4567H133.014L131.717 24.7633L130.42 28.4567Z" fill="#000055"/>
<path d="M141.345 24.0064H138.461V22.5078H146.105V24.0064H143.206V31.8323H141.36V24.0064H141.345Z" fill="#000055"/>
<path d="M152.33 31.8323H150.483V22.5078H152.33V31.8323Z" fill="#000055"/>
<path d="M166.306 27.1706C166.306 27.8971 166.199 28.548 165.986 29.1384C165.772 29.7287 165.467 30.2434 165.055 30.6672C164.658 31.0911 164.17 31.4241 163.605 31.6512C163.041 31.8782 162.4 31.9993 161.714 31.9993C161.012 31.9993 160.386 31.8782 159.822 31.6512C159.257 31.4241 158.769 31.0911 158.372 30.6672C157.976 30.2434 157.655 29.7287 157.441 29.1384C157.228 28.548 157.121 27.882 157.121 27.1706C157.121 26.444 157.228 25.7931 157.441 25.2027C157.655 24.6124 157.96 24.0977 158.372 23.6739C158.769 23.25 159.257 22.9321 159.822 22.69C160.386 22.4629 161.027 22.3418 161.714 22.3418C162.415 22.3418 163.041 22.4629 163.605 22.69C164.17 22.917 164.658 23.25 165.055 23.6739C165.452 24.0977 165.772 24.5972 165.986 25.2027C166.199 25.7931 166.306 26.444 166.306 27.1706ZM159.028 27.1706C159.028 27.7155 159.105 28.1999 159.242 28.6237C159.379 29.0476 159.578 29.3957 159.822 29.6833C160.066 29.9709 160.356 30.1829 160.676 30.3191C161.012 30.4705 161.347 30.531 161.714 30.531C162.08 30.531 162.415 30.4553 162.751 30.3191C163.071 30.1677 163.361 29.9558 163.605 29.6833C163.85 29.3957 164.033 29.0476 164.185 28.6237C164.323 28.1999 164.399 27.7155 164.399 27.1706C164.399 26.6256 164.323 26.1412 164.185 25.7174C164.048 25.3087 163.85 24.9454 163.605 24.6729C163.361 24.3853 163.071 24.1734 162.751 24.0372C162.415 23.8858 162.08 23.8252 161.714 23.8252C161.347 23.8252 161.012 23.9009 160.676 24.0372C160.356 24.1885 160.066 24.4005 159.822 24.6729C159.578 24.9605 159.394 25.3087 159.242 25.7174C159.089 26.1412 159.028 26.6105 159.028 27.1706Z" fill="#000055"/>
<path d="M176.589 31.8323L172.836 24.733V31.8323H171.081V22.5078H173.492L177.245 29.6072V22.5078H179V31.8323H176.589Z" fill="#000055"/>
<path d="M79.72 6.41816H70.3519V3.72375H81.6729V0H64.9355V13.8657H70.3519V10.1419H79.72V6.41816Z" fill="#000055"/>
<path d="M109.472 9.23368L104.498 0H98.2734L106.345 13.8657H112.524L120.595 0H114.446L109.472 9.23368Z" fill="#000055"/>
<path d="M137.988 6.82687C139.407 6.1457 140.063 5.07096 140.063 3.84484C140.063 1.57427 138.126 0 134.311 0H122.06V13.8657H134.601C138.69 13.8657 140.506 12.2611 140.506 9.94513C140.506 8.64333 139.712 7.46263 137.988 6.82687ZM127.339 3.33018H133.396C134.098 3.33018 134.586 3.76916 134.586 4.37465C134.586 4.99527 134.082 5.41911 133.396 5.41911H127.339V3.33018ZM133.838 10.5355H127.339V8.43141H133.838C134.54 8.43141 135.028 8.87039 135.028 9.47587C135.044 10.0965 134.54 10.5355 133.838 10.5355Z" fill="#000055"/>
<path d="M149.37 8.43141H157.853V5.41911H149.37V3.72375H158.845V0H143.084V13.8657H159.089V10.1419H149.37V8.43141Z" fill="#000055"/>
<path d="M161.332 0V3.72375H167.42V13.8657H172.912V3.72375H179V0H161.332Z" fill="#000055"/>
<path d="M87.9895 0L79.9336 13.8657H85.7009L86.7842 11.8221H95.4046L96.4879 13.8657H102.499L94.4434 0H87.9895ZM88.7219 8.21949L91.102 3.75402L93.4822 8.21949H88.7219Z" fill="#000055"/>
<path d="M22.4589 26.0511L20.5975 22.8118H17.2256L14.1436 17.423H10.0546L13.1366 22.8118H9.01713L4.10424 14.1836H0L6.78955 26.0511H6.82006H10.8633H22.4589Z" fill="#000055"/>
<path d="M47.3746 14.1836L42.4617 22.8118H38.3422L41.4242 17.423H37.3352L34.2532 22.8118H30.8813L29.0352 26.0511H40.6155H44.6588H44.6893L51.4788 14.1836H47.3746Z" fill="#000055"/>
<path d="M10.085 31.818H41.378L43.3004 28.5332H8.22363L10.085 31.818Z" fill="#000055"/>
<path d="M25.7392 18.0288L14.7539 8.2805L18.9344 0.999512L25.7392 6.81219L32.5593 0.984375L36.7398 8.31077L25.7392 18.0288Z" fill="#000055"/>
</g>
<defs>
<clipPath id="clip0_330_612">
<rect width="179" height="32" fill="white"/>
</clipPath>
</defs>
</svg>
