<svg width="129" height="83" viewBox="0 0 129 83" fill="none" xmlns="http://www.w3.org/2000/svg">
<path d="M49.6748 35.1704C48.7698 26.4502 57.2545 22.1116 57.2545 22.1116C57.2545 22.1116 65.5129 19.9957 61.2843 10.0832C61.2843 10.0832 69.3991 15.2137 66.0175 22.5457C66.0175 22.5457 68.4115 23.035 69.1667 24.7227C69.1667 24.7227 70.0961 18.9012 76.5842 16.6783C83.0724 14.4586 84.8885 13.7003 85.0077 9.55117C85.0077 9.55117 88.255 13.3731 83.7787 17.8096C79.3055 22.2461 76.9909 25.4932 81.7424 28.5477C81.7424 28.5477 82.2469 24.8848 86.7201 23.5914C86.7201 23.5914 83.4271 28.2572 84.8734 33.3114C86.3196 38.3624 85.6348 40.0533 82.6017 42.3526C82.6017 42.3526 81.0209 43.2484 81.4336 44.7283C84.1579 45.7892 84.6655 47.107 85.1149 49.6999C90.1935 48.7306 95.5565 47.266 97.0516 42.9641C99.782 35.1123 100.476 27.7466 109.854 26.3983C109.854 26.3983 104.729 29.092 105.313 36.586C105.894 44.077 104.665 51.4212 96.4858 57.3407L96.1711 60.6245C96.1711 60.6245 99.6995 59.6246 102.439 56.1085C105.179 52.5923 110.174 50.2563 114.638 51.3173C114.638 51.3173 108.089 51.5344 108.044 56.4142C107.995 61.2971 108.948 65.3912 103.124 69.4149C101.616 70.4575 99.2194 71.7601 95.5106 71.9068C95.4984 77.2759 91.9638 82.5532 88.2489 82.5532H14.0726C7.53557 82.5532 2.22461 77.2453 2.22461 70.7083V47.0153C2.22461 40.4783 7.53557 35.1704 14.0726 35.1704H49.6748ZM85.9955 44.6702C85.9955 44.6702 93.988 44.4837 95.367 36.0448C96.7459 27.6029 96.3116 26.175 100.048 23.7198C100.048 23.7198 93.7738 25.2303 91.7039 32.5592C89.6339 39.8912 91.3798 42.6308 85.9955 44.6702ZM87.6374 29.3763C87.6374 29.3763 84.9407 18.7422 96.593 13.6483C108.245 8.55747 109.01 5.02295 108.667 1.76666C108.667 1.76666 113.241 9.07114 105.799 15.0272C98.3539 20.9864 90.6338 20.4544 87.6374 29.3763Z" fill="#000055"/>
<path fill-rule="evenodd" clip-rule="evenodd" d="M48.0059 32.7249C47.2812 24.1699 55.607 19.9138 55.607 19.9138C55.607 19.9138 63.8654 17.798 59.6368 7.88543C59.6368 7.88543 67.7514 13.016 64.3667 20.348C64.3667 20.348 66.761 20.8372 67.5192 22.525C67.5192 22.525 68.4456 16.7034 74.9368 14.4805C81.4249 12.2608 83.2411 11.5025 83.3573 7.35036C83.3573 7.35036 86.6075 11.1754 82.1313 15.6119C77.655 20.0484 75.3435 23.2955 80.0949 26.3469C80.0949 26.3469 80.5964 22.6839 85.0727 21.3937C85.0727 21.3937 81.7795 26.0595 83.2226 31.1136C84.6688 36.1647 83.984 37.8555 80.9539 40.1548C80.9539 40.1548 79.3703 41.0506 79.7862 42.5305C82.5104 43.5915 83.0147 44.9093 83.4642 47.5021C88.5458 46.5328 93.9087 45.0682 95.4038 40.7663C98.1312 32.9114 98.8284 25.5489 108.203 24.2005C108.203 24.2005 103.082 26.8942 103.663 34.3882C104.243 41.8792 103.017 49.2235 94.8353 55.1429L94.5233 58.4267C94.5233 58.4267 98.0487 57.4269 100.788 53.9107C103.528 50.3945 108.524 48.0585 112.988 49.1195C112.988 49.1195 106.442 49.3366 106.396 54.2165C106.347 59.0994 107.301 63.1934 101.476 67.2171C99.9658 68.2598 97.5689 69.5623 93.8631 69.709C93.8478 75.4603 90.3438 80.1078 86.7206 80.1078H12.5443C6.00725 80.1078 0.696289 74.7999 0.696289 68.2628V44.5699C0.696289 38.0328 6.00725 32.7249 12.5443 32.7249H48.0059ZM84.348 43.2307C84.348 43.2307 92.3402 43.0472 93.7192 34.6053C95.0951 26.1635 94.6639 24.7356 98.3972 22.2834C98.3972 22.2834 92.1264 23.7908 90.0564 31.1228C87.9865 38.4517 89.7323 41.1913 84.348 43.2307ZM85.9899 27.6097C85.9899 27.6097 83.2899 16.9755 94.9422 11.8816C106.598 6.79081 107.362 3.25629 107.017 0C107.017 0 111.594 7.30448 104.149 13.2636C96.7065 19.2197 88.9833 18.6877 85.9899 27.6097Z" fill="#FFA5CA"/>
<path d="M48.9426 33.4939C48.0589 24.7891 56.5222 20.4626 56.5222 20.4626C56.5222 20.4626 64.7839 18.3468 60.5553 8.43422C60.5553 8.43422 68.6669 13.5648 65.2852 20.8968C65.2852 20.8968 67.6795 21.386 68.4377 23.0707C68.4377 23.0707 69.3642 17.2522 75.8523 15.0294C82.3404 12.8096 84.1565 12.0482 84.2758 7.89915C84.2758 7.89915 87.5227 11.7241 83.0465 16.1606C78.5733 20.5972 76.2589 23.8443 81.0134 26.8957C81.0134 26.8957 81.5149 23.2328 85.9912 21.9425C85.9912 21.9425 82.6949 26.6083 84.1411 31.6594C85.5873 36.7135 84.9025 38.4043 81.8694 40.7005C81.8694 40.7005 80.2886 41.5964 80.7014 43.0763C83.4287 44.1403 83.9332 45.455 84.3827 48.0509C89.4643 47.0816 94.8242 45.6171 96.3193 41.3151C99.0497 33.4603 99.7438 26.0977 109.121 24.7463C109.121 24.7463 104 27.443 104.581 34.9371C105.162 42.4281 103.933 49.7723 95.7538 55.6917L95.4388 58.9755C95.4388 58.9755 98.9672 57.9757 101.707 54.4595C104.446 50.9403 109.442 48.6073 113.907 49.6683C113.907 49.6683 107.36 49.8824 107.311 54.7653C107.265 59.6451 108.219 63.7392 102.395 67.7629C100.884 68.8086 98.4874 70.1111 94.7816 70.2548C94.7663 76.1039 91.2317 80.8767 87.5259 80.8767H13.3499C6.81286 80.8767 1.50488 75.5688 1.50488 69.0318V45.3388C1.50488 38.8018 6.81286 33.4939 13.3499 33.4939H48.9426ZM85.2665 43.7795C85.2665 43.7795 93.2557 43.596 94.6347 35.1541C96.0137 26.7122 95.5794 25.2844 99.3157 22.8292C99.3157 22.8292 93.0446 24.3396 90.9716 31.6716C88.9017 39.0005 90.6478 41.7401 85.2665 43.7795ZM86.9051 28.1585C86.9051 28.1585 84.2084 17.5213 95.8607 12.4305C107.513 7.33964 108.281 3.80512 107.935 0.548828C107.935 0.548828 112.512 7.85331 105.067 13.8094C97.622 19.7655 89.9015 19.2335 86.9051 28.1585Z" fill="#FF267E"/>
<path d="M14.1726 37.2305V37.1918H14.0939V37.1595L14.1773 37.0373H14.2083V37.1594H14.2321V37.1918H14.2083V37.2305H14.1726ZM14.1726 37.1594V37.0936L14.1284 37.1594H14.1726ZM14.3222 37.2305V37.1918H14.2434V37.1595L14.3269 37.0373H14.3578V37.1594H14.3817V37.1918H14.3578V37.2305H14.3222ZM14.3222 37.1594V37.0936L14.2779 37.1594H14.3222ZM14.3997 37.0856C14.3997 37.0684 14.4035 37.0556 14.411 37.0473C14.4186 37.039 14.4289 37.0348 14.4418 37.0348C14.4552 37.0348 14.4656 37.039 14.4732 37.0473C14.4808 37.0555 14.4846 37.0683 14.4846 37.0856C14.4846 37.1028 14.4808 37.1156 14.4732 37.1239C14.4656 37.1322 14.4554 37.1364 14.4425 37.1364C14.4291 37.1364 14.4186 37.1323 14.411 37.1241C14.4035 37.1158 14.3997 37.1029 14.3997 37.0856ZM14.4284 37.0854C14.4284 37.0979 14.4299 37.1063 14.4328 37.1105C14.4349 37.1137 14.438 37.1153 14.4418 37.1153C14.4457 37.1153 14.4488 37.1137 14.451 37.1105C14.4538 37.1063 14.4552 37.0979 14.4552 37.0854C14.4552 37.0728 14.4538 37.0645 14.451 37.0603C14.4488 37.0571 14.4457 37.0554 14.4418 37.0554C14.438 37.0554 14.4349 37.057 14.4328 37.0602C14.4299 37.0644 14.4284 37.0728 14.4284 37.0854ZM14.4699 37.2378H14.4426L14.5451 37.0348H14.5716L14.4699 37.2378ZM14.5295 37.1873C14.5295 37.1701 14.5332 37.1573 14.5407 37.149C14.5483 37.1407 14.5587 37.1365 14.5718 37.1365C14.585 37.1365 14.5954 37.1407 14.6029 37.149C14.6105 37.1573 14.6143 37.1701 14.6143 37.1873C14.6143 37.2046 14.6105 37.2174 14.6029 37.2257C14.5954 37.2341 14.5852 37.2382 14.5722 37.2382C14.5588 37.2382 14.5483 37.2341 14.5407 37.2257C14.5332 37.2174 14.5295 37.2046 14.5295 37.1873ZM14.5582 37.1872C14.5582 37.1997 14.5596 37.208 14.5625 37.2122C14.5647 37.2155 14.5677 37.2171 14.5716 37.2171C14.5755 37.2171 14.5785 37.2155 14.5806 37.2124C14.5835 37.2081 14.585 37.1997 14.585 37.1872C14.585 37.1747 14.5836 37.1663 14.5808 37.162C14.5786 37.1588 14.5755 37.1573 14.5716 37.1573C14.5676 37.1573 14.5646 37.1588 14.5625 37.162C14.5596 37.1663 14.5582 37.1747 14.5582 37.1872Z" fill="#000055"/>
</svg>
