<svg width="344" height="532" viewBox="0 0 344 532" fill="none" xmlns="http://www.w3.org/2000/svg">
<path d="M170 531.369L13.4277 482H335.706L280.671 531.369H170Z" fill="url(#paint0_linear_330_1770)"/>
<path fill-rule="evenodd" clip-rule="evenodd" d="M328.191 0.476562C331.165 0.476562 334.086 1.96626 336.272 3.6534C338.795 5.59969 342.82 14.9151 343.287 16.2003C343.749 17.4749 344.001 18.85 344.001 20.285V469.978C344.001 476.602 338.624 481.979 332.001 481.979H16.7653C12.6418 481.979 8.99956 479.893 6.83995 476.72C5.78394 475.17 2.05881 469.144 1.61808 468.136C0.972838 466.664 0.955078 463.88 0.955078 462.172V12.4769C0.955078 5.85354 6.33213 0.476562 12.9555 0.476562H328.191Z" fill="#B7004A"/>
<path fill-rule="evenodd" clip-rule="evenodd" d="M340.142 12.4932C340.142 5.87025 334.765 0.493164 328.141 0.493164H12.512C5.88861 0.493164 0.511719 5.87025 0.511719 12.4932V463.767C0.511719 470.39 5.88861 475.767 12.512 475.767H328.141C334.765 475.767 340.142 470.39 340.142 463.767V12.4932Z" fill="#FF267E"/>
<path fill-rule="evenodd" clip-rule="evenodd" d="M324.922 7.03027C329.815 7.03027 333.787 11.0022 333.787 15.8961V457.135C333.787 462.029 329.815 466.001 324.922 466.001H17.5768C12.6829 466.001 8.71094 462.029 8.71094 457.135V29.9204C10.7277 30.8495 12.9738 31.3695 15.3397 31.3695C24.0998 31.3695 31.2114 24.2578 31.2114 15.4977C31.2114 12.3861 30.3141 9.48253 28.7627 7.03027H324.922Z" fill="#FF9CC4"/>
<path fill-rule="evenodd" clip-rule="evenodd" d="M324.92 7.03024C324.92 7.03024 206.569 6.83809 178.013 6.66709C162.818 6.57541 145.541 6.4908 128.262 6.42909C114.656 6.38149 101.049 6.35152 88.4619 6.33918C55.0206 6.30392 28.7615 6.35151 28.7615 6.35151L28.1868 7.39165C28.9432 8.58517 29.5372 9.88976 29.9391 11.2772C30.327 12.617 30.5368 14.0327 30.5386 15.4977C30.5421 19.6935 28.8408 23.4962 26.0906 26.2499C23.3404 29.0071 19.5378 30.7154 15.3385 30.719C14.2208 30.719 13.1331 30.5991 12.0841 30.3717C11.0017 30.1372 9.96146 29.7864 8.9795 29.3351L8.06445 28.9137V29.9204L8.17205 457.135C8.17558 459.729 9.22985 462.079 10.9329 463.776C12.6359 465.474 14.9841 466.525 17.5756 466.521L324.92 466.223C327.427 466.22 329.696 465.201 331.339 463.554C332.979 461.909 333.993 459.639 333.989 457.135L333.809 15.8961C333.804 13.4439 332.806 11.2261 331.197 9.62002C329.589 8.0175 327.369 7.02495 324.92 7.03024ZM324.92 7.03024C327.366 7.03377 329.58 8.02984 331.181 9.63588C332.78 11.2402 333.769 13.4527 333.765 15.8961L333.585 457.135C333.582 459.526 332.609 461.689 331.038 463.253C329.471 464.817 327.307 465.783 324.92 465.779L17.5756 465.483C15.2732 465.479 13.1895 464.542 11.6804 463.031C10.1748 461.52 9.2439 459.436 9.24566 457.135L9.35326 30.8935C10.1431 31.202 10.9628 31.4524 11.8073 31.6375C12.9444 31.8861 14.1274 32.0183 15.3385 32.02C19.8993 32.0236 24.0316 30.1742 27.0268 27.186C30.0221 24.1943 31.8785 20.062 31.882 15.4977C31.8837 13.904 31.658 12.3614 31.2384 10.9017C30.9158 9.78574 30.4787 8.7174 29.941 7.71076C35.4009 7.71957 59.1776 7.75129 88.4619 7.71956C101.049 7.70722 114.656 7.67725 128.262 7.62965C145.541 7.56795 162.818 7.48509 178.013 7.39342C206.569 7.22065 324.92 7.03024 324.92 7.03024Z" fill="#B7004A"/>
<path d="M15.7188 6.07823C10.8702 6.07823 6.93956 10.0088 6.93956 14.8575C6.93956 19.7061 10.8702 23.6367 15.7188 23.6367C20.5674 23.6367 24.498 19.7061 24.498 14.8575C24.498 10.0088 20.5674 6.07823 15.7188 6.07823Z" fill="#FF9CC4"/>
<path d="M9.39648 13.6809H12.9026L15.6361 8.93848L18.3696 13.6809H21.8758L19.1423 18.4331H12.13L9.39648 13.6809ZM18.3696 13.6809H12.9026L15.6361 18.4331L18.3696 13.6809Z" fill="#B7004A"/>
<path fill-rule="evenodd" clip-rule="evenodd" d="M15.7185 23.7284C18.1778 23.7578 20.4157 22.7816 22.0476 21.1872C23.6943 19.5784 24.7212 17.3395 24.7495 14.8579C24.7757 12.3559 23.7796 10.0798 22.1544 8.42251C20.517 6.75217 18.2394 5.71516 15.7185 5.69226C13.1828 5.67525 10.8758 6.68871 9.20654 8.34596C8.35501 9.19127 7.66862 10.2047 7.20508 11.332C6.75815 12.4181 6.52058 13.6108 6.52942 14.8579C6.5709 17.3787 7.61111 19.6595 9.30232 21.2742C10.9649 22.8621 13.2414 23.8023 15.7185 23.7284ZM15.7185 23.5458C13.3482 23.4758 11.2404 22.446 9.72131 20.8555C8.23135 19.2951 7.31074 17.1838 7.34908 14.8579C7.35706 13.7253 7.59501 12.6491 8.00714 11.6644C8.43372 10.6464 9.05101 9.72842 9.81709 8.95705C11.3267 7.43588 13.4087 6.48065 15.7185 6.4656C18.0432 6.44467 20.1561 7.37111 21.6958 8.88049C23.248 10.403 24.2213 12.5149 24.2459 14.8579C24.2728 17.2224 23.3352 19.3736 21.8026 20.9425C20.2555 22.5258 18.1048 23.5177 15.7185 23.5458Z" fill="#B7004A"/>
<path fill-rule="evenodd" clip-rule="evenodd" d="M340.457 12.4931C340.46 9.09322 339.082 6.01334 336.854 3.7815C334.625 1.54817 331.544 0.165106 328.143 0.161993L12.513 9.53319e-07C9.06427 -0.00133291 5.94006 1.39715 3.67694 3.65804C1.41383 5.91952 0.0133502 9.04431 0.0118681 12.4931L0 462.977C0 466.43 1.40203 469.557 3.66811 471.822C5.93271 474.087 9.05983 475.487 12.513 475.486L328.143 475.38C331.565 475.377 334.664 473.987 336.908 471.742C339.15 469.497 340.537 466.398 340.534 462.977L340.457 12.4931ZM339.829 12.4931L339.752 462.977C339.749 466.18 338.447 469.08 336.346 471.179C334.244 473.277 331.344 474.576 328.143 474.573L12.513 474.467C9.34142 474.467 6.46924 473.18 4.3899 471.099C2.31204 469.019 1.0241 466.147 1.02558 462.977L1.01371 12.4931C1.01223 9.31997 2.29862 6.44358 4.38093 4.36098C6.46175 2.27764 9.33846 0.9875 12.513 0.986167L328.143 0.824174C331.365 0.82121 334.283 2.12647 336.399 4.23752C338.516 6.35006 339.826 9.26958 339.829 12.4931Z" fill="#FF9CC4"/>
<defs>
<linearGradient id="paint0_linear_330_1770" x1="170.972" y1="475.483" x2="170.972" y2="531.369" gradientUnits="userSpaceOnUse">
<stop stop-color="#FF267E"/>
<stop offset="1" stop-color="#FF267E" stop-opacity="0"/>
</linearGradient>
</defs>
</svg>
