<svg width="77" height="77" viewBox="0 0 77 77" fill="none" xmlns="http://www.w3.org/2000/svg">
<path d="M38.4115 74.7939C58.588 74.7939 74.9442 58.4377 74.9442 38.2612C74.9442 18.0848 58.588 1.72852 38.4115 1.72852C18.2351 1.72852 1.87891 18.0848 1.87891 38.2612C1.87891 58.4377 18.2351 74.7939 38.4115 74.7939Z" fill="#58C08D"/>
<path d="M33.5 62.9999C50.897 62.9999 65 49.7923 65 33.4999C65 17.2075 50.897 3.99988 33.5 3.99988C16.103 3.99988 2 17.2075 2 33.4999C2 49.7923 16.103 62.9999 33.5 62.9999Z" fill="#73CA9F"/>
<path fill-rule="evenodd" clip-rule="evenodd" d="M38.4112 0.96383C28.0973 0.911593 18.7382 5.05863 11.9386 11.7885C5.11297 18.5445 0.878773 27.9096 0.829438 38.2612C0.785907 48.6477 4.96784 58.0766 11.7587 64.9138C18.5669 71.7685 27.9957 76.0113 38.4112 76.0404C48.8355 76.0375 58.3049 71.8178 65.1247 64.966C71.9446 58.123 76.1235 48.671 76.0945 38.2612C76.0074 27.8892 71.7704 18.5097 64.9215 11.7508C58.1017 5.0238 48.731 0.891279 38.4112 0.96383ZM38.4112 1.72708C58.5661 1.72708 74.9337 18.0977 74.9337 38.2612C74.9337 58.4248 58.5661 74.7925 38.4112 74.7925C18.2477 74.7925 1.87719 58.4248 1.87719 38.2612C1.87719 18.0977 18.2477 1.72708 38.4112 1.72708Z" fill="#14143C"/>
<path fill-rule="evenodd" clip-rule="evenodd" d="M62.1475 41.9438C61.9141 42.216 60.7626 43.3919 60.3979 43.681C59.4594 44.4243 43.2219 55.2425 42.5042 55.7879C42.0159 56.1591 41.4091 56.3789 40.7536 56.3789C39.1343 56.3789 37.8194 55.0406 37.8194 53.3925C37.8194 53.248 37.8486 45.6954 37.8486 45.6954C37.8486 45.6954 20.1221 44.8669 19.9966 44.8669C16.937 44.8669 14.4531 42.3388 14.4531 39.2247C14.4531 38.1853 14.7293 37.2122 15.2107 36.3758C15.5686 35.7552 17.3095 33.9635 17.7432 33.6467C18.4337 33.1419 19.2439 32.7955 20.1201 32.6579C20.3827 32.6164 21.896 32.46 21.896 32.46L37.8457 31.865C37.8379 29.8813 37.8194 24.6786 37.8194 24.5648C37.8194 23.8739 38.0499 23.2384 38.4379 22.7316C38.6548 22.4485 39.7207 21.3567 40.0553 21.1201C40.5299 20.7855 41.1056 20.5895 41.7261 20.5895C42.4079 20.5895 43.0361 20.8271 43.535 21.2251C44.2197 21.7725 60.3143 33.0132 61.1585 33.618C62.5832 34.6396 63.5149 36.3273 63.5149 38.2348C63.5149 39.6543 62.9985 40.9519 62.1475 41.9438Z" fill="#000055"/>
<path fill-rule="evenodd" clip-rule="evenodd" d="M37.4175 43.6954C37.4175 43.6954 18.7785 42.8521 18.5498 42.8243C15.7644 42.4799 13.6045 40.1022 13.6045 37.2247C13.6045 34.4234 15.6505 32.0962 18.3271 31.6567C18.6122 31.6102 37.4175 30.7312 37.4175 30.7312C37.4175 30.7312 37.3869 22.7094 37.3869 22.5649C37.3869 20.9168 38.7252 19.5795 40.3733 19.5795C41.0681 19.5795 41.7076 19.817 42.2144 20.2149C42.9113 20.7623 59.2925 32.0032 60.1526 32.608C61.6028 33.6295 62.5511 35.3172 62.5511 37.2247C62.5511 39.0351 61.6958 40.6476 60.3674 41.681C59.4122 42.4244 42.8865 53.2426 42.156 53.788C41.6581 54.1592 41.0414 54.3789 40.3733 54.3789C38.7252 54.3789 37.3869 53.0406 37.3869 51.3925C37.3869 51.248 37.4175 43.6954 37.4175 43.6954Z" fill="#FFD300"/>
<path fill-rule="evenodd" clip-rule="evenodd" d="M38.2204 32.7242C38.2204 32.7242 20.024 33.597 19.7158 33.6828C18.1559 34.1182 17.0098 35.5518 17.0098 37.2502C17.0098 39.0438 18.2878 40.5415 19.9825 40.8808C20.2191 40.9279 38.2213 41.7546 38.2213 41.7546C39.0592 41.8592 39.687 42.5737 39.6841 43.4182C39.6841 43.4182 39.6549 50.603 39.6549 50.7406C39.6549 51.3881 40.1809 51.9141 40.8284 51.9141C41.0904 51.9141 41.3326 51.8283 41.5277 51.6822C42.2224 51.1648 57.9334 40.8818 58.842 40.1749C59.7138 39.4972 60.2755 38.4387 60.2755 37.2502C60.2755 35.9976 59.6525 34.8901 58.6996 34.22C57.8787 33.6412 42.2167 22.8898 41.5503 22.3677C41.3515 22.2112 41.1008 22.118 40.8284 22.118C40.1809 22.118 39.6549 22.6439 39.6549 23.2914C39.6549 23.429 39.6841 31.0606 39.6841 31.0606C39.687 31.9052 39.0592 32.6195 38.2204 32.7242Z" stroke="#FFF0A9" stroke-miterlimit="2" stroke-linejoin="round"/>
<path fill-rule="evenodd" clip-rule="evenodd" d="M38.2671 6.04135C29.4358 6.0113 21.4233 9.57435 15.6143 15.3484C9.78765 21.1374 6.17706 29.15 6.14952 38.0038C6.12698 46.8751 9.70988 54.9227 15.5164 60.7543C21.333 66.596 29.3807 70.2116 38.2671 70.2266C47.1585 70.2266 55.2311 66.621 61.0402 60.7819C66.8743 54.9478 70.4549 46.8877 70.4299 38.0038C70.4048 29.1399 66.7741 21.1199 60.94 15.3284C55.1309 9.55683 47.1034 6.00129 38.2671 6.04135ZM38.2671 6.92524C46.828 6.9628 54.5801 10.4708 60.1638 16.1096C65.7225 21.7309 69.1778 29.4705 69.1527 38.0038C69.1277 46.5171 65.6473 54.2141 60.0636 59.7928C54.4799 65.364 46.7704 68.8219 38.2671 68.8194C29.7563 68.8344 22.0443 65.3916 16.4505 59.8204C10.8468 54.2417 7.3663 46.5271 7.34377 38.0038C7.31873 29.4604 10.7667 21.7108 16.353 16.0896C21.9517 10.4532 29.7012 6.95278 38.2671 6.92524Z" fill="#31825A"/>
<path fill-rule="evenodd" clip-rule="evenodd" d="M37.6313 5.64277C28.8375 5.62274 20.8626 9.17327 15.0836 14.9298C9.28954 20.6938 5.69879 28.6687 5.67876 37.4775C5.66373 46.3013 9.22949 54.3013 15.0085 60.1004C20.7951 65.9044 28.795 69.4975 37.6313 69.51C46.4701 69.5075 54.4701 65.9244 60.2792 60.1204C66.0632 54.3213 69.6438 46.3088 69.6187 37.4775C69.5937 28.6587 65.9882 20.6788 60.2041 14.9123C54.4201 9.16077 46.4275 5.61272 37.6313 5.64277ZM37.6313 6.26875C46.2322 6.29879 54.0193 9.81429 59.628 15.4731C65.2368 21.1195 68.7173 28.8966 68.6922 37.4775C68.6672 46.0409 65.1868 53.788 59.553 59.4018C53.9442 65.008 46.1896 68.486 37.6313 68.486C29.0704 68.4985 21.3107 65.0281 15.6844 59.4218C10.0531 53.808 6.55774 46.0509 6.54021 37.4775C6.52268 28.8891 9.99298 21.1044 15.6118 15.4581C21.2406 9.79925 29.0278 6.29128 37.6313 6.26875Z" fill="#BEE6D3"/>
</svg>
