<svg width="193" height="47" viewBox="0 0 193 47" fill="none" xmlns="http://www.w3.org/2000/svg">
<path d="M67.9365 10.9324L65.7909 12.171L64.6376 4.60457L1.7168 2.18115V22.3493L14.7515 22.6186V25.7421L10.0043 26.0114V43.9177L61.9019 41.0096L67.9365 10.9324Z" fill="#F30606"/>
<path d="M190.345 21.9992L193 2.53112L141.29 3.47356C140.888 2.85424 140.566 2.15415 140.378 1.40019L65.4419 2.77346L2.14564 0.0807805L0 0V24.3688L2.03835 24.4226L8.31434 24.5573V46.0987L10.5136 45.9641L62.3307 43.056L183.13 42.6521L185.463 28.7578L182.594 28.6232L184.122 22.0531L190.345 21.9992ZM58.3077 4.60449L59.0318 20.1143L62.2503 29.0271L61.9821 38.1284L10.3795 43.8907V25.9844L15.1267 25.7151V22.5916L2.06518 22.3493V2.18107L58.3077 4.60449Z" fill="black"/>
<path d="M181.118 8.8051H166.689L164.946 16.2369L165.616 11.4439L163.229 8.8051L149.202 8.83203L147.512 16.2908L148.156 11.794L145.474 8.83203H134.853L130.401 12.0363L131.125 8.8051H113.021L112.27 12.0632L109.347 8.83203H98.726L95.293 11.3093L91.6722 23.1571L95.1321 8.83203L80.2467 20.1952L74.9095 14.5136L74.7485 11.6593L72.3615 17.4217C72.3347 17.5025 72.3615 17.5832 72.442 17.5563L73.8366 17.3678C73.9171 17.3678 73.9439 17.4486 73.9171 17.5294L70.7255 23.0494C70.6718 23.184 70.5914 23.3187 70.5109 23.4802C70.3768 23.7226 70.2427 23.938 70.1086 24.1265L66.0051 31.1813C65.9514 31.289 65.8173 31.2082 65.871 31.1005L69.4917 20.6798C69.5186 20.5991 69.4649 20.5452 69.4113 20.5452L67.7216 20.8683C67.6679 20.8683 67.6143 20.8145 67.6411 20.7337L71.5033 8.34735L65.8978 11.2016L64.7445 5.33154L64.4763 12.0902C64.4763 12.3864 64.6104 12.6826 64.8786 12.8441C65.1468 13.0057 65.4687 13.0057 65.7369 12.8711L67.0779 12.1171L64.2349 28.9194L62.4111 38.1553H70.1354L72.9516 25.8767L77.8865 31.3429L84.1357 26.3614L81.4537 38.0746H88.427L89.1243 35.0049L92.0209 38.1284H102.642L107.094 34.8433L111.493 15.6714H116.883L111.761 38.0746H118.734L123.857 15.6714H129.489L125.091 34.8164L128.121 38.1015H138.742L143.033 34.951L142.336 38.0476H149.283L150.597 32.0699L153.788 35.5165L153.198 38.1284H160.172L160.896 34.951L163.739 38.1015H178.168L180.823 26.5499L171.785 17.0178L172.107 15.6714H176.264L175.888 17.2063L180.984 22.5647H181.574L184.069 12.0902L181.118 8.8051ZM100.952 31.289H97.8141L96.9827 30.3735L100.335 15.6984H103.5L104.305 16.56L100.952 31.289ZM137.052 31.2621H133.914L133.083 30.3466L136.436 15.6714H139.6L140.405 16.5331L137.052 31.2621ZM155.398 28.0578L152.152 24.4496L154.244 15.6176H157.275L158.187 16.587L155.398 28.0578ZM173.153 29.7003L172.777 31.2351H168.62L168.996 29.7003L164.034 24.4765L160.735 33.7663L158.348 31.2351L162.344 28.3001L164.275 20.3567L173.153 29.7003Z" fill="white"/>
<path d="M62.438 19.5755C62.438 19.2793 62.2771 18.9831 62.0089 18.8485C61.8748 18.7677 61.7138 18.7408 61.5797 18.7408C61.4456 18.7408 61.3115 18.7947 61.1774 18.8485L59.0318 20.1141L58.3345 5.51974L57.2616 8.9933L56.6448 9.02022C56.6448 8.96637 56.618 8.88559 56.618 8.83174C53.5336 8.88559 50.4224 9.12793 47.5526 10.3396C47.2844 10.3396 47.043 10.3935 46.8017 10.4473C46.9894 10.3666 47.1235 10.2589 47.204 10.1242C47.2844 9.96266 47.1503 9.72032 46.8553 9.66647C46.3189 9.55876 45.8093 9.72032 45.407 9.90881C45.2461 9.96266 45.0852 10.0434 44.9242 10.1242C44.3074 10.3935 43.7173 10.6628 43.1273 10.932C42.9395 11.0128 43.1273 11.309 43.3418 11.2552C43.4759 11.2282 43.5832 11.2013 43.7173 11.1744C43.771 11.2552 43.8782 11.2821 43.9587 11.2282C44.0392 11.1744 44.1196 11.1205 44.2001 11.0667C44.6292 10.9859 45.0583 10.8782 45.4875 10.7974C45.6216 10.7705 45.7825 10.7435 45.9434 10.6897C45.0852 11.0128 41.974 13.6247 42.3495 14.4864C42.3495 14.5133 42.4031 14.5133 42.4299 14.5133C42.8322 14.4864 42.9932 14.3517 43.1809 14.1632C43.1273 14.3517 43.0736 14.5402 43.0468 14.7287C42.6981 15.8327 42.4031 16.9367 42.2958 18.0946C42.2958 18.1215 42.2958 18.1215 42.2958 18.1484C41.5449 21.5143 40.8475 24.9071 40.0697 28.2729C40.2306 26.4957 40.3916 24.7186 40.6061 22.9952C41.1425 18.7408 41.8667 14.4325 42.2422 10.205C42.2422 10.0973 42.1617 10.0434 42.0544 10.0704C42.0544 10.0704 42.0544 10.0704 42.0276 10.0704C41.8667 10.0434 41.7058 10.0704 41.5449 10.0973C41.679 9.20871 41.8399 8.34705 42.0008 7.45847C42.0276 7.35076 41.8131 7.32383 41.7862 7.40462C41.518 8.10471 41.2498 8.80481 41.0084 9.50491C41.0353 8.18549 41.0889 6.89301 41.223 5.57359C41.2498 5.41203 40.9548 5.35818 40.9012 5.49281C40.0429 7.45847 39.2651 9.3972 38.6482 11.3359C38.6482 10.7974 38.6482 10.2589 38.6751 9.72032C38.6751 9.55876 38.38 9.50491 38.3264 9.63954C37.0927 13.2208 36.2076 16.7482 35.698 20.4911C35.6712 20.6526 35.6712 20.7872 35.6444 20.9488C32.9087 18.0407 30.3875 14.998 28.4028 11.5244C28.4028 11.4975 28.376 11.4975 28.3492 11.4975C28.3492 11.2821 28.3224 11.0667 28.2955 10.8512C28.8856 11.5783 29.3952 12.3861 29.9316 13.2208C29.9852 13.3016 30.1462 13.1939 30.1193 13.1131C29.8243 12.063 29.5293 11.0397 29.5293 9.90881C29.5293 8.93944 28.0005 9.66647 27.9469 10.2589C27.3837 10.9859 26.9009 11.7129 26.4718 12.4399C26.3913 11.9014 26.3108 11.3629 26.2036 10.8243C26.3377 10.6897 26.4449 10.5281 26.5522 10.3666C26.579 10.3127 26.5254 10.2589 26.4449 10.2589C26.2036 10.3127 24.3261 10.2858 23.8165 10.2589C23.146 10.205 22.3682 10.932 22.2609 11.4975C21.51 15.9943 21.1613 20.7872 20.1958 25.2032C20.1958 25.2571 20.3031 25.311 20.3299 25.2571C20.6785 24.6916 21.0004 24.1262 21.3222 23.5607C21.1345 24.9878 20.9467 26.4419 20.759 27.8959C20.7054 28.1921 20.6249 28.4883 20.5713 28.7576C20.5444 27.7882 20.3567 26.8727 20.3031 25.9303C20.3031 25.8495 20.1153 25.9033 20.0885 25.9841C19.2839 28.6499 17.4869 32.7428 18.6402 35.0046C18.7743 35.2739 22.5828 35.6778 23.3874 35.947C23.7897 36.0817 24.2725 35.9201 24.6211 35.6778C24.6211 35.7047 24.6211 35.7047 24.6211 35.7316C24.6211 35.7855 24.7821 35.7586 24.8089 35.6778C24.8357 35.597 24.8625 35.5162 24.8894 35.4354C25.1307 35.1931 25.238 34.9238 25.0771 34.7623C25.9622 31.0733 26.6863 27.4382 27.1959 23.6953C27.33 22.6183 27.2227 23.453 27.33 22.349C28.7783 25.0417 30.4948 27.5728 31.8627 30.3193C31.6481 30.0231 31.4067 29.7 31.1653 29.4038C31.1117 29.323 30.924 29.35 30.9508 29.4308C31.809 32.3389 33.0428 36.7279 35.242 38.3435C35.403 38.4512 36.0198 38.2897 36.3417 38.182C36.3953 38.2089 36.449 38.2358 36.5026 38.2628C36.5294 38.4782 36.5831 38.6936 36.6635 38.8821C36.6904 38.9359 36.7976 38.9359 36.8245 38.8551C36.9854 38.6397 37.1195 38.3974 37.2536 38.182C37.3609 38.155 37.4681 38.1012 37.5754 38.0473C38.085 37.7781 38.5946 37.5357 39.0774 37.2665C39.2651 37.1588 39.426 36.9433 39.426 36.7818C39.426 36.6471 39.426 36.5394 39.4529 36.4048C39.4797 36.4048 39.5065 36.4048 39.5333 36.4048C39.5065 36.8087 39.4797 37.1857 39.4797 37.5896C39.4797 37.6704 39.6406 37.6704 39.6674 37.6165C39.8015 37.3203 39.9088 37.051 40.0161 36.7549C40.3916 36.9433 43.3955 37.6973 43.3955 37.6973C45.1388 38.3974 47.043 37.3742 49.296 36.8626C50.2079 36.6471 50.932 36.4048 51.5489 36.1625C50.5029 36.7818 48.7327 37.428 47.6331 38.0204C47.5795 38.0473 47.6599 38.1281 47.7136 38.1012C50.3956 37.455 53.8554 36.9703 55.6524 34.4661C55.6256 34.5738 55.6256 34.6815 55.5988 34.7892C55.5451 35.1662 55.4915 35.5162 55.5988 35.8932C55.5988 35.9201 55.6256 35.9201 55.6256 35.9201C55.9474 35.7047 56.1084 35.3816 56.2693 35.0585C56.457 34.7623 56.6448 34.4661 56.457 34.0891C56.3766 33.9006 56.1352 33.8198 55.9743 33.9006C55.8133 33.9814 55.7329 34.0891 55.6792 34.2237C55.6792 34.116 55.5988 34.0083 55.5183 33.9275C56.0279 33.4967 56.4839 33.0659 56.8593 32.5812C56.8057 32.9851 56.7521 33.4159 56.6984 33.8198C56.6716 33.9275 56.913 34.0352 56.9398 33.9275L58.2004 31.8272L59.9169 34.116L56.6984 27.5997C56.6716 27.5459 56.5911 27.5459 56.5643 27.5997L55.572 29.0538C55.5451 29.1076 55.4647 29.1076 55.4379 29.0538L52.4876 23.2376L53.5068 26.8727L53.3459 27.7074C53.024 27.4651 52.729 27.1689 52.5412 26.8189C52.729 27.2766 52.9972 27.8959 53.2386 28.4614L52.9704 29.9154C52.6217 30.1847 52.273 30.454 51.9244 30.7232C51.7366 30.7771 51.5489 30.804 51.3343 30.8579C50.2079 31.0464 49.1082 31.0194 47.5258 31.2887C47.4722 31.2887 47.4454 31.3426 47.499 31.3426C48.5986 31.3964 46.1848 31.3964 45.8629 31.181C46.2921 29.6462 46.3457 28.0844 46.9358 26.7111C47.9281 24.2877 48.5718 21.1911 48.5182 18.5792C48.5182 18.5254 48.4109 18.5523 48.3841 18.5792C48.0086 19.4948 47.6599 20.4372 47.3113 21.3796C47.4454 20.868 47.5526 20.3564 47.6599 19.8448C48.089 19.037 48.4109 18.2292 48.7059 17.4483C48.7059 17.5022 48.7864 17.4752 48.84 17.4483C49.3764 16.7482 52.273 14.5941 53.2922 14.2979C53.3459 14.271 53.3459 14.2171 53.2922 14.2171C52.9704 14.1902 52.6753 14.1363 52.3803 14.0555C52.5681 13.9748 52.7558 13.9209 52.9436 13.8671C53.319 13.9478 53.6677 14.0825 54.0164 14.1902C54.365 14.4325 54.6869 14.6749 54.9819 14.9711L54.526 16.6944L54.2846 17.8792L53.3459 17.0713L56.162 23.6415C56.1888 23.6953 56.2693 23.6953 56.2961 23.6684L57.1007 22.5375C57.1275 22.4836 57.2348 22.5106 57.2348 22.5644L61.7407 36.9433C61.7407 36.9433 61.9284 37.6704 61.9552 36.6471C62.1161 35.4893 62.438 19.5755 62.438 19.5755Z" fill="white"/>
<path d="M23.9235 36.1631C21.8047 35.8938 19.7931 35.7592 18.2644 35.436C18.2107 35.436 18.1839 35.4899 18.2107 35.5168C18.8008 36.0553 19.4176 36.6477 20.0613 37.2132C19.9809 37.1863 19.9272 37.1593 19.8468 37.1324C19.364 36.9439 18.9617 36.6747 18.5326 36.5131C18.4521 36.4862 18.3448 36.5939 18.3985 36.6477C18.613 37.0786 19.0153 37.3748 19.4713 37.644C19.9272 37.9672 20.3832 38.3172 20.8928 38.6403C21.2146 38.8557 21.6974 38.7211 22.046 38.4518C22.3679 38.4788 22.7434 38.398 23.1189 38.2903C23.2261 38.2633 23.3602 38.2095 23.4675 38.1826C24.0576 38.021 24.6476 37.5363 24.6744 37.1863C24.6744 37.1055 24.7013 37.0516 24.7013 36.9709C24.7013 36.6208 24.4867 36.2438 23.9235 36.1631Z" fill="white"/>
</svg>
