<svg width="755" height="565" viewBox="0 0 755 565" fill="none" xmlns="http://www.w3.org/2000/svg">
<path fill-rule="evenodd" clip-rule="evenodd" d="M717.083 2C737.458 2 754 17.5866 754 36.7844V530.215C754 549.414 737.458 565 717.083 565H38.9167C18.5411 565 2 549.414 2 530.215V36.7844C2 17.5866 18.5411 2 38.9167 2H717.083ZM728.268 48.9232C728.268 33.8611 716.043 21.6367 700.981 21.6367H88.5151C93.2898 29.184 96.0514 38.1204 96.0514 47.6969C96.0514 74.6578 74.164 96.5456 47.2031 96.5456C39.9217 96.5456 33.0089 94.945 26.8018 92.0856V408.27C26.8018 423.332 39.0261 435.557 54.0882 435.557H700.981C716.043 435.557 728.268 423.332 728.268 408.27V48.9232Z" fill="#FF267E"/>
<path fill-rule="evenodd" clip-rule="evenodd" d="M700.981 21.6357C700.981 21.6357 635.751 21.0443 547.864 20.518C501.099 20.2358 447.926 19.9754 394.748 19.7855C352.872 19.639 310.995 19.5468 272.254 19.5088C169.332 19.4003 88.5147 19.5467 88.5147 19.5467L86.746 22.748C89.0737 26.4213 90.9019 30.4364 92.139 34.7065C93.3327 38.8301 93.9786 43.187 93.984 47.6959C93.9948 60.6093 88.7587 72.3128 80.2944 80.7879C71.8301 89.2739 60.127 94.5315 47.2027 94.5423C43.7628 94.5423 40.4151 94.1734 37.1867 93.4735C33.8553 92.7518 30.6538 91.6721 27.6317 90.2831L24.8154 88.9863V92.0845L25.1466 408.269C25.1574 416.251 28.4022 423.483 33.6435 428.708C38.8848 433.933 46.1119 437.167 54.0878 437.156L700.981 436.239C708.696 436.228 715.679 433.092 720.736 428.025C725.782 422.962 728.902 415.974 728.891 408.269L728.338 48.9221C728.321 41.3748 725.251 34.5491 720.297 29.6062C715.349 24.6742 708.517 21.6194 700.981 21.6357ZM700.981 21.6357C708.506 21.6465 715.321 24.7121 720.248 29.655C725.169 34.5925 728.213 41.4019 728.202 48.9221L727.649 408.269C727.638 415.627 724.643 422.284 719.808 427.097C714.985 431.91 708.327 434.883 700.981 434.872L54.0878 433.96C47.0017 433.95 40.5887 431.063 35.9442 426.413C31.3105 421.763 28.4454 415.35 28.4508 408.269L28.782 95.0796C31.2128 96.0291 33.7357 96.7995 36.3347 97.3692C39.8343 98.1343 43.4752 98.5412 47.2027 98.5466C61.2393 98.5575 73.9573 92.8658 83.1758 83.6691C92.3943 74.4614 98.1077 61.7433 98.1185 47.6959C98.1239 42.7909 97.4292 38.0434 96.1379 33.5508C95.145 30.1163 93.7997 26.8282 92.1448 23.7301C108.949 23.7572 182.126 23.8548 272.254 23.7572C310.995 23.7192 352.872 23.627 394.748 23.4805C447.926 23.2905 501.099 23.0356 547.864 22.7534C635.751 22.2217 700.981 21.6357 700.981 21.6357Z" fill="#B7004A"/>
<path d="M48.3698 18.7064C33.4472 18.7064 21.35 30.8036 21.35 45.7262C21.35 60.6489 33.4472 72.7461 48.3698 72.7461C63.2924 72.7461 75.3896 60.6489 75.3896 45.7262C75.3896 30.8036 63.2924 18.7064 48.3698 18.7064Z" fill="#FF9CC4"/>
<path d="M28.915 42.1035H39.7059L48.1187 27.5078L56.5315 42.1035H67.3224L58.9096 56.7293H37.3279L28.915 42.1035ZM56.5315 42.1035H39.7059L48.1187 56.7293L56.5315 42.1035Z" fill="#B7004A"/>
<path fill-rule="evenodd" clip-rule="evenodd" d="M48.3708 73.0285C55.9398 73.1191 62.8274 70.1148 67.85 65.2076C72.9179 60.2561 76.0784 53.3655 76.1654 45.7278C76.2462 38.0277 73.1804 31.0223 68.1784 25.9218C63.1391 20.781 56.1293 17.5894 48.3708 17.5189C40.5665 17.4666 33.4665 20.5857 28.3289 25.6862C25.7082 28.2878 23.5957 31.4069 22.1691 34.8764C20.7936 38.219 20.0624 41.8898 20.0896 45.7278C20.2173 53.4863 23.4187 60.5058 28.6237 65.4754C33.7408 70.3625 40.747 73.2561 48.3708 73.0285ZM48.3708 72.4667C41.0758 72.2513 34.5885 69.0818 29.9133 64.1867C25.3276 59.3842 22.4943 52.8862 22.6123 45.7278C22.6368 42.2422 23.3692 38.9298 24.6376 35.8993C25.9504 32.7661 27.8503 29.941 30.2081 27.5669C34.8543 22.8852 41.2618 19.9453 48.3708 19.899C55.5254 19.8346 62.0284 22.6859 66.7672 27.3313C71.5442 32.017 74.5398 38.517 74.6155 45.7278C74.6983 53.005 71.8128 59.6258 67.0957 64.4545C62.3342 69.3275 55.715 72.3801 48.3708 72.4667Z" fill="#B7004A"/>
<path fill-rule="evenodd" clip-rule="evenodd" d="M754.763 36.1559C754.772 26.3165 750.531 17.4031 743.676 10.9439C736.817 4.48052 727.335 0.477829 716.868 0.468822L38.5053 2.75898e-06C27.8927 -0.00385754 18.2788 4.04345 11.3148 10.5866C4.35065 17.1316 0.0410814 26.1749 0.0365207 36.1559L0 528.799C0 538.793 4.31437 547.843 11.2876 554.397C18.2562 560.951 27.879 565.004 38.5053 565L716.868 564.695C727.399 564.687 736.935 560.664 743.84 554.165C750.741 547.667 755.009 538.699 755 528.799L754.763 36.1559ZM752.829 36.1559L752.592 528.799C752.583 538.068 748.579 546.462 742.112 552.536C735.645 558.609 726.719 562.366 716.868 562.358L38.5053 562.053C28.7456 562.053 19.9072 558.326 13.5087 552.304C7.11465 546.286 3.15137 537.974 3.15593 528.799L3.11941 36.1559C3.11485 26.9727 7.07336 18.6482 13.4811 12.621C19.8842 6.59166 28.7364 2.8579 38.5053 2.85404L716.868 2.38522C726.783 2.37665 735.763 6.15416 742.276 12.2637C748.789 18.3776 752.82 26.8269 752.829 36.1559Z" fill="#FF9CC4"/>
</svg>
