<svg width="107" height="154" viewBox="0 0 107 154" fill="none" xmlns="http://www.w3.org/2000/svg">
<path fill-rule="evenodd" clip-rule="evenodd" d="M44.66 150.021C43.9261 149.38 40.7554 146.22 39.976 145.219C37.9716 142.644 3.06404 94.1108 1.59344 92.1411C0.595239 90.7986 0 89.1358 0 87.3343C0 82.8904 3.60844 79.2846 8.05228 79.2846C8.44195 79.2846 28.8062 79.3647 28.8062 79.3647C28.8062 79.3647 36.7785 15.5601 36.7785 15.2158C36.7785 6.81924 43.595 0 51.9916 0C54.7941 0 57.4177 0.760639 59.673 2.08178C61.3465 3.06397 66.1774 7.83878 67.0315 9.03181C68.3926 10.9268 69.3266 13.1474 69.6976 15.5548C69.8097 16.2754 70.2314 20.4257 70.2314 20.4257L77.5739 79.354C82.9226 79.3327 95.624 79.2846 95.931 79.2846C97.7939 79.2846 99.5101 79.9172 100.877 80.9794C101.64 81.5773 104.581 84.5025 105.219 85.4206C106.124 86.7231 106.652 88.3005 106.652 90.0033C106.652 91.8769 106.012 93.601 104.939 94.9676C103.463 96.8465 68.7396 144.99 67.1089 147.306C64.3545 151.216 59.8037 153.773 54.6606 153.773C50.8333 153.773 47.3343 152.356 44.66 150.021Z" fill="#B7004A"/>
<path fill-rule="evenodd" clip-rule="evenodd" d="M28.8062 79.362C28.8062 79.362 36.8184 13.9507 36.8931 13.3342C37.8219 5.8237 44.2329 0 51.9916 0C59.5448 0 65.8196 5.51677 67.0046 12.7337C67.1301 13.5023 75.2383 79.362 75.2383 79.362C75.2383 79.362 95.544 79.282 95.931 79.282C100.375 79.282 103.983 82.8904 103.983 87.3343C103.983 89.2052 103.343 90.9294 102.27 92.2986C100.794 94.1775 66.0704 142.318 64.4397 144.637C61.6853 148.547 57.1348 151.104 51.9916 151.104C47.1101 151.104 42.7624 148.798 39.976 145.216C37.9716 142.641 3.06391 94.1081 1.59331 92.1411C0.595109 90.7986 0 89.1358 0 87.3343C0 82.8904 3.60844 79.282 8.05229 79.282C8.44196 79.282 28.8062 79.362 28.8062 79.362Z" fill="#FF267E"/>
<path fill-rule="evenodd" clip-rule="evenodd" d="M71.0798 80.7484C71.0798 80.7484 62.8698 14.0666 62.6269 13.1939C61.3939 8.77672 57.3345 5.53125 52.525 5.53125C47.4459 5.53125 43.205 9.15039 42.2442 13.9492C42.1107 14.6165 34.0316 80.751 34.0316 80.751C33.7354 83.1237 31.7122 84.904 29.3208 84.8933C29.3208 84.8933 8.9753 84.8132 8.58562 84.8132C6.75204 84.8132 5.2627 86.3025 5.2627 88.1361C5.2627 88.8781 5.50556 89.5613 5.91925 90.1138C7.38452 92.0809 42.2413 140.544 44.2431 143.117C46.1621 145.586 49.1594 147.177 52.525 147.177C56.072 147.177 59.2082 145.412 61.1058 142.714C62.7446 140.389 97.6015 92.0675 99.0827 90.1805C99.5258 89.6174 99.7899 88.9074 99.7899 88.1361C99.7899 86.3025 98.3006 84.8132 96.4643 84.8132C96.0773 84.8132 75.7904 84.8933 75.7904 84.8933C73.399 84.904 71.3761 83.1237 71.0798 80.7484Z" stroke="#B7004A" stroke-width="2" stroke-miterlimit="2" stroke-linejoin="round"/>
<path fill-rule="evenodd" clip-rule="evenodd" d="M70.5466 79.9478C70.5466 79.9478 62.3982 13.7571 62.2647 13.1006C61.2852 8.32576 57.0548 4.73065 51.9918 4.73065C47.0061 4.73065 42.8293 8.21635 41.767 12.8844C41.5962 13.6344 33.4984 79.9504 33.4984 79.9504C33.2022 82.3232 31.179 84.1034 28.7876 84.0927C28.7876 84.0927 8.44209 84.0126 8.05242 84.0126C6.21883 84.0126 4.72949 85.5019 4.72949 87.3355C4.72949 88.0775 4.97236 88.7607 5.38605 89.3132C6.85132 91.2803 41.7081 139.744 43.7099 142.316C45.6289 144.785 48.6262 146.376 51.9918 146.376C55.5388 146.376 58.675 144.612 60.5726 141.913C62.2114 139.589 97.0682 91.2669 98.5495 89.3799C98.9926 88.8168 99.2567 88.1068 99.2567 87.3355C99.2567 85.5019 97.7674 84.0126 95.9311 84.0126C95.5441 84.0126 75.2572 84.0927 75.2572 84.0927C72.8658 84.1034 70.8429 82.3231 70.5466 79.9478Z" stroke="#FF9CC4" stroke-width="2" stroke-miterlimit="2" stroke-linejoin="round"/>
</svg>
