<svg width="1920" height="1381" viewBox="0 0 1920 1381" fill="none" xmlns="http://www.w3.org/2000/svg">
<g clip-path="url(#clip0_330_574)">
<path d="M1988 -21.0938H-83V2981.9H1988V-21.0938Z" fill="#F8D548"/>
<path d="M800.198 673.466L799.097 674.871L797 677.589C954.988 577.523 1103.81 510.813 1226.13 384.888C1287.52 322.206 1342.61 244.721 1391.86 146.811C1441.24 49.2749 1484.78 -68.7807 1526 -202.482H871.978C966.859 28.9425 982.189 189.442 957.137 322.394C931.974 455.159 866.431 560.471 797 677.589C798.074 676.184 799.147 674.871 800.198 673.466ZM806.821 667.283C816.644 656.976 818.279 655.289 809.273 664.658L806.821 667.283Z" fill="#FFDF60"/>
<path d="M2190 1209.66V313.469C2036.43 419.141 1896.33 500.245 1768.99 556.598C1641.44 613.231 1526.65 645.205 1419.2 660.958C1204.75 693.4 1019.99 660.488 799.594 677.647L797 677.835C885.623 725.186 959.762 780.693 1037.51 837.045C1115.16 893.491 1196.41 950.688 1297.01 1001.98C1397.33 1053.36 1516.99 1098.93 1664.94 1134.18C1812.43 1169.63 1988.2 1194.85 2190 1209.66Z" fill="#E2C13D"/>
<path d="M799.074 678.713L797 677.59C856.478 813.609 885.054 958.807 979.072 1126.11C1025.78 1209.58 1088.66 1298.29 1173.97 1391.78C1258.84 1485.27 1366.13 1583.45 1491.69 1683.96H2190V1208.93C1988.2 1194.12 1812.42 1168.93 1664.94 1133.52C1516.99 1098.29 1397.34 1052.77 1297.02 1001.43C1196.42 950.189 1115.16 892.952 1037.51 836.652C960.369 780.821 886.78 725.739 799.074 678.713Z" fill="#FFDF60"/>
<path d="M646.755 1683.96H1006C718.214 1191.69 786.121 924.71 796.825 677.59C772.034 797.59 771.501 799.557 796.242 680.4L796.825 677.59C742.417 791.782 683.187 914.78 648.858 1073.94C614.398 1232.91 604.839 1428.13 646.755 1683.96Z" fill="#E2C13D"/>
<path d="M-29 1351.31V1683.96H303.234C329.21 1569.21 358.68 1458.01 392.719 1355.44C426.696 1252.77 465.243 1158.71 507.951 1074.97C550.597 991.033 597.406 917.309 646.487 852.298C695.508 787.098 746.802 730.517 797 677.59C764.099 703.538 764.099 703.538 797 677.59C746.528 709.534 746.528 709.534 797 677.59C732.509 705.412 666.31 737.542 598.644 778.104C530.996 818.573 461.882 867.38 391.937 925.272C322.007 982.977 251.247 1049.67 180.677 1122.37C110.124 1194.87 39.7614 1273.38 -29 1351.31Z" fill="#FFDF60"/>
<path d="M-29 854.565V1352.09C39.7614 1274.16 110.124 1195.67 180.677 1123.18C251.247 1050.5 322.007 983.816 391.937 926.122C461.882 868.24 530.996 819.441 598.644 778.98C665.253 739.081 730.444 707.332 793.975 679.795L797 678.484C588.727 663.03 338.145 693.282 -29 854.565ZM791.328 680.075L789.8 680.544L791.328 680.075L793.957 679.327L791.328 680.075ZM792.869 678.764C789.317 679.138 785.757 679.419 782.177 679.7C785.757 679.419 789.319 679.138 792.869 678.764Z" fill="#E2C13D"/>
<path d="M796.581 675.995L797.016 677.589C799.91 613.408 799.934 612.94 797.016 677.589C823.292 552.32 839.099 432.953 807.356 293.349C776.227 154.119 697.546 -5.34961 548.999 -202.482H80C151.87 -121.249 241.521 -40.2968 326.256 37.6568C411.542 115.798 491.911 191.035 557.956 263.367C624.417 335.699 676.551 405.125 714.938 473.429C753.303 541.17 778.134 607.786 796.581 675.995ZM796.394 669.812C796.436 670.374 796.479 670.843 796.521 671.405L796.394 669.812C796.351 669.249 796.309 668.782 796.265 668.219L796.394 669.812ZM795.871 663.628C795.916 664.097 795.96 664.658 796.004 665.127L796.136 666.721L796.004 665.127L795.871 663.628ZM795.464 658.943C795.538 659.787 795.612 660.629 795.686 661.472L795.601 660.535L795.464 658.943Z" fill="#E2C13D"/>
<path d="M797 677.589C761.645 631.21 761.367 630.929 797 677.589C785.172 650.418 772.094 623.528 757.235 596.919C772.094 623.528 785.172 650.418 797 677.589C778.525 608.817 753.628 541.732 714.999 473.429C676.649 405.125 624.567 335.699 558.166 263.367C492.182 191.035 411.883 115.798 326.673 37.6568C242.015 -40.2968 152.446 -121.249 80.6419 -202.482H-29V332.794C176.049 376.737 350.495 424.895 485.538 481.861C621.812 538.734 718.684 604.414 797 677.589Z" fill="#FFDF60"/>
</g>
<defs>
<clipPath id="clip0_330_574">
<rect width="1920" height="1381" fill="white"/>
</clipPath>
</defs>
</svg>
