<svg width="1920" height="2965" viewBox="0 0 1920 2965" fill="none" xmlns="http://www.w3.org/2000/svg">
<mask id="mask0_330_560" style="mask-type:alpha" maskUnits="userSpaceOnUse" x="0" y="0" width="1921" height="2965">
<path fill-rule="evenodd" clip-rule="evenodd" d="M94.3676 81.2686H0V81.3749V490.234V2965H1920V490.234H1921V43.6646H1895.44L1913.7 35.7256L1884.48 37.7103L1895.44 35.7256H1837C1834.08 35.7256 1845.52 33.0792 1851.61 31.7561H1807.79C1799.02 31.7561 1811.44 29.1097 1818.74 27.7866H1789.52L1800.48 21.8323L1767.61 23.8171L1763.96 15.878L1749.35 17.8628L1756.66 9.92377C1750.57 9.26219 1737.67 7.93902 1734.74 7.93902C1731.82 7.93902 1721.35 13.2317 1716.48 15.878L1727.44 5.95426H1712.83L1698.22 15.878H1683.61L1690.92 9.92377H1679.96L1672.66 13.8933L1654.4 15.878L1661.7 9.92377H1490.05L1497.36 7.93902L1453.53 5.95426V7.93902H1402.4L1398.75 11.9085H1387.79L1373.19 15.878H1343.97L1351.27 11.9085L1311.1 13.8933L1318.4 11.9085H1252.67H1212.49L1216.15 7.93902L1197.89 9.92377L1201.54 5.95426H1186.93L1190.58 3.96951H1132.15L1124.84 0L1110.24 5.95426H1095.63L1110.24 0C1087.11 0.661585 1039.39 1.98475 1033.54 1.98475C1027.7 1.98475 1043.28 4.63109 1051.8 5.95426L975.108 3.96951L989.717 0H949.544L945.892 1.98475H905.719L916.675 5.95426L850.937 3.96951L854.589 7.93902L788.852 9.92377V7.93902H774.243L785.2 1.98475L671.985 3.96951L679.289 7.93902H609.899L598.943 9.92377H584.335L562.422 21.8323L573.378 9.92377L540.51 17.8628L525.901 21.8323L533.205 15.878L511.293 21.8323L507.641 17.8628L489.38 23.8171V29.7713H463.816H445.555L430.947 33.7408L434.599 29.7713H405.382L409.034 33.7408H365.209L376.165 35.7256L332.34 39.6951H449.207L463.816 45.6493H405.382V49.6189H335.992L346.949 55.5731H255.646L244.69 57.5579H226.43C220.586 57.5579 231.299 54.9115 237.386 53.5884H200.865L208.169 57.5579L116.867 53.5884L127.823 49.6189H29.2167L40.173 61.5274L73.0418 69.4664H29.2167L94.3676 81.2686Z" fill="#F8D548"/>
</mask>
<g mask="url(#mask0_330_560)">
<path d="M1988 -8.37305H-83V2950.11H1988V-8.37305Z" fill="#F8D548"/>
<path fill-rule="evenodd" clip-rule="evenodd" d="M-939 1467.72L9.1972 -58H1900.8L2849 1467.72L1900.8 2993H9.1972L-939 1467.72Z" fill="#F8D548"/>
<path fill-rule="evenodd" clip-rule="evenodd" d="M-670 1466.69L143.777 157H1767.22L2581 1466.69L1767.22 2776H143.777L-670 1466.69Z" fill="#E2C13D"/>
<path fill-rule="evenodd" clip-rule="evenodd" d="M-466 1467.67L245.398 322H1664.6L2376 1467.67L1664.6 2613H245.398L-466 1467.67Z" fill="#FFDF60"/>
<path fill-rule="evenodd" clip-rule="evenodd" d="M-215 1467.64L371.491 523H1541.51L2128 1467.64L1541.51 2412H371.491L-215 1467.64Z" fill="#E2C13D"/>
<path fill-rule="evenodd" clip-rule="evenodd" d="M-10 1467.61L473.611 690H1438.39L1922 1467.61L1438.39 2245H473.611L-10 1467.61Z" fill="#F8D548"/>
<path fill-rule="evenodd" clip-rule="evenodd" d="M168 1467.09L562.498 832H1349.5L1744 1467.09L1349.5 2102H562.498L168 1467.09Z" fill="#FFDF60"/>
<path fill-rule="evenodd" clip-rule="evenodd" d="M345 1467.07L650.886 975H1261.11L1567 1467.07L1261.11 1959H650.886L345 1467.07Z" fill="#F8D548"/>
<path fill-rule="evenodd" clip-rule="evenodd" d="M507 1467.55L731.533 1106H1179.47L1404 1467.55L1179.47 1829H731.533L507 1467.55Z" fill="#E2C13D"/>
</g>
</svg>
