<svg width="271" height="78" viewBox="0 0 271 78" fill="none" xmlns="http://www.w3.org/2000/svg">
<path fill-rule="evenodd" clip-rule="evenodd" d="M267.96 16.7918C267.96 9.2479 262.135 3.12305 254.959 3.12305H16.1428C8.96753 3.12305 3.14258 9.2479 3.14258 16.7918V61.1367C3.14258 68.6811 8.96753 74.8058 16.1428 74.8058H254.959C262.135 74.8058 267.96 68.6811 267.96 61.1367V16.7918Z" fill="#58C08D"/>
<path fill-rule="evenodd" clip-rule="evenodd" d="M252.305 15.8839C252.305 11.428 248.689 7.80859 244.231 7.80859H15.7711C11.3137 7.80859 7.69727 11.428 7.69727 15.8839V30.0884C7.69727 34.5487 11.3137 38.1638 15.7711 38.1638H244.231C248.689 38.1638 252.305 34.5487 252.305 30.0884V15.8839Z" fill="#73CA9F"/>
<path fill-rule="evenodd" clip-rule="evenodd" d="M269.863 16.7905C269.891 12.5667 268.295 8.72903 265.711 5.90657C262.996 2.94113 259.18 1.10693 254.959 1.07908C254.959 1.07908 178.165 0.559459 111.669 0.276859C60.9039 0.0612796 16.1424 6.81922e-06 16.1424 6.81922e-06C11.6002 -0.00421361 7.48519 1.95086 4.54058 5.11905C1.74048 8.13226 0.00481669 12.2494 0 16.7905L0.0290068 61.1354C0.0338235 65.6698 1.76611 69.7805 4.563 72.7855C7.5044 75.9441 11.6115 77.8922 16.1424 77.8821L254.959 77.011C259.231 76.9924 263.094 75.1405 265.848 72.1474C268.471 69.2943 270.093 65.4132 270.074 61.1354L269.863 16.7905ZM267.959 16.7905C267.959 9.24662 262.134 3.12176 254.959 3.12176H16.1424C8.96709 3.12176 3.14214 9.24662 3.14214 16.7905V61.1354C3.14214 68.6799 8.96709 74.8045 16.1424 74.8045H254.959C262.134 74.8045 267.959 68.6799 267.959 61.1354V16.7905Z" fill="#14143C"/>
<path fill-rule="evenodd" clip-rule="evenodd" d="M261.36 20.3903C261.366 17.0016 259.855 13.9359 257.42 11.7502C255.111 9.67827 251.97 8.39916 248.509 8.39281C248.509 8.39281 175.757 8.25265 112.764 8.17827C64.6727 8.1214 22.2683 8.10742 22.2683 8.10742C18.7305 8.10658 15.5166 9.40997 13.1529 11.5226C10.6478 13.7623 9.09332 16.9098 9.0918 20.3903L9.10086 57.464C9.10238 60.9416 10.6554 64.0876 13.159 66.3246C15.5227 68.4346 18.732 69.7373 22.2683 69.7344C22.2699 69.7344 248.058 69.0767 248.058 69.0767C251.529 69.0725 254.794 67.6894 257.224 65.5018C259.782 63.1998 261.413 60.0115 261.408 56.6186L261.36 20.3903ZM260.289 20.3903L260.24 56.6186C260.237 59.6785 258.741 62.5435 256.427 64.6154C254.205 66.604 251.225 67.8644 248.057 67.8601L22.2668 68.0493C19.1716 68.0465 16.3592 66.9103 14.2906 65.06C12.1444 63.1391 10.8029 60.4462 10.8044 57.464L10.812 20.3903C10.812 17.4109 12.152 14.7202 14.2967 12.8015C16.3622 10.953 19.1746 9.81884 22.2683 9.818C22.2683 9.818 64.6727 9.80403 112.764 9.74729C175.757 9.67291 248.509 9.53276 248.509 9.53276C251.68 9.52683 254.562 10.6843 256.683 12.574C258.899 14.5472 260.283 17.3191 260.289 20.3903Z" fill="#31825A"/>
<path fill-rule="evenodd" clip-rule="evenodd" d="M260.449 19.1213C260.455 15.7648 258.945 12.7291 256.514 10.568C254.217 8.52741 251.097 7.26852 247.659 7.26276C247.659 7.26276 174.796 7.13468 111.707 7.0667C63.5416 7.01474 21.0724 7.00195 21.0724 7.00195C17.5642 7.00111 14.3804 8.28192 12.0329 10.3593C9.53464 12.5698 7.98535 15.6806 7.98535 19.1213L7.99309 56.012C7.99461 59.45 9.54226 62.5593 12.039 64.7684C14.3834 66.8441 17.5672 68.1221 21.0724 68.1207L247.659 67.9058C251.106 67.9016 254.237 66.6405 256.54 64.5957C258.982 62.4273 260.499 59.3812 260.495 56.012L260.449 19.1213ZM259.538 19.1213L259.492 56.012C259.489 59.0848 258.094 61.8571 255.861 63.8289C253.731 65.7108 250.84 66.8638 247.659 66.861L21.0724 66.6461C17.948 66.6447 15.1116 65.5085 13.0231 63.6561C10.8447 61.7265 9.48129 59.0146 9.48281 56.012L9.4904 19.1213C9.4904 16.1201 10.8508 13.4119 13.0277 11.4831C15.1162 9.63365 17.9511 8.49932 21.0724 8.49848C21.0724 8.49848 63.5416 8.4857 111.707 8.43388C174.796 8.36577 247.659 8.23783 247.659 8.23783C250.85 8.23235 253.751 9.38774 255.888 11.2743C258.13 13.2531 259.532 16.0359 259.538 19.1213Z" fill="#BEE6D3"/>
</svg>
