<svg width="413" height="100" viewBox="0 0 413 100" fill="none" xmlns="http://www.w3.org/2000/svg">
<path fill-rule="evenodd" clip-rule="evenodd" d="M409.044 21.3836C409.044 11.6978 400.13 3.83398 389.151 3.83398H23.7272C12.748 3.83398 3.83496 11.6978 3.83496 21.3836V78.3187C3.83496 88.0052 12.748 95.8688 23.7272 95.8688H389.151C400.13 95.8688 409.044 88.0052 409.044 78.3187V21.3836Z" fill="#58C08D"/>
<path fill-rule="evenodd" clip-rule="evenodd" d="M355.484 20.3048C355.484 14.6089 350.388 9.98242 344.108 9.98242H22.2203C15.9401 9.98242 10.8447 14.6089 10.8447 20.3048V38.4619C10.8447 44.1633 15.9401 48.7843 22.2203 48.7843H344.108C350.388 48.7843 355.484 44.1633 355.484 38.4619V20.3048Z" fill="#73CA9F"/>
<path fill-rule="evenodd" clip-rule="evenodd" d="M412.556 21.4952C412.598 16.0879 410.158 11.1749 406.209 7.56157C402.058 3.76523 396.224 1.41709 389.771 1.38143C389.771 1.38143 272.371 0.716217 170.715 0.354434C93.1074 0.0784499 24.6778 8.72993e-06 24.6778 8.72993e-06C17.7339 -0.00539424 11.4431 2.49748 6.94146 6.55338C2.66077 10.4109 0.00736357 15.6816 0 21.4952L0.0443444 78.2653C0.051708 84.0703 2.69996 89.3328 6.97574 93.1797C11.4724 97.2233 17.7511 99.7173 24.6778 99.7043L389.771 98.5891C396.302 98.5653 402.208 96.1945 406.418 92.3627C410.428 88.7103 412.907 83.7418 412.878 78.2653L412.556 21.4952ZM409.645 21.4952C409.645 11.8375 400.74 3.99647 389.771 3.99647H24.6778C13.7085 3.99647 4.80358 11.8375 4.80358 21.4952V78.2653C4.80358 87.9237 13.7085 95.7645 24.6778 95.7645H389.771C400.74 95.7645 409.645 87.9237 409.645 78.2653V21.4952Z" fill="#14143C"/>
<path fill-rule="evenodd" clip-rule="evenodd" d="M398.743 26.0223C398.752 21.6644 396.449 17.722 392.736 14.9111C389.215 12.2467 384.425 10.6017 379.146 10.5936C379.146 10.5936 268.208 10.4133 172.15 10.3177C98.8156 10.2445 34.1534 10.2266 34.1534 10.2266C28.7585 10.2255 23.8577 11.9016 20.2534 14.6185C16.4333 17.4988 14.0629 21.5464 14.0605 26.0223L14.0744 73.699C14.0767 78.1712 16.4449 82.2169 20.2626 85.0937C23.867 87.8071 28.7608 89.4824 34.1534 89.4787C34.1557 89.4787 378.46 88.6329 378.46 88.6329C383.753 88.6275 388.73 86.8488 392.436 84.0355C396.338 81.0752 398.824 76.9751 398.817 72.6118L398.743 26.0223ZM397.11 26.0223L397.036 72.6118C397.031 76.5468 394.749 80.2312 391.221 82.8957C387.832 85.453 383.289 87.0738 378.457 87.0684L34.1511 87.3116C29.4312 87.308 25.1425 85.8469 21.9881 83.4674C18.7155 80.9972 16.6698 77.5341 16.6721 73.699L16.6837 26.0223C16.6837 22.1908 18.7271 18.7306 21.9974 16.2631C25.1472 13.886 29.4357 12.4274 34.1534 12.4264C34.1534 12.4264 98.8156 12.4084 172.15 12.3354C268.208 12.2398 379.146 12.0595 379.146 12.0595C383.982 12.0519 388.377 13.5404 391.611 15.9705C394.99 18.5081 397.101 22.0728 397.11 26.0223Z" fill="#31825A"/>
<path fill-rule="evenodd" clip-rule="evenodd" d="M397.469 24.4089C397.478 20.1267 395.178 16.2538 391.474 13.4967C387.973 10.8934 383.219 9.28734 377.98 9.27999C377.98 9.27999 266.957 9.11659 170.826 9.02987C97.4351 8.96358 32.7234 8.94727 32.7234 8.94727C27.3778 8.94619 22.5266 10.5802 18.9496 13.2305C15.1429 16.0506 12.7822 20.0192 12.7822 24.4089L12.794 71.4732C12.7963 75.8593 15.1545 79.8261 18.9589 82.6444C22.5312 85.2925 27.3824 86.923 32.7234 86.9212L377.98 86.647C383.233 86.6417 388.003 85.0327 391.513 82.424C395.234 79.6576 397.546 75.7715 397.539 71.4732L397.469 24.4089ZM396.081 24.4089L396.011 71.4732C396.007 75.3934 393.881 78.9302 390.478 81.4457C387.233 83.8466 382.827 85.3176 377.98 85.314L32.7234 85.0399C27.9627 85.0381 23.6407 83.5886 20.4584 81.2254C17.1391 78.7636 15.0616 75.3038 15.064 71.4732L15.0755 24.4089C15.0755 20.58 17.1485 17.1249 20.4654 14.6642C23.6477 12.3047 27.9673 10.8576 32.7234 10.8565C32.7234 10.8565 97.4351 10.8402 170.826 10.7741C266.957 10.6872 377.98 10.524 377.98 10.524C382.843 10.517 387.263 11.991 390.519 14.3978C393.936 16.9223 396.072 20.4725 396.081 24.4089Z" fill="#BEE6D3"/>
</svg>
