<svg width="436" height="125" viewBox="0 0 436 125" fill="none" xmlns="http://www.w3.org/2000/svg">
<path fill-rule="evenodd" clip-rule="evenodd" d="M433.443 42.3683C433.443 32.1444 424.136 23.8438 412.672 23.8438H31.1096C19.6455 23.8438 10.3389 32.1444 10.3389 42.3683V102.467C10.3389 112.691 19.6455 120.992 31.1096 120.992H412.672C424.136 120.992 433.443 112.691 433.443 102.467V42.3683Z" fill="#14143C"/>
<path fill-rule="evenodd" clip-rule="evenodd" d="M435.657 41.585C435.703 35.8667 433.194 30.6722 429.132 26.838C424.802 22.7524 418.693 20.2264 411.933 20.1887C411.933 20.1887 289.829 19.4885 184.1 19.1065C103.383 18.8149 32.2114 18.7305 32.2114 18.7305C24.9331 18.7247 18.3391 21.4177 13.6392 25.7871C9.23808 29.8767 6.51156 35.4456 6.50391 41.585L6.55003 102.031C6.55769 108.161 9.27909 113.723 13.6751 117.801C18.3673 122.157 24.951 124.84 32.2114 124.826L411.933 123.652C418.775 123.627 424.963 121.078 429.357 116.949C433.479 113.076 436.03 107.821 435.999 102.031L435.657 41.585ZM432.604 41.585C432.604 31.302 423.342 22.9533 411.933 22.9533H32.2114C20.8026 22.9533 11.5408 31.302 11.5408 41.585V102.031C11.5408 112.315 20.8026 120.663 32.2114 120.663H411.933C423.342 120.663 432.604 112.315 432.604 102.031V41.585Z" fill="#31825A"/>
<path fill-rule="evenodd" clip-rule="evenodd" d="M386.211 5C391.338 5 396.375 7.09396 400.14 9.46546C404.488 12.2012 419.967 32.6229 420.769 34.4294C421.566 36.221 422 38.1564 422 40.171V95.1319C422 104.442 412.732 112 401.316 112H39.7885C32.6813 112 26.4036 109.068 22.6814 104.608C20.8612 102.43 5.90238 86.6296 5.14273 85.2147C4.03061 83.1455 4 79.2327 4 76.8289V21.8681C4 12.5581 13.2678 5 24.6837 5H386.211Z" fill="#31825A"/>
<path fill-rule="evenodd" clip-rule="evenodd" d="M393.13 84.6272L416.366 107.781C416.366 107.781 423.652 107.303 423.652 82.0343L424.619 44.4299L393.012 0.792969L393.13 84.6272Z" fill="#BEE6D3"/>
<path fill-rule="evenodd" clip-rule="evenodd" d="M386.598 2.17375L25.2621 1.00013C18.3622 0.980195 12.1029 3.2726 7.5626 6.9753C3.01322 10.6855 0.198147 15.8234 0.176888 21.497L0.00072032 76.7609C-0.00535362 78.5499 0.0188116 81.1039 0.398433 83.2692C0.629243 84.5824 1.00579 85.7784 1.50082 86.7128C1.74985 87.1812 3.22908 89.0176 5.37622 91.4196C10.0532 96.6572 18.092 105.289 19.3857 106.858C21.6999 109.654 24.825 111.961 28.4815 113.559C32.0257 115.106 36.0677 115.986 40.3589 115.988C40.3589 115.988 130.694 116.055 221.028 115.871C311.363 115.684 401.695 115.248 401.695 115.248C408.44 115.218 414.541 112.961 418.939 109.313C423.324 105.677 426.036 100.676 426 95.1647L425.617 39.9009C425.608 38.7447 425.48 37.6135 425.237 36.5146C424.988 35.3834 424.624 34.287 424.15 33.2305C423.646 32.1118 417.742 24.0909 412.054 17.2287C408.103 12.4595 404.212 8.266 402.336 7.0924C400.231 5.77677 397.768 4.54086 395.117 3.64384C392.411 2.72689 389.513 2.1588 386.598 2.17375ZM386.598 4.53589C391.721 4.53589 396.757 6.6414 400.519 9.02598C404.865 11.7768 420.336 32.3111 421.138 34.1276C421.933 35.9291 422.367 37.8751 422.367 39.9009V95.1647C422.367 104.526 413.105 112.126 401.695 112.126H40.3589C33.2554 112.126 26.9811 109.178 23.2608 104.693C21.4417 102.503 6.49076 86.6156 5.73152 85.1928C4.61999 83.1123 4.58939 79.1778 4.58939 76.7609V21.497C4.58939 12.1356 13.8522 4.53589 25.2621 4.53589H386.598Z" fill="#14143C"/>
</svg>
