<svg width="200" height="173" viewBox="0 0 200 173" fill="none" xmlns="http://www.w3.org/2000/svg">
<g clip-path="url(#clip0_330_870)">
<path opacity="0.11" d="M50.9857 0.643246L150.273 0.643245L199.917 86.6289L150.273 172.615L50.9857 172.615L1.34183 86.6289L50.9857 0.643246Z" fill="#FF267E"/>
<path opacity="0.11" d="M62.2257 20.1116L139.034 20.1116L177.438 86.6293L139.034 153.147L62.2257 153.147L23.8217 86.6293L62.2257 20.1116Z" fill="#FF267E"/>
<path opacity="0.11" d="M71.2025 35.6595L130.055 35.6595L159.482 86.6276L130.055 137.596L71.2025 137.596L41.776 86.6276L71.2025 35.6595Z" fill="#FF267E"/>
<path opacity="0.11" d="M82.9319 55.9751L118.325 55.9751L136.022 86.6268L118.325 117.278L82.9319 117.278L65.2352 86.6268L82.9319 55.9751Z" fill="#FF267E"/>
<path d="M76.597 42.6054L128.093 42.6054L153.841 87.2024L128.093 131.799L76.597 131.799L50.8489 87.2024L76.597 42.6054Z" fill="#FF8AB9" stroke="#FF267E" stroke-width="6"/>
<path d="M64.6958 63.8163C70.2016 59.0379 145.079 61.2432 148.383 63.8163C151.687 66.3894 152.053 115.275 148.383 118.216C144.713 121.157 71.6696 122.626 64.6958 118.216C57.7221 113.806 59.1901 68.5947 64.6958 63.8163Z" fill="#FF267E"/>
<path d="M62.3513 60.5715C62.5206 60.4246 62.954 60.2008 63.7839 59.9614C64.5774 59.7324 65.6186 59.5202 66.8872 59.3275C69.4216 58.9426 72.7745 58.6489 76.6842 58.4371C84.4982 58.0138 94.4523 57.9217 104.351 58.0594C114.248 58.197 124.072 58.5641 131.622 59.0567C135.399 59.3031 138.594 59.5801 140.94 59.8738C142.115 60.0209 143.059 60.17 143.75 60.3177C144.096 60.3917 144.361 60.4617 144.552 60.5251C144.675 60.5661 144.74 60.5958 144.767 60.6083C144.767 60.6095 144.768 60.6109 144.769 60.6124C144.796 60.6512 144.895 60.7979 145.029 61.163C145.187 61.5954 145.347 62.1983 145.502 62.9688C145.81 64.5053 146.077 66.5959 146.297 69.0764C146.735 74.0305 146.975 80.4445 146.998 86.8818C147.021 93.3195 146.826 99.7547 146.4 104.752C146.186 107.254 145.916 109.371 145.593 110.938C145.431 111.723 145.261 112.343 145.09 112.793C145.004 113.017 144.925 113.182 144.857 113.296C144.803 113.387 144.767 113.425 144.758 113.435C144.758 113.435 144.757 113.436 144.756 113.436C144.739 113.446 144.667 113.487 144.5 113.547C144.304 113.618 144.036 113.695 143.689 113.775C142.995 113.936 142.055 114.096 140.888 114.25C138.558 114.559 135.402 114.839 131.675 115.079C124.225 115.56 114.551 115.881 104.769 115.973C94.9854 116.065 85.1097 115.927 77.2531 115.492C73.3229 115.274 69.9148 114.983 67.2829 114.613C65.9662 114.427 64.8602 114.224 63.9882 114.005C63.0938 113.781 62.5271 113.559 62.2303 113.371C61.6512 113.005 61.0066 112.087 60.4057 110.462C59.8218 108.882 59.3413 106.809 58.968 104.376C58.2222 99.5161 57.9247 93.3615 58.0159 87.1691C58.1071 80.979 58.5863 74.7917 59.3797 69.8712C59.7767 67.4087 60.2485 65.2887 60.78 63.654C61.3293 61.9647 61.8876 60.974 62.3513 60.5715Z" fill="#FFD300" stroke="#FF267E" stroke-width="2"/>
<path d="M73.5903 76.535C73.7498 76.4962 74.1159 76.4463 74.7282 76.3969C75.3186 76.3492 76.0819 76.3058 76.9975 76.2669C78.8276 76.189 81.2383 76.13 84.0367 76.0876C89.6318 76.0027 96.7528 75.9843 103.828 76.0119C110.903 76.0394 117.928 76.1129 123.33 76.2116C126.031 76.2609 128.323 76.3165 130.011 76.3757C130.856 76.4053 131.544 76.4356 132.054 76.4662C132.31 76.4815 132.515 76.4965 132.67 76.5109C132.747 76.5182 132.808 76.5249 132.854 76.5308C132.884 76.5348 132.903 76.5378 132.912 76.5393C132.927 76.5468 132.995 76.5868 133.103 76.7372C133.248 76.9387 133.402 77.2573 133.541 77.699C133.819 78.5782 133.983 79.7643 133.999 80.9883C134.014 82.2137 133.88 83.3973 133.612 84.2757C133.478 84.716 133.324 85.0327 133.175 85.2349C133.028 85.434 132.933 85.4628 132.912 85.4675C132.912 85.4675 132.91 85.4679 132.906 85.4686L132.891 85.4715C132.877 85.4739 132.858 85.4768 132.834 85.4802C132.785 85.487 132.722 85.4945 132.642 85.5026C132.483 85.5187 132.275 85.5353 132.017 85.552C131.503 85.5854 130.816 85.6178 129.977 85.649C128.299 85.7113 126.033 85.7674 123.367 85.8156C118.036 85.912 111.118 85.9763 104.125 85.9946C97.1312 86.013 90.0671 85.9854 84.4425 85.8982C81.6297 85.8546 79.1818 85.7962 77.2847 85.7214C75.3584 85.6455 74.0711 85.5546 73.5285 85.4586C72.6183 85.2974 71.9905 84.7802 71.5766 84.0249C71.1474 83.2418 70.9515 82.1954 71.0101 81.0834C71.0684 79.9753 71.3757 78.8845 71.8612 78.0414C72.3508 77.1911 72.9608 76.6879 73.5903 76.535Z" fill="#FF267E" stroke="#FF267E" stroke-width="2"/>
<path d="M73.5903 91.535C73.7498 91.4962 74.1159 91.4463 74.7282 91.3969C75.3186 91.3492 76.0819 91.3058 76.9975 91.2669C78.8276 91.189 81.2383 91.13 84.0367 91.0876C89.6318 91.0027 96.7528 90.9843 103.828 91.0119C110.903 91.0394 117.928 91.1129 123.33 91.2116C126.031 91.2609 128.323 91.3165 130.011 91.3757C130.856 91.4053 131.544 91.4356 132.054 91.4662C132.31 91.4815 132.515 91.4965 132.67 91.5109C132.747 91.5182 132.808 91.5249 132.854 91.5308C132.884 91.5348 132.903 91.5378 132.912 91.5393C132.927 91.5468 132.995 91.5868 133.103 91.7372C133.248 91.9387 133.402 92.2573 133.541 92.699C133.819 93.5782 133.983 94.7643 133.999 95.9883C134.014 97.2137 133.88 98.3973 133.612 99.2757C133.478 99.716 133.324 100.033 133.175 100.235C133.028 100.434 132.933 100.463 132.912 100.468C132.912 100.467 132.91 100.468 132.906 100.469L132.891 100.471C132.877 100.474 132.858 100.477 132.834 100.48C132.785 100.487 132.722 100.495 132.642 100.503C132.483 100.519 132.275 100.535 132.017 100.552C131.503 100.585 130.816 100.618 129.977 100.649C128.299 100.711 126.033 100.767 123.367 100.816C118.036 100.912 111.118 100.976 104.125 100.995C97.1312 101.013 90.0671 100.985 84.4425 100.898C81.6297 100.855 79.1818 100.796 77.2847 100.721C75.3584 100.645 74.0711 100.555 73.5285 100.459C72.6183 100.297 71.9905 99.7802 71.5766 99.0249C71.1474 98.2418 70.9515 97.1954 71.0101 96.0834C71.0684 94.9753 71.3757 93.8845 71.8612 93.0414C72.3508 92.1911 72.9608 91.6879 73.5903 91.535Z" fill="#FF267E" stroke="#FF267E" stroke-width="2"/>
<path d="M77 81H104.5" stroke="#FFD300" stroke-width="2" stroke-linecap="round"/>
<circle cx="79" cy="96" r="2" fill="#FFD300"/>
<circle cx="85" cy="96" r="2" fill="#FFD300"/>
<circle cx="91" cy="96" r="2" fill="#FFD300"/>
<circle cx="103" cy="96" r="2" fill="#FFD300"/>
<circle cx="97" cy="96" r="2" fill="#FFD300"/>
<circle cx="109" cy="96" r="2" fill="#FFD300"/>
<rect x="113" y="60.8789" width="35.6879" height="27" rx="6" transform="rotate(-9.4807 113 60.8789)" fill="black" fill-opacity="0.16"/>
<path d="M121.888 59.3027C123.261 57.6347 134.651 56.358 140.174 55.9282C138.44 49.0573 134.63 35.3697 148.579 33.158C159.466 31.4317 162.726 41.5105 162.996 46.7655L158.255 47.6404C158.731 43.8979 157.505 36.7445 148.785 38.0707C140.065 39.3968 142.873 50.3132 145.367 55.6056C148.234 55.5587 150.934 55.8287 151.579 57.006C152.635 58.9331 153.851 69.3182 154.608 73.4223C155.365 77.5264 153.902 80.9794 150.176 81.6668C146.451 82.3542 132.716 83.8279 128.991 84.5153C125.266 85.2027 123.321 84.1471 122.942 82.095C122.563 80.043 120.882 69.0363 120.102 66.7047C119.322 64.3732 120.171 61.3877 121.888 59.3027Z" fill="#FF267E"/>
<path d="M119.888 57.3027C121.261 55.6347 132.651 54.358 138.174 53.9282C136.44 47.0573 132.63 33.3697 146.579 31.158C157.466 29.4317 160.726 39.5105 160.996 44.7655L156.255 45.6404C156.731 41.8979 155.505 34.7445 146.785 36.0707C138.065 37.3968 140.873 48.3132 143.367 53.6056C146.234 53.5587 148.934 53.8287 149.579 55.006C150.635 56.9331 151.851 67.3182 152.608 71.4223C153.365 75.5264 151.902 78.9794 148.176 79.6668C144.451 80.3542 130.716 81.8279 126.991 82.5153C123.266 83.2027 121.321 82.1471 120.942 80.095C120.563 78.043 118.882 67.0363 118.102 64.7047C117.322 62.3732 118.171 59.3877 119.888 57.3027Z" fill="#FFD300"/>
<path d="M138.174 53.9282C132.651 54.358 121.261 55.6347 119.888 57.3027C118.171 59.3877 117.322 62.3732 118.102 64.7047C118.882 67.0363 120.563 78.043 120.942 80.095C121.321 82.1471 123.266 83.2027 126.991 82.5153C130.716 81.8279 144.451 80.3542 148.176 79.6668C151.902 78.9794 153.365 75.5264 152.608 71.4223C151.851 67.3182 150.635 56.9331 149.579 55.006C148.934 53.8287 146.234 53.5587 143.367 53.6056M138.174 53.9282C139.648 53.7938 141.542 53.6355 143.367 53.6056M138.174 53.9282C136.44 47.0573 132.63 33.3697 146.579 31.158C157.466 29.4317 160.726 39.5105 160.996 44.7655L156.255 45.6404C156.731 41.8979 155.505 34.7445 146.785 36.0707C138.065 37.3968 140.873 48.3132 143.367 53.6056" stroke="#FF267E" stroke-width="2" stroke-linecap="round"/>
<path d="M133.826 60.9609C130.724 61.5333 132.299 64.9149 133.431 66.542L134.118 74.1266L138.943 73.2362L136.533 65.9696C136.895 64.0668 136.929 60.3884 133.826 60.9609Z" fill="#FF267E" stroke="#FF267E" stroke-width="2" stroke-linecap="round"/>
</g>
<defs>
<clipPath id="clip0_330_870">
<rect width="200" height="173" fill="white"/>
</clipPath>
</defs>
</svg>
