<svg width="77" height="77" viewBox="0 0 77 77" fill="none" xmlns="http://www.w3.org/2000/svg">
<path d="M38.8614 74.7939C59.2621 74.7939 75.8 58.4377 75.8 38.2612C75.8 18.0848 59.2621 1.72852 38.8614 1.72852C18.4608 1.72852 1.92285 18.0848 1.92285 38.2612C1.92285 58.4377 18.4608 74.7939 38.8614 74.7939Z" fill="#58C08D"/>
<path d="M34.5 63C51.897 63 66 50.0163 66 34C66 17.9837 51.897 5 34.5 5C17.103 5 3 17.9837 3 34C3 50.0163 17.103 63 34.5 63Z" fill="#73CA9F"/>
<path fill-rule="evenodd" clip-rule="evenodd" d="M38.861 0.96383C28.4325 0.911593 18.9694 5.05863 12.0943 11.7885C5.1928 18.5445 0.911552 27.9096 0.861668 38.2612C0.817654 48.6477 5.04605 58.0766 11.9123 64.9138C18.7962 71.7685 28.3298 76.0113 38.861 76.0404C49.4011 76.0375 58.9757 71.8178 65.8714 64.966C72.767 58.123 76.9924 48.671 76.963 38.2612C76.875 27.8892 72.5909 18.5097 65.6659 11.7508C58.7703 5.0238 49.2955 0.891279 38.861 0.96383ZM38.861 1.72708C59.2399 1.72708 75.7893 18.0977 75.7893 38.2612C75.7893 58.4248 59.2399 74.7925 38.861 74.7925C18.4734 74.7925 1.92106 58.4248 1.92106 38.2612C1.92106 18.0977 18.4734 1.72708 38.861 1.72708Z" fill="#14143C"/>
<path fill-rule="evenodd" clip-rule="evenodd" d="M16.1865 41.9438C16.4267 42.216 17.6117 43.3919 17.987 43.681C18.9528 44.4243 35.6632 55.2425 36.4018 55.7879C36.9042 56.1591 37.5287 56.3789 38.2033 56.3789C39.8698 56.3789 41.2229 55.0406 41.2229 53.3925C41.2229 53.248 41.1929 45.6954 41.1929 45.6954C41.1929 45.6954 59.4355 44.8669 59.5646 44.8669C62.7133 44.8669 65.2695 42.3388 65.2695 39.2247C65.2695 38.1853 64.9853 37.2122 64.4899 36.3758C64.1215 35.7552 62.33 33.9635 61.8836 33.6467C61.173 33.1419 60.3393 32.7955 59.4375 32.6579C59.1673 32.6164 57.61 32.46 57.61 32.46L41.1959 31.865C41.2039 29.8813 41.2229 24.6786 41.2229 24.5648C41.2229 23.8739 40.9857 23.2384 40.5864 22.7316C40.3632 22.4485 39.2662 21.3567 38.9219 21.1201C38.4335 20.7855 37.841 20.5895 37.2025 20.5895C36.5009 20.5895 35.8543 20.8271 35.3409 21.2251C34.6363 21.7725 18.0731 33.0132 17.2043 33.618C15.7381 34.6396 14.7792 36.3273 14.7792 38.2348C14.7792 39.6543 15.3107 40.9519 16.1865 41.9438Z" fill="#000055"/>
<path fill-rule="evenodd" clip-rule="evenodd" d="M40.1919 43.6954C40.1919 43.6954 59.038 42.852 59.2692 42.8243C62.0857 42.4799 64.2695 40.1022 64.2695 37.2247C64.2695 34.4234 62.2007 32.0962 59.4944 31.6567C59.2062 31.6102 40.1919 30.7312 40.1919 30.7312C40.1919 30.7312 40.2229 22.7094 40.2229 22.5649C40.2229 20.9168 38.8698 19.5795 37.2033 19.5795C36.5007 19.5795 35.8542 19.817 35.3417 20.2149C34.6371 20.7623 18.0739 32.0032 17.2042 32.608C15.7379 33.6295 14.7791 35.3172 14.7791 37.2247C14.7791 39.0351 15.6438 40.6475 16.987 41.681C17.9528 42.4243 34.6621 53.2426 35.4008 53.788C35.9042 54.1592 36.5277 54.3789 37.2033 54.3789C38.8698 54.3789 40.2229 53.0406 40.2229 51.3925C40.2229 51.248 40.1919 43.6954 40.1919 43.6954Z" fill="#FFD300"/>
<path fill-rule="evenodd" clip-rule="evenodd" d="M39.6396 32.7242C39.6396 32.7242 58.0382 33.597 58.3499 33.6828C59.9271 34.1182 61.0859 35.5518 61.0859 37.2502C61.0859 39.0438 59.7937 40.5415 58.0802 40.8808C57.841 40.9279 39.6387 41.7546 39.6387 41.7546C38.7915 41.8592 38.1568 42.5737 38.1596 43.4182C38.1596 43.4182 38.1892 50.603 38.1892 50.7406C38.1892 51.3881 37.6574 51.9141 37.0027 51.9141C36.7377 51.9141 36.4928 51.8283 36.2956 51.6822C35.5932 51.1648 19.7076 40.8818 18.7889 40.1749C17.9074 39.4972 17.3394 38.4387 17.3394 37.2502C17.3394 35.9976 17.9694 34.8901 18.9328 34.22C19.7629 33.6412 35.5989 22.8898 36.2727 22.3677C36.4738 22.2112 36.7273 22.118 37.0027 22.118C37.6574 22.118 38.1892 22.6439 38.1892 23.2914C38.1892 23.429 38.1596 31.0606 38.1596 31.0606C38.1568 31.9052 38.7915 32.6195 39.6396 32.7242Z" stroke="#FFF0A9" stroke-miterlimit="2" stroke-linejoin="round"/>
<path fill-rule="evenodd" clip-rule="evenodd" d="M39.1846 32.1792C39.1846 32.1792 57.4078 33.0304 57.6423 33.0775C59.3472 33.4234 60.6309 34.9173 60.6309 36.7053C60.6309 38.4659 59.3853 39.9409 57.7195 40.3161C57.4517 40.3764 39.1836 41.2096 39.1836 41.2096C38.3364 41.3143 37.7017 42.0287 37.7045 42.8732C37.7045 42.8732 37.7341 50.0581 37.7341 50.1957C37.7341 50.8432 37.2023 51.3691 36.5476 51.3691C36.2827 51.3691 36.0377 51.2834 35.8405 51.1373C35.1381 50.6198 19.2526 40.3369 18.3339 39.63C17.4523 38.9523 16.8844 37.8938 16.8844 36.7053C16.8844 35.4527 17.5143 34.3452 18.4778 33.675C19.3078 33.0963 35.1438 22.3449 35.8176 21.8228C36.0187 21.6663 36.2722 21.573 36.5476 21.573C37.2023 21.573 37.7341 22.099 37.7341 22.7465C37.7341 22.8841 37.7045 30.5157 37.7045 30.5157C37.7017 31.3602 38.3364 32.0746 39.1846 32.1792Z" stroke="#BEE6D3" stroke-width="0.00840944" stroke-miterlimit="2" stroke-linejoin="round"/>
<path fill-rule="evenodd" clip-rule="evenodd" d="M38.7148 6.04135C29.7853 6.0113 21.6839 9.57435 15.8102 15.3484C9.9189 21.1374 6.26819 29.15 6.24034 38.0038C6.21756 46.8751 9.84026 54.9227 15.7113 60.7543C21.5926 66.596 29.7296 70.2116 38.7148 70.2266C47.7049 70.2266 55.8673 66.621 61.7409 60.7819C67.6399 54.9478 71.2602 46.8877 71.2349 38.0038C71.2096 29.1399 67.5385 21.1199 61.6396 15.3284C55.7659 9.55683 47.6493 6.00129 38.7148 6.04135ZM38.7148 6.92524C47.3708 6.9628 55.2091 10.4708 60.8548 16.1096C66.4753 21.7309 69.9689 29.4705 69.9436 38.0038C69.9183 46.5171 66.3992 54.2141 60.7535 59.7928C55.1077 65.364 47.3125 68.8219 38.7148 68.8194C30.1094 68.8344 22.3117 65.3916 16.6558 59.8204C10.9898 54.2417 7.47064 46.5271 7.44786 38.0038C7.42254 29.4604 10.9089 21.7108 16.5572 16.0896C22.2181 10.4532 30.0537 6.95278 38.7148 6.92524Z" fill="#31825A"/>
<path fill-rule="evenodd" clip-rule="evenodd" d="M38.0722 5.64277C29.1808 5.62274 21.1173 9.17327 15.274 14.9298C9.41559 20.6938 5.78495 28.6687 5.7647 37.4775C5.74951 46.3013 9.35488 54.3013 15.1981 60.1004C21.049 65.9044 29.1377 69.4975 38.0722 69.51C47.0093 69.5075 55.0982 65.9244 60.9718 60.1204C66.8201 54.3213 70.4404 46.3088 70.4151 37.4775C70.3898 28.6587 66.7442 20.6788 60.8959 14.9123C55.0476 9.16077 46.9662 5.61272 38.0722 5.64277ZM38.0722 6.26875C46.7687 6.29879 54.6423 9.81429 60.3134 15.4731C65.9845 21.1195 69.5037 28.8966 69.4783 37.4775C69.453 46.0409 65.9339 53.788 60.2375 59.4018C54.5664 65.008 46.7257 68.486 38.0722 68.486C29.4162 68.4985 21.5703 65.0281 15.8815 59.4218C10.1876 53.808 6.65344 46.0509 6.63572 37.4775C6.618 28.8891 10.1269 21.1044 15.8081 15.4581C21.4994 9.79925 29.3732 6.29128 38.0722 6.26875Z" fill="#BEE6D3"/>
</svg>
