<svg width="84" height="83" viewBox="0 0 84 83" fill="none" xmlns="http://www.w3.org/2000/svg">
<path d="M41.6165 80.8859C63.7437 80.8859 81.6813 63.1454 81.6813 41.2613C81.6813 19.3773 63.7437 1.63673 41.6165 1.63673C19.4893 1.63673 1.55176 19.3773 1.55176 41.2613C1.55176 63.1454 19.4893 80.8859 41.6165 80.8859Z" fill="#14143C"/>
<path fill-rule="evenodd" clip-rule="evenodd" d="M41.6167 0.542884C30.226 0.464192 19.879 4.98109 12.3552 12.3215C4.79643 19.6996 0.102171 29.9359 0.0289695 41.2613C-0.0346836 52.6339 4.58658 62.9645 12.0945 70.4592C19.631 77.979 30.0764 82.6312 41.6167 82.6753C53.1697 82.6721 63.6567 78.0482 71.1996 70.5316C78.7743 63.0338 83.389 52.6653 83.3253 41.2613C83.2299 29.9107 78.5197 19.6493 70.945 12.2648C63.4021 4.9339 53.0202 0.435863 41.6167 0.542884ZM41.6167 1.63512C63.7202 1.63512 81.6703 19.3912 81.6703 41.2613C81.6703 63.1314 63.7202 80.8843 41.6167 80.8843C19.5036 80.8843 1.55037 63.1314 1.55037 41.2613C1.55037 19.3912 19.5036 1.63512 41.6167 1.63512Z" fill="#31825A"/>
<path d="M41.2784 76.6688C61.679 76.6688 78.217 60.3126 78.217 40.1361C78.217 19.9597 61.679 3.60342 41.2784 3.60342C20.8778 3.60342 4.33984 19.9597 4.33984 40.1361C4.33984 60.3126 20.8778 76.6688 41.2784 76.6688Z" fill="#31825A"/>
<path d="M72.5097 47.3459C76.0942 51.8766 79 49.1929 79 41.3519C79 33.5108 76.0942 23.4816 72.5097 18.951C68.9252 14.4204 66.0195 17.1042 66.0195 24.9453C66.0195 32.7863 68.9252 42.8153 72.5097 47.3459Z" fill="#BEE6D3"/>
<path fill-rule="evenodd" clip-rule="evenodd" d="M41.2785 2.7023C30.8089 2.64135 21.3017 6.79712 14.3943 13.5473C7.4576 20.3295 3.14701 29.7351 3.08833 40.1361C3.03844 50.5777 7.28462 60.0588 14.1803 66.9367C21.0994 73.8349 30.6886 78.1039 41.2785 78.1387C51.8802 78.1358 61.5106 73.89 68.4356 66.9976C75.3606 60.1139 79.6154 50.6039 79.5567 40.1361C79.4981 29.7119 75.1846 20.2859 68.2009 13.5009C61.2759 6.75648 51.757 2.61523 41.2785 2.7023ZM41.2785 3.60193C61.6574 3.60193 78.2068 19.9725 78.2068 40.1361C78.2068 60.2997 61.6574 76.6673 41.2785 76.6673C20.8909 76.6673 4.33856 60.2997 4.33856 40.1361C4.33856 19.9725 20.8909 3.60193 41.2785 3.60193Z" fill="#14143C"/>
</svg>
