<svg width="203" height="42" viewBox="0 0 203 42" fill="none" xmlns="http://www.w3.org/2000/svg">
<rect x="1" y="1" width="201" height="40" rx="8" fill="#05C489"/>
<path d="M14.8632 15.85H22.2552V17.474H16.8652V19.994H21.9612V21.618H16.8652V26H14.8632V15.85ZM25.5295 15.85H27.5455L31.3395 26H29.1695L28.4555 23.942H24.5075L23.7935 26H21.7495L25.5295 15.85ZM25.0815 22.304H27.8815L26.4815 18.3L25.0815 22.304ZM32.6438 15.85L35.0658 23.494L37.4178 15.85H39.5458L36.0458 26H34.0018L30.4738 15.85H32.6438ZM40.5215 15.85H44.4695C44.9175 15.85 45.3609 15.892 45.7995 15.976C46.2382 16.0507 46.6302 16.1907 46.9755 16.396C47.3302 16.592 47.6149 16.8627 47.8295 17.208C48.0535 17.544 48.1655 17.9733 48.1655 18.496C48.1655 18.7387 48.1282 18.972 48.0535 19.196C47.9882 19.4107 47.8995 19.6113 47.7875 19.798C47.6755 19.9847 47.5495 20.1527 47.4095 20.302C47.2789 20.442 47.1482 20.554 47.0175 20.638C47.2135 20.7313 47.4002 20.8433 47.5775 20.974C47.7642 21.0953 47.9275 21.2493 48.0675 21.436C48.2075 21.6227 48.3195 21.8467 48.4035 22.108C48.4875 22.36 48.5295 22.6587 48.5295 23.004C48.5295 23.5547 48.4222 24.0213 48.2075 24.404C48.0022 24.7773 47.7222 25.0853 47.3675 25.328C47.0129 25.5613 46.5975 25.734 46.1215 25.846C45.6549 25.9487 45.1602 26 44.6375 26H40.5215V15.85ZM42.5235 24.432H44.7355C45.3235 24.432 45.7622 24.3107 46.0515 24.068C46.3409 23.8253 46.4855 23.4707 46.4855 23.004C46.4855 22.528 46.3362 22.1687 46.0375 21.926C45.7389 21.674 45.2769 21.548 44.6515 21.548H42.5235V24.432ZM42.5235 20.036H44.5955C45.0715 20.036 45.4402 19.924 45.7015 19.7C45.9722 19.476 46.1075 19.14 46.1075 18.692C46.1075 18.2907 45.9722 17.978 45.7015 17.754C45.4309 17.53 45.0622 17.418 44.5955 17.418H42.5235V20.036ZM49.9584 15.85H57.3504V17.474H51.9604V19.994H57.0564V21.618H51.9604V24.376H57.3504V26H49.9584V15.85ZM61.021 17.474H57.899V15.85H66.159V17.474H63.023V26H61.021V17.474ZM65.3959 26V23.9H67.4679V26H65.3959ZM69.2319 15.85H76.6239V17.474H71.2339V19.994H76.3299V21.618H71.2339V26H69.2319V15.85ZM79.3367 20.918C79.3367 21.5153 79.4114 22.0427 79.5607 22.5C79.7194 22.9573 79.9294 23.34 80.1907 23.648C80.4521 23.956 80.7601 24.1893 81.1147 24.348C81.4694 24.5067 81.8427 24.586 82.2347 24.586C82.6267 24.586 83.0001 24.5067 83.3547 24.348C83.7094 24.1893 84.0174 23.956 84.2787 23.648C84.5401 23.34 84.7454 22.9573 84.8947 22.5C85.0534 22.0427 85.1327 21.5153 85.1327 20.918C85.1327 20.3207 85.0534 19.798 84.8947 19.35C84.7454 18.8927 84.5401 18.51 84.2787 18.202C84.0174 17.894 83.7094 17.6607 83.3547 17.502C83.0001 17.3433 82.6267 17.264 82.2347 17.264C81.8427 17.264 81.4694 17.3433 81.1147 17.502C80.7601 17.6607 80.4521 17.894 80.1907 18.202C79.9294 18.51 79.7194 18.8927 79.5607 19.35C79.4114 19.798 79.3367 20.3207 79.3367 20.918ZM87.2047 20.918C87.2047 21.702 87.0881 22.4207 86.8547 23.074C86.6214 23.718 86.2854 24.2733 85.8467 24.74C85.4174 25.1973 84.8947 25.552 84.2787 25.804C83.6721 26.056 82.9907 26.182 82.2347 26.182C81.4787 26.182 80.7927 26.056 80.1767 25.804C79.5701 25.552 79.0474 25.1973 78.6087 24.74C78.1794 24.2733 77.8481 23.718 77.6147 23.074C77.3814 22.4207 77.2647 21.702 77.2647 20.918C77.2647 20.134 77.3814 19.42 77.6147 18.776C77.8481 18.1227 78.1794 17.5673 78.6087 17.11C79.0474 16.6527 79.5701 16.298 80.1767 16.046C80.7927 15.794 81.4787 15.668 82.2347 15.668C82.9907 15.668 83.6721 15.794 84.2787 16.046C84.8947 16.298 85.4174 16.6527 85.8467 17.11C86.2854 17.5673 86.6214 18.1227 86.8547 18.776C87.0881 19.42 87.2047 20.134 87.2047 20.918ZM90.6099 15.85V21.716C90.6099 22.164 90.6379 22.5653 90.6939 22.92C90.7499 23.2747 90.8572 23.578 91.0159 23.83C91.1839 24.0727 91.4079 24.2593 91.6879 24.39C91.9772 24.5207 92.3552 24.586 92.8219 24.586C93.2792 24.586 93.6526 24.5207 93.9419 24.39C94.2312 24.2593 94.4506 24.0727 94.5999 23.83C94.7586 23.578 94.8659 23.2747 94.9219 22.92C94.9779 22.5653 95.0059 22.164 95.0059 21.716V15.85H97.0079V21.702C97.0079 22.542 96.9286 23.2467 96.7699 23.816C96.6112 24.3853 96.3639 24.8473 96.0279 25.202C95.6919 25.5473 95.2579 25.7993 94.7259 25.958C94.1939 26.1073 93.5592 26.182 92.8219 26.182C92.0752 26.182 91.4359 26.1073 90.9039 25.958C90.3812 25.7993 89.9472 25.5473 89.6019 25.202C89.2566 24.8473 89.0046 24.3853 88.8459 23.816C88.6872 23.2467 88.6079 22.542 88.6079 21.702V15.85H90.6099ZM104.764 26L100.704 18.258V26H98.814V15.85H101.418L105.478 23.592V15.85H107.368V26H104.764ZM115.911 20.918C115.911 20.162 115.808 19.5553 115.603 19.098C115.398 18.6313 115.122 18.2767 114.777 18.034C114.432 17.782 114.04 17.6187 113.601 17.544C113.162 17.46 112.714 17.418 112.257 17.418H111.333V24.432H112.257C112.714 24.432 113.162 24.3947 113.601 24.32C114.04 24.236 114.432 24.0727 114.777 23.83C115.122 23.578 115.398 23.2233 115.603 22.766C115.808 22.2993 115.911 21.6833 115.911 20.918ZM112.341 15.85C113.144 15.85 113.89 15.9247 114.581 16.074C115.272 16.2233 115.869 16.4893 116.373 16.872C116.877 17.2547 117.269 17.7727 117.549 18.426C117.838 19.0793 117.983 19.91 117.983 20.918C117.983 21.926 117.838 22.7567 117.549 23.41C117.269 24.0633 116.877 24.586 116.373 24.978C115.869 25.3607 115.272 25.6267 114.581 25.776C113.89 25.9253 113.144 26 112.341 26H109.331V15.85H112.341ZM122.403 15.85H124.419L128.213 26H126.043L125.329 23.942H121.381L120.667 26H118.623L122.403 15.85ZM121.955 22.304H124.755L123.355 18.3L121.955 22.304ZM130.145 17.474H127.023V15.85H135.283V17.474H132.147V26H130.145V17.474ZM138.399 26H136.397V15.85H138.399V26ZM142.032 20.918C142.032 21.5153 142.106 22.0427 142.256 22.5C142.414 22.9573 142.624 23.34 142.886 23.648C143.147 23.956 143.455 24.1893 143.81 24.348C144.164 24.5067 144.538 24.586 144.93 24.586C145.322 24.586 145.695 24.5067 146.05 24.348C146.404 24.1893 146.712 23.956 146.974 23.648C147.235 23.34 147.44 22.9573 147.59 22.5C147.748 22.0427 147.828 21.5153 147.828 20.918C147.828 20.3207 147.748 19.798 147.59 19.35C147.44 18.8927 147.235 18.51 146.974 18.202C146.712 17.894 146.404 17.6607 146.05 17.502C145.695 17.3433 145.322 17.264 144.93 17.264C144.538 17.264 144.164 17.3433 143.81 17.502C143.455 17.6607 143.147 17.894 142.886 18.202C142.624 18.51 142.414 18.8927 142.256 19.35C142.106 19.798 142.032 20.3207 142.032 20.918ZM149.9 20.918C149.9 21.702 149.783 22.4207 149.55 23.074C149.316 23.718 148.98 24.2733 148.542 24.74C148.112 25.1973 147.59 25.552 146.974 25.804C146.367 26.056 145.686 26.182 144.93 26.182C144.174 26.182 143.488 26.056 142.872 25.804C142.265 25.552 141.742 25.1973 141.304 24.74C140.874 24.2733 140.543 23.718 140.31 23.074C140.076 22.4207 139.96 21.702 139.96 20.918C139.96 20.134 140.076 19.42 140.31 18.776C140.543 18.1227 140.874 17.5673 141.304 17.11C141.742 16.6527 142.265 16.298 142.872 16.046C143.488 15.794 144.174 15.668 144.93 15.668C145.686 15.668 146.367 15.794 146.974 16.046C147.59 16.298 148.112 16.6527 148.542 17.11C148.98 17.5673 149.316 18.1227 149.55 18.776C149.783 19.42 149.9 20.134 149.9 20.918ZM157.407 26L153.347 18.258V26H151.457V15.85H154.061L158.121 23.592V15.85H160.011V26H157.407Z" fill="#000055"/>
<path d="M175.298 16.5267H184.474M184.474 16.5267V25.7031M184.474 16.5267L175.527 25.4737" stroke="#000055" stroke-width="2"/>
<rect x="1" y="1" width="201" height="40" rx="8" stroke="#000055" stroke-width="2"/>
</svg>
