<svg width="46" height="42" viewBox="0 0 46 42" fill="none" xmlns="http://www.w3.org/2000/svg">
<rect x="1" y="1" width="44" height="40" rx="10" fill="#05C489"/>
<g clip-path="url(#clip0_330_594)">
<path d="M23 14.4406C25.2711 14.4406 25.54 14.45 26.4332 14.4875C27.2633 14.5219 27.7115 14.6531 28.0104 14.7625C28.4055 14.9062 28.691 15.0812 28.9865 15.3594C29.2854 15.6406 29.468 15.9062 29.6207 16.2781C29.7369 16.5594 29.8764 16.9844 29.9129 17.7625C29.9527 18.6062 29.9627 18.8594 29.9627 20.9937C29.9627 23.1312 29.9527 23.3844 29.9129 24.225C29.8764 25.0063 29.7369 25.4281 29.6207 25.7094C29.468 26.0813 29.282 26.35 28.9865 26.6281C28.6877 26.9094 28.4055 27.0813 28.0104 27.225C27.7115 27.3344 27.26 27.4656 26.4332 27.5C25.5367 27.5375 25.2678 27.5469 23 27.5469C20.7289 27.5469 20.46 27.5375 19.5668 27.5C18.7367 27.4656 18.2885 27.3344 17.9896 27.225C17.5945 27.0813 17.309 26.9062 17.0135 26.6281C16.7146 26.3469 16.532 26.0813 16.3793 25.7094C16.2631 25.4281 16.1236 25.0031 16.0871 24.225C16.0473 23.3813 16.0373 23.1281 16.0373 20.9937C16.0373 18.8562 16.0473 18.6031 16.0871 17.7625C16.1236 16.9812 16.2631 16.5594 16.3793 16.2781C16.532 15.9062 16.718 15.6375 17.0135 15.3594C17.3123 15.0781 17.5945 14.9062 17.9896 14.7625C18.2885 14.6531 18.74 14.5219 19.5668 14.4875C20.46 14.45 20.7289 14.4406 23 14.4406ZM23 13C20.6924 13 20.4035 13.0094 19.4971 13.0469C18.5939 13.0844 17.973 13.2219 17.4352 13.4187C16.874 13.625 16.3992 13.8969 15.9277 14.3437C15.4529 14.7875 15.1641 15.2344 14.9449 15.7594C14.7357 16.2687 14.5896 16.85 14.5498 17.7C14.51 18.5562 14.5 18.8281 14.5 21C14.5 23.1719 14.51 23.4437 14.5498 24.2969C14.5896 25.1469 14.7357 25.7312 14.9449 26.2375C15.1641 26.7656 15.4529 27.2125 15.9277 27.6562C16.3992 28.1 16.874 28.375 17.4318 28.5781C17.973 28.775 18.5906 28.9125 19.4938 28.95C20.4002 28.9875 20.6891 28.9969 22.9967 28.9969C25.3043 28.9969 25.5932 28.9875 26.4996 28.95C27.4027 28.9125 28.0236 28.775 28.5615 28.5781C29.1193 28.375 29.5941 28.1 30.0656 27.6562C30.5371 27.2125 30.8293 26.7656 31.0451 26.2406C31.2543 25.7312 31.4004 25.15 31.4402 24.3C31.4801 23.4469 31.49 23.175 31.49 21.0031C31.49 18.8313 31.4801 18.5594 31.4402 17.7062C31.4004 16.8562 31.2543 16.2719 31.0451 15.7656C30.8359 15.2344 30.5471 14.7875 30.0723 14.3437C29.6008 13.9 29.126 13.625 28.5682 13.4219C28.027 13.225 27.4094 13.0875 26.5063 13.05C25.5965 13.0094 25.3076 13 23 13Z" fill="#000055"/>
<path d="M23 16.8906C20.5895 16.8906 18.6338 18.7313 18.6338 21C18.6338 23.2688 20.5895 25.1094 23 25.1094C25.4105 25.1094 27.3662 23.2688 27.3662 21C27.3662 18.7313 25.4105 16.8906 23 16.8906ZM23 23.6656C21.4361 23.6656 20.1678 22.4719 20.1678 21C20.1678 19.5281 21.4361 18.3344 23 18.3344C24.5639 18.3344 25.8322 19.5281 25.8322 21C25.8322 22.4719 24.5639 23.6656 23 23.6656Z" fill="#000055"/>
<path d="M28.5582 16.7289C28.5582 17.2602 28.1 17.6883 27.5389 17.6883C26.9744 17.6883 26.5195 17.257 26.5195 16.7289C26.5195 16.1977 26.9777 15.7695 27.5389 15.7695C28.1 15.7695 28.5582 16.2008 28.5582 16.7289Z" fill="#000055"/>
</g>
<rect x="1" y="1" width="44" height="40" rx="10" stroke="#000055" stroke-width="2"/>
<defs>
<clipPath id="clip0_330_594">
<rect width="17" height="16" fill="white" transform="translate(14.5 13)"/>
</clipPath>
</defs>
</svg>
