<svg width="88" height="63" viewBox="0 0 88 63" fill="none" xmlns="http://www.w3.org/2000/svg">
<path fill-rule="evenodd" clip-rule="evenodd" d="M12.9266 18.4457C17.244 14.2039 15.2813 10.4165 15.2813 10.4165L7.63881 7.76115C9.40202 6.12723 13.1158 4.56148 16.4222 5.05027C18.6841 5.3847 20.1085 5.57258 21.6753 6.5441C24.8071 8.48599 25.2533 13.2462 26.947 15.7825L57.8505 33.9139C57.8505 33.9139 65.3714 36.409 67.1583 36.8318C69.0982 37.292 77.2536 39.6096 79.0055 40.6375C83.3342 43.1772 84.7867 48.7537 82.2469 53.0824C80.6587 55.7894 77.7888 57.3996 74.8725 57.5838C74.1977 57.6254 71.8288 57.6736 71.3005 57.6235C70.3109 57.5314 69.3303 57.1012 68.424 56.6936C68.1098 56.5523 67.8003 56.3942 67.5043 56.2153C67.2021 56.0314 66.9209 55.8116 66.6444 55.5906C66.2802 55.2986 65.9254 54.995 65.5744 54.6872C64.5816 53.8148 63.6194 52.908 62.6674 51.9928C61.5987 50.9648 60.5445 49.9232 59.5072 48.864C59.2529 48.6051 58.9997 48.3442 58.7498 48.0801C58.5922 47.9145 58.4376 47.744 58.2791 47.5779C58.0827 47.3738 57.8825 47.1741 57.6807 46.9748C56.8264 46.1313 55.9515 45.3072 55.0771 44.4846C53.8682 43.3482 52.6517 42.2205 51.4313 41.097L22.0388 23.852C19.6062 24.2181 17.4947 25.1212 14.0761 24.8527C12.7846 24.7519 11.9685 24.6937 10.8452 24.164C6.73956 22.228 4.77014 16.6577 4.77014 16.6577C4.77014 16.6577 7.1002 16.9472 7.02571 16.7402L12.9266 18.4457ZM73.3052 44.004C73.0879 44.0516 72.8741 44.1155 72.6652 44.1954L72.1133 43.5645C71.8005 43.7036 70.8368 43.6542 70.557 43.8506L70.8161 44.649C70.5575 44.8539 70.3211 45.0875 70.1121 45.3436L69.3188 45.0728C69.1169 45.3501 68.9431 45.6465 68.8 45.957L69.4229 46.5183C69.3013 46.8258 69.2132 47.1451 69.16 47.4717L68.3372 47.6342C68.3017 47.9751 68.2961 48.2383 68.3268 48.5802L69.1477 48.755C69.1949 49.0818 69.2827 49.482 69.3994 49.7908L68.7689 50.3444C68.9086 50.6562 69.0779 50.9554 69.2748 51.2342L70.0728 50.9761C70.2776 51.2347 70.5112 51.4711 70.7673 51.6801L70.866 52.2199C70.8967 52.2431 70.5592 52.518 70.5905 52.5403L70.6085 52.5429C70.6189 52.5451 70.629 52.5459 70.6394 52.5481L70.6455 52.5778C70.8783 52.7353 71.1251 52.8735 71.3807 52.9921L71.942 52.3693C72.066 52.4185 72.8563 52.6811 72.984 52.7194C73.2003 52.6713 73.4141 52.6074 73.623 52.5275L74.176 53.1588C74.4888 53.0197 74.787 52.8499 75.0673 52.6526L74.8077 51.855C75.0679 51.6498 75.3036 51.4172 75.5117 51.1605L76.3065 51.4309C76.5074 51.153 76.6808 50.8576 76.8253 50.5466L76.2015 49.9847C76.3241 49.6779 76.4121 49.3586 76.4638 49.0324L77.2872 48.8689C77.3221 48.5289 77.3249 48.1857 77.2943 47.8439L76.4734 47.6692C76.4261 47.3424 76.3426 47.0217 76.2244 46.7133L76.8558 46.1603C76.7167 45.8475 76.5468 45.5493 76.3495 45.269L75.551 45.528C75.3467 45.2684 75.1141 45.0327 74.8574 44.8246L75.1278 44.0298C75.0965 44.0075 75.0652 43.9852 75.0343 43.9644L75.0153 43.9611C75.0058 43.9594 74.9953 43.9573 74.9849 43.9551L74.9792 43.9269C74.7454 43.7688 74.4993 43.6296 74.2436 43.511L73.6817 44.1348C73.5588 44.0861 73.4329 44.0424 73.3052 44.004Z" fill="#000055"/>
<path fill-rule="evenodd" clip-rule="evenodd" d="M21.653 23.5586C18.384 23.4692 14.1221 25.642 10.8403 24.0939C6.73468 22.158 4.76428 16.5871 4.76428 16.5871L12.4579 18.8101C17.375 14.3964 15.2758 10.3475 15.2758 10.3475L7.63331 7.69219C9.97321 5.52282 15.6452 4.05443 19.4139 6.39097C22.5456 8.33287 22.9919 13.0931 24.6856 15.6293L55.589 33.7607C55.589 33.7607 63.11 36.2559 64.8969 36.6786C66.8368 37.1389 74.9922 39.4565 76.744 40.4843C81.0728 43.024 82.5252 48.6006 79.9855 52.9293C77.4464 57.257 71.8699 58.7095 67.5412 56.1698C65.7893 55.142 59.7877 49.1535 58.4395 47.6846C57.1982 46.332 51.4264 41.0269 51.4264 41.0269L21.653 23.5586ZM67.7212 45.1394C67.5209 45.4163 67.347 45.7127 67.203 46.0226L67.8268 46.5846C67.7043 46.8914 67.6157 47.2116 67.564 47.5379L66.7411 47.7004C66.7057 48.0414 66.7029 48.3845 66.734 48.7254L67.554 48.8996C67.6022 49.227 67.6857 49.5477 67.8033 49.857L67.172 50.4099C67.3117 50.7218 67.481 51.0209 67.6783 51.3012L68.4758 51.0417C68.6816 51.3009 68.9142 51.5366 69.1704 51.7457L68.9005 52.5395C69.1768 52.7408 69.4732 52.9147 69.7847 53.0583L70.3451 52.4349C70.6525 52.5565 70.9727 52.6452 71.2984 52.6978L71.4619 53.5211C71.8019 53.556 72.1457 53.5579 72.487 53.5283L72.6616 52.7074C72.989 52.6592 73.3097 52.5756 73.618 52.4575L74.1711 53.0888C74.4839 52.9497 74.7821 52.7799 75.0624 52.5825L74.8028 51.785C75.0614 51.5801 75.2987 51.3472 75.5068 51.0905L76.3006 51.3603C76.5019 51.084 76.6758 50.7876 76.8188 50.4771L76.196 49.9158C76.3186 49.6089 76.4063 49.288 76.4589 48.9623L77.2818 48.7998C77.3172 48.4589 77.32 48.1157 77.2889 47.7748L76.4679 47.6001C76.4206 47.2733 76.3371 46.9526 76.2195 46.6433L76.8503 46.0912C76.7103 45.7779 76.541 45.4787 76.344 45.1999L75.5461 45.458C75.3413 45.1994 75.1077 44.963 74.8516 44.754L75.1224 43.9607C74.8451 43.7588 74.5487 43.5849 74.2382 43.4419L73.6768 44.0648C73.3694 43.9432 73.0501 43.8551 72.7234 43.8019L72.5604 42.98C72.22 42.9436 71.8763 42.9417 71.5354 42.9729L71.3612 43.7929C71.0338 43.8411 70.7131 43.9247 70.4038 44.0423L69.8518 43.4114C69.539 43.5505 69.2408 43.7203 68.9605 43.9177L69.2201 44.7152C68.9605 44.9195 68.7241 45.1531 68.5161 45.4098L67.7212 45.1394Z" fill="#FFA7CB"/>
<path fill-rule="evenodd" clip-rule="evenodd" d="M66.5271 45.017C68.3051 41.9864 72.2094 40.9731 75.2421 42.7525C78.2746 44.5317 79.2947 48.4341 77.5167 51.4647C75.7386 54.4953 71.8204 55.5324 68.7879 53.7532C65.7551 51.9738 64.749 48.0476 66.5271 45.017ZM67.7249 45.1421C67.5285 45.4118 67.3464 45.7221 67.2068 46.0251L67.8317 46.5844C67.7069 46.8961 67.6269 47.2018 67.5765 47.5251L66.7412 47.7088C66.7096 48.0431 66.7036 48.3922 66.7354 48.7317L67.562 48.8958C67.6142 49.2152 67.6904 49.5486 67.815 49.8462L67.1806 50.4043C67.3229 50.7124 67.4811 51.0299 67.68 51.307L68.4827 51.0399C68.6923 51.2912 68.9264 51.5249 69.1802 51.7379L68.9057 52.5392C69.1857 52.7356 69.4819 52.9093 69.7899 53.058L70.3554 52.4275C70.6653 52.5451 70.9834 52.6354 71.305 52.6958L71.4635 53.5268C71.8024 53.5653 72.1568 53.5485 72.4951 53.5224L72.673 52.6965C72.9934 52.6599 73.3215 52.5637 73.6258 52.4536L74.1726 53.0951C74.4842 52.9572 74.7862 52.7818 75.0624 52.591L74.8156 51.7723C75.0731 51.5706 75.301 51.3517 75.512 51.0905L76.305 51.3631C76.5017 51.0936 76.6837 50.7833 76.8231 50.4802L76.1981 49.9211C76.3231 49.6096 76.4172 49.2798 76.4676 48.9565L77.2886 48.7967C77.3204 48.4625 77.3263 48.113 77.2947 47.7737L76.4679 47.6094C76.4297 47.2662 76.3395 46.9568 76.2291 46.6354L76.8492 46.1012C76.7209 45.7693 76.5487 45.4756 76.3498 45.1985L75.5472 45.4654C75.3516 45.1902 75.1175 44.9566 74.8637 44.7436L75.1241 43.9663C74.8441 43.7699 74.5479 43.5962 74.2399 43.4476L73.6884 44.054C73.3786 43.9364 73.0605 43.846 72.7249 43.8095L72.5663 42.9787C72.2274 42.9403 71.887 42.9332 71.5347 42.9831L71.3711 43.7852C71.0364 43.8455 70.7224 43.9177 70.4041 44.0517L69.8576 43.4103C69.5457 43.5481 69.2438 43.7239 68.9673 43.9145L69.2285 44.7093C68.971 44.911 68.729 45.154 68.5178 45.415L67.7249 45.1421Z" fill="#FF267E"/>
<path fill-rule="evenodd" clip-rule="evenodd" d="M22.6204 17.3856C22.2835 17.1879 21.8487 17.3019 21.6584 17.6263L20.78 19.1233C20.5751 19.4726 20.6878 19.9077 21.0247 20.1054L59.8427 42.8803C60.1798 43.0781 60.6144 42.9641 60.8193 42.6148L61.6976 41.1178C61.8879 40.7934 61.7755 40.3584 61.4384 40.1606L22.6204 17.3856Z" fill="#FF267E"/>
<path fill-rule="evenodd" clip-rule="evenodd" d="M21.5738 23.8387L51.2578 41.2547C51.5251 41.5003 54.169 43.9331 56.1808 45.8514C57.0854 46.7139 57.8622 47.4714 58.2325 47.8755C59.0164 48.7299 61.3695 51.1083 63.5513 53.1577C65.1465 54.6552 66.6535 55.9758 67.3988 56.413C69.6307 57.7225 72.1831 58.0026 74.5049 57.3978C76.8268 56.793 78.9181 55.3034 80.227 53.0725C81.5365 50.8406 81.8166 48.2882 81.2119 45.9664C80.6071 43.6445 79.1174 41.5532 76.8855 40.2437C76.1402 39.8065 74.2524 39.135 72.1664 38.4741C69.3136 37.5683 66.0894 36.6745 64.9612 36.407C64.4268 36.2803 63.3773 35.9676 62.17 35.5922C59.4941 34.7589 56.0486 33.6191 55.7053 33.5052L24.8825 15.4211C23.7189 13.64 23.1463 10.8002 21.8402 8.59842C21.2573 7.61511 20.5312 6.75556 19.5612 6.15377C17.7263 5.01583 15.4529 4.74777 13.3111 5.02328C10.9274 5.33054 8.7096 6.31235 7.44269 7.48773L7.10034 7.80409L15.0704 10.5733C15.2456 10.987 15.8483 12.6846 14.9887 14.8957C14.5584 16.0029 13.7645 17.2338 12.385 18.4986L4.31839 16.1677L4.50002 16.6818C4.50002 16.6818 5.49568 19.4995 7.54655 21.8521C8.41536 22.8491 9.4727 23.7606 10.7199 24.3487C11.7605 24.839 12.8956 24.9748 14.0674 24.923C16.6042 24.8114 19.3195 23.7987 21.5729 23.8382L21.5738 23.8387ZM51.5927 40.802L21.7318 23.2823L21.6603 23.2795C19.3812 23.2171 16.6191 24.2494 14.0418 24.3634C12.9636 24.4113 11.9172 24.2936 10.9589 23.8411C9.47377 23.1421 8.2792 21.9502 7.36011 20.7318C6.26248 19.2767 5.55785 17.7818 5.23501 17.0163L12.5289 19.1237L12.6444 19.0204C14.1777 17.6447 15.0444 16.3011 15.5108 15.0988C16.607 12.282 15.5239 10.219 15.5239 10.219L15.4725 10.1196L8.18673 7.58868C9.42166 6.61919 11.34 5.84288 13.3829 5.57994C15.3984 5.31919 17.5389 5.56016 19.2657 6.63077C20.1581 7.18443 20.8213 7.97979 21.358 8.88376C22.6822 11.117 23.2599 14.0015 24.4516 15.786L24.4879 15.84L55.4719 34.0187L55.5006 34.0277C55.5006 34.0277 59.1795 35.2484 62.0038 36.127C63.2265 36.5074 64.2903 36.8246 64.8316 36.9528C65.9529 37.2189 69.1603 38.108 71.9967 39.0081C74.0318 39.6535 75.8748 40.3011 76.6016 40.7276C78.6994 41.9584 80.1006 43.9246 80.6692 46.1077C81.2379 48.2908 80.9739 50.6908 79.7431 52.7886C78.5129 54.8854 76.5467 56.2866 74.3636 56.8552C72.1805 57.4238 69.78 57.1608 67.6822 55.93C66.9554 55.5036 65.4914 54.2099 63.9352 52.7483C61.7657 50.7113 59.4249 48.3452 58.6457 47.4962C58.2701 47.0878 57.484 46.3196 56.5675 45.4462C54.4437 43.4204 51.6151 40.8217 51.6151 40.8217L51.5927 40.802ZM67.8113 44.8751L67.6153 44.8084L67.4935 44.976C67.3883 45.1219 67.2893 45.2728 67.1981 45.4283C67.1074 45.5828 67.024 45.7427 66.948 45.9058L66.8612 46.0939L67.4968 46.6667C67.4596 46.7702 67.4268 46.8751 67.3975 46.9807C67.3691 47.0869 67.3434 47.1931 67.322 47.3007L66.4828 47.4667L66.4614 47.6723C66.4433 47.8524 66.4333 48.0319 66.4318 48.2126C66.4308 48.3923 66.4374 48.5725 66.4537 48.7518L66.4727 48.9576L67.3085 49.1358C67.3291 49.2432 67.3532 49.3514 67.3809 49.4577C67.4086 49.5641 67.44 49.6687 67.4744 49.7726L66.8317 50.3359L66.9155 50.5248C66.9888 50.6893 67.0704 50.8508 67.1588 51.0072C67.2489 51.1632 67.3446 51.3161 67.4489 51.4634L67.5678 51.6325L68.3808 51.3689C68.4525 51.4514 68.5263 51.5326 68.6034 51.6105C68.6815 51.6889 68.7613 51.7645 68.8427 51.8371L68.5678 52.6462L68.7353 52.7681C68.8813 52.8733 69.0322 52.9722 69.1877 53.0635C69.3431 53.1547 69.5022 53.2376 69.6662 53.3142L69.8533 53.4004L70.4256 52.7658C70.5297 52.802 70.6345 52.8348 70.7401 52.8641C70.8457 52.8934 70.9526 52.9182 71.0606 52.9411L71.2271 53.7794L71.4327 53.8008C71.6112 53.8193 71.7923 53.8289 71.9715 53.8308C72.1521 53.8323 72.3319 53.8242 72.5112 53.8079L72.718 53.7895L72.8953 52.953C73.0037 52.933 73.1103 52.9093 73.2167 52.8816C73.323 52.8539 73.4282 52.8216 73.532 52.7872L74.0963 53.4304L74.2842 53.3461C74.4487 53.2728 74.6102 53.1912 74.7666 53.1028C74.9236 53.0133 75.0754 52.917 75.2228 52.8127L75.3919 52.6937L75.1283 51.8808C75.2109 51.8091 75.292 51.7353 75.3699 51.6582C75.4478 51.5811 75.5233 51.5013 75.5965 51.4189L76.4057 51.6937L76.5275 51.5262C76.6337 51.3808 76.7317 51.2294 76.8223 51.0749C76.9135 50.9195 76.9979 50.76 77.073 50.5964L77.1599 50.4083L76.5252 49.836C76.5609 49.7329 76.5942 49.6271 76.6235 49.5215C76.6528 49.4159 76.6777 49.3091 76.7 49.202L77.5382 49.0355L77.5596 48.8299C77.5787 48.6504 77.5887 48.4708 77.5902 48.2901C77.5912 48.1104 77.5836 47.9297 77.5673 47.7504L77.5493 47.5452L76.7125 47.3663C76.6919 47.2589 76.6688 47.1514 76.6411 47.045C76.6128 46.9396 76.582 46.834 76.5466 46.7296L77.1903 46.1668L77.1055 45.9774C77.0322 45.8129 76.9516 45.6519 76.8622 45.495C76.7731 45.3395 76.6763 45.1862 76.5731 45.0394L76.4542 44.8703L75.6406 45.1349C75.5685 45.0508 75.4941 44.9705 75.4176 44.8917C75.3405 44.8138 75.2608 44.7383 75.1783 44.6651L75.4532 43.8559L75.2866 43.7347C75.1397 43.6289 74.9898 43.5305 74.8343 43.4393C74.6788 43.348 74.5188 43.2646 74.3557 43.1886L74.1677 43.1017L73.5955 43.7364C73.4924 43.7007 73.3875 43.6679 73.2809 43.6381C73.1748 43.6097 73.0684 43.584 72.9608 43.5626L72.7949 42.7233L72.5893 42.702C72.4098 42.6829 72.2297 42.6738 72.0496 42.6714C71.8699 42.6704 71.6891 42.678 71.5097 42.6943L71.304 42.7133L71.1258 43.5491C71.0184 43.5697 70.9111 43.5943 70.8053 43.6211C70.699 43.6488 70.5928 43.6805 70.489 43.715L69.9257 43.0723L69.7367 43.1561C69.5723 43.2294 69.4118 43.3115 69.2554 43.4C69.0984 43.4894 68.9465 43.5858 68.7982 43.6895L68.6291 43.8084L68.8937 44.622C68.8102 44.6931 68.7299 44.7675 68.6511 44.844C68.5732 44.9211 68.4971 45.0018 68.4245 45.0833C68.4255 45.0839 67.8113 44.8751 67.8113 44.8751ZM67.8307 45.4742L68.6093 45.739L68.7326 45.5866C68.8305 45.4665 68.9341 45.3523 69.0449 45.2436C69.1557 45.1349 69.2706 45.0325 69.3922 44.9366L69.5458 44.8151L69.2917 44.0326C69.3708 43.9824 69.4504 43.9337 69.5322 43.8877C69.6131 43.8411 69.6963 43.7971 69.7794 43.7557L70.3216 44.3743L70.5045 44.3053C70.649 44.2503 70.7962 44.2021 70.9457 44.1632C71.0963 44.1248 71.2478 44.0935 71.4008 44.071L71.5945 44.0436L71.7651 43.2385C71.8594 43.2337 71.9519 43.2319 72.0458 43.2321C72.1391 43.2334 72.2329 43.236 72.3259 43.2423L72.4859 44.0493L72.6792 44.0804C72.8321 44.1048 72.9839 44.1377 73.1321 44.1789C73.2818 44.2198 73.429 44.2696 73.5731 44.3267L73.754 44.3989L74.305 43.787C74.388 43.8305 74.4704 43.8748 74.551 43.9221C74.6316 43.9695 74.7106 44.0197 74.7889 44.0709L74.5236 44.8504L74.6749 44.9732C74.7951 45.0711 74.9103 45.1752 75.0181 45.2855C75.1273 45.3953 75.2301 45.5118 75.326 45.6333L75.4465 45.7863L76.229 45.5323C76.2798 45.6104 76.3279 45.691 76.3745 45.7719C76.4205 45.8537 76.465 45.9359 76.5058 46.02L75.8873 46.5622L75.9569 46.7441C76.0118 46.8886 76.0595 47.0367 76.0984 47.1863C76.1374 47.3358 76.168 47.4884 76.1906 47.6414L76.2186 47.8341L77.0231 48.0057C77.0284 48.099 77.0297 48.1925 77.0295 48.2864C77.0283 48.3797 77.0255 48.4735 77.0193 48.5665L76.2123 48.7264L76.1811 48.9198C76.1567 49.0726 76.1244 49.2235 76.0826 49.3727C76.0417 49.5224 75.9926 49.6685 75.9355 49.8126L75.8627 49.9946L76.4746 50.5456C76.4317 50.6276 76.3867 50.7109 76.3394 50.7916C76.2921 50.8722 76.2418 50.9512 76.1906 51.0296L75.4117 50.7632L75.2884 50.9155C75.1905 51.0357 75.0869 51.15 74.9761 51.2587C74.8662 51.3679 74.7503 51.4697 74.6282 51.5666L74.4753 51.687L74.7293 52.4696C74.6511 52.5204 74.5707 52.5685 74.4898 52.6151C74.4079 52.6611 74.3257 52.7056 74.2416 52.7464L73.6994 52.1279L73.5175 52.1974C73.3729 52.2524 73.2248 52.3 73.0753 52.339C72.9257 52.3779 72.7732 52.4086 72.6202 52.4312L72.4275 52.4592L72.2559 53.2636C72.1626 53.269 72.0691 53.2703 71.9752 53.2701C71.8819 53.2689 71.7881 53.2661 71.6951 53.2599L71.5352 52.4529L71.3428 52.4223C71.1899 52.3979 71.0381 52.365 70.8889 52.3232C70.7401 52.2829 70.5931 52.2332 70.4489 52.176L70.268 52.1038L69.7169 52.7157C69.634 52.6723 69.5516 52.6279 69.471 52.5806C69.3903 52.5333 69.3114 52.483 69.2331 52.4318L69.4984 51.6523L69.3471 51.5296C69.2269 51.4316 69.1117 51.3275 69.003 51.2167C68.8947 51.1074 68.7919 50.9909 68.696 50.8694L68.5745 50.7158L67.792 50.9699C67.7412 50.8917 67.6931 50.8113 67.6465 50.7304C67.6005 50.6485 67.557 50.5668 67.5152 50.4822L68.1347 49.9406L68.0641 49.7581C68.0092 49.6135 67.9625 49.466 67.9226 49.3159C67.8836 49.1663 67.854 49.0143 67.8314 48.8613L67.8024 48.6681L66.998 48.4964C66.9936 48.4038 66.9913 48.3097 66.9925 48.2163C66.9928 48.1224 66.9964 48.0293 67.0017 47.9358L67.8087 47.7757L67.8393 47.5834C67.8642 47.4296 67.8975 47.2793 67.9384 47.1296C67.9792 46.9798 68.0284 46.8336 68.0855 46.6895L68.1583 46.5076L67.5468 45.9581C67.5893 45.8746 67.6346 45.7928 67.682 45.7122C67.7293 45.6315 67.7791 45.551 67.8307 45.4742Z" fill="#FF267E"/>
</svg>
