<svg width="75" height="75" viewBox="0 0 75 75" fill="none" xmlns="http://www.w3.org/2000/svg">
<path d="M37.5128 73.1117C57.2409 73.1117 73.2336 57.1189 73.2336 37.3908C73.2336 17.6627 57.2409 1.66992 37.5128 1.66992C17.7847 1.66992 1.79199 17.6627 1.79199 37.3908C1.79199 57.1189 17.7847 73.1117 37.5128 73.1117Z" fill="#58C08D"/>
<path d="M32.7111 61.5776C49.7215 61.5776 63.5111 48.6635 63.5111 32.7331C63.5111 16.8028 49.7215 3.88867 32.7111 3.88867C15.7007 3.88867 1.91113 16.8028 1.91113 32.7331C1.91113 48.6635 15.7007 61.5776 32.7111 61.5776Z" fill="#73CA9F"/>
<path fill-rule="evenodd" clip-rule="evenodd" d="M37.5126 0.920841C27.4278 0.869764 18.2767 4.92464 11.6283 11.505C4.9543 18.1109 0.814193 27.2678 0.765954 37.3894C0.72339 47.5451 4.81239 56.7644 11.4523 63.4497C18.1093 70.1521 27.3285 74.3006 37.5126 74.329C47.7052 74.3262 56.9642 70.2003 63.6325 63.5008C70.3008 56.8098 74.3868 47.5678 74.3585 37.3894C74.2733 27.2479 70.1305 18.0768 63.4338 11.4681C56.7655 4.89059 47.603 0.849901 37.5126 0.920841ZM37.5126 1.66713C57.2196 1.66713 73.2234 17.6739 73.2234 37.3894C73.2234 57.1049 57.2196 73.1089 37.5126 73.1089C17.7971 73.1089 1.79042 57.1049 1.79042 37.3894C1.79042 17.6739 17.7971 1.66713 37.5126 1.66713Z" fill="#14143C"/>
<path fill-rule="evenodd" clip-rule="evenodd" d="M55.6518 42.0715C55.3612 42.4104 53.9274 43.8746 53.4733 44.2345C52.3048 45.1601 32.0871 58.63 31.1934 59.3091C30.5855 59.7713 29.8299 60.0449 29.0137 60.0449C26.9975 60.0449 25.3604 58.3786 25.3604 56.3265C25.3604 56.1466 25.3967 46.7427 25.3967 46.7427L25.3931 29.5222C25.3834 27.0522 25.3604 20.5743 25.3604 20.4325C25.3604 19.5722 25.6473 18.781 26.1305 18.15C26.4005 17.7975 27.7277 16.438 28.1443 16.1435C28.7352 15.7269 29.4521 15.4828 30.2247 15.4828C31.0735 15.4828 31.8558 15.7787 32.477 16.2742C33.3295 16.9557 53.3692 30.9519 54.4203 31.7049C56.1943 32.9768 57.3544 35.0783 57.3544 37.4533C57.3544 39.2207 56.7114 40.8365 55.6518 42.0715Z" fill="#000055"/>
<path fill-rule="evenodd" clip-rule="evenodd" d="M25.3722 44.5434L25.3722 28.4015C25.3722 28.4015 25.334 18.4134 25.334 18.2334C25.334 16.1813 27.0003 14.5162 29.0524 14.5162C29.9176 14.5162 30.7138 14.812 31.3449 15.3075C32.2125 15.989 52.6091 29.9852 53.6801 30.7383C55.4857 32.0102 56.6665 34.1116 56.6665 36.4866C56.6665 38.7408 55.6016 40.7485 53.9476 42.0352C52.7582 42.9608 32.1817 56.4308 31.2721 57.1099C30.6522 57.5721 29.8844 57.8457 29.0524 57.8457C27.0003 57.8457 25.334 56.1794 25.334 54.1273C25.334 53.9473 25.3722 44.5434 25.3722 44.5434Z" fill="#FFD300"/>
<path fill-rule="evenodd" clip-rule="evenodd" d="M28.1946 44.1989C28.1946 44.1989 28.1582 53.1449 28.1582 53.3162C28.1582 54.1225 28.813 54.7773 29.6193 54.7773C29.9455 54.7773 30.2471 54.6706 30.4901 54.4887C31.355 53.8444 50.9171 41.0409 52.0484 40.1607C53.1339 39.3169 53.8333 37.999 53.8333 36.5191C53.8333 34.9594 53.0576 33.5805 51.8712 32.7461C50.849 32.0255 31.3479 18.6387 30.5182 17.9885C30.2706 17.7937 29.9584 17.6776 29.6193 17.6776C28.813 17.6776 28.1582 18.3325 28.1582 19.1387C28.1582 19.3101 28.1946 28.8123 28.1946 28.8123C28.2229 37.2636 28.2096 39.7099 28.1946 44.1989Z" stroke="#FFF0A9" stroke-miterlimit="2" stroke-linejoin="round"/>
<path fill-rule="evenodd" clip-rule="evenodd" d="M37.3717 5.88509C28.7367 5.85571 20.9023 9.33958 15.2223 14.9853C9.52516 20.6457 5.99481 28.4802 5.96788 37.1373C5.94584 45.8115 9.44912 53.6802 15.1267 59.3822C20.814 65.094 28.6828 68.6293 37.3717 68.644C46.0655 68.644 53.9588 65.1185 59.6388 59.4092C65.3432 53.7047 68.8443 45.8237 68.8198 37.1373C68.7953 28.4704 65.2452 20.6286 59.5407 14.9657C53.8608 9.32246 46.0117 5.84592 37.3717 5.88509ZM37.3717 6.74934C45.7423 6.78606 53.3222 10.2161 58.7819 15.7296C64.217 21.2259 67.5955 28.7936 67.571 37.1373C67.5465 45.4614 64.1435 52.9873 58.6838 58.4421C53.2242 63.8895 45.686 67.2705 37.3717 67.2681C29.05 67.2828 21.5094 63.9164 16.04 58.469C10.5607 53.0143 7.15762 45.4712 7.13559 37.1373C7.1111 28.7838 10.4825 21.2064 15.9446 15.71C21.4189 10.1989 28.9962 6.77627 37.3717 6.74934Z" fill="#31825A"/>
<path fill-rule="evenodd" clip-rule="evenodd" d="M36.7493 5.49433C28.151 5.47474 20.3533 8.94638 14.7027 14.575C9.03742 20.2109 5.52647 28.0086 5.50688 36.6216C5.49219 45.2493 8.97871 53.0716 14.6293 58.7417C20.2873 64.4168 28.1094 67.9301 36.7493 67.9423C45.3917 67.9399 53.214 64.4364 58.894 58.7613C64.5495 53.0911 68.0505 45.2567 68.026 36.6216C68.0015 27.9988 64.4761 20.1962 58.8206 14.5578C53.1651 8.93415 45.3501 5.46495 36.7493 5.49433ZM36.7493 6.10639C45.1591 6.13577 52.7732 9.57315 58.2573 15.1062C63.7414 20.6271 67.1446 28.2314 67.1201 36.6216C67.0956 44.9947 63.6925 52.5696 58.1839 58.0587C52.6998 63.5403 45.1175 66.941 36.7493 66.941C28.3787 66.9532 20.7914 63.56 15.2902 58.0783C9.784 52.5893 6.36633 45.0045 6.34919 36.6216C6.33205 28.2241 9.72523 20.6124 15.2192 15.0915C20.7229 9.55844 28.3371 6.12843 36.7493 6.10639Z" fill="#BEE6D3"/>
</svg>
