<svg width="82" height="81" viewBox="0 0 82 81" fill="none" xmlns="http://www.w3.org/2000/svg">
<path d="M41.1112 78.9803C62.5089 78.9803 79.8551 61.634 79.8551 40.2362C79.8551 18.8385 62.5089 1.49219 41.1112 1.49219C19.7134 1.49219 2.36719 18.8385 2.36719 40.2362C2.36719 61.634 19.7134 78.9803 41.1112 78.9803Z" fill="#14143C"/>
<path fill-rule="evenodd" clip-rule="evenodd" d="M41.1119 0.421749C30.0967 0.344805 20.0908 4.76133 12.8151 11.9386C5.50545 19.1528 0.965947 29.1616 0.895159 40.2353C0.833604 51.3551 5.30252 61.4563 12.5629 68.7843C19.851 76.137 29.952 80.6859 41.1119 80.729C52.284 80.7259 62.4252 76.2048 69.7195 68.8551C77.0445 61.524 81.5071 51.3859 81.4455 40.2353C81.3532 29.137 76.7983 19.1036 69.4733 11.8832C62.1791 4.71518 52.1394 0.317106 41.1119 0.421749ZM41.1119 1.48971C62.4867 1.48971 79.845 18.8512 79.845 40.2353C79.845 61.6194 62.4867 78.9778 41.1119 78.9778C19.7278 78.9778 2.3664 61.6194 2.3664 40.2353C2.3664 18.8512 19.7278 1.48971 41.1119 1.48971Z" fill="#31825A"/>
<path d="M40.7853 74.8539C60.5133 74.8539 76.5061 58.8611 76.5061 39.133C76.5061 19.4049 60.5133 3.41211 40.7853 3.41211C21.0572 3.41211 5.06445 19.4049 5.06445 39.133C5.06445 58.8611 21.0572 74.8539 40.7853 74.8539Z" fill="#31825A"/>
<path d="M70.8221 45.9434C74.1972 50.2679 76.9334 47.5992 76.9334 39.9826C76.9334 32.3661 74.1972 22.6859 70.8221 18.3613C67.4469 14.0368 64.7109 16.7057 64.7109 24.3222C64.7109 31.9388 67.4469 41.6188 70.8221 45.9434Z" fill="#BEE6D3"/>
<path fill-rule="evenodd" clip-rule="evenodd" d="M40.7851 2.53061C30.6607 2.47102 21.4669 6.53444 14.7872 13.1346C8.07917 19.7661 3.91069 28.9627 3.85394 39.1325C3.8057 49.3422 7.9119 58.6125 14.5802 65.3376C21.2712 72.0825 30.5443 76.2566 40.7851 76.2906C51.0373 76.2878 60.3502 72.1364 67.0469 65.3972C73.7436 58.6664 77.8582 49.3677 77.8014 39.1325C77.7447 28.94 73.5734 19.7235 66.8199 13.0892C60.1232 6.4947 50.9181 2.44549 40.7851 2.53061ZM40.7851 3.41026C60.4921 3.41026 76.496 19.417 76.496 39.1325C76.496 58.848 60.4921 74.852 40.7851 74.852C21.0696 74.852 5.06296 58.848 5.06296 39.1325C5.06296 19.417 21.0696 3.41026 40.7851 3.41026Z" fill="#14143C"/>
</svg>
