<svg width="648" height="527" viewBox="0 0 648 527" fill="none" xmlns="http://www.w3.org/2000/svg">
<path d="M283 527L25.2949 417H632.376L491.472 527H283Z" fill="url(#paint0_linear_330_1243)"/>
<path fill-rule="evenodd" clip-rule="evenodd" d="M618.218 0.896484C623.82 0.896484 629.323 3.70265 633.441 6.88075C638.193 10.547 645.774 28.0946 646.655 30.5156C647.525 32.9166 647.999 35.5069 647.999 38.2101V395.539C647.999 408.016 637.871 418.144 625.394 418.144H31.5789C23.8113 418.144 16.9504 414.216 12.8823 408.238C10.8931 405.319 3.87601 393.968 3.04578 392.069C1.83033 389.296 1.79688 384.052 1.79688 380.834V23.5018C1.79688 11.0252 11.9257 0.896484 24.4023 0.896484H618.218Z" fill="#B7004A"/>
<path fill-rule="evenodd" clip-rule="evenodd" d="M640.734 23.5333C640.734 11.0576 630.605 0.928711 618.129 0.928711H23.5709C11.0944 0.928711 0.96582 11.0576 0.96582 23.5333V383.84C0.96582 396.316 11.0944 406.445 23.5709 406.445H618.129C630.605 406.445 640.734 396.316 640.734 383.84V23.5333Z" fill="#FF267E"/>
<path fill-rule="evenodd" clip-rule="evenodd" d="M612.057 13.2422C621.276 13.2422 628.758 20.7242 628.758 29.943V371.347C628.758 380.566 621.276 388.048 612.057 388.048H33.1061C23.8873 388.048 16.4053 380.566 16.4053 371.347V56.3608C20.2044 58.1109 24.4354 59.0905 28.8921 59.0905C45.3936 59.0905 58.7899 45.694 58.7899 29.1925C58.7899 23.3311 57.0997 17.8616 54.1773 13.2422H612.057Z" fill="#FF9CC4"/>
<path fill-rule="evenodd" clip-rule="evenodd" d="M612.057 13.2423C612.057 13.2423 389.116 12.8803 335.324 12.5582C306.701 12.3855 274.157 12.2261 241.609 12.1099C215.978 12.0202 190.347 11.9638 166.636 11.9405C103.642 11.8741 54.1769 11.9637 54.1769 11.9637L53.0944 13.9231C54.5191 16.1713 55.638 18.6288 56.3952 21.2424C57.1258 23.7662 57.5211 26.4329 57.5244 29.1926C57.5311 37.0963 54.3263 44.2595 49.1457 49.4467C43.965 54.6406 36.8021 57.8586 28.8917 57.8652C26.7863 57.8652 24.7373 57.6394 22.7614 57.211C20.7223 56.7693 18.7629 56.1085 16.9131 55.2583L15.1895 54.4646V56.3609L15.3921 371.347C15.3988 376.232 17.3847 380.659 20.5927 383.857C23.8007 387.055 28.224 389.034 33.1058 389.028L612.057 388.466C616.779 388.46 621.054 386.54 624.149 383.439C627.237 380.34 629.147 376.063 629.14 371.347L628.801 29.9431C628.791 25.3237 626.912 21.146 623.88 18.1207C620.851 15.102 616.67 13.2323 612.057 13.2423ZM612.057 13.2423C616.663 13.2489 620.834 15.1252 623.85 18.1506C626.862 21.1726 628.725 25.3403 628.718 29.9431L628.38 371.347C628.373 375.85 626.54 379.925 623.581 382.871C620.629 385.816 616.554 387.636 612.057 387.63L33.1058 387.072C28.7687 387.065 24.8436 385.298 22.0009 382.452C19.1648 379.606 17.4112 375.681 17.4145 371.347L17.6172 58.194C19.105 58.7752 20.6492 59.2467 22.2399 59.5954C24.3819 60.0637 26.6103 60.3127 28.8917 60.316C37.4829 60.3227 45.267 56.8391 50.9092 51.2102C56.5514 45.5746 60.0484 37.7904 60.055 29.1926C60.0583 26.1905 59.6331 23.2847 58.8427 20.535C58.235 18.4329 57.4116 16.4204 56.3988 14.5242C66.6836 14.5408 111.472 14.6005 166.636 14.5408C190.347 14.5175 215.978 14.4611 241.609 14.3714C274.157 14.2552 306.701 14.0991 335.324 13.9264C389.116 13.601 612.057 13.2423 612.057 13.2423Z" fill="#B7004A"/>
<path d="M29.6059 11.4501C20.4724 11.4501 13.0683 18.8543 13.0683 27.9877C13.0683 37.1212 20.4724 44.5254 29.6059 44.5254C38.7394 44.5254 46.1436 37.1212 46.1436 27.9877C46.1436 18.8543 38.7394 11.4501 29.6059 11.4501Z" fill="#FF9CC4"/>
<path d="M17.6982 25.7693H24.3028L29.4519 16.8359L34.6011 25.7693H41.2057L36.0566 34.7211H22.8474L17.6982 25.7693ZM34.6011 25.7693H24.3028L29.4519 34.7211L34.6011 25.7693Z" fill="#B7004A"/>
<path fill-rule="evenodd" clip-rule="evenodd" d="M29.6063 44.6974C34.239 44.7529 38.4546 42.9141 41.5287 39.9106C44.6305 36.88 46.5649 32.6626 46.6182 27.9879C46.6676 23.275 44.7912 18.9873 41.7297 15.8655C38.6453 12.719 34.3549 10.7656 29.6063 10.7225C24.8297 10.6904 20.4841 12.5995 17.3396 15.7213C15.7356 17.3136 14.4426 19.2227 13.5694 21.3462C12.7275 23.3921 12.28 25.6388 12.2967 27.9879C12.3748 32.7365 14.3343 37.0328 17.52 40.0745C20.6519 43.0657 24.9401 44.8367 29.6063 44.6974ZM29.6063 44.3536C25.1414 44.2217 21.1708 42.2818 18.3093 39.2858C15.5026 36.3464 13.7685 32.3692 13.8407 27.9879C13.8557 25.8545 14.304 23.8271 15.0803 21.9723C15.8838 20.0546 17.0467 18.3255 18.4897 16.8724C21.3335 14.007 25.2553 12.2076 29.6063 12.1792C33.9853 12.1398 37.9655 13.8849 40.866 16.7282C43.7897 19.5961 45.6232 23.5745 45.6696 27.9879C45.7202 32.4419 43.9541 36.4942 41.067 39.4497C38.1527 42.4322 34.1014 44.3006 29.6063 44.3536Z" fill="#B7004A"/>
<path fill-rule="evenodd" clip-rule="evenodd" d="M641.326 23.5335C641.332 17.1291 638.735 11.3274 634.539 7.12328C630.34 2.91632 624.536 0.311013 618.129 0.30515L23.5711 1.79579e-06C17.0746 -0.00251082 11.1894 2.63183 6.92633 6.89072C2.66326 11.1507 0.025148 17.0369 0.0223562 23.5335L0 382.352C0 388.857 2.64104 394.747 6.9097 399.013C11.1756 403.279 17.0662 405.917 23.5711 405.915L618.129 405.716C624.575 405.711 630.413 403.092 634.64 398.862C638.864 394.633 641.477 388.795 641.471 382.352L641.326 23.5335ZM640.142 23.5335L639.997 382.352C639.991 388.385 637.54 393.848 633.581 397.802C629.623 401.755 624.159 404.2 618.129 404.195L23.5711 403.997C17.5966 403.997 12.1862 401.571 8.26934 397.651C4.35524 393.734 1.92911 388.323 1.9319 382.352L1.90955 23.5335C1.90675 17.5562 4.32996 12.1379 8.25244 8.21486C12.1721 4.29043 17.591 1.86017 23.5711 1.85766L618.129 1.55251C624.198 1.54693 629.695 4.00567 633.682 7.9823C637.669 11.9617 640.137 17.4613 640.142 23.5335Z" fill="#FF9CC4"/>
<defs>
<linearGradient id="paint0_linear_330_1243" x1="322.065" y1="404.724" x2="322.065" y2="509.997" gradientUnits="userSpaceOnUse">
<stop stop-color="#FF267E"/>
<stop offset="1" stop-color="#FF267E" stop-opacity="0"/>
</linearGradient>
</defs>
</svg>
