<svg width="871" height="523" viewBox="0 0 871 523" fill="none" xmlns="http://www.w3.org/2000/svg">
<path d="M333 523L34 398H850L613.215 523H333Z" fill="url(#paint0_linear_330_701)"/>
<path fill-rule="evenodd" clip-rule="evenodd" d="M830.97 1.2041C838.5 1.2041 845.896 4.97597 851.431 9.24777C857.819 14.1757 868.01 37.7621 869.193 41.0162C870.362 44.2435 871 47.7252 871 51.3587V370.361C871 387.131 857.386 400.746 840.616 400.746H42.4472C32.0065 400.746 22.7845 395.465 17.3164 387.43C14.6426 383.507 5.21065 368.25 4.09471 365.696C2.46098 361.969 2.41602 354.921 2.41602 350.596V31.5888C2.41602 14.8185 16.0306 1.2041 32.8009 1.2041H830.97Z" fill="#B7004A"/>
<path fill-rule="evenodd" clip-rule="evenodd" d="M861.233 31.6318C861.233 14.8627 847.619 1.24805 830.849 1.24805H31.6822C14.912 1.24805 1.29785 14.8627 1.29785 31.6318V354.636C1.29785 371.406 14.912 385.021 31.6822 385.021H830.849C847.619 385.021 861.233 371.406 861.233 354.636V31.6318Z" fill="#FF267E"/>
<path fill-rule="evenodd" clip-rule="evenodd" d="M822.688 17.7998C835.079 17.7998 845.136 27.8566 845.136 40.248V341.878C845.136 354.269 835.079 364.326 822.688 364.326H44.498C32.1066 364.326 22.0498 354.269 22.0498 341.878V75.7571C27.1563 78.1095 32.8434 79.4263 38.8337 79.4263C61.0141 79.4263 79.0205 61.4195 79.0205 39.2392C79.0205 31.3607 76.7486 24.0089 72.8205 17.7998H822.688Z" fill="#FF9CC4"/>
<path fill-rule="evenodd" clip-rule="evenodd" d="M822.688 17.8003C822.688 17.8003 523.024 17.3137 450.721 16.8808C412.248 16.6486 368.503 16.4344 324.754 16.2782C290.303 16.1576 255.852 16.0818 223.981 16.0505C139.308 15.9612 72.8205 16.0817 72.8205 16.0817L71.3654 18.7154C73.2804 21.7373 74.7844 25.0405 75.8022 28.5535C76.7842 31.9459 77.3155 35.5303 77.32 39.2396C77.3289 49.8633 73.0212 59.4916 66.0578 66.464C59.0943 73.4453 49.4664 77.7706 38.8337 77.7796C36.0037 77.7796 33.2496 77.476 30.5937 76.9002C27.853 76.3065 25.2192 75.4183 22.7329 74.2755L20.416 73.2087V75.7575L20.6885 341.878C20.6974 348.444 23.3668 354.395 27.6788 358.693C31.9907 362.992 37.9363 365.652 44.498 365.643L822.688 364.889C829.035 364.88 834.78 362.3 838.94 358.131C843.091 353.966 845.658 348.217 845.649 341.878L845.194 40.2484C845.18 34.0394 842.654 28.424 838.579 24.3575C834.508 20.3 828.888 17.7869 822.688 17.8003ZM822.688 17.8003C828.879 17.8092 834.485 20.3312 838.538 24.3977C842.587 28.4597 845.091 34.0617 845.082 40.2484L844.627 341.878C844.618 347.931 842.154 353.408 838.177 357.367C834.209 361.327 828.732 363.773 822.688 363.764L44.498 363.014C38.6683 363.005 33.3924 360.63 29.5715 356.805C25.7594 352.979 23.4023 347.703 23.4068 341.878L23.6793 78.2215C25.679 79.0027 27.7546 79.6365 29.8927 80.1052C32.7719 80.7346 35.7672 81.0693 38.8337 81.0738C50.3814 81.0827 60.8444 76.4003 68.4283 68.8343C76.0122 61.2593 80.7125 50.7963 80.7214 39.2396C80.7259 35.2044 80.1544 31.2987 79.092 27.6027C78.2751 24.7771 77.1684 22.0721 75.807 19.5233C89.6312 19.5456 149.833 19.626 223.981 19.5456C255.852 19.5144 290.303 19.4385 324.754 19.3179C368.503 19.1617 412.248 18.9519 450.721 18.7198C523.024 18.2824 822.688 17.8003 822.688 17.8003Z" fill="#B7004A"/>
<path d="M39.7936 15.391C27.517 15.391 17.5648 25.3431 17.5648 37.6198C17.5648 49.8964 27.517 59.8486 39.7936 59.8486C52.0703 59.8486 62.0225 49.8964 62.0225 37.6198C62.0225 25.3431 52.0703 15.391 39.7936 15.391Z" fill="#FF9CC4"/>
<path d="M23.7881 34.6365H32.6656L39.5866 22.6289L46.5078 34.6365H55.3853L48.4642 46.669H30.7092L23.7881 34.6365ZM46.5078 34.6365H32.6656L39.5866 46.669L46.5078 34.6365Z" fill="#B7004A"/>
<path fill-rule="evenodd" clip-rule="evenodd" d="M39.7945 60.0796C46.0215 60.1541 51.6878 57.6825 55.8198 53.6454C59.9891 49.5719 62.5893 43.9031 62.6608 37.6196C62.7273 31.2849 60.2051 25.5216 56.09 21.3255C51.9442 17.0963 46.1773 14.4706 39.7945 14.4126C33.3741 14.3695 27.533 16.9356 23.3064 21.1317C21.1504 23.272 19.4125 25.838 18.2388 28.6923C17.1072 31.4422 16.5057 34.4622 16.528 37.6196C16.6331 44.0024 19.2669 49.7773 23.549 53.8657C27.7587 57.8863 33.5226 60.2668 39.7945 60.0796ZM39.7945 59.6174C33.7931 59.4401 28.4561 56.8327 24.6098 52.8055C20.8373 48.8546 18.5063 43.5088 18.6034 37.6196C18.6236 34.7521 19.2261 32.027 20.2696 29.5339C21.3497 26.9562 22.9127 24.6321 24.8523 22.6789C28.6747 18.8274 33.9461 16.4088 39.7945 16.3707C45.6805 16.3177 51.0305 18.6634 54.9291 22.4851C58.859 26.34 61.3235 31.6874 61.3858 37.6196C61.4538 43.6065 59.08 49.0534 55.1993 53.0258C51.2821 57.0348 45.8366 59.5462 39.7945 59.6174Z" fill="#B7004A"/>
<path fill-rule="evenodd" clip-rule="evenodd" d="M862.03 31.6322C862.037 23.0238 858.547 15.2256 852.907 9.57466C847.263 3.91993 839.461 0.418044 830.849 0.410163L31.6827 2.41378e-06C22.9505 -0.00337489 15.0401 3.53754 9.30993 9.26206C3.57978 14.9881 0.0338023 22.9 0.0300498 31.6322L0 352.637C0 361.38 3.54992 369.298 9.28758 375.032C15.0215 380.766 22.9393 384.312 31.6827 384.308L830.849 384.042C839.514 384.034 847.361 380.514 853.042 374.829C858.72 369.144 862.232 361.297 862.224 352.637L862.03 31.6322ZM860.438 31.6322L860.243 352.637C860.236 360.746 856.941 368.09 851.62 373.403C846.299 378.717 838.955 382.004 830.849 381.997L31.6827 381.73C23.6523 381.73 16.38 378.469 11.1151 373.201C5.85403 367.936 2.59299 360.663 2.59674 352.637L2.56669 31.6322C2.56294 23.5979 5.82006 16.315 11.0924 11.0419C16.361 5.76693 23.6447 2.50033 31.6827 2.49695L830.849 2.08679C839.007 2.07928 846.396 5.38416 851.755 10.7293C857.114 16.0782 860.431 23.4704 860.438 31.6322Z" fill="#FF9CC4"/>
<defs>
<linearGradient id="paint0_linear_330_701" x1="432.899" y1="381.5" x2="432.899" y2="523" gradientUnits="userSpaceOnUse">
<stop stop-color="#FF267E"/>
<stop offset="1" stop-color="#FF267E" stop-opacity="0"/>
</linearGradient>
</defs>
</svg>
